<svg width="26" height="19" viewBox="0 0 26 19" fill="none" xmlns="http://www.w3.org/2000/svg">
<path fill-rule="evenodd" clip-rule="evenodd" d="M12.982 5.578L11.568 4.164C9.87604 2.473 8.36404 2 7.23204 2C6.06204 2 5.05704 2.503 4.39604 3.164C2.80404 4.756 2.50904 6.186 2.72004 7.452C2.95504 8.859 3.87204 10.38 5.29904 11.864C6.73104 13.365 8.40704 14.567 10.018 15.48C10.807 15.931 11.471 16.249 12.08 16.481C12.424 16.615 12.73 16.68 12.889 16.714L12.982 16.734L13.074 16.714C13.233 16.68 13.54 16.615 13.884 16.481C14.492 16.249 15.157 15.931 15.946 15.48C17.557 14.567 19.233 13.365 20.665 11.864C22.092 10.38 23.009 8.859 23.243 7.452C23.454 6.186 23.16 4.756 21.568 3.164C20.8126 2.41802 19.7937 1.9998 18.732 2C17.6 2 16.088 2.473 14.396 4.164L12.982 5.578ZM12.982 2.75C16.982 -1.25 20.982 -0.25 22.982 1.75C30.982 9.75 15.982 18.75 12.982 18.75C9.98204 18.75 -5.01796 9.75 2.98204 1.75C4.98204 -0.25 8.98204 -1.25 12.982 2.75Z" fill="#FAB292"/>
</svg>
