<svg width="144" height="22" viewBox="0 0 144 22" fill="none" xmlns="http://www.w3.org/2000/svg">
<path d="M16.352 16.2372C16.128 16.9839 15.82 17.6372 15.428 18.1972C15.036 18.7385 14.5973 19.2052 14.112 19.5972C13.6267 19.9892 13.104 20.3065 12.544 20.5492C12.0027 20.7919 11.4613 20.9879 10.92 21.1372C9.632 21.4732 8.26 21.6225 6.804 21.5852C5.684 21.6039 4.76 21.4919 4.032 21.2492C3.304 20.9879 2.716 20.6985 2.268 20.3812C1.74533 20.0265 1.32533 19.6252 1.008 19.1772C0.728 18.7105 0.513333 18.1879 0.364 17.6092C0.233333 17.0305 0.14 16.4519 0.0839999 15.8732C0.0279999 15.2759 0 14.6972 0 14.1372C0 13.5585 0 13.0265 0 12.5412C0 11.5519 0.0279999 10.6465 0.0839999 9.8252C0.14 8.9852 0.214667 8.2572 0.308 7.6412C0.382667 6.9132 0.485333 6.25987 0.616 5.6812C0.709333 5.10253 0.868 4.59853 1.092 4.1692C1.316 3.73987 1.568 3.37587 1.848 3.0772C2.14667 2.75987 2.45467 2.49853 2.772 2.2932C3.108 2.08787 3.444 1.9292 3.78 1.8172C4.54533 1.5372 5.39467 1.41587 6.328 1.4532C7.224 1.4532 8.04533 1.51853 8.792 1.6492C9.53867 1.7612 10.2107 1.91987 10.808 2.1252C11.4053 2.31187 11.9373 2.53587 12.404 2.7972C12.8893 3.05853 13.3187 3.31987 13.692 3.5812C14.5507 4.21587 15.2227 4.93453 15.708 5.7372C16.1747 6.53987 16.52 7.46387 16.744 8.5092C16.8373 8.9572 16.912 9.4612 16.968 10.0212C17.0427 10.5625 17.0707 11.1599 17.052 11.8132C17.0333 12.4665 16.968 13.1665 16.856 13.9132C16.7627 14.6412 16.5947 15.4159 16.352 16.2372ZM8.596 10.5252C8.27867 10.5252 8.008 10.6092 7.784 10.7772C7.57867 10.9265 7.476 11.2345 7.476 11.7012C7.476 12.1492 7.57867 12.4385 7.784 12.5692C8.008 12.6812 8.27867 12.7372 8.596 12.7372C8.91333 12.7372 9.17467 12.6439 9.38 12.4572C9.58533 12.2705 9.688 12.0185 9.688 11.7012C9.688 11.4025 9.59467 11.1319 9.408 10.8892C9.22133 10.6465 8.95067 10.5252 8.596 10.5252Z" fill="#E06B38"/>
<path d="M33.1406 18.0292C32.842 18.5705 32.4873 19.0465 32.0766 19.4572C31.6846 19.8492 31.302 20.1759 30.9286 20.4372C30.4993 20.7545 30.0606 21.0065 29.6126 21.1932C29.2393 21.3425 28.8753 21.4545 28.5206 21.5292C28.1846 21.6225 27.886 21.6879 27.6246 21.7252C27.3073 21.7812 27.0273 21.8092 26.7846 21.8092C25.758 21.8092 24.8526 21.7065 24.0686 21.5012C23.3033 21.2959 22.6313 21.0345 22.0526 20.7172C21.474 20.3812 20.9793 19.9985 20.5686 19.5692C20.1766 19.1399 19.8593 18.7012 19.6166 18.2532C19.0006 17.2265 18.6646 16.0412 18.6086 14.6972C18.6086 13.6145 18.7206 12.6812 18.9446 11.8972C19.1873 11.0945 19.4953 10.4132 19.8686 9.8532C20.2606 9.27453 20.6993 8.79854 21.1846 8.4252C21.6886 8.05187 22.1926 7.7532 22.6966 7.5292C23.8913 7.00653 25.254 6.7732 26.7846 6.8292C27.6806 6.8292 28.474 6.93187 29.1646 7.1372C29.8553 7.34253 30.4526 7.6132 30.9566 7.9492C31.4793 8.2852 31.9086 8.66787 32.2446 9.0972C32.5993 9.50787 32.8886 9.9372 33.1126 10.3852C33.6353 11.4119 33.934 12.5879 34.0086 13.9132C34.0086 14.7905 33.9246 15.5652 33.7566 16.2372C33.6073 16.9092 33.402 17.5065 33.1406 18.0292ZM26.6166 13.6052C26.2993 13.6052 26.0193 13.7265 25.7766 13.9692C25.5526 14.2119 25.4593 14.4825 25.4966 14.7812C25.534 15.1732 25.646 15.4439 25.8326 15.5932C26.038 15.7425 26.2993 15.8172 26.6166 15.8172C26.934 15.8172 27.1953 15.7239 27.4006 15.5372C27.606 15.3505 27.7086 15.0985 27.7086 14.7812C27.7086 14.4825 27.6153 14.2119 27.4286 13.9692C27.242 13.7265 26.9713 13.6052 26.6166 13.6052Z" fill="#E06B38"/>
<path d="M44.5349 6.0732C45.2442 5.10253 45.9255 4.4492 46.5789 4.1132C47.2509 3.75853 47.8762 3.5812 48.4549 3.5812C48.8655 3.5812 49.2295 3.64653 49.5469 3.7772C49.8829 3.90787 50.1815 4.04787 50.4429 4.1972C50.7229 4.38387 50.9842 4.57987 51.2269 4.7852C51.5815 5.15853 51.8242 5.5412 51.9549 5.9332C52.1042 6.3252 52.1789 6.72653 52.1789 7.1372C52.1789 7.71587 52.0575 8.26653 51.8149 8.7892C51.5909 9.31187 51.3482 9.77853 51.0869 10.1892C50.7509 10.6745 50.3869 11.1319 49.9949 11.5612C50.5175 11.8972 51.0309 12.3172 51.5349 12.8212C52.0389 13.3252 52.4775 13.8759 52.8509 14.4732C53.2242 15.0519 53.5229 15.6585 53.7469 16.2932C53.9895 16.9279 54.1109 17.5345 54.1109 18.1132C54.1109 18.6172 53.9989 19.0839 53.7749 19.5132C53.5509 19.9425 53.2615 20.3159 52.9069 20.6332C52.5522 20.9319 52.1509 21.1652 51.7029 21.3332C51.2549 21.5012 50.8162 21.5852 50.3869 21.5852C49.7709 21.5852 49.2015 21.4359 48.6789 21.1372C48.1749 20.8385 47.6989 20.4652 47.2509 20.0172C46.8215 19.5692 46.4389 19.0839 46.1029 18.5612C45.7669 18.0199 45.4775 17.5159 45.2349 17.0492C45.0109 16.5825 44.8335 16.1812 44.7029 15.8452C44.5722 15.5092 44.4975 15.3132 44.4789 15.2572C44.4789 15.2945 44.4789 15.3692 44.4789 15.4812C44.4975 15.5932 44.5069 15.7425 44.5069 15.9292C44.5069 16.3585 44.4602 16.8999 44.3669 17.5532C44.2922 18.2065 44.1149 18.8412 43.8349 19.4572C43.5549 20.0732 43.1349 20.6052 42.5749 21.0532C42.0335 21.4825 41.2869 21.6972 40.3349 21.6972C39.5509 21.6972 38.8975 21.5105 38.3749 21.1372C37.8522 20.7452 37.4322 20.3252 37.1149 19.8772C36.7975 19.4105 36.5735 18.9905 36.4429 18.6172C36.3122 18.2252 36.2469 18.0199 36.2469 18.0012C35.9855 16.9372 35.7989 15.8545 35.6869 14.7532C35.5749 13.6519 35.5189 12.5785 35.5189 11.5332C35.5189 10.5252 35.5469 9.58253 35.6029 8.7052C35.6775 7.8092 35.7615 7.03453 35.8549 6.3812C35.9482 5.61587 36.0602 4.90653 36.1909 4.2532C36.2842 3.8612 36.4055 3.4412 36.5549 2.9932C36.7042 2.52653 36.9189 2.0972 37.1989 1.7052C37.4975 1.3132 37.8895 0.986534 38.3749 0.7252C38.8602 0.445201 39.4855 0.305201 40.2509 0.305201C40.9789 0.305201 41.5855 0.445201 42.0709 0.7252C42.5749 1.0052 42.9855 1.35987 43.3029 1.7892C43.6202 2.19987 43.8629 2.6572 44.0309 3.1612C44.1989 3.64653 44.3202 4.10387 44.3949 4.5332C44.4695 4.96253 44.5069 5.32653 44.5069 5.6252C44.5255 5.9052 44.5349 6.05453 44.5349 6.0732Z" fill="#E06B38"/>
<path d="M63.1186 2.7132C63.1559 3.12387 63.0999 3.5252 62.9506 3.9172C62.8199 4.3092 62.6146 4.66387 62.3346 4.9812C62.0732 5.27987 61.7466 5.53187 61.3546 5.7372C60.9626 5.92387 60.5332 6.0452 60.0666 6.1012C59.5812 6.1572 59.1239 6.1292 58.6946 6.0172C58.2839 5.88653 57.9106 5.69987 57.5746 5.4572C57.2386 5.21453 56.9586 4.9252 56.7346 4.5892C56.5292 4.23453 56.3986 3.84253 56.3426 3.4132C56.3052 3.00253 56.3519 2.61053 56.4826 2.2372C56.6319 1.8452 56.8466 1.49987 57.1266 1.2012C57.4066 0.883867 57.7426 0.622534 58.1346 0.4172C58.5266 0.211867 58.9559 0.0811999 59.4226 0.0251995C59.8892 -0.0307998 60.3279 0.00653385 60.7386 0.1372C61.1679 0.249201 61.5506 0.426534 61.8866 0.6692C62.2226 0.911866 62.5026 1.21053 62.7266 1.5652C62.9506 1.91987 63.0812 2.30253 63.1186 2.7132ZM64.3226 18.4492C64.1732 19.2892 63.8839 19.9332 63.4546 20.3812C63.0252 20.8105 62.5866 21.1279 62.1386 21.3332C61.5972 21.5572 61.0186 21.6785 60.4026 21.6972C59.5999 21.7345 58.9466 21.6225 58.4426 21.3612C57.9386 21.1185 57.5372 20.8385 57.2386 20.5212C56.9026 20.1665 56.6319 19.7465 56.4266 19.2612C56.0532 18.2532 55.8292 17.2172 55.7546 16.1532C55.6986 15.0705 55.7172 14.0812 55.8106 13.1852C55.9039 12.1585 56.0719 11.1505 56.3146 10.1612C56.5386 9.30254 56.8652 8.65854 57.2946 8.2292C57.7426 7.7812 58.1812 7.45453 58.6106 7.2492C59.1146 7.0252 59.6466 6.90387 60.2066 6.8852C61.0652 6.84787 61.7559 6.9972 62.2786 7.3332C62.8199 7.65053 63.2492 8.02387 63.5666 8.4532C63.9212 8.93853 64.1826 9.5172 64.3506 10.1892C64.4812 10.8052 64.5839 11.5239 64.6586 12.3452C64.7146 13.0545 64.7239 13.9225 64.6866 14.9492C64.6679 15.9572 64.5466 17.1239 64.3226 18.4492Z" fill="#E06B38"/>
<path d="M94.9379 16.2372C94.7139 16.9839 94.4059 17.6372 94.0139 18.1972C93.6219 18.7385 93.1833 19.2052 92.6979 19.5972C92.2126 19.9892 91.6899 20.3065 91.1299 20.5492C90.5886 20.7919 90.0473 20.9879 89.5059 21.1372C88.2179 21.4732 86.8459 21.6225 85.3899 21.5852C84.2699 21.6039 83.3459 21.4919 82.6179 21.2492C81.8899 20.9879 81.3019 20.6985 80.8539 20.3812C80.3313 20.0265 79.9113 19.6252 79.5939 19.1772C79.3139 18.7105 79.0993 18.1879 78.9499 17.6092C78.8193 17.0305 78.7259 16.4519 78.6699 15.8732C78.6139 15.2759 78.5859 14.6972 78.5859 14.1372C78.5859 13.5585 78.5859 13.0265 78.5859 12.5412C78.5859 11.5519 78.6139 10.6465 78.6699 9.8252C78.7259 8.9852 78.8006 8.2572 78.8939 7.6412C78.9686 6.9132 79.0713 6.25987 79.2019 5.6812C79.2953 5.10253 79.4539 4.59853 79.6779 4.1692C79.9019 3.73987 80.1539 3.37587 80.4339 3.0772C80.7326 2.75987 81.0406 2.49853 81.3579 2.2932C81.6939 2.08787 82.0299 1.9292 82.3659 1.8172C83.1313 1.5372 83.9806 1.41587 84.9139 1.4532C85.8099 1.4532 86.6313 1.51853 87.3779 1.6492C88.1246 1.7612 88.7966 1.91987 89.3939 2.1252C89.9913 2.31187 90.5233 2.53587 90.9899 2.7972C91.4753 3.05853 91.9046 3.31987 92.2779 3.5812C93.1366 4.21587 93.8086 4.93453 94.2939 5.7372C94.7606 6.53987 95.1059 7.46387 95.3299 8.5092C95.4233 8.9572 95.4979 9.4612 95.5539 10.0212C95.6286 10.5625 95.6566 11.1599 95.6379 11.8132C95.6193 12.4665 95.5539 13.1665 95.4419 13.9132C95.3486 14.6412 95.1806 15.4159 94.9379 16.2372ZM87.1819 10.5252C86.8646 10.5252 86.5939 10.6092 86.3699 10.7772C86.1646 10.9265 86.0619 11.2345 86.0619 11.7012C86.0619 12.1492 86.1646 12.4385 86.3699 12.5692C86.5939 12.6812 86.8646 12.7372 87.1819 12.7372C87.4993 12.7372 87.7606 12.6439 87.9659 12.4572C88.1713 12.2705 88.2739 12.0185 88.2739 11.7012C88.2739 11.4025 88.1806 11.1319 87.9939 10.8892C87.8073 10.6465 87.5366 10.5252 87.1819 10.5252Z" fill="#E06B38"/>
<path d="M111.727 18.0292C111.428 18.5705 111.073 19.0465 110.663 19.4572C110.271 19.8492 109.888 20.1759 109.515 20.4372C109.085 20.7545 108.647 21.0065 108.199 21.1932C107.825 21.3425 107.461 21.4545 107.107 21.5292C106.771 21.6225 106.472 21.6879 106.211 21.7252C105.893 21.7812 105.613 21.8092 105.371 21.8092C104.344 21.8092 103.439 21.7065 102.655 21.5012C101.889 21.2959 101.217 21.0345 100.639 20.7172C100.06 20.3812 99.5652 19.9985 99.1546 19.5692C98.7626 19.1399 98.4452 18.7012 98.2026 18.2532C97.5866 17.2265 97.2506 16.0412 97.1946 14.6972C97.1946 13.6145 97.3066 12.6812 97.5306 11.8972C97.7732 11.0945 98.0812 10.4132 98.4546 9.8532C98.8466 9.27453 99.2852 8.79854 99.7706 8.4252C100.275 8.05187 100.779 7.7532 101.283 7.5292C102.477 7.00653 103.84 6.7732 105.371 6.8292C106.267 6.8292 107.06 6.93187 107.751 7.1372C108.441 7.34253 109.039 7.6132 109.543 7.9492C110.065 8.2852 110.495 8.66787 110.831 9.0972C111.185 9.50787 111.475 9.9372 111.699 10.3852C112.221 11.4119 112.52 12.5879 112.595 13.9132C112.595 14.7905 112.511 15.5652 112.343 16.2372C112.193 16.9092 111.988 17.5065 111.727 18.0292ZM105.203 13.6052C104.885 13.6052 104.605 13.7265 104.363 13.9692C104.139 14.2119 104.045 14.4825 104.083 14.7812C104.12 15.1732 104.232 15.4439 104.419 15.5932C104.624 15.7425 104.885 15.8172 105.203 15.8172C105.52 15.8172 105.781 15.7239 105.987 15.5372C106.192 15.3505 106.295 15.0985 106.295 14.7812C106.295 14.4825 106.201 14.2119 106.015 13.9692C105.828 13.7265 105.557 13.6052 105.203 13.6052Z" fill="#E06B38"/>
<path d="M123.121 6.0732C123.83 5.10253 124.511 4.4492 125.165 4.1132C125.837 3.75853 126.462 3.5812 127.041 3.5812C127.451 3.5812 127.815 3.64653 128.133 3.7772C128.469 3.90787 128.767 4.04787 129.029 4.1972C129.309 4.38387 129.57 4.57987 129.813 4.7852C130.167 5.15853 130.41 5.5412 130.541 5.9332C130.69 6.3252 130.765 6.72653 130.765 7.1372C130.765 7.71587 130.643 8.26653 130.401 8.7892C130.177 9.31187 129.934 9.77853 129.673 10.1892C129.337 10.6745 128.973 11.1319 128.581 11.5612C129.103 11.8972 129.617 12.3172 130.121 12.8212C130.625 13.3252 131.063 13.8759 131.437 14.4732C131.81 15.0519 132.109 15.6585 132.333 16.2932C132.575 16.9279 132.697 17.5345 132.697 18.1132C132.697 18.6172 132.585 19.0839 132.361 19.5132C132.137 19.9425 131.847 20.3159 131.493 20.6332C131.138 20.9319 130.737 21.1652 130.289 21.3332C129.841 21.5012 129.402 21.5852 128.973 21.5852C128.357 21.5852 127.787 21.4359 127.265 21.1372C126.761 20.8385 126.285 20.4652 125.837 20.0172C125.407 19.5692 125.025 19.0839 124.689 18.5612C124.353 18.0199 124.063 17.5159 123.821 17.0492C123.597 16.5825 123.419 16.1812 123.289 15.8452C123.158 15.5092 123.083 15.3132 123.065 15.2572C123.065 15.2945 123.065 15.3692 123.065 15.4812C123.083 15.5932 123.093 15.7425 123.093 15.9292C123.093 16.3585 123.046 16.8999 122.953 17.5532C122.878 18.2065 122.701 18.8412 122.421 19.4572C122.141 20.0732 121.721 20.6052 121.161 21.0532C120.619 21.4825 119.873 21.6972 118.921 21.6972C118.137 21.6972 117.483 21.5105 116.961 21.1372C116.438 20.7452 116.018 20.3252 115.701 19.8772C115.383 19.4105 115.159 18.9905 115.029 18.6172C114.898 18.2252 114.833 18.0199 114.833 18.0012C114.571 16.9372 114.385 15.8545 114.273 14.7532C114.161 13.6519 114.105 12.5785 114.105 11.5332C114.105 10.5252 114.133 9.58253 114.189 8.7052C114.263 7.8092 114.347 7.03453 114.441 6.3812C114.534 5.61587 114.646 4.90653 114.777 4.2532C114.87 3.8612 114.991 3.4412 115.141 2.9932C115.29 2.52653 115.505 2.0972 115.785 1.7052C116.083 1.3132 116.475 0.986534 116.961 0.7252C117.446 0.445201 118.071 0.305201 118.837 0.305201C119.565 0.305201 120.171 0.445201 120.657 0.7252C121.161 1.0052 121.571 1.35987 121.889 1.7892C122.206 2.19987 122.449 2.6572 122.617 3.1612C122.785 3.64653 122.906 4.10387 122.981 4.5332C123.055 4.96253 123.093 5.32653 123.093 5.6252C123.111 5.9052 123.121 6.05453 123.121 6.0732Z" fill="#E06B38"/>
<path d="M141.704 2.7132C141.742 3.12387 141.686 3.5252 141.536 3.9172C141.406 4.3092 141.201 4.66387 140.921 4.9812C140.659 5.27987 140.333 5.53187 139.941 5.7372C139.549 5.92387 139.119 6.0452 138.653 6.1012C138.167 6.1572 137.71 6.1292 137.281 6.0172C136.87 5.88653 136.497 5.69987 136.161 5.4572C135.825 5.21453 135.545 4.9252 135.321 4.5892C135.115 4.23453 134.985 3.84253 134.929 3.4132C134.891 3.00253 134.938 2.61053 135.069 2.2372C135.218 1.8452 135.433 1.49987 135.713 1.2012C135.993 0.883867 136.329 0.622534 136.721 0.4172C137.113 0.211867 137.542 0.0811999 138.008 0.0251995C138.475 -0.0307998 138.914 0.00653385 139.325 0.1372C139.754 0.249201 140.137 0.426534 140.473 0.6692C140.809 0.911866 141.089 1.21053 141.312 1.5652C141.536 1.91987 141.667 2.30253 141.704 2.7132ZM142.909 18.4492C142.759 19.2892 142.47 19.9332 142.041 20.3812C141.611 20.8105 141.173 21.1279 140.725 21.3332C140.183 21.5572 139.605 21.6785 138.989 21.6972C138.186 21.7345 137.533 21.6225 137.029 21.3612C136.525 21.1185 136.123 20.8385 135.825 20.5212C135.489 20.1665 135.218 19.7465 135.013 19.2612C134.639 18.2532 134.415 17.2172 134.34 16.1532C134.285 15.0705 134.303 14.0812 134.396 13.1852C134.49 12.1585 134.658 11.1505 134.9 10.1612C135.124 9.30254 135.451 8.65854 135.881 8.2292C136.329 7.7812 136.767 7.45453 137.197 7.2492C137.701 7.0252 138.233 6.90387 138.793 6.8852C139.651 6.84787 140.342 6.9972 140.865 7.3332C141.406 7.65053 141.835 8.02387 142.153 8.4532C142.507 8.93853 142.769 9.5172 142.937 10.1892C143.067 10.8052 143.17 11.5239 143.245 12.3452C143.301 13.0545 143.31 13.9225 143.273 14.9492C143.254 15.9572 143.133 17.1239 142.909 18.4492Z" fill="#E06B38"/>
</svg>
