<svg width="320" height="320" viewBox="0 0 320 320" fill="none" xmlns="http://www.w3.org/2000/svg">
<g opacity="0.2">
<path opacity="0.2" d="M155.58 289C207.646 289 249.855 285.047 249.855 280.172C249.855 275.296 207.646 271.344 155.58 271.344C103.513 271.344 61.3047 275.296 61.3047 280.172C61.3047 285.047 103.513 289 155.58 289Z" fill="#302839"/>
</g>
<path d="M108.822 256.255C85.3582 269.695 63.078 257.425 59.6988 238.844C59.0357 235.194 59.1074 231.3 60.0366 227.313C60.6172 224.859 61.4759 222.48 62.596 220.221C63.6269 218.117 64.683 216.01 65.709 213.898C69.2906 206.527 72.5052 199.174 73.0715 192.312C73.3416 189.055 73.0163 185.904 71.8461 182.917C71.2283 181.371 70.251 179.994 68.9953 178.901C67.5507 177.631 65.8064 176.75 63.927 176.341C63.1167 176.166 62.2876 176.095 61.4596 176.13C56.1763 176.353 51.3818 181.135 53.3169 193.055C56.0272 209.801 37.8194 215.04 31.1287 200.679C30.8325 200.041 30.5663 199.37 30.3175 198.668C30.2371 198.423 30.1529 198.175 30.0726 197.925C25.8948 184.552 30.9554 161.397 51.6142 156.543C52.5599 156.316 53.5443 156.134 54.5627 155.991C55.9247 155.798 57.2966 155.682 58.6718 155.644C61.0797 155.573 63.4881 155.768 65.8532 156.225C82.6343 159.516 93.1979 176.031 87.9059 196.753C85.0629 207.875 73.5613 228.846 78.4313 238.975C79.9733 242.185 84.7038 244.677 90.3094 244.415C90.4527 244.411 90.5998 244.403 90.7479 244.394C94.7902 244.104 99.2546 242.371 103.272 238.452L108.822 256.255Z" fill="#A38DBF"/>
<g opacity="0.15">
<path opacity="0.15" d="M108.82 256.256C85.3576 269.695 63.0736 257.417 59.6973 238.845C62.5325 248.224 77.8673 254.287 90.306 244.414C90.4502 244.414 90.5964 244.403 90.7454 244.391C94.7887 244.101 99.2521 242.368 103.269 238.45L108.82 256.256Z" fill="#302839"/>
</g>
<path d="M236.92 137.28C233.248 173.904 189.683 178.573 169.15 182.654H143.237C129.965 180.016 107.072 177.137 91.5463 165.534C87.7963 162.734 84.48 159.425 81.8258 155.49C79.8703 152.581 78.3352 149.411 77.2656 146.073C76.4761 143.595 75.9187 141.049 75.6007 138.469C75.4716 137.436 75.3748 136.38 75.3103 135.301C75.1167 132.131 75.2212 128.728 75.6481 125.08C76.0188 121.921 78.4378 111.11 81.7358 100.516C82.8577 96.907 84.0812 93.3236 85.3619 90.0789C80.6778 69.2807 78.7699 43.086 85.8091 34.0605C90.3876 28.1916 102.781 34.0818 121.566 50.1756C134.982 44.2708 153.372 43.9224 156.193 43.933C159.015 43.9224 177.404 44.2679 190.817 50.1756C209.601 34.0818 221.995 28.1916 226.573 34.0605C233.613 43.086 231.703 69.2807 227.021 90.0789C232.054 102.856 236.237 120.844 236.734 125.08C237.254 129.5 237.293 133.556 236.92 137.28Z" fill="#A38DBF"/>
<g opacity="0.5">
<path opacity="0.5" d="M231.177 58.386C230.945 50.0729 229.569 43.1247 226.574 39.2876C221.997 33.4187 209.603 39.3089 190.819 55.4027C177.406 49.498 159.017 49.1495 156.195 49.1601C153.373 49.1495 134.984 49.4951 121.567 55.4027C102.782 39.3089 90.3894 33.4187 85.8108 39.2876C82.8168 43.1247 81.4413 50.0729 81.209 58.386C80.9476 47.7982 82.207 38.6807 85.8108 34.0605C90.3894 28.1916 102.782 34.0818 121.567 50.1756C134.984 44.2708 153.373 43.9224 156.195 43.933C159.017 43.9224 177.406 44.2679 190.819 50.1756C209.603 34.0818 221.997 28.1916 226.574 34.0605C230.179 38.6807 231.439 47.7982 231.177 58.386Z" fill="#FFF9F2"/>
</g>
<path d="M236.92 137.28C233.248 173.903 189.683 178.573 169.15 182.654H143.237C129.965 180.016 107.072 177.136 91.5462 165.534C87.7963 162.734 84.4799 159.425 81.8257 155.489C79.8703 152.581 78.3351 149.411 77.2655 146.073C76.476 143.595 75.9187 141.049 75.6006 138.468C107.325 165.714 130.222 153.493 140.461 132.681C144.415 124.646 152.198 123.872 155.578 123.872C158.957 123.872 166.74 124.646 170.69 132.681C181.077 153.79 204.493 166.064 236.92 137.28Z" fill="#F6F4F9"/>
<g opacity="0.15">
<path opacity="0.15" d="M233.329 150.601C221.753 175.17 186.875 179.131 169.151 182.654H143.238C129.966 180.016 107.073 177.136 91.5475 165.534C87.7976 162.734 84.4813 159.425 81.827 155.489C80.783 153.938 79.8576 152.309 79.0586 150.619C80.7382 152.283 82.5331 153.827 84.43 155.239C96.2471 164.072 137.345 168.508 156.187 168.508C175.029 168.508 221.231 162.651 233.329 150.601Z" fill="#302839"/>
</g>
<path d="M108.847 86.7817C107.895 85.2968 114.204 72.0247 126.1 75.9402C130.384 77.3515 130.787 81.5294 127.465 82.4257C124.301 83.2747 122.876 82.5903 117.971 84.3162C115.196 85.2919 109.8 88.2656 108.847 86.7817Z" fill="#302839"/>
<path d="M203.539 86.7817C204.493 85.2968 198.183 72.0247 186.288 75.9402C182.004 77.3515 181.6 81.5294 184.921 82.4257C188.087 83.2747 189.511 82.5903 194.415 84.3162C197.19 85.2919 202.587 88.2656 203.539 86.7817Z" fill="#302839"/>
<path d="M102.21 65.8685C96.4338 72.0278 92.7941 80.6467 92.2801 79.64C92.2231 79.5273 92.173 79.4113 92.1301 79.2925C91.0363 76.4698 89.2261 65.279 89.2532 55.3106C89.261 53.7028 89.3045 52.2828 89.3888 51.0312C89.6153 47.6519 90.0983 45.4875 90.6897 44.1023C91.4235 42.4093 93.0671 41.8924 94.521 42.4635C98.3881 43.9871 109.366 51.2296 112.939 55.8672C113.577 56.6919 107.99 59.7082 102.21 65.8685Z" fill="#5F5173"/>
<path d="M102.21 65.8684C96.4337 72.0277 92.794 80.6467 92.28 79.64C92.223 79.5273 92.1729 79.4112 92.13 79.2924C93.4232 74.0653 96.9699 66.8403 99.6948 61.618C103.414 54.4859 98.3145 48.8057 93.8869 47.0982C92.3691 46.5174 90.5609 49.008 89.3887 51.0272C89.6152 47.648 90.0982 45.4836 90.6896 44.0984C91.4234 42.4054 93.067 41.8885 94.5209 42.4596C98.388 43.9832 109.366 51.2257 112.939 55.8633C113.577 56.6919 107.989 59.7082 102.21 65.8684Z" fill="#5F5173"/>
<path d="M92.4182 81.639H92.3214C91.9554 81.6246 91.5999 81.5124 91.292 81.314C90.984 81.1157 90.7348 80.8385 90.5703 80.5113C89.2732 77.9674 87.3082 65.6633 87.3362 55.3068C87.3517 49.7215 87.8725 45.8099 88.9286 43.3474C90.0301 40.7986 92.6766 39.6797 95.2205 40.6815C99.3112 42.2893 110.554 49.6315 114.458 54.696C114.929 55.3049 115.459 56.5759 113.734 58.2379C113.186 58.7654 112.401 59.3917 111.411 60.1836C109.345 61.8291 106.517 64.0845 103.613 67.1821C100.419 70.5875 97.8699 74.8408 96.1817 77.6547C94.4132 80.6013 93.7898 81.639 92.4182 81.639ZM91.1733 55.3165C91.153 62.77 92.1868 70.8275 93.0841 75.3538C94.8546 72.4044 97.4624 68.1268 100.812 64.5559C103.909 61.2561 106.982 58.8042 109.016 57.1818C109.527 56.7743 110.075 56.3387 110.508 55.9747C106.433 51.6188 97.02 45.5108 93.8179 44.2515C93.4665 44.114 92.8218 44.0085 92.4521 44.8642C91.879 46.2 91.1937 49.103 91.1733 55.3185V55.3165Z" fill="#302839"/>
<path d="M210.378 65.8685C216.153 72.0278 219.793 80.6467 220.307 79.64C220.364 79.5271 220.414 79.4111 220.457 79.2925C221.551 76.4698 223.361 65.279 223.334 55.3106C223.326 53.7028 223.283 52.2828 223.198 51.0312C222.972 47.6519 222.489 45.4875 221.898 44.1023C221.164 42.4093 219.52 41.8924 218.065 42.4635C214.199 43.9871 203.221 51.2296 199.649 55.8672C199.011 56.6919 204.598 59.7082 210.378 65.8685Z" fill="#5F5173"/>
<path d="M210.378 65.8684C216.153 72.0277 219.793 80.6467 220.307 79.64C220.364 79.5271 220.414 79.4111 220.457 79.2924C219.164 74.0653 215.617 66.8403 212.893 61.618C209.173 54.4859 214.273 48.8057 218.7 47.0982C220.218 46.5174 222.025 49.008 223.198 51.0272C222.972 47.648 222.489 45.4836 221.898 44.0984C221.164 42.4054 219.52 41.8885 218.065 42.4596C214.199 43.9832 203.221 51.2257 199.649 55.8633C199.011 56.6919 204.598 59.7082 210.378 65.8684Z" fill="#5F5173"/>
<path d="M220.174 81.6385C218.801 81.6385 218.179 80.6009 216.411 77.6534C214.724 74.8394 212.174 70.587 208.981 67.1807C206.077 64.0831 203.249 61.8287 201.183 60.1822C200.189 59.3903 199.404 58.7641 198.86 58.2365C197.135 56.5745 197.665 55.3035 198.136 54.6946C202.04 49.6301 213.283 42.288 217.373 40.6801C219.919 39.6783 222.567 40.7973 223.665 43.3411C224.723 45.8085 225.244 49.7202 225.26 55.3054C225.288 65.6629 223.324 77.966 222.025 80.5099C221.86 80.837 221.611 81.1141 221.303 81.3124C220.996 81.5107 220.64 81.623 220.275 81.6376L220.174 81.6385ZM202.084 55.9743C202.517 56.3383 203.065 56.7739 203.576 57.1814C205.609 58.8037 208.686 61.2557 211.78 64.5555C215.13 68.1264 217.737 72.404 219.508 75.3534C220.405 70.8271 221.439 62.7696 221.419 55.3161C221.402 49.1026 220.712 46.1996 220.137 44.8618C219.77 44.0119 219.126 44.1155 218.774 44.2539C215.567 45.5104 206.154 51.6213 202.079 55.9743H202.084Z" fill="#302839"/>
<path d="M168.989 181.849C174.543 180.346 180.137 179.242 185.65 177.913C191.168 176.603 196.64 175.196 201.94 173.332C203.261 172.855 204.582 172.383 205.872 171.841C207.181 171.338 208.442 170.74 209.719 170.172C210.355 169.881 210.967 169.551 211.592 169.245C212.218 168.938 212.842 168.626 213.439 168.277L215.253 167.251C215.847 166.893 216.424 166.51 217.01 166.141L217.886 165.584C218.172 165.39 218.447 165.18 218.728 164.98L220.405 163.765L221.997 162.45C222.258 162.228 222.535 162.02 222.786 161.786L223.531 161.077C225.575 159.237 227.316 157.108 228.898 154.896L230.01 153.18C230.101 153.037 230.198 152.896 230.286 152.75L230.525 152.298L231.009 151.396L231.493 150.495C231.571 150.344 231.657 150.196 231.73 150.043L231.93 149.571L232.728 147.689L232.929 147.219L233.088 146.735L233.403 145.761C233.596 145.108 233.851 144.471 234.01 143.805L234.472 141.804L234.704 140.804L234.849 139.784L235.139 137.745C235.162 137.575 235.193 137.406 235.209 137.234L235.241 136.718L235.305 135.686L235.436 133.623C235.436 132.931 235.42 132.238 235.414 131.547L235.383 129.471L235.206 127.395L235.032 125.317L234.89 124.335L234.711 123.315C234.191 120.571 233.549 117.798 232.876 115.051C232.204 112.304 231.477 109.555 230.7 106.823C229.151 101.37 227.435 95.9612 225.39 90.7263L225.196 90.222L225.313 89.6935C227.09 81.7095 228.368 73.5949 229.022 65.457C229.334 61.3915 229.499 57.3124 229.382 53.2662C229.265 49.22 228.898 45.1864 227.919 41.3987C227.435 39.5121 226.748 37.7068 225.817 36.1667C225.706 35.9743 225.583 35.7894 225.449 35.613L225.255 35.3439C225.201 35.2583 225.139 35.1779 225.069 35.1038C224.959 34.9649 224.837 34.8354 224.706 34.7166L224.512 34.5414C224.445 34.4882 224.371 34.4446 224.302 34.3953C223.696 33.9907 222.996 33.7502 222.269 33.6974C221.412 33.6312 220.551 33.6899 219.711 33.8716C218.792 34.0583 217.89 34.3146 217.01 34.6382C215.204 35.2945 213.421 36.1783 211.675 37.1463C208.184 39.0987 204.839 41.4306 201.577 43.8719C198.316 46.3131 195.151 48.9248 192.037 51.5925L191.153 52.3485L190.07 51.8849C187.44 50.7734 184.735 49.8461 181.977 49.1096C179.201 48.3565 176.362 47.7961 173.507 47.3189C170.651 46.8417 167.765 46.497 164.869 46.2541C161.974 46.0111 159.061 45.8533 156.197 45.8398C153.337 45.862 150.414 46.0111 147.525 46.2599C144.637 46.5087 141.746 46.8571 138.89 47.3247C136.033 47.7922 133.195 48.3643 130.421 49.1174C127.662 49.8543 124.958 50.7819 122.328 51.8936L121.235 52.363L120.346 51.6022C117.231 48.9354 114.063 46.3373 110.804 43.8844C107.546 41.4316 104.198 39.1132 100.706 37.1608C98.9641 36.1928 97.1781 35.311 95.3728 34.6557C94.4944 34.3319 93.5925 34.0759 92.675 33.89C91.8368 33.7086 90.9766 33.6502 90.1215 33.7167C89.3984 33.7695 88.7013 34.0089 88.0984 34.4117C88.0297 34.4621 87.9561 34.5085 87.8893 34.5569L87.6957 34.7312C87.5649 34.8486 87.4438 34.9765 87.3337 35.1135C87.2647 35.1878 87.2025 35.2682 87.1478 35.3536L86.9542 35.6217C86.8197 35.7975 86.6971 35.9822 86.5874 36.1744C85.6571 37.7126 84.9737 39.5159 84.4878 41.4016C83.514 45.1874 83.1423 49.2277 83.0281 53.2642C82.9139 57.3007 83.0765 61.3856 83.3901 65.4531C84.0454 73.5842 85.3261 81.7027 87.1023 89.6857L87.2224 90.2239L87.021 90.735C84.966 95.9621 83.2623 101.383 81.7116 106.831C80.9372 109.558 80.2132 112.301 79.5395 115.059C78.8619 117.808 78.224 120.576 77.709 123.321C77.5783 124.008 77.4689 124.682 77.3867 125.322C77.3053 126.013 77.2353 126.705 77.1766 127.397C77.0585 128.781 76.9895 130.165 76.9695 131.549C76.9249 134.303 77.1193 137.056 77.5502 139.777C78.4118 145.192 80.3923 150.396 83.5034 154.878C86.5941 159.373 90.7342 163.12 95.3825 166.115C100.031 169.11 105.172 171.412 110.458 173.278C115.744 175.144 121.23 176.547 126.751 177.817L128.822 178.301L130.901 178.769L135.063 179.728C137.842 180.373 140.628 181.039 143.394 181.845C143.592 181.902 143.762 182.031 143.87 182.207C143.978 182.384 144.015 182.594 143.976 182.796C143.936 182.999 143.821 183.18 143.655 183.302C143.489 183.424 143.282 183.48 143.077 183.457C137.403 182.861 131.721 182.114 126.071 180.994C120.394 179.888 114.803 178.381 109.34 176.484C103.865 174.558 98.4917 172.17 93.5288 168.991C88.5659 165.812 84.0658 161.769 80.6643 156.84C77.2395 151.933 75.0499 146.192 74.1129 140.338C73.6459 137.416 73.4325 134.459 73.475 131.501C73.4924 130.028 73.5631 128.56 73.687 127.097C73.7477 126.367 73.8203 125.638 73.9048 124.91C74.0016 124.135 74.1226 123.398 74.2572 122.683C74.7924 119.81 75.4362 117.014 76.1157 114.215C76.7952 111.417 77.527 108.639 78.3053 105.869C79.8705 100.333 81.5868 94.8344 83.7008 89.4243L83.6195 90.4736C81.792 82.33 80.4745 74.0808 79.7882 65.7445C79.4591 61.5744 79.28 57.383 79.3933 53.1665C79.5065 48.9499 79.8773 44.7053 80.9488 40.4762C81.4938 38.366 82.2585 36.2519 83.4656 34.2481C83.6129 33.993 83.7745 33.7464 83.9496 33.5096L84.2081 33.1456C84.2961 33.0151 84.3931 32.8909 84.4985 32.7739C84.7124 32.5089 84.9464 32.2607 85.1983 32.0315L85.5855 31.6878C85.7201 31.5804 85.8652 31.4836 86.0066 31.3829C87.1478 30.5843 88.5021 30.1632 89.7633 30.0461C90.9709 29.942 92.1872 30.0144 93.3739 30.261C94.4824 30.4821 95.5724 30.7879 96.6341 31.1758C98.7143 31.9288 100.646 32.8881 102.515 33.9181C106.242 35.9954 109.695 38.3979 113.051 40.9001C116.407 43.4024 119.628 46.0508 122.795 48.7515L120.815 48.4611C123.617 47.2669 126.5 46.2707 129.441 45.4797C132.362 44.6821 135.315 44.0926 138.276 43.5921C141.237 43.0917 144.215 42.7306 147.198 42.4712C150.181 42.2118 153.16 42.0424 156.2 42.0298C159.239 42.0511 162.212 42.2166 165.202 42.477C168.193 42.7374 171.16 43.1043 174.123 43.5989C177.086 44.0935 180.038 44.6898 182.956 45.4884C185.897 46.2796 188.779 47.2761 191.581 48.4708L189.613 48.7612C192.78 46.0614 196.009 43.4227 199.357 40.9118C202.705 38.4008 206.166 36.0089 209.892 33.9335C211.753 32.8997 213.689 31.9385 215.763 31.1893C216.824 30.8014 217.913 30.4959 219.021 30.2755C220.206 30.0293 221.42 29.9573 222.626 30.0616C223.97 30.1781 225.261 30.6378 226.375 31.3965C226.516 31.4933 226.666 31.59 226.795 31.7004L227.183 32.0431C227.434 32.2716 227.668 32.5192 227.881 32.7836C227.987 32.9006 228.084 33.0248 228.172 33.1553L228.429 33.5183C228.605 33.7546 228.766 34.0009 228.913 34.2559C230.118 36.2577 230.881 38.3708 231.43 40.4791C232.505 44.7063 232.868 48.9528 232.979 53.1597C233.09 57.3666 232.911 61.5667 232.582 65.7358C231.894 74.0711 230.574 82.3184 228.746 90.4611L228.667 89.4282C230.767 94.8383 232.497 100.334 234.055 105.87C234.837 108.639 235.561 111.42 236.244 114.214C236.927 117.009 237.565 119.81 238.102 122.68L238.291 123.77L238.453 124.907L238.635 127.098L238.814 129.291L238.844 131.497C238.85 132.233 238.868 132.968 238.86 133.704L238.718 135.915L238.645 137.02L238.61 137.573C238.59 137.757 238.558 137.94 238.533 138.123L238.213 140.323L238.051 141.423L237.799 142.509L237.291 144.68C237.116 145.402 236.846 146.101 236.626 146.809L236.279 147.874L236.103 148.405L235.883 148.92L235.005 150.979L234.784 151.494C234.703 151.661 234.611 151.824 234.524 151.989L233.997 152.978L233.469 153.965L233.203 154.458C233.107 154.618 233.002 154.772 232.901 154.929L231.676 156.809C229.945 159.229 228.032 161.542 225.824 163.526L225.014 164.288C224.743 164.541 224.447 164.764 224.164 165.003L222.45 166.411L220.658 167.708C220.357 167.921 220.061 168.142 219.757 168.35L218.827 168.942C218.204 169.329 217.589 169.737 216.96 170.114L215.044 171.192C214.411 171.565 213.754 171.884 213.099 172.211C212.445 172.539 211.797 172.878 211.132 173.179C209.799 173.771 208.477 174.392 207.118 174.911C205.774 175.473 204.408 175.958 203.038 176.449C200.293 177.39 197.528 178.266 194.73 178.982C193.335 179.369 191.929 179.682 190.528 180.025C189.119 180.328 187.711 180.637 186.299 180.905C180.65 182.007 174.973 182.774 169.313 183.461H169.308C169.1 183.488 168.89 183.435 168.721 183.312C168.551 183.19 168.435 183.007 168.394 182.802C168.354 182.597 168.394 182.384 168.505 182.207C168.616 182.029 168.791 181.901 168.993 181.848L168.989 181.849Z" fill="#302839"/>
<path d="M170.235 138.494C170.235 138.494 170.235 147.053 162.581 146.601C157.161 146.284 156.032 141.82 155.951 141.459C155.866 141.82 154.742 146.284 149.317 146.601C141.656 147.053 141.659 138.494 141.659 138.494L155.884 127.401H156.014L170.235 138.494Z" fill="#F6F4F9"/>
<path d="M170.159 138.551C170.159 138.551 167.661 145.063 161.848 143.547C155.23 141.821 156.04 133.927 156.04 133.927H155.795C155.795 133.927 156.575 141.823 149.952 143.523C144.132 145.017 141.66 138.49 141.66 138.49C141.66 138.49 140.03 123.873 155.881 123.873C171.733 123.873 170.159 138.551 170.159 138.551Z" fill="#FFF9F2"/>
<path d="M169.412 140.004C168.288 141.827 165.855 144.593 161.85 143.546C155.228 141.821 156.042 133.926 156.042 133.926H155.803C155.803 133.926 156.583 141.827 149.956 143.525C145.952 144.552 143.528 141.783 142.405 139.952C143.635 140.056 144.874 139.947 146.066 139.629C157.004 136.822 155.717 126.103 155.717 126.103H156.123C156.123 126.103 154.783 136.816 165.712 139.67C166.916 139.998 168.169 140.111 169.412 140.004Z" fill="#F6F4F9"/>
<path d="M142.558 138.154C142.752 138.474 143.007 138.872 143.264 139.208C143.514 139.553 143.784 139.883 144.072 140.197C144.603 140.794 145.232 141.297 145.931 141.684C146.569 142.03 147.273 142.234 147.997 142.28C148.362 142.249 148.721 142.291 149.096 142.183C149.281 142.14 149.468 142.127 149.655 142.075L150.214 141.891C151.706 141.407 152.837 140.357 153.602 138.934C153.992 138.191 154.283 137.4 154.467 136.582C154.575 136.165 154.644 135.732 154.711 135.298C154.778 134.864 154.82 134.401 154.837 134.019V133.946C154.847 133.708 154.945 133.483 155.112 133.314C155.278 133.144 155.502 133.043 155.739 133.029C155.976 133.014 156.21 133.089 156.396 133.237C156.581 133.385 156.705 133.597 156.744 133.832C156.831 134.355 156.878 134.883 156.885 135.413C156.897 135.934 156.874 136.455 156.816 136.973C156.695 138.012 156.475 139.071 156.018 140.079C155.19 142.112 153.361 143.936 151.207 144.643L150.408 144.914C150.131 144.986 149.849 145.043 149.565 145.084C149.009 145.212 148.404 145.181 147.816 145.187C146.63 145.088 145.486 144.698 144.486 144.051C143.555 143.433 142.755 142.639 142.129 141.714C141.831 141.274 141.564 140.814 141.333 140.336C141.096 139.852 140.902 139.35 140.752 138.833C140.686 138.61 140.704 138.371 140.801 138.161C140.899 137.95 141.069 137.781 141.281 137.687C141.494 137.592 141.733 137.578 141.955 137.646C142.177 137.715 142.366 137.861 142.488 138.059L142.558 138.154Z" fill="#302839"/>
<path d="M171.055 138.894C170.905 139.41 170.711 139.912 170.474 140.395C170.241 140.872 169.973 141.331 169.673 141.769C169.043 142.691 168.239 143.48 167.306 144.092C166.303 144.735 165.158 145.12 163.971 145.215C163.386 145.205 162.78 145.236 162.223 145.105C161.939 145.063 161.658 145.006 161.381 144.933L160.583 144.658C158.432 143.942 156.61 142.106 155.79 140.074C155.338 139.065 155.121 138.005 155.005 136.966C154.949 136.448 154.928 135.927 154.942 135.406C154.951 134.876 155 134.347 155.089 133.824C155.129 133.59 155.254 133.379 155.44 133.232C155.626 133.085 155.86 133.012 156.097 133.027C156.334 133.043 156.556 133.145 156.722 133.314C156.888 133.484 156.985 133.709 156.995 133.946V134.021C157.01 134.401 157.059 134.875 157.116 135.299C157.174 135.731 157.254 136.16 157.355 136.584C157.536 137.403 157.824 138.195 158.211 138.939C158.974 140.366 160.101 141.416 161.592 141.91L162.149 142.095C162.336 142.15 162.524 142.162 162.709 142.207C163.084 142.314 163.442 142.274 163.808 142.304C164.531 142.261 165.237 142.06 165.875 141.716C166.576 141.331 167.206 140.831 167.741 140.237C168.029 139.923 168.3 139.594 168.553 139.251C168.81 138.916 169.064 138.519 169.262 138.199L169.32 138.103C169.443 137.906 169.633 137.76 169.855 137.692C170.077 137.625 170.316 137.64 170.528 137.735C170.74 137.831 170.909 137.999 171.006 138.21C171.103 138.421 171.12 138.66 171.054 138.883L171.055 138.894Z" fill="#302839"/>
<path d="M163.903 129.802C163.903 131.67 161.459 133.315 159.221 134.432C158.09 135.008 156.839 135.307 155.57 135.304C154.301 135.302 153.05 134.998 151.922 134.417C149.687 133.292 147.254 131.637 147.258 129.771C147.268 124.137 163.914 124.17 163.903 129.802Z" fill="#302839"/>
<g opacity="0.5">
<path opacity="0.5" d="M158.882 128.689C158.882 129.228 157.914 129.701 157.026 130.023C156.091 130.36 155.066 130.358 154.132 130.017C153.246 129.693 152.281 129.214 152.282 128.676C152.285 127.052 158.885 127.065 158.882 128.689Z" fill="#FFF9F2"/>
</g>
<path d="M85.3124 134.477C84.9959 134.295 84.628 134.1 84.2747 133.919C83.9214 133.738 83.5604 133.551 83.1954 133.378C82.8305 133.204 82.4685 133.03 82.0939 132.872C81.7192 132.714 81.3601 132.536 80.9845 132.388C79.4851 131.776 77.978 131.186 76.435 130.701C73.3539 129.717 70.2099 128.906 67.0039 128.418C66.2073 128.268 65.3961 128.216 64.5936 128.101L63.3865 127.95C62.9839 127.904 62.5783 127.894 62.1737 127.864C61.3634 127.814 60.5542 127.761 59.744 127.699L57.3066 127.67C55.6775 127.599 54.0571 127.792 52.4251 127.834L51.8133 127.86L51.2054 127.927L49.9867 128.059L47.5454 128.311L47.4883 128.317C47.2699 128.343 47.05 128.282 46.8757 128.148C46.7014 128.013 46.5864 127.816 46.5553 127.599C46.5243 127.381 46.5795 127.16 46.7094 126.982C46.8392 126.804 47.0333 126.685 47.2502 126.648L49.7292 126.195L50.9731 125.977L51.5955 125.868L52.2228 125.8C53.0601 125.703 53.8983 125.625 54.7395 125.547C55.1596 125.515 55.5788 125.451 55.9979 125.444L57.2631 125.406C58.1071 125.384 58.9512 125.35 59.7963 125.338L62.3305 125.435C62.7525 125.458 63.1765 125.461 63.5976 125.501L64.8559 125.633C65.6962 125.729 66.5431 125.787 67.3727 125.935L69.8769 126.362C70.7094 126.521 71.5312 126.729 72.3569 126.921C73.1864 127.097 73.9918 127.368 74.8078 127.599C75.6238 127.829 76.4215 128.119 77.2191 128.408C80.4134 129.583 83.4606 131.032 86.2746 133.098C86.4479 133.226 86.5658 133.415 86.6041 133.627C86.6425 133.839 86.5984 134.057 86.4809 134.238C86.3634 134.418 86.1813 134.547 85.972 134.597C85.7627 134.648 85.542 134.617 85.355 134.51L85.3124 134.477Z" fill="#302839"/>
<path d="M87.4574 147.123C86.0761 146.958 84.6192 146.845 83.1982 146.786C81.7772 146.727 80.3349 146.703 78.9062 146.734C76.0516 146.806 73.2028 147.037 70.417 147.58C69.025 147.842 67.6492 148.183 66.2962 148.601C65.6186 148.795 64.9575 149.05 64.2886 149.279C63.6352 149.544 62.9693 149.784 62.3343 150.09C59.7471 151.242 57.3309 152.745 55.1537 154.556L55.1402 154.567C54.9727 154.706 54.7579 154.775 54.5406 154.76C54.3234 154.745 54.1204 154.646 53.974 154.485C53.8277 154.324 53.7493 154.112 53.7552 153.894C53.7611 153.677 53.8508 153.469 54.0057 153.316C56.1519 151.167 58.6337 149.381 61.3537 148.028C62.7074 147.343 64.1107 146.76 65.5519 146.286C66.9841 145.799 68.4475 145.409 69.932 145.117C72.8836 144.518 75.8921 144.246 78.9033 144.305C81.9108 144.367 84.868 144.693 87.8204 145.467C88.027 145.522 88.2052 145.653 88.3191 145.833C88.4331 146.014 88.4742 146.232 88.4343 146.442C88.3945 146.652 88.2765 146.839 88.1042 146.965C87.9319 147.092 87.7181 147.148 87.5058 147.123H87.4574Z" fill="#302839"/>
<path d="M226.102 133.093C228.916 131.028 231.966 129.579 235.159 128.403C235.956 128.113 236.753 127.823 237.569 127.594C238.385 127.366 239.191 127.095 240.02 126.917C240.845 126.723 241.665 126.517 242.5 126.357L245.005 125.93C245.838 125.782 246.685 125.726 247.522 125.628L248.78 125.497C249.201 125.457 249.625 125.454 250.047 125.431L252.581 125.334C253.426 125.346 254.271 125.379 255.115 125.402L256.38 125.44C256.802 125.448 257.22 125.51 257.638 125.543C258.478 125.621 259.318 125.702 260.155 125.796L260.782 125.863L261.405 125.973L262.648 126.191L265.127 126.644C265.34 126.684 265.529 126.805 265.655 126.981C265.782 127.158 265.835 127.375 265.805 127.59C265.775 127.805 265.664 127.999 265.494 128.134C265.324 128.269 265.109 128.333 264.893 128.313L264.832 128.307L262.391 128.055L261.174 127.92L260.566 127.854L259.954 127.828C258.323 127.786 256.702 127.592 255.074 127.664L252.637 127.693C251.826 127.755 251.016 127.807 250.206 127.858C249.802 127.888 249.396 127.897 248.993 127.944L247.786 128.095C246.983 128.21 246.172 128.262 245.376 128.411C242.17 128.895 239.027 129.71 235.945 130.695C234.396 131.179 232.892 131.77 231.395 132.382C231.018 132.533 230.658 132.713 230.285 132.866C229.911 133.019 229.544 133.192 229.183 133.371C228.822 133.55 228.455 133.722 228.104 133.912C227.752 134.103 227.384 134.289 227.067 134.471L227.014 134.501C226.827 134.611 226.605 134.645 226.393 134.595C226.182 134.545 225.998 134.416 225.88 134.234C225.761 134.053 225.718 133.832 225.758 133.619C225.798 133.406 225.918 133.216 226.094 133.089L226.102 133.093Z" fill="#302839"/>
<path d="M224.569 145.473C227.521 144.698 230.479 144.369 233.487 144.311C236.498 144.252 239.506 144.524 242.458 145.123C243.942 145.414 245.405 145.805 246.837 146.292C248.279 146.766 249.682 147.349 251.036 148.034C253.756 149.386 256.237 151.173 258.383 153.322C258.539 153.475 258.63 153.682 258.637 153.9C258.644 154.118 258.566 154.33 258.42 154.492C258.273 154.654 258.07 154.754 257.853 154.769C257.635 154.785 257.42 154.715 257.252 154.576L257.236 154.562C255.059 152.751 252.642 151.248 250.055 150.096C249.42 149.79 248.754 149.55 248.101 149.285C247.432 149.058 246.772 148.801 246.093 148.607C244.74 148.188 243.364 147.847 241.972 147.586C239.186 147.043 236.338 146.811 233.483 146.74C232.055 146.709 230.623 146.731 229.192 146.792C227.76 146.853 226.31 146.963 224.933 147.129H224.887C224.674 147.156 224.458 147.101 224.284 146.975C224.11 146.849 223.991 146.661 223.95 146.45C223.91 146.239 223.952 146.02 224.067 145.839C224.183 145.657 224.363 145.527 224.572 145.474L224.569 145.473Z" fill="#302839"/>
<g opacity="0.15">
<path opacity="0.15" d="M79.2075 186.668C78.1766 199.147 69.5828 209.718 65.7109 213.898C69.2924 206.528 72.5042 199.173 73.0734 192.312C73.3425 189.054 73.0163 185.905 71.845 182.922C71.2304 181.375 70.2535 179.998 68.9962 178.906C66.8889 177.05 64.1118 176.015 61.4595 176.132C56.1772 176.355 51.3837 181.137 53.3158 193.058C56.0262 209.804 37.8183 215.043 31.1305 200.682C30.8401 200.046 30.5662 199.371 30.3193 198.67C33.685 201.198 42.0959 205.536 46.7577 200.353C53.3158 193.058 44.3813 180.882 52.9983 171.911C59.5632 165.072 80.5453 170.489 79.2075 186.668Z" fill="#302839"/>
</g>
<path d="M66.0264 170.223C65.8619 170.396 63.7333 169.843 63.7923 170.075C64.042 171.093 64.5018 173.15 63.9278 176.339C63.9166 176.337 63.9051 176.337 63.8939 176.339C63.7333 176.301 63.5774 176.271 63.4167 176.25C63.2773 176.225 63.1379 176.208 62.9986 176.191C62.8882 176.178 62.774 176.166 62.6607 176.157C62.5475 176.148 62.4536 176.14 62.3481 176.137C62.0525 176.12 61.7562 176.118 61.4604 176.132C56.1772 176.355 51.3827 181.137 53.3177 193.057C56.0281 209.803 37.8203 215.042 31.1295 200.681C30.8333 200.043 30.5671 199.372 30.3184 198.67C33.685 201.197 42.0949 205.534 46.7577 200.352C53.3177 193.057 44.3793 180.88 52.9963 171.908C55.7377 169.057 60.9832 168.339 66.0729 169.644C66.1406 169.907 66.1368 170.109 66.0264 170.223Z" fill="#333230"/>
<path d="M63.927 176.339C63.1167 176.165 62.2876 176.094 61.4596 176.128C56.1763 176.352 51.3818 181.134 53.3169 193.053C56.0272 209.799 37.8194 215.038 31.1287 200.677C30.8325 200.039 30.5663 199.368 30.3175 198.667C30.2371 198.422 30.1529 198.173 30.0726 197.923C25.8948 184.551 30.9554 161.395 51.6142 156.542C52.5599 156.314 53.5443 156.132 54.5627 155.989C55.9247 155.796 57.2966 155.68 58.6718 155.643C60.0337 156.494 63.442 159.815 64.3829 163.29C64.5 163.72 62.324 162.882 62.4943 163.339C63.0684 164.877 66.7302 169.476 66.0226 170.222C65.8591 170.394 63.7305 169.842 63.7866 170.073C64.0373 171.095 64.5019 173.15 63.927 176.339Z" fill="#F6F4F9"/>
<g opacity="0.15">
<path opacity="0.15" d="M66.0254 170.223C65.8609 170.396 63.7323 169.843 63.7913 170.075C64.0411 171.093 64.5009 173.15 63.9268 176.339C63.9156 176.337 63.9042 176.337 63.893 176.339C63.7323 176.305 63.5764 176.276 63.4157 176.25C63.2764 176.225 63.137 176.208 62.9976 176.191C62.8872 176.178 62.773 176.166 62.6598 176.157C62.5465 176.148 62.4478 176.14 62.3471 176.137C62.0515 176.12 61.7552 176.118 61.4594 176.132C56.1762 176.355 51.3817 181.137 53.3167 193.057C56.0271 209.803 37.8193 215.042 31.1286 200.681C30.8324 200.043 30.5662 199.372 30.3174 198.67C33.684 201.197 42.0939 205.534 46.7567 200.352C53.3167 193.057 44.3784 180.88 52.9954 171.908C55.7367 169.057 60.9822 168.339 66.0719 169.644C66.1397 169.907 66.1358 170.109 66.0254 170.223Z" fill="#302839"/>
</g>
<path d="M88.7853 263.584C80.5158 263.584 72.7709 260.744 66.7974 255.14C57.1321 246.07 54.8912 232.071 61.0766 219.479C61.4638 218.685 61.8565 217.89 62.2547 217.094C68.0626 205.359 74.0641 193.225 70.2725 183.533C68.7112 179.542 63.907 176.979 59.9935 178.05C55.5581 179.262 53.6851 184.771 54.9832 192.786C56.5484 202.442 51.6726 208.478 46.1474 210.177C40.7267 211.842 33.5026 209.773 29.5948 201.389C25.5002 192.595 26.3172 179.685 31.5811 169.994C34.9294 163.83 41.593 156.108 54.3288 154.312C65.5884 152.729 76.0117 156.248 82.9202 163.967C90.3882 172.308 92.8024 184.41 89.5432 197.169C88.7059 200.445 87.1503 204.521 85.5038 208.836C81.6222 219.007 76.7919 231.664 79.9514 238.237C80.9252 240.263 83.6549 241.942 86.9045 242.517C92.1645 243.448 97.7014 241.524 102.102 237.24C102.423 236.927 102.855 236.754 103.303 236.76C103.751 236.766 104.178 236.95 104.491 237.271C104.804 237.591 104.976 238.023 104.97 238.471C104.964 238.919 104.781 239.347 104.46 239.66C99.2763 244.711 92.663 246.967 86.3217 245.844C81.9658 245.074 78.3629 242.721 76.911 239.701C73.1203 231.818 78.0241 218.968 82.351 207.631C83.9627 203.409 85.4844 199.421 86.2733 196.332C89.2489 184.686 87.1106 173.711 80.4073 166.222C74.2597 159.356 64.9263 156.236 54.8051 157.66C43.4661 159.255 37.5362 166.124 34.5586 171.604C29.2231 181.427 29.5677 193.305 32.6672 199.959C35.7125 206.5 41.1351 208.182 45.16 206.943C48.9826 205.768 52.9775 201.497 51.6533 193.323C49.2779 178.663 56.7585 175.43 59.1068 174.787C64.6795 173.264 71.2357 176.705 73.4243 182.299C77.7599 193.382 71.4196 206.196 65.2884 218.589C64.8954 219.382 64.504 220.175 64.1142 220.967C58.5095 232.369 60.4252 244.518 69.1148 252.672C78.9166 261.868 94.175 262.7 107.985 254.785C108.373 254.574 108.829 254.523 109.254 254.643C109.68 254.763 110.041 255.045 110.261 255.429C110.48 255.812 110.541 256.267 110.43 256.694C110.319 257.122 110.044 257.489 109.666 257.717C102.814 261.642 95.6202 263.584 88.7853 263.584Z" fill="#302839"/>
<path d="M241.507 253.311C241.464 260.728 238.621 266.202 235.081 270.147C229.929 275.891 222.482 279.042 214.769 279.042H97.6157C89.9037 279.042 82.457 275.891 77.3034 270.147C73.7635 266.202 70.9215 260.728 70.8789 253.311C70.8789 252.804 70.8789 252.309 70.9041 251.832C71.4916 237.312 81.9159 236.314 88.3656 240.603C88.5592 240.725 88.7421 240.857 88.9231 240.991L89.4594 240.15C93.7185 233.118 99.1325 232.053 104.147 233.374C111.964 235.423 118.816 243.262 118.816 243.262H193.569C193.569 243.262 199.884 236.035 207.315 233.645C212.581 231.947 218.407 232.681 222.93 240.153L223.459 240.998C223.813 240.736 224.181 240.491 224.561 240.264C231.061 236.368 240.992 237.716 241.49 251.989C241.502 252.415 241.511 252.859 241.507 253.311Z" fill="#A38DBF"/>
<g opacity="0.5">
<path opacity="0.5" d="M92.5126 241.296C92.9599 239.123 97.0844 235.248 100.762 235.695C103.828 236.067 102.288 237.945 99.9419 238.599C96.3681 239.596 92.0654 243.469 92.5126 241.296Z" fill="#C8BBD9"/>
</g>
<g opacity="0.5">
<path opacity="0.5" d="M219.821 241.296C219.374 239.123 215.249 235.248 211.572 235.695C208.505 236.067 210.044 237.945 212.392 238.599C215.969 239.596 220.271 243.469 219.821 241.296Z" fill="#C8BBD9"/>
</g>
<g opacity="0.15">
<path opacity="0.15" d="M241.508 253.311C241.465 260.728 238.622 266.202 235.082 270.147C229.93 275.891 222.483 279.042 214.77 279.042H97.6166C89.9047 279.042 82.458 275.891 77.3044 270.147C73.7645 266.202 70.9225 260.728 70.8799 253.311C70.8799 252.804 70.8799 252.309 70.905 251.832L93.9431 248.242C93.9431 248.242 103.455 261.965 104.536 255.963C104.836 254.299 101.068 245.412 104.144 233.374C104.668 231.333 105.348 229.335 106.177 227.397C109.936 218.588 155.693 227.397 155.693 227.397C155.693 227.397 201.451 218.588 205.209 227.397C206.076 229.419 206.778 231.509 207.309 233.644C210.261 245.551 206.553 254.312 206.849 255.963C207.93 261.965 217.442 248.242 217.442 248.242L241.485 251.989C241.503 252.415 241.512 252.859 241.508 253.311Z" fill="#302839"/>
</g>
<path d="M241.507 253.311C241.465 260.728 238.622 266.202 235.082 270.148C229.929 275.892 222.482 279.042 214.77 279.042H97.6161C89.9042 279.042 82.4574 275.892 77.3039 270.148C73.7639 266.202 70.9219 260.728 70.8793 253.311C70.799 237.383 81.7053 236.178 88.366 240.606C95.3229 246.929 95.2939 254.397 98.9897 257.881C109.511 267.803 123.032 261.011 124.696 243.265C124.945 240.604 124.924 237.693 124.59 234.553C122.005 210.299 156.269 221.679 156.269 221.679C156.269 221.679 190.536 210.299 187.944 234.553C187.622 237.446 187.586 240.364 187.838 243.265C189.507 261.013 203.023 267.805 213.545 257.881C217.312 254.334 217.211 246.658 224.557 240.264C231.251 236.251 241.587 237.801 241.507 253.311Z" fill="#FFF9F2"/>
<path d="M241.507 253.311C241.481 257.754 240.451 261.501 238.867 264.637C237.854 266.632 236.581 268.484 235.082 270.145C229.929 275.889 222.482 279.039 214.77 279.039H97.6161C89.9042 279.039 82.4574 275.889 77.3039 270.145C76.1881 268.905 75.1951 267.559 74.3389 266.128C72.2984 262.706 70.9094 258.48 70.8793 253.308C70.799 237.38 81.7053 236.175 88.366 240.603C95.3229 246.926 95.2939 254.394 98.9897 257.878C99.1707 258.047 99.3527 258.216 99.5346 258.377H99.5424C108.633 266.369 119.724 262.199 123.517 249.471C124.114 247.443 124.509 245.36 124.696 243.254C124.945 240.593 124.924 237.682 124.59 234.542C122.005 210.288 156.269 221.668 156.269 221.668C156.269 221.668 190.536 210.288 187.944 234.542C187.622 237.435 187.586 240.354 187.838 243.254C188.027 245.363 188.422 247.448 189.017 249.48C192.599 261.45 202.622 265.847 211.365 259.663C212.134 259.121 212.863 258.524 213.545 257.876C217.312 254.329 217.211 246.654 224.557 240.259C231.251 236.251 241.587 237.801 241.507 253.311Z" fill="#F6F4F9"/>
<g opacity="0.15">
<path opacity="0.15" d="M238.867 264.643C237.854 266.638 236.581 268.49 235.082 270.151C229.929 275.895 222.482 279.045 214.77 279.045H97.616C89.9041 279.045 82.4574 275.895 77.3038 270.151C76.188 268.91 75.1951 267.565 74.3389 266.133C80.3704 271.075 89.7057 276.638 98.1271 272.917C105.722 269.563 99.4204 258.306 99.4204 258.306L99.5346 258.383H99.5423C108.633 266.374 119.724 262.205 123.517 249.477C137.676 249.38 155.728 251.94 155.728 251.94C155.728 251.94 174.715 249.249 189.017 249.486C192.599 261.456 202.622 265.853 211.365 259.669C209.971 262.774 207.365 270.279 213.329 272.911C222.613 277.019 233.012 269.835 238.867 264.643Z" fill="#302839"/>
</g>
<path d="M212.838 257.223C213.871 256.255 214.553 254.857 215.129 253.367C215.705 251.876 216.212 250.281 216.823 248.696C217.434 247.111 218.138 245.516 219.049 244.002C219.966 242.469 221.058 241.047 222.304 239.765C222.618 239.451 223.043 239.273 223.487 239.27C223.932 239.267 224.36 239.439 224.678 239.748C224.997 240.058 225.181 240.48 225.191 240.924C225.201 241.369 225.036 241.799 224.731 242.122C224.698 242.155 224.665 242.187 224.634 242.219L224.61 242.241C223.458 243.245 222.425 244.378 221.532 245.619C220.623 246.872 219.855 248.256 219.153 249.71C218.451 251.163 217.811 252.684 217.067 254.221C216.688 255.012 216.255 255.776 215.771 256.507L215.383 257.06C215.238 257.239 215.08 257.413 214.929 257.587L214.7 257.847C214.619 257.931 214.524 258.006 214.436 258.085L213.898 258.549C213.732 258.698 213.514 258.776 213.29 258.764C213.067 258.752 212.858 258.652 212.709 258.485C212.56 258.319 212.482 258.1 212.494 257.877C212.506 257.654 212.606 257.445 212.773 257.296L212.838 257.223Z" fill="#302839"/>
<path d="M98.4631 258.544L97.9258 258.079C97.8377 258.001 97.7439 257.926 97.6616 257.842L97.4331 257.576C97.2821 257.402 97.1243 257.228 96.9792 257.05L96.592 256.496C96.1075 255.765 95.6744 255.001 95.2958 254.21C94.5524 252.673 93.9184 251.151 93.2098 249.699C92.5012 248.247 91.7394 246.862 90.8305 245.608C89.9377 244.367 88.9048 243.234 87.7523 242.23L87.731 242.211C87.3928 241.916 87.1857 241.499 87.1553 241.051C87.1249 240.603 87.2736 240.161 87.5689 239.823C87.8641 239.485 88.2816 239.277 88.7295 239.247C89.1775 239.217 89.6191 239.365 89.9574 239.661C89.9913 239.692 90.0271 239.726 90.0542 239.757C91.2998 241.04 92.3917 242.463 93.3076 243.998C94.2184 245.512 94.928 247.106 95.5339 248.692C96.1399 250.278 96.6529 251.863 97.2279 253.363C97.8029 254.862 98.4863 256.255 99.5191 257.219L99.5888 257.284C99.7557 257.433 99.8565 257.642 99.869 257.866C99.8815 258.089 99.8048 258.309 99.6556 258.475C99.5065 258.642 99.2971 258.743 99.0737 258.756C98.8502 258.768 98.6309 258.691 98.464 258.542L98.4631 258.544Z" fill="#302839"/>
<path d="M214.769 280.734H97.6169C89.3028 280.734 81.4408 277.286 76.0463 271.275C71.5345 266.249 69.2277 260.208 69.1919 253.319C69.1397 243.525 72.9864 239.512 76.2224 237.871C79.8301 236.041 84.4503 236.37 88.4113 238.645C91.3153 234.128 95.0188 231.63 99.3941 231.249C108.451 230.458 117.32 239.191 119.562 241.577H192.823C195.066 239.191 203.935 230.459 212.991 231.249C217.357 231.629 221.048 234.117 223.973 238.645C227.93 236.372 232.553 236.042 236.162 237.871C239.399 239.511 243.246 243.524 243.194 253.32C243.158 260.209 240.852 266.25 236.339 271.277C230.945 277.286 223.083 280.734 214.769 280.734ZM81.3227 240.079C80.0856 240.063 78.862 240.338 77.7509 240.882C74.3281 242.619 72.5363 246.913 72.5702 253.299C72.6022 259.336 74.6175 264.625 78.5611 269.017C83.3158 274.314 90.2611 277.353 97.6169 277.353H214.769C222.126 277.353 229.07 274.314 233.824 269.017C237.768 264.624 239.783 259.337 239.815 253.299C239.849 246.911 238.057 242.617 234.634 240.881C231.73 239.407 227.638 239.998 224.46 242.353L222.991 243.443L221.493 241.049C219.086 237.072 216.133 234.914 212.704 234.612C204.156 233.862 194.931 244.271 194.84 244.377L194.334 244.957H118.051L117.547 244.377C117.45 244.273 108.229 233.864 99.6825 234.613C96.2539 234.915 93.3006 237.073 90.9068 241.028L89.3735 243.429L87.9215 242.352C85.9071 240.863 83.5317 240.081 81.3227 240.081V240.079Z" fill="#302839"/>
<path d="M113.169 219.275C86.2215 218.76 79.2472 200.909 78.525 186.021C78.2956 181.174 78.6643 176.318 79.6227 171.562L111.099 166.625C111.451 167.693 111.901 168.727 112.442 169.713C118.195 180.307 133.544 186.347 133.544 186.347C133.544 186.347 150.246 219.988 113.169 219.275Z" fill="#A38DBF"/>
<g opacity="0.15">
<path opacity="0.15" d="M113.169 219.275C90.5333 218.844 81.9879 206.177 79.4072 193.311C84.4166 200.741 93.2068 206.303 108.075 206.587C130.145 207.014 133.16 195.261 131.984 185.678C132.965 186.122 133.544 186.35 133.544 186.35C133.544 186.35 150.245 219.989 113.169 219.275Z" fill="#302839"/>
</g>
<path d="M112.443 169.712C109.706 175.372 104.958 179.876 99.3571 182.802C92.9539 186.143 85.4394 187.427 78.525 186.021C78.2956 181.174 78.6643 176.318 79.6227 171.562L111.099 166.625C111.341 167.362 111.63 168.083 111.964 168.784C112.118 169.095 112.274 169.408 112.443 169.712Z" fill="#F6F4F9"/>
<g opacity="0.15">
<path opacity="0.15" d="M112.442 169.712C109.705 175.372 104.957 179.876 99.3561 182.803C99.3443 182.81 99.3316 182.815 99.3184 182.819C95.5548 184.496 89.4981 184.465 87.8129 180.923C86.5032 178.164 103.986 171.609 111.964 168.783C112.117 169.096 112.273 169.409 112.442 169.712Z" fill="#302839"/>
</g>
<path d="M114.305 220.977C113.918 220.977 113.53 220.977 113.135 220.966C100.358 220.721 90.7305 216.656 84.5257 208.886C73.6775 195.3 77.1583 175.126 77.9666 171.22C78.0115 171.003 78.0988 170.797 78.2235 170.613C78.3481 170.429 78.5077 170.272 78.6931 170.15C78.8785 170.029 79.086 169.945 79.3039 169.903C79.5219 169.861 79.7458 169.863 79.9631 169.908C80.1803 169.953 80.3866 170.04 80.5701 170.165C80.7536 170.289 80.9108 170.449 81.0326 170.634C81.1544 170.82 81.2386 171.027 81.2802 171.245C81.3218 171.463 81.3201 171.687 81.2752 171.904C80.5211 175.551 77.26 194.37 87.1663 206.777C92.7148 213.725 101.473 217.363 113.205 217.588C123.433 217.788 130.231 215.323 133.428 210.275C138.227 202.699 133.838 191.206 132.432 187.973C128.173 187.597 113.158 184.991 109.449 166.968C109.403 166.75 109.401 166.525 109.442 166.306C109.483 166.087 109.567 165.878 109.689 165.692C109.811 165.506 109.969 165.345 110.153 165.22C110.338 165.095 110.545 165.008 110.763 164.963C110.981 164.918 111.206 164.917 111.425 164.96C111.644 165.002 111.852 165.088 112.037 165.211C112.223 165.335 112.382 165.493 112.506 165.679C112.63 165.864 112.716 166.072 112.759 166.29C116.491 184.429 132.746 184.662 133.533 184.662H133.54H134.59L135.06 185.603C135.383 186.253 142.893 201.654 136.283 212.09C132.539 217.985 125.148 220.977 114.305 220.977Z" fill="#302839"/>
<path d="M115.479 170.295C112.071 172.863 106.961 172.981 103.306 166.624C104.252 170.084 103.775 180.901 89.3753 180.956C88.8729 180.956 88.3531 180.948 87.8129 180.922L78.4651 182.316C77.8107 156.732 95.308 147.478 110.021 155.237C112.53 156.559 114.933 159.593 116.175 162.667C117.405 165.695 117.507 168.766 115.479 170.295Z" fill="#F6F4F9"/>
<g opacity="0.15">
<path opacity="0.15" d="M115.48 170.295C112.071 172.863 106.961 172.981 103.306 166.624C104.253 170.084 103.776 180.901 89.376 180.956C91.8434 179.891 96.5313 177.4 99.2223 172.934C101.241 169.576 101.469 166.079 102.057 165.729C103.353 164.948 114.635 169.716 116.18 162.667C117.406 165.695 117.508 168.766 115.48 170.295Z" fill="#302839"/>
</g>
<path d="M76.7765 182.363C76.6903 178.736 76.9526 175.074 77.699 171.468C78.4675 167.873 79.7501 164.32 81.7722 161.136C83.7915 157.969 86.556 155.16 89.9537 153.344C93.331 151.505 97.2436 150.694 101.048 150.941C102.946 151.062 104.821 151.416 106.633 151.994C107.079 152.149 107.531 152.284 107.971 152.459L109.278 152.998L110.547 153.612C110.75 153.709 110.981 153.835 111.214 153.971C111.446 154.106 111.655 154.25 111.875 154.391C113.562 155.575 114.851 157.051 115.94 158.65C117.005 160.255 117.871 161.997 118.382 163.942C118.651 164.955 118.773 166.003 118.744 167.051C118.685 168.145 118.424 169.374 117.67 170.429C117.487 170.693 117.281 170.941 117.054 171.17C116.941 171.283 116.816 171.384 116.696 171.488L116.512 171.642L116.35 171.756L115.701 172.199L115.012 172.586C114.054 173.078 113.02 173.405 111.953 173.555C109.784 173.862 107.459 173.214 105.776 171.966C104.052 170.744 102.801 169.132 101.846 167.469L104.944 166.183C105.128 166.782 105.253 167.398 105.319 168.022C105.388 168.615 105.413 169.213 105.395 169.811C105.365 171.006 105.177 172.193 104.836 173.34C104.487 174.508 103.965 175.617 103.288 176.631C102.6 177.647 101.76 178.55 100.797 179.31C99.848 180.041 98.8064 180.643 97.6995 181.1C96.6265 181.528 95.508 181.832 94.3658 182.005C92.1755 182.326 89.9454 182.246 87.7835 181.771C87.5875 181.727 87.413 181.616 87.2907 181.457C87.1683 181.298 87.1056 181.1 87.1137 180.9C87.1218 180.699 87.2 180.508 87.3348 180.359C87.4696 180.21 87.6523 180.113 87.8512 180.085H87.8619C89.9053 179.807 91.8751 179.504 93.7133 178.982C95.5515 178.461 97.2368 177.695 98.5416 176.548C99.8573 175.416 100.82 173.93 101.314 172.266C101.576 171.417 101.738 170.54 101.798 169.653C101.855 168.773 101.83 167.835 101.682 167.078L101.665 167.008C101.574 166.613 101.628 166.199 101.817 165.84C102.006 165.482 102.318 165.204 102.695 165.056C103.073 164.908 103.491 164.901 103.873 165.036C104.255 165.172 104.576 165.44 104.776 165.792C105.565 167.177 106.559 168.39 107.717 169.206C107.996 169.435 108.313 169.564 108.607 169.745C108.922 169.862 109.226 170.018 109.551 170.082C110.188 170.26 110.856 170.304 111.512 170.211C112.191 170.112 112.848 169.901 113.458 169.586L113.921 169.329L114.362 169.026L114.471 168.951L114.538 168.89C114.581 168.849 114.634 168.816 114.674 168.773C114.756 168.688 114.831 168.596 114.899 168.498C115.182 168.12 115.33 167.552 115.368 166.901C115.381 166.187 115.294 165.475 115.11 164.785C114.728 163.319 114.018 161.855 113.135 160.535C112.252 159.216 111.163 158.019 109.96 157.177C109.808 157.081 109.66 156.97 109.507 156.887C109.346 156.79 109.181 156.702 109.01 156.623L107.903 156.086L106.769 155.617C106.388 155.471 105.994 155.352 105.613 155.216C104.067 154.723 102.467 154.421 100.847 154.316C97.6271 154.101 94.4111 154.795 91.5663 156.32C88.7321 157.833 86.3886 160.198 84.6288 162.951C82.8699 165.719 81.7103 168.891 81.0095 172.172C80.3319 175.463 80.0783 178.868 80.1596 182.279V182.286C80.1649 182.508 80.1264 182.729 80.0464 182.936C79.9664 183.142 79.8464 183.332 79.6932 183.492C79.5401 183.653 79.3569 183.782 79.154 183.871C78.9511 183.961 78.7324 184.01 78.5106 184.015C78.2888 184.021 78.0681 183.982 77.8612 183.902C77.6542 183.822 77.465 183.702 77.3045 183.549C77.1439 183.396 77.015 183.213 76.9253 183.01C76.8355 182.807 76.7866 182.588 76.7813 182.366L76.7765 182.363Z" fill="#302839"/>
<path d="M203.278 258.67C208.476 245.505 204.446 222.419 200.921 197.761H110.468C106.944 222.419 102.918 245.51 108.112 258.67" fill="#A38DBF"/>
<g opacity="0.15">
<path opacity="0.15" d="M202.685 258.67C207.883 245.506 203.853 222.419 200.329 197.762H109.875C106.351 222.419 102.325 245.511 107.519 258.67" fill="#302839"/>
</g>
<path d="M202.492 258.359C203.75 253.542 204.096 248.565 204.096 243.543L204.023 239.768C203.958 238.51 203.921 237.251 203.829 235.985C203.737 234.719 203.651 233.461 203.539 232.199L203.177 228.408C202.647 223.354 201.961 218.297 201.274 213.232L200.243 205.625C199.901 203.088 199.557 200.546 199.249 198.001L200.922 199.453H110.468L112.14 198.001C111.832 200.546 111.485 203.087 111.145 205.625L110.114 213.232C109.423 218.296 108.729 223.353 108.199 228.408C107.669 233.463 107.289 238.518 107.257 243.544C107.225 248.571 107.579 253.561 108.903 258.359L108.92 258.422C108.977 258.629 108.954 258.849 108.855 259.039C108.756 259.228 108.588 259.373 108.386 259.444C108.184 259.515 107.963 259.507 107.767 259.42C107.571 259.334 107.415 259.177 107.331 258.98C107.07 258.375 106.803 257.767 106.556 257.15C106.434 256.842 106.286 256.537 106.188 256.222L105.897 255.273C105.71 254.639 105.499 254.005 105.342 253.363L104.931 251.427L104.738 250.459L104.604 249.484L104.342 247.529C104.214 246.224 104.133 244.915 104.045 243.611C104.026 242.309 103.982 241.002 103.983 239.701C104.014 238.403 104.029 237.1 104.088 235.805C104.147 234.51 104.213 233.216 104.303 231.925C104.393 230.633 104.492 229.346 104.61 228.059C105.073 222.915 105.736 217.81 106.457 212.726C106.817 210.184 107.198 207.647 107.598 205.115C107.996 202.583 108.38 200.053 108.804 197.528L109.013 196.076H202.394L202.603 197.528C203.027 200.053 203.413 202.583 203.81 205.115C204.207 207.647 204.597 210.182 204.955 212.726C205.678 217.809 206.348 222.913 206.813 228.057L207.128 231.923C207.218 233.214 207.271 234.511 207.343 235.804C207.416 237.098 207.413 238.402 207.451 239.7C207.467 241.002 207.424 242.309 207.4 243.612C207.325 244.92 207.255 246.226 207.115 247.531L206.86 249.49L206.722 250.465L206.522 251.438C206.393 252.087 206.25 252.732 206.109 253.374C205.942 254.015 205.739 254.652 205.544 255.285L205.247 256.233C205.151 256.548 204.997 256.851 204.872 257.159C204.613 257.775 204.342 258.382 204.071 258.983C203.985 259.177 203.829 259.332 203.634 259.417C203.439 259.501 203.219 259.509 203.019 259.438C202.818 259.367 202.651 259.224 202.552 259.035C202.453 258.847 202.429 258.629 202.484 258.423L202.492 258.359Z" fill="#302839"/>
<path d="M201.287 183.567C201.287 183.567 240.945 232.021 198.811 238.701L201.287 183.567Z" fill="#A38DBF"/>
<path d="M197.029 240.696L199.797 179.08L202.594 182.497C203.52 183.629 225.203 210.407 218.663 227.597C216.064 234.424 209.476 238.723 199.08 240.374L197.029 240.696ZM202.764 188.333L200.593 236.662C208.516 235.024 213.527 231.577 215.5 226.401C220.034 214.491 208.355 196.124 202.764 188.333Z" fill="#302839"/>
<path d="M171.317 279.044H140.132C133.734 279.044 127.542 276.786 122.646 272.667C117.75 268.549 114.465 262.834 113.371 256.531L103.739 201.079L102.861 192.464C101.948 183.517 108.971 175.742 117.962 175.742H193.419C202.438 175.742 209.467 183.556 208.52 192.524L207.493 202.248L198.082 256.523C196.989 262.828 193.704 268.545 188.807 272.666C183.911 276.786 177.717 279.045 171.317 279.044Z" fill="#94C5E9"/>
<g opacity="0.4">
<path opacity="0.25" d="M208.523 192.528L208.485 192.869C207.547 185.474 201.225 179.62 193.423 179.62H186.407C185.175 179.62 183.993 180.109 183.122 180.98C182.25 181.852 181.761 183.034 181.761 184.266V192.869H167.949V184.266C167.949 183.034 167.459 181.852 166.588 180.98C165.716 180.109 164.535 179.62 163.302 179.62H135.049C134.419 179.62 133.796 179.744 133.214 179.984C132.632 180.225 132.104 180.579 131.659 181.024C131.214 181.469 130.861 181.998 130.62 182.579C130.379 183.161 130.255 183.784 130.255 184.414V192.869H122.762V184.416C122.762 183.786 122.638 183.163 122.397 182.581C122.156 181.999 121.803 181.471 121.358 181.026C120.913 180.581 120.384 180.227 119.802 179.986C119.221 179.745 118.597 179.621 117.968 179.621C110.162 179.621 103.843 185.476 102.906 192.871L102.863 192.47C101.95 183.52 108.971 175.748 117.964 175.748H193.419C202.441 175.748 209.473 183.562 208.523 192.528Z" fill="white"/>
</g>
<path d="M171.317 280.735H140.132C133.334 280.746 126.751 278.351 121.549 273.976C116.347 269.6 112.86 263.525 111.707 256.825L102.079 201.368C102.073 201.329 102.068 201.29 102.064 201.25L101.186 192.635C100.946 190.287 101.202 187.915 101.936 185.672C102.671 183.429 103.867 181.365 105.449 179.613C107.031 177.862 108.963 176.462 111.12 175.503C113.277 174.545 115.611 174.05 117.971 174.05H193.428C195.794 174.05 198.134 174.548 200.295 175.512C202.456 176.475 204.39 177.882 205.972 179.641C207.554 181.401 208.748 183.473 209.477 185.724C210.206 187.975 210.454 190.354 210.203 192.707L209.173 202.426C209.173 202.463 209.164 202.5 209.158 202.537L199.749 256.812C198.599 263.515 195.113 269.594 189.909 273.973C184.705 278.352 178.119 280.747 171.317 280.735ZM105.414 200.852L115.036 256.246C116.053 262.162 119.131 267.526 123.724 271.39C128.317 275.254 134.13 277.369 140.132 277.359H171.317C177.321 277.369 183.135 275.254 187.728 271.388C192.322 267.523 195.4 262.156 196.415 256.239L205.816 202.014L206.842 192.351C207.041 190.469 206.842 188.567 206.259 186.767C205.675 184.968 204.72 183.311 203.454 181.905C202.189 180.498 200.642 179.373 198.914 178.604C197.186 177.834 195.315 177.436 193.423 177.436H117.966C116.078 177.436 114.212 177.832 112.487 178.598C110.762 179.364 109.217 180.484 107.952 181.884C106.687 183.285 105.73 184.935 105.142 186.729C104.555 188.523 104.35 190.42 104.542 192.297L105.414 200.852Z" fill="#302839"/>
<path d="M207.493 202.248L206.724 206.68L205.17 215.647L201.298 237.957L199.727 247.009L196.592 265.091C195.915 268.997 193.879 272.539 190.845 275.091C187.811 277.644 183.974 279.043 180.009 279.042H131.445C127.48 279.043 123.643 277.644 120.609 275.091C117.575 272.539 115.54 268.997 114.862 265.091L113.98 259.993L112.784 253.096L112.159 249.497L110.178 238.074L109.582 234.652L103.968 202.251C102.516 194.712 108.289 187.713 115.971 187.713H195.49C197.885 187.711 200.228 188.414 202.228 189.733C204.227 191.053 205.794 192.931 206.734 195.134C207.119 196.031 207.393 196.972 207.549 197.935C207.789 199.364 207.77 200.825 207.493 202.248Z" fill="#94C5E9"/>
<g opacity="0.15">
<path opacity="0.15" d="M205.17 215.647L201.298 237.957L199.727 247.009L196.593 265.091C195.915 268.997 193.88 272.539 190.846 275.091C187.812 277.644 183.974 279.043 180.009 279.042H131.445C127.481 279.043 123.643 277.644 120.609 275.091C117.576 272.539 115.54 268.997 114.863 265.091L110.179 238.071C116.168 250.73 128.861 264.851 155.694 264.863H155.728C176.056 264.855 188.269 256.749 195.598 247.313C186.789 247.119 181.393 240.977 183.796 223.621C185.181 213.624 200.591 215.022 205.17 215.647Z" fill="#302839"/>
</g>
<g opacity="0.4">
<path opacity="0.25" d="M207.493 202.248L206.724 206.679L113.98 259.996L112.784 253.098L207.55 197.935C207.79 199.364 207.77 200.825 207.493 202.248Z" fill="white"/>
</g>
<g opacity="0.4">
<path opacity="0.25" d="M206.736 195.132L112.164 249.497L110.183 238.074L109.587 234.652L190.225 187.713H195.49C197.885 187.711 200.229 188.413 202.228 189.732C204.228 191.051 205.795 192.929 206.736 195.132Z" fill="white"/>
</g>
<path d="M180.012 280.734H131.446C127.081 280.741 122.854 279.202 119.514 276.392C116.174 273.581 113.937 269.68 113.197 265.378L102.302 202.536C101.917 200.525 101.982 198.454 102.491 196.47C103 194.487 103.941 192.64 105.246 191.063C106.551 189.485 108.189 188.215 110.042 187.343C111.895 186.471 113.917 186.019 115.965 186.02H195.491C197.541 186.019 199.567 186.473 201.422 187.347C203.277 188.221 204.916 189.495 206.221 191.077C207.526 192.658 208.466 194.509 208.972 196.497C209.478 198.484 209.538 200.559 209.149 202.572L198.26 265.378C197.52 269.68 195.283 273.581 191.943 276.392C188.603 279.202 184.377 280.741 180.012 280.734ZM115.965 189.398C114.412 189.398 112.879 189.741 111.475 190.403C110.071 191.065 108.83 192.029 107.842 193.226C106.854 194.423 106.143 195.824 105.76 197.329C105.376 198.833 105.33 200.403 105.625 201.927L116.527 264.8C117.131 268.317 118.96 271.507 121.691 273.805C124.421 276.103 127.877 277.361 131.446 277.355H180.012C183.58 277.361 187.036 276.103 189.767 273.805C192.498 271.508 194.327 268.317 194.931 264.8L205.827 201.959C206.127 200.433 206.085 198.86 205.704 197.352C205.324 195.843 204.614 194.438 203.625 193.237C202.637 192.036 201.395 191.069 199.989 190.405C198.582 189.741 197.046 189.397 195.491 189.398H115.965Z" fill="#302839"/>
<path d="M208.937 231.321C206.867 235.29 203.429 238.164 198.813 238.704C188.151 239.946 182.107 233.906 185.98 218.802C187.045 214.632 190.014 211.989 193.372 210.316C199.324 207.339 206.496 207.405 206.496 207.405C212.021 214.38 212.511 224.479 208.937 231.321Z" fill="#FFF9F2"/>
<g opacity="0.15">
<path opacity="0.15" d="M208.937 231.322C206.867 235.29 203.429 238.164 198.813 238.705C188.151 239.946 182.107 233.906 185.98 218.802C187.045 214.633 190.014 211.989 193.372 210.316C191.18 215.512 189.034 223.469 192.494 230.029C195.581 235.883 203.775 235.512 208.937 231.322Z" fill="#302839"/>
</g>
<path d="M206.479 209.095C201.631 209.269 196.418 210.333 192.475 212.87C190.513 214.15 188.965 215.871 188.142 217.936C188.045 218.195 187.948 218.456 187.863 218.722C187.778 218.988 187.711 219.247 187.637 219.568C187.488 220.181 187.342 220.792 187.22 221.407C186.963 222.621 186.778 223.85 186.668 225.086C186.458 227.517 186.584 229.965 187.381 232.034C187.757 233.038 188.338 233.952 189.088 234.718C189.854 235.464 190.765 236.045 191.765 236.424C193.825 237.212 196.289 237.355 198.708 237.141C199.245 237.079 199.896 236.957 200.51 236.835C201.123 236.713 201.762 236.586 202.388 236.448C203.013 236.31 203.633 236.162 204.243 236.003L205.138 235.758C205.428 235.677 205.713 235.579 205.892 235.509L205.999 235.467C206.323 235.34 206.683 235.342 207.004 235.474C207.326 235.605 207.585 235.856 207.726 236.174C207.868 236.491 207.881 236.851 207.764 237.178C207.647 237.505 207.408 237.775 207.097 237.93C206.747 238.103 206.388 238.257 206.021 238.39C205.689 238.514 205.365 238.623 205.042 238.727C204.394 238.935 203.752 239.125 203.106 239.307C202.46 239.489 201.816 239.663 201.161 239.82C200.507 239.976 199.866 240.123 199.106 240.243C197.707 240.436 196.318 240.566 194.876 240.485C193.4 240.422 191.941 240.137 190.549 239.64C189.085 239.11 187.751 238.274 186.637 237.187C185.538 236.085 184.681 234.766 184.12 233.315C183.018 230.476 182.915 227.549 183.124 224.788C183.236 223.414 183.43 222.049 183.705 220.699C183.834 220.027 183.986 219.365 184.151 218.706C184.223 218.389 184.328 218.014 184.441 217.657C184.554 217.301 184.682 216.945 184.821 216.593C185.392 215.196 186.191 213.903 187.184 212.767C188.16 211.662 189.283 210.696 190.521 209.896C192.951 208.312 195.622 207.341 198.303 206.702C199.642 206.387 200.997 206.146 202.363 205.983C203.042 205.899 203.724 205.834 204.408 205.789C205.104 205.745 205.754 205.715 206.512 205.72C206.955 205.721 207.379 205.895 207.694 206.206C208.01 206.517 208.19 206.939 208.197 207.381C208.204 207.824 208.038 208.251 207.732 208.572C207.427 208.893 207.009 209.081 206.566 209.096L206.479 209.095Z" fill="#302839"/>
<path d="M195.286 219.294C194.285 219.463 193.3 219.719 192.343 220.059C191.402 220.384 190.499 220.81 189.65 221.33C188.858 221.807 188.153 222.417 187.566 223.131C187.307 223.467 187.084 223.828 186.899 224.21C186.732 224.582 186.605 224.972 186.52 225.371V225.382C186.475 225.602 186.387 225.811 186.26 225.997C186.133 226.182 185.971 226.341 185.782 226.463C185.593 226.585 185.382 226.669 185.161 226.708C184.939 226.748 184.713 226.744 184.493 226.695C184.274 226.646 184.066 226.554 183.883 226.424C183.699 226.294 183.543 226.129 183.424 225.938C183.305 225.748 183.225 225.535 183.189 225.313C183.153 225.092 183.161 224.865 183.214 224.646C183.23 224.575 183.251 224.506 183.275 224.437C183.5 223.805 183.794 223.2 184.154 222.634C184.515 222.087 184.933 221.58 185.401 221.122C186.302 220.275 187.339 219.588 188.47 219.089C189.532 218.616 190.641 218.259 191.779 218.024C192.894 217.786 194.028 217.647 195.167 217.609C195.382 217.602 195.591 217.677 195.752 217.819C195.913 217.96 196.014 218.158 196.035 218.371C196.056 218.585 195.995 218.798 195.864 218.968C195.733 219.139 195.543 219.252 195.331 219.287L195.286 219.294Z" fill="#302839"/>
<path d="M196.424 233.716C195.333 234.078 194.205 234.319 193.061 234.434C191.888 234.559 190.703 234.522 189.539 234.325C188.348 234.105 187.131 233.672 186.054 232.93C184.966 232.205 184.076 231.178 183.424 230.063L183.417 230.053C183.191 229.665 183.127 229.203 183.241 228.769C183.354 228.334 183.636 227.963 184.024 227.736C184.411 227.509 184.873 227.445 185.308 227.559C185.742 227.673 186.114 227.955 186.341 228.342C186.376 228.405 186.409 228.47 186.437 228.536C186.747 229.314 187.227 230.012 187.843 230.579C188.461 231.148 189.251 231.57 190.13 231.862C191.053 232.145 192.01 232.3 192.974 232.324C193.968 232.353 194.962 232.277 195.94 232.097L195.995 232.086C196.206 232.046 196.424 232.087 196.605 232.201C196.786 232.316 196.917 232.495 196.971 232.702C197.025 232.91 196.999 233.13 196.896 233.318C196.794 233.507 196.624 233.649 196.42 233.716H196.424Z" fill="#302839"/>
<path d="M111.409 202.478L112.948 211.169C113.189 212.526 113.9 213.754 114.956 214.639C116.013 215.524 117.347 216.009 118.725 216.009C119.579 216.009 120.423 215.823 121.198 215.462C121.972 215.102 122.659 214.577 123.21 213.924C123.76 213.271 124.162 212.505 124.386 211.681C124.61 210.856 124.651 209.993 124.506 209.151L123.015 200.465C122.781 199.101 122.072 197.864 121.015 196.972C119.957 196.08 118.618 195.591 117.234 195.591H117.185C116.328 195.592 115.482 195.779 114.705 196.142C113.929 196.504 113.242 197.032 112.691 197.688C112.141 198.344 111.741 199.113 111.519 199.941C111.297 200.768 111.26 201.634 111.409 202.478Z" fill="#302839"/>
<path d="M118.729 217.701C116.953 217.703 115.234 217.079 113.873 215.938C112.512 214.797 111.597 213.213 111.289 211.464L109.749 202.772C109.557 201.685 109.605 200.569 109.89 199.503C110.176 198.437 110.691 197.446 111.4 196.6C112.109 195.754 112.995 195.074 113.995 194.607C114.995 194.141 116.086 193.899 117.189 193.898H117.238C119.021 193.895 120.748 194.524 122.112 195.673C123.475 196.823 124.387 198.419 124.685 200.177L126.176 208.868C126.362 209.953 126.309 211.065 126.02 212.127C125.732 213.188 125.215 214.174 124.506 215.016C123.796 215.857 122.912 216.533 121.914 216.997C120.917 217.461 119.83 217.701 118.729 217.701ZM113.077 202.182L114.616 210.874C114.826 211.947 115.448 212.895 116.348 213.514C117.249 214.134 118.356 214.376 119.433 214.188C120.51 214 121.47 213.398 122.108 212.51C122.746 211.622 123.01 210.52 122.844 209.439L121.354 200.749C121.19 199.776 120.686 198.894 119.932 198.258C119.178 197.622 118.223 197.275 117.237 197.278H117.188C116.578 197.278 115.975 197.412 115.423 197.67C114.87 197.928 114.38 198.304 113.988 198.771C113.596 199.239 113.311 199.787 113.154 200.376C112.996 200.966 112.97 201.583 113.076 202.183L113.077 202.182Z" fill="#302839"/>
<path d="M117.059 204.06C118.856 204.06 120.313 202.603 120.313 200.806C120.313 199.008 118.856 197.551 117.059 197.551C115.262 197.551 113.805 199.008 113.805 200.806C113.805 202.603 115.262 204.06 117.059 204.06Z" fill="#302839"/>
<path d="M117.926 201C118.04 200.519 117.742 200.036 117.26 199.923C116.779 199.809 116.297 200.107 116.183 200.589C116.07 201.07 116.368 201.552 116.849 201.666C117.33 201.779 117.813 201.481 117.926 201Z" fill="#302839"/>
<path d="M117.059 204.905C116.249 204.905 115.456 204.664 114.782 204.214C114.108 203.764 113.582 203.123 113.272 202.374C112.962 201.625 112.881 200.801 113.039 200.006C113.197 199.211 113.587 198.48 114.161 197.907C114.734 197.333 115.464 196.943 116.26 196.785C117.055 196.627 117.879 196.708 118.628 197.018C119.377 197.328 120.017 197.854 120.468 198.528C120.918 199.202 121.159 199.995 121.159 200.805C121.158 201.892 120.725 202.934 119.957 203.703C119.188 204.471 118.146 204.904 117.059 204.905ZM117.059 198.396C116.583 198.396 116.117 198.538 115.72 198.802C115.324 199.067 115.015 199.444 114.832 199.884C114.65 200.325 114.602 200.809 114.695 201.277C114.789 201.745 115.018 202.174 115.355 202.511C115.693 202.848 116.122 203.078 116.59 203.171C117.057 203.263 117.542 203.216 117.982 203.033C118.423 202.85 118.799 202.541 119.064 202.145C119.329 201.748 119.47 201.282 119.47 200.805C119.469 200.166 119.215 199.554 118.763 199.102C118.311 198.65 117.698 198.396 117.059 198.396Z" fill="#94C5E9"/>
<path d="M121.967 210.831C122.255 209.056 121.05 207.385 119.276 207.097C117.502 206.809 115.83 208.014 115.542 209.788C115.254 211.562 116.459 213.233 118.233 213.521C120.007 213.809 121.679 212.605 121.967 210.831Z" fill="#302839"/>
<path d="M118.748 214.396C117.937 214.396 117.145 214.155 116.471 213.705C115.797 213.254 115.271 212.614 114.961 211.865C114.651 211.116 114.57 210.291 114.728 209.496C114.887 208.701 115.277 207.971 115.85 207.398C116.424 206.824 117.154 206.434 117.949 206.276C118.745 206.118 119.569 206.199 120.318 206.509C121.067 206.82 121.707 207.345 122.157 208.019C122.608 208.693 122.848 209.486 122.848 210.297C122.847 211.384 122.415 212.426 121.646 213.195C120.877 213.963 119.835 214.395 118.748 214.396ZM118.748 207.887C118.271 207.887 117.805 208.029 117.409 208.294C117.012 208.559 116.703 208.935 116.521 209.376C116.339 209.816 116.291 210.301 116.384 210.768C116.477 211.236 116.707 211.665 117.044 212.002C117.381 212.339 117.811 212.569 118.278 212.662C118.746 212.755 119.231 212.707 119.671 212.524C120.111 212.342 120.488 212.033 120.752 211.636C121.017 211.24 121.158 210.773 121.158 210.297C121.157 209.658 120.903 209.045 120.451 208.594C119.999 208.142 119.387 207.888 118.748 207.887Z" fill="#94C5E9"/>
<path d="M134.146 122.878C134.774 114.329 130.174 107.023 123.872 106.561C117.57 106.098 111.952 112.653 111.324 121.202C110.696 129.75 115.296 137.056 121.598 137.519C127.9 137.981 133.518 131.426 134.146 122.878Z" fill="#302839"/>
<path d="M130.596 118.722C130.834 115.319 129.304 112.439 127.179 112.291C125.054 112.142 123.138 114.78 122.9 118.184C122.662 121.587 124.191 124.466 126.316 124.615C128.442 124.764 130.357 122.125 130.596 118.722Z" fill="#FFF9F2"/>
<g opacity="0.35">
<path opacity="0.35" d="M119.081 131.782C120.074 131.41 120.259 129.458 119.496 127.422C118.732 125.386 117.308 124.038 116.316 124.41C115.323 124.782 115.138 126.734 115.901 128.77C116.665 130.806 118.088 132.154 119.081 131.782Z" fill="#FFF9F2"/>
</g>
<path d="M189.556 137.53C195.858 137.067 200.458 129.762 199.831 121.213C199.203 112.664 193.585 106.109 187.283 106.572C180.981 107.034 176.381 114.34 177.009 122.889C177.637 131.438 183.254 137.993 189.556 137.53Z" fill="#302839"/>
<path d="M184.753 125.577C186.872 125.421 188.388 122.544 188.139 119.149C187.89 115.755 185.969 113.13 183.85 113.286C181.731 113.441 180.215 116.319 180.464 119.713C180.713 123.107 182.633 125.733 184.753 125.577Z" fill="#FFF9F2"/>
<g opacity="0.35">
<path opacity="0.35" d="M195.249 128.749C196.012 126.713 195.826 124.761 194.834 124.389C193.841 124.017 192.418 125.365 191.654 127.401C190.89 129.437 191.076 131.389 192.069 131.761C193.061 132.133 194.485 130.785 195.249 128.749Z" fill="#FFF9F2"/>
</g>
<path d="M83.9582 266.045C86.5971 265.606 88.2565 262.367 87.6648 258.812C87.073 255.256 84.454 252.73 81.8152 253.17C79.1763 253.609 77.5168 256.847 78.1086 260.402C78.7004 263.958 81.3194 266.484 83.9582 266.045Z" fill="#C8BBD9"/>
<path d="M87.6223 250.286C87.6517 249.081 86.9508 248.087 86.0566 248.065C85.1625 248.043 84.4138 249.002 84.3844 250.207C84.3549 251.411 85.0559 252.405 85.95 252.427C86.8441 252.449 87.5928 251.49 87.6223 250.286Z" fill="#C8BBD9"/>
<path d="M80.9986 251.966C82.2463 251.855 83.1368 250.402 82.9876 248.721C82.8384 247.039 81.706 245.766 80.4583 245.876C79.2107 245.987 78.3202 247.44 78.4694 249.122C78.6186 250.803 79.751 252.077 80.9986 251.966Z" fill="#C8BBD9"/>
<path d="M77.465 254.93C78.3352 254.681 78.769 253.529 78.434 252.357C78.0989 251.184 77.1217 250.435 76.2515 250.684C75.3812 250.933 74.9474 252.085 75.2825 253.257C75.6176 254.43 76.5947 255.179 77.465 254.93Z" fill="#C8BBD9"/>
<path d="M234.144 260.375C234.736 256.82 233.077 253.581 230.438 253.142C227.799 252.703 225.18 255.229 224.588 258.785C223.996 262.34 225.656 265.578 228.295 266.017C230.934 266.457 233.552 263.931 234.144 260.375Z" fill="#C8BBD9"/>
<path d="M226.302 252.465C227.196 252.444 227.897 251.449 227.867 250.245C227.838 249.04 227.089 248.081 226.195 248.103C225.301 248.125 224.6 249.119 224.629 250.324C224.659 251.528 225.408 252.487 226.302 252.465Z" fill="#C8BBD9"/>
<path d="M235.359 248.505C235.511 246.817 234.619 245.357 233.366 245.244C232.114 245.131 230.975 246.409 230.823 248.097C230.671 249.785 231.563 251.245 232.816 251.358C234.068 251.471 235.207 250.193 235.359 248.505Z" fill="#C8BBD9"/>
<path d="M236.995 253.256C237.331 252.083 236.897 250.931 236.027 250.682C235.156 250.434 234.179 251.183 233.844 252.355C233.509 253.528 233.943 254.68 234.813 254.928C235.683 255.177 236.66 254.428 236.995 253.256Z" fill="#C8BBD9"/>
<path d="M249.138 87.3365C246.723 83.1233 245.763 78.2321 246.407 73.4187C248.011 61.2599 259.168 52.7038 271.326 54.3068C283.485 55.9098 292.041 67.0678 290.437 79.2267C288.833 91.3856 277.673 99.9416 265.513 98.3425C262.244 97.9152 259.112 96.7627 256.346 94.969L246.008 96.9766L249.138 87.3365Z" fill="#FFF9F2"/>
<g opacity="0.5">
<path opacity="0.5" d="M270.763 58.5409C259.404 57.0434 248.923 64.4117 246.284 75.3006C246.302 74.5097 246.363 73.7203 246.465 72.9358C248.069 60.777 259.226 52.2209 271.385 53.8239C283.544 55.4269 292.1 66.5849 290.496 78.7438C290.391 79.5315 290.245 80.3131 290.057 81.0853C290.338 69.8838 282.125 60.0403 270.763 58.5409Z" fill="#FFF9F2"/>
</g>
<path d="M268.434 100.248C267.382 100.248 266.331 100.179 265.288 100.041C262.001 99.6149 258.839 98.504 256.007 96.7799L243.473 99.2134L247.278 87.5134C244.939 83.1281 244.038 78.1184 244.702 73.193C246.428 60.1145 258.472 50.878 271.55 52.6039C284.629 54.3298 293.865 66.3725 292.14 79.451C290.547 91.4695 280.246 100.248 268.434 100.248ZM256.699 93.1461L257.28 93.5226C259.83 95.1809 262.721 96.2445 265.737 96.6347C276.938 98.1128 287.251 90.2015 288.729 79.0019C290.207 67.8023 282.296 57.4874 271.095 56.0102C259.895 54.5331 249.582 62.4425 248.104 73.6431C247.505 78.0845 248.393 82.5992 250.628 86.4834L251.006 87.1436L248.541 94.7297L256.699 93.1461Z" fill="#302839"/>
<g opacity="0.15">
<path opacity="0.15" d="M249.02 87.1193C254.952 92.4375 263.263 94.931 271.64 93.1005C280.933 91.0678 287.929 84.2425 290.62 75.7881C290.646 76.9373 290.584 78.0868 290.434 79.2264C288.83 91.3853 277.673 99.9413 265.514 98.3373C262.245 97.9101 259.113 96.7575 256.347 94.9639L246.008 96.9715L249.139 87.3362C249.097 87.2645 249.06 87.191 249.02 87.1193Z" fill="#302839"/>
</g>
<path d="M261.307 70.0858C263.228 68.1634 266.341 68.508 268.266 70.4295L268.565 70.7286L268.864 70.4295C270.786 68.508 273.898 68.1634 275.823 70.0858C276.28 70.5426 276.643 71.0851 276.89 71.6821C277.137 72.2791 277.265 72.919 277.265 73.5652C277.265 74.2115 277.137 74.8514 276.89 75.4484C276.643 76.0454 276.28 76.5878 275.823 77.0447L275.524 77.3438L269.483 83.386C269.362 83.5069 269.219 83.6028 269.061 83.6683C268.903 83.7338 268.734 83.7675 268.563 83.7675C268.392 83.7675 268.223 83.7338 268.065 83.6683C267.907 83.6028 267.764 83.5069 267.643 83.386L261.604 77.3438L261.305 77.0447C260.848 76.5877 260.486 76.0452 260.238 75.4481C259.991 74.851 259.864 74.2111 259.864 73.5648C259.864 72.9186 259.992 72.2787 260.239 71.6818C260.487 71.0848 260.85 70.5425 261.307 70.0858Z" fill="#E05656"/>
</svg>
