<svg width="320" height="320" viewBox="0 0 320 320" fill="none" xmlns="http://www.w3.org/2000/svg">
<g clip-path="url(#clip0_520_11298)">
<path d="M260.811 141.414C260.707 141.518 260.604 141.626 260.497 141.733C259.562 142.684 258.601 143.672 257.637 144.691C252.757 149.805 247.523 155.775 243.097 162.62C239.56 168.083 236.543 174.104 234.63 180.683C233.993 182.867 233.491 185.087 233.127 187.332C233.127 187.332 232.328 204.336 215.323 204.049C212.849 204.009 210.035 203.6 206.825 202.717L207.441 201.82L212.002 195.153C212.002 195.153 219.381 193.196 220.679 180.282C220.804 179.024 221.096 177.323 221.535 175.29C222.532 170.684 224.309 164.377 226.733 157.68C229.302 150.605 232.586 143.095 236.452 136.703C239.211 132.124 242.27 128.116 245.564 125.247C256.192 115.998 270.536 131.22 260.811 141.414Z" fill="#A38DBF"/>
<path d="M257.637 144.691C252.757 149.805 247.523 155.775 243.097 162.62C238.419 160.52 234.335 159.25 231.004 158.482C229.455 158.127 228.023 157.867 226.73 157.683C229.299 150.608 232.583 143.099 236.449 136.706C243.55 138.377 250.613 141.038 257.637 144.691Z" fill="#5F5173"/>
<path d="M234.627 180.684C233.99 182.867 233.488 185.087 233.123 187.332C233.123 187.332 232.324 204.336 215.32 204.049C212.205 202.873 209.552 202.2 207.438 201.823L211.999 195.156C211.999 195.156 219.378 193.199 220.675 180.285C220.801 179.027 221.093 177.326 221.532 175.293C226.038 176.726 230.417 178.529 234.627 180.684Z" fill="#5F5173"/>
<g opacity="0.3">
<path opacity="0.3" d="M251.301 122.49C256.982 125.75 260.015 133.845 254.077 140.068C253.974 140.171 253.87 140.278 253.763 140.387C252.829 141.338 251.869 142.326 250.909 143.345C246.029 148.458 240.794 154.428 236.368 161.274C232.831 166.737 229.815 172.756 227.901 179.337C227.263 181.52 226.761 183.741 226.397 185.986C226.397 185.986 225.597 202.989 208.594 202.703C208.047 202.693 207.481 202.663 206.9 202.617L206.829 202.72C210.039 203.6 212.853 204.009 215.327 204.052C232.331 204.337 233.131 187.335 233.131 187.335C233.495 185.09 233.997 182.87 234.634 180.686C236.551 174.107 239.568 168.086 243.101 162.623C247.527 155.778 252.761 149.808 257.641 144.694C258.605 143.675 259.566 142.687 260.501 141.736C260.608 141.629 260.711 141.521 260.815 141.417C268.846 132.994 260.451 121.144 251.301 122.49Z" fill="#302839"/>
</g>
<path d="M215.76 205.573C212.917 205.573 209.805 205.109 206.422 204.183C206.189 204.119 205.975 204.001 205.797 203.837C205.619 203.673 205.483 203.47 205.4 203.243C205.317 203.016 205.289 202.773 205.319 202.533C205.349 202.293 205.436 202.064 205.572 201.865L210.748 194.301C210.951 194.006 211.251 193.792 211.596 193.696C211.881 193.612 218.005 191.684 219.166 180.134C220.037 171.476 229.657 137.092 244.569 124.109C250.759 118.718 257.873 120.758 261.863 124.934C265.904 129.163 267.642 136.452 261.908 142.459C261.803 142.57 261.694 142.682 261.583 142.795C249.926 154.665 237.613 169.254 234.631 187.496C234.565 188.56 233.806 197.278 226.959 202.249C223.91 204.463 220.162 205.573 215.76 205.573ZM209.308 201.776C216 203.251 221.332 202.589 225.177 199.797C231.156 195.454 231.604 187.341 231.608 187.259C231.608 187.202 231.613 187.145 231.625 187.088C234.721 167.971 247.411 152.897 259.417 140.673C259.512 140.577 259.615 140.47 259.713 140.367C264.074 135.8 262.748 130.25 259.67 127.029C256.542 123.755 251.275 122.29 246.559 126.395C232.939 138.255 223.113 171.194 222.183 180.435C220.996 192.248 214.914 195.631 212.973 196.418L209.308 201.776Z" fill="#302839"/>
<path d="M261.574 233.25C259.751 238.457 253.758 244.015 246.576 248.822C235.246 256.395 226.156 248.606 226.156 248.606C186.622 220.326 148.236 243.629 136.556 259.717C132.355 265.498 129.446 269.508 127.493 272.21C126.38 273.747 124.918 274.999 123.227 275.862C121.536 276.725 119.664 277.175 117.766 277.174H92.7535C84.1386 277.174 81.351 265.48 89.0945 261.71V261.705C89.3551 261.58 89.5121 261.515 89.5121 261.515C90.2352 253.076 100.479 253.942 100.479 253.942L104.712 237.503L107.427 226.943L109.281 219.743C105.816 206.469 105.362 193.674 105.362 193.674C80.8163 185.351 68.2074 174.147 68.2074 174.147C65.2266 175.086 61.6217 174.031 59.1081 171.597C55.6964 168.294 54.2912 162.444 59.1624 155.581C67.6299 143.653 80.1341 157.7 80.1341 157.7C85.9206 159.621 90.6614 160.846 94.5441 161.574C100.474 162.678 104.402 162.628 107.001 162.134C111.301 161.318 111.948 159.28 111.948 159.28C112.424 159.433 112.899 159.581 113.375 159.724L113.555 159.779C113.976 159.904 114.404 160.025 114.825 160.142C114.887 160.164 114.951 160.183 115.015 160.196C115.374 160.291 115.734 160.393 116.092 160.482C116.82 160.672 117.542 160.85 118.265 161.012C118.629 161.096 118.992 161.177 119.352 161.253C119.765 161.344 120.178 161.425 120.589 161.505C120.818 161.55 121.043 161.595 121.271 161.635C121.357 161.653 121.446 161.671 121.532 161.684C121.882 161.747 122.237 161.81 122.59 161.869C123.376 162.003 124.162 162.12 124.943 162.223C125.239 162.264 125.536 162.304 125.832 162.34C126.047 162.366 126.258 162.394 126.469 162.416C126.618 162.434 126.761 162.452 126.905 162.465C127.264 162.506 127.623 162.542 127.977 162.573C128.072 162.582 128.157 162.591 128.247 162.596C128.705 162.64 129.168 162.681 129.625 162.713C130.03 162.744 130.434 162.771 130.837 162.794C131.088 162.807 131.34 162.82 131.598 162.829C131.895 162.847 132.196 162.86 132.496 162.87C132.514 162.874 132.533 162.874 132.551 162.87C132.981 162.888 133.407 162.901 133.843 162.906C134.728 162.928 135.611 162.928 136.491 162.914C136.689 162.914 136.886 162.91 137.079 162.906C137.365 162.906 137.65 162.892 137.941 162.883C138.232 162.874 138.526 162.865 138.813 162.852C139.1 162.838 139.396 162.829 139.688 162.812C139.98 162.795 140.249 162.784 140.527 162.766C140.864 162.744 141.205 162.721 141.541 162.695C142.735 162.609 143.926 162.497 145.105 162.358C145.402 162.326 145.698 162.29 145.995 162.25C146.322 162.209 146.65 162.17 146.978 162.125C148.378 161.935 149.771 161.71 151.157 161.451C151.498 161.393 151.839 161.326 152.18 161.261C152.414 161.221 152.647 161.171 152.881 161.122C153.115 161.073 153.37 161.027 153.613 160.969C155.283 160.623 156.938 160.231 158.577 159.793C158.967 159.698 159.358 159.586 159.745 159.479C160.907 159.162 162.058 158.824 163.196 158.465C163.957 158.226 164.714 157.989 165.464 157.728C165.787 157.621 166.106 157.512 166.423 157.4C167.223 157.131 168.022 156.844 168.812 156.544C169.181 156.409 169.548 156.27 169.912 156.131C170.277 155.992 170.639 155.857 171.003 155.709C171.366 155.56 171.729 155.423 172.089 155.278C172.449 155.132 172.807 154.986 173.166 154.838C174.022 154.483 174.872 154.12 175.716 153.751C176.977 153.203 178.221 152.635 179.446 152.046C179.814 151.871 180.183 151.695 180.551 151.516C180.636 151.48 180.716 151.435 180.802 151.395C181.116 151.238 181.431 151.085 181.745 150.928C182.584 150.515 183.415 150.089 184.232 149.658C184.622 149.456 185.008 149.249 185.394 149.043C185.727 148.868 186.06 148.688 186.391 148.508C186.822 148.275 187.247 148.041 187.675 147.8C188.016 147.609 188.352 147.419 188.689 147.229C192.182 145.254 195.444 143.225 198.449 141.227C198.862 140.953 199.27 140.68 199.674 140.406C200.53 139.827 201.362 139.252 202.174 138.682C202.407 138.516 202.641 138.354 202.87 138.188C203.099 138.023 203.346 137.843 203.588 137.672C205.301 136.446 206.896 135.252 208.364 134.116C209.114 133.538 209.832 132.975 210.519 132.425C210.726 132.258 210.927 132.097 211.125 131.935C211.34 131.765 211.556 131.59 211.763 131.419C213.019 130.4 214.141 129.453 215.125 128.6C215.29 128.46 215.452 128.321 215.601 128.187C216.884 127.069 217.898 126.145 218.621 125.471C219.303 124.838 219.726 124.425 219.878 124.277L219.914 124.241L219.941 124.214C220.664 119.164 224.704 119.6 224.704 119.6C224.704 119.6 239.903 108.727 245.577 123.918C248.401 131.482 246.457 135.738 243.795 138.103C241.107 140.487 237.69 140.957 237.69 140.957C227.976 150.672 208.184 180.277 208.184 180.277C211.066 186.121 212.371 198.021 212.371 198.021C218.062 199.749 223.508 202.721 228.023 205.692C230.62 207.406 233.129 209.25 235.539 211.218C238.203 213.383 239.781 214.904 239.781 214.904C248.725 210.505 251.543 216.78 251.543 216.78C260.269 217.288 259.982 224.789 259.982 224.789C262.288 227.356 262.625 230.247 261.574 233.25Z" fill="#A38DBF"/>
<path d="M105.366 193.68C80.8202 185.357 68.2113 174.153 68.2113 174.153C61.1862 176.366 50.7055 167.514 59.1663 155.587C67.6272 143.66 80.1381 157.706 80.1381 157.706C80.1381 157.706 73.8902 164.439 82.0647 171.361C90.2391 178.284 106.461 181.636 106.461 181.636C106.461 181.636 104.958 188.055 105.366 193.68Z" fill="#F6F4F9"/>
<path d="M259.994 224.797C259.994 224.797 260.279 217.296 251.555 216.788C251.555 216.788 248.74 210.509 239.794 214.912C239.794 214.912 235.026 210.306 228.032 205.701C223.022 207.545 218.467 210.446 214.679 214.208C212.381 216.48 209.687 218.314 206.73 219.618C203.311 221.13 199.454 221.355 195.843 220.392C195.73 220.363 195.619 220.332 195.507 220.297C189.718 218.68 186.379 212.531 188.181 206.798C189.831 201.553 191.004 192.071 187.051 176.849C185.02 169.03 187.241 160.662 193.107 155.107C197.749 150.712 202.171 144.897 202.178 138.69C201.366 139.261 200.535 139.832 199.678 140.414C199.274 140.688 198.865 140.962 198.452 141.235C195.449 143.233 192.185 145.262 188.693 147.237C188.356 147.427 188.019 147.617 187.679 147.808C187.252 148.049 186.822 148.283 186.394 148.517C186.062 148.696 185.728 148.876 185.398 149.051C185.012 149.258 184.626 149.464 184.236 149.666C183.418 150.097 182.588 150.522 181.749 150.936C181.435 151.093 181.12 151.246 180.806 151.403C180.72 151.443 180.64 151.489 180.555 151.524C180.186 151.704 179.818 151.879 179.45 152.054C178.225 152.642 176.981 153.21 175.72 153.76C174.876 154.128 174.028 154.491 173.17 154.846C172.811 154.995 172.451 155.142 172.093 155.286C171.734 155.429 171.37 155.571 171.006 155.717C170.643 155.862 170.279 156.002 169.916 156.139C169.553 156.276 169.184 156.417 168.816 156.552C168.026 156.848 167.226 157.135 166.427 157.408C166.109 157.521 165.791 157.629 165.467 157.737C164.718 157.992 163.958 158.234 163.2 158.473C162.058 158.831 160.908 159.169 159.748 159.487C159.362 159.595 158.971 159.702 158.581 159.801C156.943 160.237 155.288 160.629 153.617 160.977C153.374 161.031 153.131 161.085 152.885 161.13C152.639 161.175 152.418 161.225 152.184 161.269C151.843 161.337 151.502 161.404 151.161 161.459C149.778 161.713 148.384 161.938 146.981 162.133C146.654 162.178 146.326 162.218 145.999 162.259C145.702 162.299 145.406 162.335 145.109 162.366C143.929 162.505 142.739 162.617 141.545 162.703C141.208 162.73 140.868 162.752 140.531 162.774C140.252 162.792 139.97 162.806 139.692 162.82C139.414 162.834 139.108 162.851 138.817 162.86C138.525 162.868 138.237 162.886 137.945 162.891C137.653 162.896 137.374 162.909 137.083 162.914C136.893 162.914 136.693 162.923 136.495 162.923C135.615 162.936 134.731 162.936 133.846 162.914C133.415 162.914 132.984 162.896 132.554 162.878C132.537 162.883 132.518 162.883 132.5 162.878C132.2 162.868 131.899 162.855 131.602 162.837C131.346 162.828 131.095 162.815 130.841 162.802C130.437 162.779 130.033 162.752 129.629 162.721C129.171 162.69 128.709 162.649 128.25 162.604C128.161 162.599 128.071 162.591 127.981 162.581C127.627 162.55 127.267 162.514 126.909 162.474C126.765 162.46 126.623 162.442 126.473 162.424C126.262 162.402 126.051 162.375 125.836 162.348C125.54 162.312 125.243 162.272 124.947 162.231C124.166 162.128 123.38 162.011 122.594 161.877C122.24 161.818 121.885 161.755 121.535 161.692C121.45 161.679 121.36 161.661 121.275 161.643C121.046 161.603 120.822 161.558 120.592 161.514C120.18 161.433 119.767 161.352 119.356 161.262C118.996 161.185 118.633 161.105 118.269 161.02C117.546 160.858 116.824 160.683 116.096 160.49C115.737 160.4 115.378 160.3 115.019 160.204C114.935 160.187 114.852 160.162 114.772 160.129C114.469 160.072 114.172 159.984 113.886 159.868C113.714 159.832 113.543 159.787 113.376 159.733C112.9 159.589 112.425 159.441 111.949 159.288C111.949 159.288 111.302 161.322 107.002 162.143C107.94 163.219 108.938 164.242 109.99 165.207C112.457 167.498 114.344 170.343 115.493 173.508C116.642 176.672 117.022 180.065 116.599 183.405C115.339 193.551 115.849 209.142 126.195 223.892C126.962 224.969 127.788 226.002 128.669 226.987C130.115 228.628 132.884 232.157 134.125 236.331C134.508 237.632 134.546 239.01 134.235 240.331C133.923 241.651 133.273 242.867 132.349 243.859L132.306 243.905C123.766 253.103 108.448 249.629 104.755 237.633C104.742 237.591 104.73 237.548 104.716 237.505L100.484 253.943C100.484 253.943 90.2398 253.078 89.5168 261.517C89.5168 261.517 89.3598 261.579 89.0991 261.707C81.3509 265.478 84.1385 277.176 92.7535 277.176H117.766C119.664 277.176 121.536 276.727 123.227 275.864C124.917 275.001 126.38 273.749 127.493 272.211C129.446 269.509 132.355 265.5 136.556 259.718C148.241 243.63 186.622 220.33 226.156 248.608C226.156 248.608 235.246 256.397 246.576 248.824C257.906 241.251 266.269 231.796 259.994 224.797Z" fill="#F6F4F9"/>
<path d="M237.702 140.965C227.988 150.68 208.196 180.285 208.196 180.285C201.054 168.671 213.943 161.036 222.311 149.495C228.662 140.732 220.905 128.639 218.633 125.483C219.315 124.851 219.737 124.437 219.889 124.289L219.926 124.253L219.952 124.226C220.675 119.176 224.715 119.612 224.715 119.612C224.715 119.612 239.915 108.74 245.589 123.931C251.263 139.122 237.702 140.965 237.702 140.965Z" fill="#F6F4F9"/>
<g opacity="0.3">
<path opacity="0.3" d="M212.034 140.32C207.848 146.268 198.41 157.782 186.645 160.228C186.549 160.25 186.438 160.273 186.334 160.29C186.334 160.29 147.199 192.876 107.612 166.855C107.612 166.855 101.349 166.509 94.5488 161.581C100.479 162.684 104.406 162.635 107.006 162.141C111.306 161.325 111.953 159.287 111.953 159.287C112.429 159.44 112.904 159.588 113.38 159.731L113.56 159.785C113.981 159.911 114.408 160.032 114.83 160.149C114.892 160.171 114.956 160.189 115.02 160.203C115.379 160.298 115.738 160.4 116.097 160.488C116.825 160.679 117.547 160.857 118.27 161.018C118.634 161.103 118.997 161.184 119.357 161.26C119.77 161.35 120.182 161.431 120.593 161.512C120.823 161.557 121.047 161.601 121.276 161.641C121.361 161.659 121.451 161.678 121.536 161.691C121.886 161.754 122.241 161.816 122.595 161.875C123.381 162.01 124.167 162.127 124.948 162.229C125.244 162.27 125.541 162.31 125.837 162.346C126.052 162.373 126.263 162.401 126.474 162.423C126.623 162.441 126.766 162.459 126.91 162.472C127.269 162.513 127.628 162.548 127.982 162.58C128.077 162.589 128.162 162.598 128.251 162.602C128.71 162.647 129.172 162.688 129.63 162.719C130.035 162.75 130.439 162.777 130.842 162.8C131.093 162.814 131.344 162.827 131.603 162.835C131.9 162.854 132.201 162.867 132.501 162.876C132.519 162.881 132.538 162.881 132.555 162.876C132.985 162.894 133.412 162.908 133.847 162.912C134.732 162.934 135.616 162.934 136.496 162.921C136.694 162.921 136.891 162.916 137.084 162.912C137.37 162.912 137.655 162.898 137.946 162.89C138.237 162.881 138.53 162.872 138.818 162.858C139.105 162.845 139.401 162.835 139.693 162.818C139.985 162.801 140.253 162.791 140.532 162.773C140.869 162.751 141.209 162.728 141.546 162.701C142.74 162.616 143.93 162.503 145.11 162.364C145.407 162.333 145.703 162.297 146 162.257C146.327 162.216 146.655 162.176 146.983 162.131C148.383 161.941 149.776 161.717 151.162 161.458C151.503 161.4 151.844 161.332 152.185 161.268C152.419 161.228 152.652 161.178 152.886 161.129C153.12 161.079 153.375 161.033 153.618 160.975C155.288 160.63 156.942 160.238 158.582 159.799C158.972 159.704 159.363 159.593 159.749 159.486C160.912 159.168 162.063 158.83 163.201 158.471C163.962 158.233 164.719 157.996 165.468 157.735C165.792 157.627 166.11 157.519 166.428 157.407C167.227 157.137 168.027 156.85 168.817 156.55C169.185 156.415 169.553 156.276 169.917 156.138C170.281 155.999 170.644 155.864 171.007 155.715C171.371 155.567 171.734 155.43 172.094 155.284C172.453 155.139 172.812 154.993 173.171 154.845C174.027 154.49 174.877 154.126 175.721 153.758C176.982 153.21 178.226 152.641 179.451 152.052C179.819 151.877 180.187 151.702 180.556 151.522C180.641 151.487 180.721 151.441 180.807 151.401C181.121 151.244 181.436 151.091 181.75 150.934C182.589 150.521 183.419 150.095 184.237 149.664C184.627 149.463 185.013 149.256 185.399 149.05C185.731 148.875 186.065 148.695 186.395 148.515C186.826 148.282 187.252 148.048 187.68 147.806C188.02 147.616 188.357 147.426 188.694 147.235C192.187 145.26 195.449 143.232 198.453 141.234C198.866 140.96 199.275 140.686 199.679 140.413C200.535 139.833 201.367 139.259 202.179 138.689C202.412 138.522 202.645 138.361 202.875 138.195C203.104 138.03 203.35 137.85 203.593 137.678C205.305 136.453 206.901 135.259 208.369 134.123C209.128 134.619 209.918 135.064 210.735 135.455C212.577 136.343 213.206 138.654 212.034 140.32Z" fill="#302839"/>
</g>
<path d="M245.798 235.692C246.388 232.964 244.7 230.284 242.027 229.705C239.354 229.127 236.708 230.87 236.118 233.598C235.527 236.326 237.216 239.006 239.889 239.584C242.562 240.163 245.207 238.42 245.798 235.692Z" fill="#FFB3D2"/>
<path d="M244.569 224.572C244.903 223.027 243.947 221.508 242.433 221.181C240.919 220.854 239.421 221.841 239.086 223.386C238.752 224.932 239.709 226.45 241.223 226.777C242.737 227.105 244.235 226.117 244.569 224.572Z" fill="#FFB3D2"/>
<path d="M252.965 234.077C253.299 232.531 252.342 231.013 250.828 230.686C249.314 230.359 247.816 231.346 247.482 232.891C247.148 234.437 248.104 235.955 249.618 236.282C251.132 236.61 252.631 235.622 252.965 234.077Z" fill="#FFB3D2"/>
<path d="M251.973 226.163C252.308 224.617 251.351 223.099 249.837 222.772C248.323 222.445 246.825 223.432 246.491 224.977C246.157 226.523 247.113 228.041 248.627 228.368C250.141 228.695 251.639 227.708 251.973 226.163Z" fill="#FFB3D2"/>
<g opacity="0.3">
<path opacity="0.3" d="M261.574 233.25C259.751 238.457 253.758 244.015 246.576 248.822C235.246 256.395 226.156 248.606 226.156 248.606C186.622 220.326 148.236 243.628 136.556 259.717C132.355 265.498 129.446 269.508 127.493 272.209C126.38 273.747 124.918 274.999 123.227 275.862C121.536 276.725 119.664 277.174 117.766 277.174H92.7535C84.1385 277.174 81.3509 265.48 89.0944 261.71C89.005 261.943 86.419 268.551 90.6699 270.535C90.6699 270.535 93.4128 264.282 99.1146 266.639C99.1146 266.639 98.7502 273.422 112.388 270.535C126.025 267.648 127.174 239.081 166.565 228.263C197.068 219.885 224.241 235.241 234.95 242.597C236.572 243.705 238.458 244.364 240.417 244.505C242.376 244.647 244.337 244.268 246.102 243.405C250.903 241.065 257.38 237.451 261.574 233.25Z" fill="#302839"/>
</g>
<g opacity="0.3">
<path opacity="0.3" d="M112.521 232.233C110.932 231.298 109.029 229.692 107.432 226.948L109.286 219.748C109.286 219.748 111.528 225.388 114.242 230.614C114.815 231.715 113.592 232.862 112.521 232.233Z" fill="#302839"/>
</g>
<g opacity="0.3">
<path opacity="0.3" d="M239.793 214.913C239.793 214.913 231.977 219.505 229.571 223.882C229.571 223.882 229.814 216.255 235.551 211.228C238.218 213.392 239.793 214.913 239.793 214.913Z" fill="#302839"/>
</g>
<g opacity="0.3">
<path opacity="0.3" d="M237.701 140.965C227.987 150.68 208.195 180.285 208.195 180.285C211.077 186.129 212.381 198.03 212.381 198.03C212.381 198.03 208.522 196.412 200.617 195.309C200.019 195.225 199.886 194.41 200.432 194.152C201.283 193.744 202.179 193.44 203.102 193.246C204.894 192.883 206.097 191.191 205.748 189.396C204.588 183.418 201.701 171.706 195.835 163.941C195.763 163.849 195.723 163.736 195.719 163.619C195.715 163.502 195.749 163.387 195.815 163.29C195.881 163.193 195.976 163.12 196.086 163.081C196.196 163.042 196.316 163.038 196.428 163.071C198.617 163.732 200.758 164.544 202.834 165.503C204.562 166.297 206.508 166.481 208.354 166.026C210.2 165.571 211.837 164.503 212.999 162.997C216.328 158.686 221.181 152.552 226.136 146.746C226.791 145.983 227.208 145.045 227.338 144.048C227.467 143.051 227.303 142.038 226.866 141.133C225.996 139.325 225.164 136.873 225.439 134.422C225.439 134.422 222.876 131.656 224.357 128.191C224.357 128.191 232.514 134.072 235.432 127.437C235.432 127.437 235.508 139.462 243.804 138.111C241.117 140.499 237.701 140.965 237.701 140.965Z" fill="#302839"/>
</g>
<g opacity="0.3">
<path opacity="0.3" d="M108.635 173.789C105.726 180.259 105.367 193.68 105.367 193.68C80.8205 185.357 68.2115 174.152 68.2115 174.152C65.2308 175.091 61.6259 174.036 59.1123 171.603C66.7074 170.283 64.697 163.317 64.697 163.317C71.138 167.828 77.1442 159.977 77.1442 159.977C79.2725 166.037 74.0998 168.932 74.0998 168.932C74.4147 170.881 73.5479 172.469 73.5479 172.469C86.3919 181.127 101.586 185.789 101.586 185.789C103.32 179.105 108.635 173.789 108.635 173.789Z" fill="#302839"/>
</g>
<g opacity="0.5">
<path opacity="0.5" d="M115.769 228.625C116.187 229.897 114.508 230.802 113.688 229.744C112.274 227.921 110.644 224.864 109.286 219.748C105.821 206.474 105.367 193.679 105.367 193.679C105.367 193.679 104.811 184.97 108.635 173.788C108.884 173.267 109.672 173.49 109.604 174.063C108.722 181.49 107.311 202.894 115.769 228.625Z" fill="#F6F4F9"/>
</g>
<path d="M117.766 278.688H92.7531C87.4253 278.688 84.1658 274.896 83.3 271.137C82.4637 267.509 83.6435 262.86 88.115 260.501C89.1616 254.127 95.2563 252.426 99.3178 252.385L107.72 219.745C104.865 208.632 104.085 198.085 103.902 194.778C82.6854 187.429 70.6397 178.139 67.8292 175.813C63.8981 176.629 59.3484 174.76 56.7197 171.151C55.1271 168.963 52.0578 162.986 57.9299 154.708C60.3503 151.299 63.3282 149.476 66.7779 149.285C73.4378 148.905 79.5876 154.922 80.9814 156.389C106.244 164.716 110.211 159.287 110.512 158.788C110.601 158.387 110.836 158.115 111.196 157.901C111.556 157.687 111.996 157.711 112.41 157.847C112.878 157.996 113.346 158.142 113.813 158.284L113.964 158.328C114.401 158.459 114.82 158.577 115.23 158.691C115.263 158.7 115.298 158.711 115.325 158.723C115.353 158.736 115.399 158.739 115.433 158.749C115.775 158.844 116.118 158.939 116.46 159.024C117.168 159.214 117.86 159.38 118.595 159.543C118.976 159.639 119.317 159.709 119.664 159.782C120.07 159.871 120.467 159.952 120.866 160.027C121.118 160.08 121.325 160.117 121.532 160.154L121.583 160.164C121.642 160.177 121.705 160.189 121.765 160.199L121.813 160.207C122.154 160.272 122.492 160.328 122.834 160.384C123.569 160.511 124.32 160.624 125.14 160.733C125.448 160.778 125.73 160.813 126.011 160.847L126.09 160.856C126.271 160.879 126.449 160.902 126.627 160.921L126.7 160.93C126.817 160.944 126.93 160.958 127.045 160.969C127.418 161.01 127.766 161.045 128.108 161.075C128.196 161.084 128.259 161.09 128.323 161.094L128.39 161.099C128.839 161.143 129.283 161.182 129.727 161.212C130.134 161.244 130.526 161.27 130.919 161.291C131.187 161.306 131.417 161.318 131.646 161.326C131.963 161.345 132.245 161.358 132.521 161.365H132.609C133.024 161.383 133.439 161.397 133.854 161.401C134.675 161.421 135.522 161.424 136.463 161.41C136.654 161.41 136.831 161.405 136.999 161.402H137.049C137.329 161.398 137.608 161.389 137.888 161.38C138.19 161.38 138.465 161.362 138.736 161.349C139.036 161.34 139.314 161.327 139.593 161.31H139.648C139.906 161.298 140.167 161.285 140.425 161.268C140.758 161.246 141.091 161.225 141.416 161.198C142.592 161.114 143.768 161.008 144.925 160.868C145.222 160.835 145.504 160.801 145.781 160.763C146.122 160.721 146.443 160.681 146.763 160.637C148.145 160.447 149.528 160.225 150.873 159.972C151.218 159.913 151.539 159.848 151.869 159.781C152.129 159.736 152.344 159.686 152.559 159.644L152.715 159.612C152.906 159.575 153.089 159.536 153.275 159.495C154.892 159.16 156.535 158.771 158.18 158.333C158.577 158.232 158.955 158.129 159.328 158.024C160.495 157.704 161.638 157.368 162.734 157.023C163.59 156.756 164.3 156.526 164.966 156.298C165.302 156.191 165.607 156.084 165.911 155.976C166.665 155.722 167.452 155.441 168.272 155.134C168.64 154.999 168.996 154.868 169.348 154.729C169.728 154.589 170.074 154.456 170.423 154.314C170.803 154.168 171.155 154.029 171.503 153.885C171.867 153.74 172.215 153.6 172.564 153.452C173.377 153.12 174.198 152.77 175.096 152.374C176.314 151.846 177.551 151.279 178.783 150.689C179.158 150.512 179.517 150.341 179.872 150.165L179.951 150.129L180.141 150.034C180.435 149.89 180.745 149.736 181.054 149.581C181.837 149.201 182.638 148.787 183.511 148.326C183.906 148.122 184.286 147.919 184.665 147.716C184.951 147.567 185.211 147.43 185.474 147.284L185.657 147.188C186.079 146.959 186.497 146.731 186.913 146.494C187.262 146.304 187.592 146.113 187.922 145.923C191.157 144.093 194.411 142.093 197.596 139.975C198.003 139.699 198.414 139.424 198.82 139.154C199.84 138.466 200.875 137.747 201.978 136.966C202.133 136.856 202.279 136.751 202.424 136.646L202.692 136.456C204.996 134.804 207.307 133.054 209.561 131.255L210.155 130.78C210.377 130.604 210.584 130.435 210.783 130.271C211.925 129.344 213.044 128.407 214.113 127.474L214.6 127.056C216.62 125.297 217.955 124.034 218.515 123.495C219.334 119.284 222.321 118.135 224.249 118.088C226.026 116.928 232.754 112.95 238.926 114.833C242.564 115.943 245.275 118.829 246.985 123.407C248.994 128.787 248.967 133.267 246.9 136.72C244.465 140.794 239.973 142.055 238.42 142.379C229.652 151.343 212.932 175.944 209.906 180.43C212.168 185.619 213.38 194.012 213.744 196.89C218.529 198.46 223.602 200.998 228.842 204.446C232.794 207.05 236.543 209.95 240.058 213.121C243.267 211.731 246.124 211.47 248.56 212.349C250.142 212.912 251.506 213.96 252.459 215.343C259.368 216.104 261.37 221.131 261.508 224.235C263.215 226.34 263.913 228.73 263.585 231.348C262.686 238.496 254.299 245.481 247.423 250.082C235.816 257.84 226.162 250.549 225.244 249.814C203.959 234.604 184.167 235.531 171.31 238.986C154.964 243.382 143.036 253.38 137.787 260.607C133.586 266.387 130.678 270.395 128.726 273.096C127.469 274.826 125.821 276.235 123.916 277.207C122.012 278.178 119.904 278.686 117.766 278.688ZM99.6051 255.428C97.4645 255.428 91.5182 255.944 91.0273 261.643C91.0024 261.923 90.9003 262.191 90.7323 262.417C90.5644 262.643 90.3371 262.817 90.0759 262.922C90.0597 262.928 89.9408 262.978 89.7553 263.067C86.3017 264.749 85.709 268.098 86.2522 270.457C86.805 272.854 88.8381 275.655 92.7503 275.655H117.763C119.421 275.654 121.055 275.26 122.532 274.506C124.009 273.752 125.287 272.66 126.262 271.318C128.215 268.615 131.124 264.606 135.326 258.822C140.867 251.196 153.403 240.657 170.516 236.056C184.013 232.427 204.772 231.446 227.035 247.37C227.071 247.396 227.106 247.423 227.14 247.452C227.474 247.737 235.534 254.373 245.731 247.559C254.711 241.55 259.981 235.657 260.573 230.966C260.815 229.044 260.256 227.356 258.86 225.806C258.598 225.512 258.46 225.129 258.474 224.735C258.489 224.127 258.428 218.703 251.462 218.298C251.185 218.282 250.918 218.191 250.689 218.033C250.461 217.876 250.28 217.659 250.166 217.406C249.588 216.354 248.638 215.555 247.503 215.167C245.638 214.519 243.269 214.888 240.462 216.269C240.182 216.406 239.867 216.453 239.559 216.405C239.251 216.357 238.965 216.215 238.74 216C238.694 215.954 233.983 211.433 227.199 206.961C221.856 203.441 216.721 200.927 211.939 199.475C211.655 199.388 211.402 199.22 211.213 198.992C211.023 198.763 210.905 198.484 210.873 198.188C210.859 198.072 209.565 186.486 206.836 180.949C206.718 180.711 206.664 180.445 206.681 180.18C206.698 179.914 206.784 179.658 206.931 179.436C207.743 178.222 226.918 149.596 236.625 139.888C236.86 139.654 237.165 139.502 237.494 139.457C237.535 139.452 242.181 138.75 244.331 135.13C245.887 132.508 245.832 128.917 244.165 124.455C242.804 120.811 240.752 118.546 238.069 117.724C232.472 116.011 225.66 120.792 225.592 120.84C225.288 121.055 224.916 121.153 224.545 121.113C224.128 121.075 221.925 121.081 221.446 124.435C221.401 124.747 221.26 125.037 221.043 125.265L220.998 125.311L220.935 125.374C220.781 125.525 219.255 127.023 216.6 129.336L216.113 129.755C215.017 130.706 213.873 131.665 212.715 132.603C212.514 132.771 212.29 132.952 212.068 133.129L211.469 133.611C209.169 135.447 206.816 137.226 204.47 138.91L204.213 139.096C204.057 139.209 203.9 139.323 203.737 139.435C202.622 140.23 201.566 140.958 200.518 141.669C200.108 141.941 199.702 142.215 199.291 142.49C196.038 144.655 192.727 146.694 189.431 148.555C189.096 148.745 188.753 148.935 188.404 149.132C187.984 149.371 187.548 149.608 187.108 149.848L186.928 149.943C186.65 150.094 186.372 150.243 186.09 150.391C185.709 150.593 185.321 150.802 184.925 151.007C184.035 151.476 183.212 151.899 182.41 152.292C182.099 152.447 181.781 152.607 181.458 152.762L181.38 152.801C181.314 152.833 181.25 152.865 181.183 152.896C180.821 153.074 180.455 153.248 180.084 153.422C178.829 154.024 177.557 154.607 176.313 155.147C175.397 155.551 174.55 155.908 173.733 156.246C173.384 156.394 173.014 156.542 172.644 156.69C172.289 156.837 171.914 156.985 171.539 157.129C171.189 157.271 170.81 157.414 170.432 157.557C170.086 157.694 169.706 157.833 169.326 157.972C168.488 158.287 167.668 158.58 166.902 158.837C166.588 158.948 166.255 159.065 165.918 159.173C165.252 159.4 164.522 159.638 163.64 159.913C162.513 160.267 161.334 160.614 160.138 160.941C159.747 161.051 159.344 161.162 158.941 161.264C157.26 161.711 155.563 162.113 153.912 162.455C153.732 162.495 153.526 162.536 153.321 162.578L153.178 162.608C152.935 162.659 152.684 162.712 152.433 162.755C152.106 162.82 151.756 162.889 151.406 162.946C150.035 163.2 148.605 163.431 147.177 163.627C146.843 163.673 146.511 163.714 146.172 163.755C145.881 163.795 145.571 163.833 145.259 163.867C144.074 164.006 142.851 164.122 141.644 164.207C141.314 164.234 140.969 164.258 140.621 164.28C140.346 164.298 140.067 164.311 139.792 164.325C139.468 164.344 139.162 164.358 138.855 164.368C138.57 164.381 138.266 164.396 137.958 164.399C137.69 164.408 137.394 164.417 137.102 164.422C136.878 164.422 136.683 164.431 136.489 164.431C135.53 164.446 134.643 164.443 133.802 164.422C133.407 164.422 132.992 164.406 132.576 164.389C132.511 164.391 132.445 164.389 132.38 164.383C132.095 164.375 131.798 164.361 131.506 164.343C131.295 164.337 131.048 164.323 130.796 164.31C130.338 164.285 129.923 164.258 129.508 164.225C129.06 164.194 128.598 164.153 128.132 164.109C128.028 164.102 127.926 164.092 127.822 164.082C127.479 164.052 127.107 164.015 126.735 163.973C126.621 163.963 126.479 163.946 126.334 163.927L126.286 163.922C126.114 163.904 125.916 163.879 125.715 163.854L125.643 163.845C125.339 163.809 125.028 163.77 124.716 163.723C123.885 163.613 123.099 163.495 122.338 163.363C121.989 163.306 121.634 163.246 121.274 163.179C121.179 163.163 121.084 163.144 120.989 163.124C120.75 163.082 120.513 163.039 120.276 162.988C119.89 162.917 119.463 162.829 119.039 162.736C118.667 162.658 118.293 162.578 117.912 162.484C117.17 162.319 116.44 162.141 115.713 161.948C115.371 161.862 115.009 161.768 114.649 161.662C114.562 161.642 114.473 161.617 114.387 161.589C113.968 161.473 113.546 161.353 113.127 161.228C113.08 161.215 113.012 161.194 112.945 161.173L112.577 161.061C112.007 161.675 111.33 162.18 110.579 162.549C106.868 164.442 98.4958 165.385 79.6675 159.131C79.4155 159.048 79.19 158.899 79.0139 158.7C78.954 158.635 72.9183 151.957 66.9473 152.299C64.4308 152.441 62.2921 153.799 60.4093 156.451C57.0793 161.15 56.6265 165.853 59.1724 169.355C61.2141 172.157 64.9037 173.594 67.7579 172.694C68.0081 172.615 68.2743 172.603 68.5306 172.658C68.787 172.713 69.0248 172.833 69.2211 173.007C69.3439 173.117 81.9271 184.12 105.856 192.232C106.147 192.33 106.402 192.515 106.585 192.762C106.769 193.009 106.873 193.306 106.883 193.613C106.888 193.74 107.374 206.405 110.755 219.351C110.819 219.601 110.819 219.863 110.755 220.113L101.947 254.322C101.857 254.668 101.647 254.971 101.356 255.178C101.064 255.385 100.709 255.483 100.352 255.454C100.297 255.45 100.024 255.43 99.6051 255.43V255.428Z" fill="#302839"/>
<path d="M74.84 154.74C74.2231 154.827 73.6112 154.946 73.0067 155.097C72.3902 155.241 71.7825 155.421 71.1866 155.635C70.0457 156.018 68.9713 156.577 68.0023 157.291C67.1032 157.984 66.4696 158.857 66.147 159.806C65.9672 160.282 65.9301 160.789 65.9244 161.297C65.9625 161.55 65.9463 161.81 66.0253 162.058L66.108 162.439L66.2384 162.81C66.5809 163.812 67.3258 164.664 68.2078 165.245C68.6664 165.505 69.1468 165.751 69.6758 165.851C69.8071 165.878 69.9374 165.914 70.0706 165.938L70.4778 165.966C70.7381 165.994 71.0008 165.989 71.2599 165.951C71.7767 165.879 72.2713 165.694 72.7089 165.41C73.1887 165.088 73.631 164.714 74.0275 164.294C74.9009 163.426 75.6925 162.338 76.72 161.243C76.7312 161.232 76.7462 161.226 76.7619 161.226C76.7775 161.226 76.7925 161.232 76.8037 161.243C76.8149 161.254 76.8217 161.268 76.8227 161.284C76.9063 162.802 76.5236 164.309 75.7258 165.603C75.2956 166.295 74.7392 166.9 74.0856 167.387C73.3911 167.913 72.5916 168.284 71.7413 168.474C71.3197 168.569 70.8883 168.615 70.456 168.611H69.8233C69.613 168.592 69.4027 168.559 69.1915 168.532C68.3429 168.41 67.523 168.138 66.7712 167.726C65.2908 166.878 64.0549 165.578 63.3889 163.986L63.1463 163.386C63.0807 163.181 63.0283 162.97 62.9741 162.759C62.8466 162.343 62.8257 161.903 62.7686 161.468C62.7334 160.596 62.7972 159.699 63.0693 158.857C63.5649 157.149 64.6914 155.717 65.9786 154.712C67.2659 153.708 68.7149 153.052 70.1534 152.568C70.8708 152.337 71.6016 152.151 72.3416 152.009C73.0929 151.862 73.8527 151.765 74.6164 151.715C75.0081 151.69 75.3942 151.818 75.6936 152.072C75.9929 152.326 76.182 152.686 76.2212 153.077C76.2604 153.467 76.1466 153.858 75.9037 154.166C75.6608 154.474 75.3078 154.676 74.919 154.73L74.84 154.74Z" fill="#302839"/>
<path d="M68.9863 175.455L67.4346 172.85C70.2345 171.18 69.3726 167.843 69.3374 167.701L72.2563 166.884C72.8081 168.844 72.8404 173.157 68.9863 175.455Z" fill="#302839"/>
<path d="M224.195 118.186C224.459 118.091 224.614 118.043 224.816 117.986C225.018 117.929 225.197 117.886 225.387 117.846C225.766 117.771 226.15 117.715 226.535 117.681C227.319 117.606 228.11 117.632 228.887 117.761C230.495 118.027 231.991 118.754 233.194 119.854C234.376 120.952 235.192 122.298 235.745 123.659C236.017 124.334 236.246 125.026 236.43 125.73C236.623 126.468 236.742 127.224 236.783 127.986C236.825 128.81 236.729 129.636 236.497 130.428C236.245 131.266 235.796 132.032 235.187 132.66C234.578 133.289 233.828 133.764 232.998 134.043C232.24 134.305 231.442 134.431 230.64 134.415C229.106 134.4 227.609 133.937 226.333 133.083C225.701 132.665 225.13 132.109 224.773 131.414C224.416 130.72 224.282 129.91 224.534 129.202C224.91 129.719 225.359 130.179 225.866 130.568C226.31 130.909 226.789 131.204 227.293 131.447C228.317 131.903 229.443 132.082 230.558 131.968C231.638 131.859 232.602 131.434 233.16 130.785C233.717 130.137 233.93 129.225 233.842 128.164C233.787 127.613 233.678 127.069 233.515 126.539C233.345 125.976 233.139 125.423 232.898 124.886C232.422 123.839 231.812 122.898 231.041 122.222C230.293 121.528 229.358 121.07 228.352 120.902C227.831 120.808 227.3 120.774 226.77 120.801C226.5 120.815 226.23 120.843 225.962 120.886C225.829 120.91 225.696 120.93 225.568 120.957L225.241 121.034L225.064 121.075C224.69 121.16 224.298 121.1 223.966 120.907C223.635 120.713 223.39 120.401 223.28 120.034C223.17 119.666 223.204 119.27 223.376 118.927C223.547 118.584 223.843 118.318 224.202 118.185L224.195 118.186Z" fill="#302839"/>
<path d="M237.693 142.482C229.411 142.437 227.094 136.261 227.026 133.001L230.058 132.937L228.542 132.969L230.058 132.93C230.079 133.596 230.472 139.411 237.709 139.45L237.693 142.482Z" fill="#302839"/>
<path d="M211.878 199.463C211.297 199.225 210.679 198.958 210.082 198.681C209.484 198.405 208.877 198.121 208.274 197.833C207.065 197.252 205.854 196.67 204.612 195.988C206.013 195.761 207.415 195.784 208.793 195.899C209.483 195.958 210.169 196.038 210.85 196.154C211.535 196.263 212.213 196.412 212.88 196.601L211.878 199.463Z" fill="#302839"/>
<path d="M206.775 180.819C206.459 179.829 206.09 178.788 205.736 177.769C205.382 176.75 204.982 175.733 204.585 174.718C204.188 173.704 203.729 172.72 203.267 171.73C202.806 170.74 202.32 169.759 201.81 168.742C202.738 169.398 203.549 170.212 204.283 171.075C205.018 171.937 205.653 172.876 206.294 173.811C206.934 174.746 207.509 175.718 208.064 176.703C208.619 177.688 209.132 178.68 209.611 179.748L206.775 180.819Z" fill="#302839"/>
<path d="M103.856 193.803C103.801 192.907 103.796 192.009 103.841 191.112C103.881 190.239 103.948 189.369 104.052 188.507C104.252 186.787 104.549 185.08 104.942 183.394C105.143 182.554 105.35 181.717 105.599 180.892L105.963 179.655C106.094 179.246 106.248 178.842 106.384 178.437C106.957 176.809 107.712 175.25 108.635 173.792C108.581 174.667 108.445 175.505 108.329 176.347C108.213 177.189 108.066 178.012 107.948 178.843C107.663 180.49 107.434 182.141 107.244 183.79C107.054 185.44 106.944 187.088 106.877 188.729C106.837 189.55 106.83 190.369 106.824 191.184C106.817 191.998 106.836 192.837 106.879 193.562L103.856 193.803Z" fill="#302839"/>
<path d="M110.701 219.203C111.028 220.102 111.341 221.038 111.633 221.972C111.925 222.905 112.21 223.849 112.484 224.796L113.34 227.636L114.23 230.496C112.884 228.989 111.741 227.316 110.676 225.613C110.141 224.761 109.644 223.89 109.167 223.009C108.69 222.128 108.261 221.232 107.874 220.292L110.701 219.203Z" fill="#302839"/>
<path d="M88.3652 260.533C88.5116 260.363 88.6706 260.204 88.8409 260.057C88.992 259.923 89.1508 259.798 89.3166 259.682C89.6401 259.45 89.984 259.247 90.3442 259.076C91.0695 258.73 91.8562 258.53 92.6589 258.489C93.4437 258.433 94.2305 258.566 94.9527 258.878C95.6328 259.168 96.2301 259.623 96.691 260.201C96.3161 260.218 95.986 260.18 95.6568 260.201C95.3276 260.222 95.0203 260.216 94.7187 260.283C94.4238 260.299 94.1412 260.399 93.8739 260.449C93.7397 260.484 93.6103 260.544 93.4828 260.583C93.3543 260.62 93.2294 260.669 93.1099 260.729C92.6336 260.945 92.1843 261.217 91.7713 261.538C91.5686 261.703 91.366 261.863 91.1766 262.039C91.0815 262.124 90.9863 262.214 90.8979 262.299L90.6771 262.513L88.3652 260.533Z" fill="#302839"/>
<path d="M93.8426 277.95C93.6534 277.671 93.4818 277.379 93.3288 277.078C93.1816 276.794 93.0489 276.502 92.9311 276.205C92.6855 275.602 92.5013 274.977 92.3812 274.338C92.1319 273.05 92.13 271.601 92.6428 270.226C93.148 268.885 94.108 267.764 95.3553 267.059C96.5303 266.416 97.8385 266.22 99.1124 266.641C98.2057 267.628 97.3837 268.285 96.7129 268.948C96.0786 269.52 95.6397 270.276 95.458 271.111C95.3743 271.52 95.3404 271.937 95.3572 272.354C95.3851 272.805 95.4487 273.253 95.5475 273.694C95.6546 274.161 95.7867 274.622 95.9433 275.074C96.026 275.303 96.105 275.536 96.1954 275.762L96.4513 276.398L93.8426 277.95Z" fill="#302839"/>
<path d="M240.602 216.196L237.849 218.024C236.919 218.635 235.994 219.256 235.073 219.885C234.156 220.519 233.266 221.181 232.343 221.833L229.572 223.887C229.959 222.758 230.572 221.728 231.25 220.759C231.927 219.789 232.728 218.924 233.542 218.08C234.364 217.244 235.226 216.45 236.127 215.701C237.031 214.947 237.985 214.255 238.982 213.63L240.602 216.196Z" fill="#302839"/>
<path d="M252.709 217.769C252.242 218.229 251.663 218.591 251.061 218.924C250.428 219.283 249.745 219.545 249.034 219.701C249.101 218.97 249.266 218.251 249.526 217.565C249.763 216.927 250.024 216.32 250.396 215.81L252.709 217.769Z" fill="#302839"/>
<path d="M261.011 225.921C260.38 226.371 259.703 226.754 258.992 227.063C258.275 227.389 257.531 227.679 256.646 227.784C256.875 226.892 257.248 226.185 257.647 225.515C258.047 224.844 258.469 224.21 258.979 223.67L261.011 225.921Z" fill="#302839"/>
<path d="M54.7276 232.06L23.5587 241.488L22.8642 241.699C22.8642 241.699 12.7375 238.405 12.1076 232.886C12.1076 232.886 6.55716 233.029 1.51758 227.198L6.48009 220.291L7.64746 218.654L7.66649 218.633L30.6238 186.656L65.1122 185.588C65.1122 185.588 65.743 187.155 68.4421 189.545C68.7123 189.782 68.9986 190.021 69.3098 190.281L54.7276 232.06Z" fill="#E05656"/>
<g opacity="0.3">
<path opacity="0.3" d="M54.7276 232.059L22.8642 241.695C22.8642 241.695 12.7375 238.4 12.1076 232.882C12.1076 232.882 6.55716 233.025 1.51758 227.194L6.48009 220.287C6.6228 220.524 10.2857 226.549 17.2852 223.855C17.2852 223.855 17.6771 231.411 26.059 234.195L35.965 231.845C40.6445 230.736 45.0065 228.566 48.7146 225.504C52.4227 222.441 55.3777 218.568 57.3516 214.183L68.443 189.548C68.7132 189.785 68.9996 190.024 69.3107 190.283L54.7276 232.059Z" fill="#302839"/>
</g>
<g opacity="0.3">
<path opacity="0.3" d="M30.624 186.661C30.624 186.661 35.2973 192.625 43.0874 196.309L69.3138 190.282C69.3138 190.282 67.8048 188.855 65.1171 185.592L30.624 186.661Z" fill="#302839"/>
</g>
<g opacity="0.5">
<path opacity="0.5" d="M68.1561 193.334L55.217 196.749C52.1011 197.571 49.1892 199.029 46.6646 201.032C44.14 203.034 42.0575 205.538 40.5483 208.385L23.3546 240.816L42.0335 199C42.0335 199 37.8225 197.818 34.3157 195.423C31.686 193.629 28.1316 194.075 26.0965 196.52L7.66309 218.636L30.6204 186.658C30.6204 186.658 35.6629 193.173 43.0838 196.311L69.314 190.283L68.1561 193.334Z" fill="#F6F4F9"/>
</g>
<path d="M22.8612 243.212C22.7019 243.212 22.5436 243.187 22.3922 243.137C21.338 242.795 12.6346 239.808 10.8726 234.303C8.76336 234.012 4.39547 232.84 0.369135 228.182C0.146395 227.925 0.0169052 227.6 0.0015435 227.259C-0.0138182 226.919 0.0858449 226.584 0.284461 226.307L29.3974 185.777C29.5335 185.589 29.711 185.434 29.9164 185.324C30.1217 185.215 30.3494 185.154 30.5819 185.147L65.0702 184.078C65.3807 184.07 65.6863 184.156 65.9462 184.326C66.206 184.496 66.4076 184.742 66.524 185.03C66.524 185.03 67.2803 186.674 70.2715 189.109C70.5135 189.306 70.689 189.572 70.7741 189.872C70.8592 190.172 70.8498 190.49 70.7472 190.785L56.1622 232.564C56.0838 232.789 55.9531 232.993 55.7808 233.158C55.6085 233.324 55.3995 233.446 55.1709 233.515L23.2998 243.147C23.1577 243.19 23.0098 243.212 22.8612 243.212ZM12.099 231.365C12.4725 231.365 12.8332 231.501 13.1128 231.749C13.3924 231.997 13.5716 232.338 13.6165 232.709C14.017 236.235 20.0755 239.1 22.8898 240.103L53.5497 230.832L67.5353 190.767C65.7686 189.218 64.7762 187.95 64.2463 187.135L31.4229 188.152L3.4669 227.073C7.67876 231.364 11.8878 231.37 12.08 231.365H12.099Z" fill="#302839"/>
<path d="M43.2197 197.881C42.9759 197.881 42.7357 197.823 42.5194 197.71C33.4992 193.011 29.5689 187.782 29.4062 187.562L31.8418 185.754C31.877 185.801 35.4258 190.478 43.4271 194.758L68.9665 188.802L69.6553 191.752L43.5641 197.835C43.4514 197.864 43.3359 197.879 43.2197 197.881Z" fill="#302839"/>
<path d="M41.834 195.767L21.4717 241.097L24.2375 242.339L44.5998 197.01L41.834 195.767Z" fill="#302839"/>
<g opacity="0.3">
<path opacity="0.3" d="M32.0112 199.85C31.0255 202.295 29.8696 204.649 28.6527 206.97C27.4359 209.29 26.1324 211.562 24.7757 213.803C23.419 216.043 21.9682 218.229 20.4373 220.359C18.9065 222.489 17.273 224.553 15.4463 226.46C16.6765 224.126 17.9723 221.863 19.2976 219.616C20.6229 217.369 21.9472 215.124 23.3344 212.917C24.7215 210.71 26.0934 208.49 27.5348 206.312C28.9762 204.133 30.4318 201.96 32.0112 199.85Z" fill="#302839"/>
</g>
<path d="M54.2237 200.252C54.6952 199.467 54.4405 198.447 53.6548 197.976C52.869 197.504 51.8498 197.759 51.3782 198.545C50.9067 199.33 51.1614 200.35 51.9471 200.821C52.7328 201.293 53.7521 201.038 54.2237 200.252Z" fill="#302839"/>
<path d="M62.12 198.212C62.0231 198.436 61.862 198.627 61.6571 198.759C61.4522 198.892 61.2125 198.961 60.9684 198.958C60.7243 198.955 60.4866 198.879 60.2853 198.741C60.084 198.603 59.928 198.408 59.8371 198.182C59.7461 197.955 59.7243 197.707 59.7742 197.468C59.8242 197.229 59.9438 197.01 60.1179 196.839C60.2921 196.668 60.5129 196.552 60.7527 196.506C60.9925 196.461 61.2405 196.487 61.4655 196.582C61.616 196.645 61.7525 196.738 61.867 196.854C61.9815 196.971 62.0718 197.109 62.1327 197.26C62.1935 197.412 62.2238 197.574 62.2216 197.738C62.2194 197.901 62.1849 198.062 62.12 198.212Z" fill="#302839"/>
<path d="M64.7868 163.843L52.1611 199.163L53.4297 199.617L66.0554 164.296L64.7868 163.843Z" fill="#302839"/>
<path d="M64.8147 166.247L60.3086 197.633L61.6421 197.825L66.1482 166.438L64.8147 166.247Z" fill="#302839"/>
<path d="M64.7407 164.104L45.7119 185.719L46.7231 186.609L65.7518 164.995L64.7407 164.104Z" fill="#302839"/>
<path d="M64.3625 165.036L55.2354 185.603L56.4667 186.149L65.5938 165.582L64.3625 165.036Z" fill="#302839"/>
<path d="M83.1687 231.144L58.1877 252.031L57.6311 252.498C57.6311 252.498 47.0239 253.437 44.281 248.606C44.281 248.606 39.231 250.914 32.3086 247.524L34.1676 239.224L34.6024 237.267L34.6119 237.241L43.1993 198.824L74.51 184.325C74.51 184.325 75.704 185.519 79.1243 186.659C79.4658 186.771 79.8245 186.883 80.2108 186.995L83.1687 231.144Z" fill="#94C5E9"/>
<g opacity="0.3">
<path opacity="0.3" d="M83.1687 231.144L57.6311 252.498C57.6311 252.498 47.0239 253.436 44.281 248.606C44.281 248.606 39.231 250.914 32.3086 247.524L34.1676 239.224C34.3922 239.386 40.1244 243.493 45.5065 238.273C45.5065 238.273 48.8288 245.069 57.6311 244.346L65.8237 238.301C69.6931 235.446 72.855 231.74 75.0655 227.469C77.2759 223.199 78.4757 218.477 78.5724 213.669L79.1204 186.658C79.462 186.77 79.8207 186.883 80.207 186.995L83.1687 231.144Z" fill="#302839"/>
</g>
<g opacity="0.3">
<path opacity="0.3" d="M43.2002 198.825C43.2002 198.825 49.8381 202.48 58.4464 202.821L80.2107 186.997C80.2107 186.997 78.2622 186.276 74.5108 184.333L43.2002 198.825Z" fill="#302839"/>
</g>
<g opacity="0.5">
<path opacity="0.5" d="M80.3451 190.255L69.777 198.468C67.2322 200.446 65.1246 202.93 63.5871 205.763C62.0495 208.595 61.1153 211.716 60.8433 214.927L57.7389 251.5L58.5333 205.708C58.5333 205.708 54.1949 206.271 50.0316 205.444C46.9091 204.823 43.817 206.626 42.896 209.675L34.6074 237.244L43.1948 198.827C43.1948 198.827 50.3864 202.845 58.4439 202.823L80.2062 186.999L80.3451 190.255Z" fill="#F6F4F9"/>
</g>
<path d="M55.4004 254.103C52.1342 254.103 46.4715 253.603 43.6982 250.393C41.6441 250.952 37.1668 251.589 31.6363 248.88C31.3303 248.73 31.0838 248.482 30.9364 248.175C30.789 247.868 30.7493 247.52 30.8238 247.188L41.724 198.495C41.775 198.268 41.8776 198.055 42.0237 197.874C42.1699 197.692 42.3557 197.547 42.5669 197.448L73.8776 182.947C74.1597 182.816 74.4753 182.775 74.7817 182.829C75.088 182.883 75.3703 183.03 75.5901 183.251C75.5901 183.251 76.9306 184.467 80.6325 185.534C80.9316 185.621 81.1967 185.798 81.3922 186.04C81.5876 186.282 81.7041 186.579 81.7257 186.89L84.6827 231.041C84.6991 231.28 84.6588 231.519 84.565 231.739C84.4712 231.958 84.3267 232.153 84.1432 232.306L58.6019 253.666C58.3644 253.864 58.0719 253.985 57.7637 254.012C57.4678 254.037 56.5935 254.103 55.4004 254.103ZM44.2776 247.092C44.5458 247.091 44.8095 247.16 45.0421 247.294C45.2747 247.428 45.4678 247.62 45.6019 247.853C47.3439 250.925 54.1645 251.183 57.0321 251.02L81.6049 230.47L78.7678 188.132C76.5349 187.4 75.1258 186.622 74.319 186.08L44.5173 199.887L34.0519 246.649C39.6071 248.947 43.4841 247.297 43.661 247.22C43.8553 247.134 44.0653 247.091 44.2776 247.092Z" fill="#302839"/>
<path d="M58.5912 204.334C58.5522 204.334 58.5132 204.334 58.4742 204.329C48.3332 203.541 42.6686 200.271 42.4326 200.133L43.9663 197.517C44.0177 197.547 49.1143 200.458 58.1526 201.26L79.3156 185.771L81.1062 188.217L59.4865 204.041C59.227 204.231 58.9133 204.334 58.5912 204.334Z" fill="#302839"/>
<path d="M57.0818 202.806L56.1191 252.489L59.1507 252.548L60.1133 202.865L57.0818 202.806Z" fill="#302839"/>
<g opacity="0.3">
<path opacity="0.3" d="M49.6453 210.416C49.6976 213.052 49.5558 215.671 49.3465 218.283C49.1372 220.894 48.828 223.495 48.4579 226.084C48.0878 228.673 47.6102 231.256 47.0365 233.816C46.4628 236.376 45.7683 238.919 44.8359 241.392C45.0519 238.762 45.3583 236.172 45.6922 233.585C46.0261 230.998 46.3686 228.414 46.7797 225.841C47.1907 223.267 47.5826 220.687 48.0555 218.117C48.5283 215.547 49.0202 212.976 49.6453 210.416Z" fill="#302839"/>
</g>
<path d="M68.5948 203.514C69.5112 203.514 70.254 202.771 70.254 201.855C70.254 200.939 69.5112 200.196 68.5948 200.196C67.6784 200.196 66.9355 200.939 66.9355 201.855C66.9355 202.771 67.6784 203.514 68.5948 203.514Z" fill="#302839"/>
<path d="M75.9375 198.254C76.5706 197.991 76.8712 197.266 76.609 196.633C76.3467 196 75.621 195.699 74.988 195.961C74.355 196.223 74.0544 196.949 74.3166 197.582C74.5788 198.215 75.3045 198.516 75.9375 198.254Z" fill="#302839"/>
<path d="M67.0362 164.37L65.6914 164.45L67.9291 201.893L69.2738 201.813L67.0362 164.37Z" fill="#302839"/>
<path d="M68.8478 166.813L67.541 167.163L75.7854 197.921L77.0922 197.571L68.8478 166.813Z" fill="#302839"/>
<path d="M65.751 164.732L56.709 192.072L57.9871 192.495L67.0292 165.154L65.751 164.732Z" fill="#302839"/>
<path d="M65.7684 165.708L65.4268 188.207L66.7728 188.227L67.1145 165.728L65.7684 165.708Z" fill="#302839"/>
<path d="M196.446 41.9168L182.436 80.0348C180.194 77.8599 177.775 75.8739 175.206 74.0971C159.805 63.4652 145.422 65.2319 145.422 65.2319C152.884 55.3611 164.706 46.7633 164.706 46.7633C184.952 33.0935 192.375 36.0296 195.029 39.1283C196.208 40.505 196.446 41.9168 196.446 41.9168Z" fill="#A38DBF"/>
<g opacity="0.3">
<path opacity="0.3" d="M161.924 54.9178C159.118 57.5817 160.015 62.196 163.573 63.7173C171.555 67.1309 175.194 74.021 175.194 74.021L175.208 74.0971C159.808 63.4652 145.425 65.2319 145.425 65.2319C152.887 55.3611 164.709 46.7633 164.709 46.7633C184.955 33.0935 192.377 36.0296 195.032 39.1283C183.007 37.1865 169.687 47.5368 161.924 54.9178Z" fill="#302839"/>
</g>
<path d="M182.436 81.5456C182.043 81.5455 181.666 81.3926 181.383 81.1194C164.341 64.6487 145.795 66.7085 145.61 66.7304C145.315 66.7664 145.015 66.7147 144.749 66.5816C144.483 66.4485 144.261 66.24 144.113 65.982C143.964 65.724 143.895 65.428 143.913 65.1308C143.932 64.8337 144.037 64.5485 144.217 64.3109C151.733 54.3783 163.331 45.888 163.821 45.5312L163.865 45.5017C177.185 36.5081 187.006 33.2676 193.073 35.8707C197.229 37.6555 197.917 41.502 197.943 41.6647C197.987 41.9244 197.962 42.1911 197.871 42.4382L183.861 80.5523C183.773 80.7886 183.628 80.9993 183.439 81.1655C183.249 81.3316 183.022 81.4478 182.776 81.5037C182.665 81.5309 182.551 81.545 182.436 81.5456ZM148.681 63.5926C154.893 63.6992 168.527 65.4593 181.801 77.3651L194.862 41.835C194.63 41.1234 193.891 39.4965 191.817 38.6316C188.963 37.4414 181.767 37.078 165.589 47.9982C165.086 48.3635 155.709 55.2983 148.678 63.5926H148.681Z" fill="#302839"/>
<path d="M200.387 96.5968C199.635 98.9334 198.756 101.326 197.75 103.774L175.194 74.0162C175.194 74.0162 176.496 52.4954 190.563 41.2451C192.58 39.6277 195.58 40.2509 196.851 42.5038C197.382 43.4438 197.962 44.5522 198.557 45.8195H198.563C202.902 55.0452 208.054 72.7594 200.387 96.5968Z" fill="#EC9A9A"/>
<g opacity="0.3">
<path opacity="0.3" d="M198.557 45.8199C198.376 45.6477 193.563 41.2228 189.072 48.3383C186.767 51.9888 185.574 54.0657 184.957 55.2284C184.896 55.3444 184.871 55.4759 184.886 55.6061C184.9 55.7363 184.953 55.8592 185.038 55.9591C185.122 56.059 185.235 56.1313 185.361 56.1667C185.487 56.2021 185.621 56.199 185.746 56.1579L188.255 55.334C188.892 55.1256 189.585 55.175 190.185 55.4717C190.786 55.7684 191.246 56.2887 191.467 56.9209C192.355 59.4345 193.333 63.9613 192.262 70.3024C192.037 71.5649 192.307 72.8654 193.014 73.9348C194.32 75.8662 196.059 79.6632 194.673 84.9882C194.392 86.0741 194.493 87.2234 194.958 88.2439C195.875 90.2723 197.663 93.6812 200.39 96.5972C199.639 98.9339 198.76 101.326 197.754 103.775L175.198 74.0167C175.198 74.0167 176.5 52.4959 190.567 41.2456C192.584 39.6282 195.584 40.2514 196.855 42.5043C197.382 43.4443 197.962 44.5527 198.557 45.8199Z" fill="#EC9A9A"/>
</g>
<path d="M197.754 105.292C197.52 105.291 197.289 105.237 197.079 105.133C196.87 105.029 196.687 104.878 196.545 104.692L173.986 74.9307C173.767 74.6419 173.659 74.2847 173.68 73.9232C173.736 73.0165 175.189 51.5976 189.615 40.0618C190.258 39.5484 191.006 39.181 191.805 38.9854C192.604 38.7897 193.436 38.7704 194.244 38.9287C195.065 39.0872 195.842 39.4225 196.521 39.9115C197.2 40.4004 197.764 41.0312 198.174 41.7601C202.825 50.0107 212.231 72.6255 199.155 104.354C199.053 104.601 198.888 104.816 198.676 104.979C198.465 105.141 198.214 105.245 197.949 105.279C197.884 105.288 197.819 105.292 197.754 105.292ZM176.753 73.5655L197.335 100.718C208.435 71.5304 199.844 50.9012 195.527 43.2528C195.333 42.9064 195.066 42.6064 194.744 42.3738C194.421 42.1411 194.053 41.9814 193.663 41.9057C193.287 41.8287 192.898 41.8358 192.526 41.9265C192.153 42.0171 191.805 42.189 191.506 42.4299C179.362 52.1418 177.078 70.2013 176.753 73.5655Z" fill="#302839"/>
<path d="M177.096 63.5935L187.011 60.333C187.011 60.333 189.537 67.694 186.387 72.5966C186.387 72.5966 196.315 82.0516 186.472 88.8932L175.193 74.0142C175.193 74.0142 175.798 67.7292 177.096 63.5935Z" fill="#A38DBF"/>
<path d="M186.473 90.4048C186.239 90.4053 186.008 90.3515 185.798 90.2474C185.588 90.1434 185.406 89.9921 185.264 89.8054L173.985 74.9265C173.756 74.6231 173.648 74.2444 173.685 73.8656C173.71 73.6021 174.319 67.3742 175.649 63.1357C175.722 62.9059 175.848 62.6966 176.017 62.5252C176.186 62.3538 176.394 62.2252 176.623 62.1501L186.537 58.8887C186.916 58.7636 187.33 58.7934 187.687 58.9716C188.044 59.1498 188.317 59.462 188.445 59.8401C188.55 60.1483 190.851 67.0117 188.255 72.3653C189.735 74.0521 192.657 77.9785 192.318 82.3797C192.086 85.3928 190.415 88.0035 187.341 90.1375C187.086 90.3135 186.783 90.4068 186.473 90.4048ZM176.769 73.5735L186.759 86.7495C188.312 85.3766 189.163 83.8363 189.295 82.1552C189.634 77.8558 185.388 73.7296 185.345 73.6877C185.092 73.4439 184.93 73.1198 184.889 72.7705C184.847 72.4211 184.928 72.0682 185.117 71.7716C187.056 68.7556 186.469 64.48 185.973 62.268L178.333 64.7807C177.448 67.9441 176.934 72.0703 176.765 73.5774L176.769 73.5735Z" fill="#302839"/>
<path d="M130.509 71.3029C130.509 71.3029 116.075 72.5997 103.252 86.2314C102.361 87.1751 101.482 88.1741 100.619 89.2444C99.5354 90.5764 98.4679 92.013 97.4366 93.5572L75.7266 59.2391C75.7266 59.2391 75.7266 59.1896 75.7266 59.0983C75.7684 58.0875 76.0411 57.0998 76.5238 56.2108C78.4685 52.624 85.1074 48.1962 107.773 57.3011C107.771 57.3011 121.138 63.2226 130.509 71.3029Z" fill="#A38DBF"/>
<g opacity="0.3">
<path opacity="0.3" d="M130.509 71.3029C130.509 71.3029 116.075 72.5997 103.252 86.2314C102.361 87.1751 101.482 88.1741 100.619 89.2444C99.9679 88.4675 99.5617 87.515 99.4517 86.5073C98.5869 79.3442 104.654 73.2438 109.03 69.8387C109.485 69.4867 109.847 69.0292 110.085 68.5058C110.323 67.9824 110.429 67.4089 110.396 66.835C110.362 66.261 110.189 65.7039 109.892 65.2119C109.594 64.7199 109.181 64.3078 108.689 64.0113C82.7089 48.3313 75.7266 59.2391 75.7266 59.2391C75.7266 59.2391 75.7266 59.1896 75.7266 59.0983C75.7684 58.0875 76.0411 57.0998 76.5238 56.2108C78.4685 52.624 85.1074 48.1962 107.773 57.3011C107.771 57.3011 121.138 63.2226 130.509 71.3029Z" fill="#302839"/>
</g>
<path d="M97.4379 95.0719H97.418C97.1655 95.0686 96.9179 95.0023 96.6976 94.8791C96.4773 94.7558 96.2912 94.5794 96.1564 94.366L74.4463 60.0489C74.306 59.8264 74.2257 59.5714 74.2132 59.3087C74.2056 59.1432 74.0696 55.2386 77.7572 52.6203C83.1364 48.8005 93.4249 49.9022 108.335 55.896L108.385 55.916C108.938 56.1615 122.067 62.023 131.498 70.1547C131.724 70.3492 131.887 70.6059 131.968 70.8929C132.049 71.1798 132.043 71.4841 131.952 71.7678C131.86 72.0515 131.687 72.302 131.454 72.4879C131.221 72.6737 130.939 72.7868 130.642 72.8129C130.458 72.83 111.85 74.7785 98.6938 94.4002C98.5555 94.6065 98.3687 94.7757 98.1497 94.8928C97.9307 95.0099 97.6863 95.0714 97.4379 95.0719ZM77.2615 58.8235L97.4998 90.8144C107.973 76.3835 120.932 71.7968 126.985 70.3868C118.366 63.7527 107.742 58.9472 107.178 58.6941C89.0684 51.4206 82.1051 53.2882 79.5668 55.0502C77.7192 56.3365 77.3386 58.0833 77.2615 58.8273V58.8235Z" fill="#302839"/>
<path d="M83.3688 113.524C84.5942 115.651 85.9579 117.805 87.4599 119.987L103.253 86.1522C103.253 86.1522 97.4572 65.3859 81.3385 57.3437C79.0276 56.1878 76.2247 57.4265 75.456 59.8963C75.1344 60.9267 74.8005 62.1331 74.4856 63.4964V63.5021C72.1746 73.4319 70.8626 91.8321 83.3688 113.524Z" fill="#EC9A9A"/>
<g opacity="0.3">
<path opacity="0.3" d="M74.4834 63.4994C74.6242 63.2929 78.3994 57.9556 84.2828 63.9675C87.3035 67.0529 88.9067 68.832 89.7544 69.8386C89.838 69.9389 89.8898 70.0618 89.9033 70.1917C89.9168 70.3216 89.8913 70.4525 89.83 70.5679C89.7688 70.6832 89.6746 70.7777 89.5595 70.8393C89.4443 70.9009 89.3134 70.9268 89.1835 70.9137L86.5557 70.6359C85.8898 70.5662 85.2231 70.7602 84.6986 71.1764C84.1741 71.5926 83.8335 72.1978 83.7501 72.8621C83.4104 75.5061 83.4076 80.1413 85.7861 86.1114C86.2712 87.2987 86.2814 88.6272 85.8146 89.8218C84.9431 91.9844 83.5541 95.006 86.0315 99.92C86.5358 100.921 85.8764 102.791 85.6395 103.886C85.1696 106.061 84.8442 109.652 83.3705 113.528C84.5959 115.655 85.9595 117.809 87.4615 119.991L103.255 86.1561C103.255 86.1561 97.4588 65.3898 81.3402 57.3476C79.0292 56.1917 76.2264 57.4304 75.4576 59.9002C75.1323 60.9297 74.7983 62.136 74.4834 63.4994Z" fill="#EC9A9A"/>
</g>
<path d="M87.4521 121.507C87.2064 121.508 86.9644 121.448 86.7469 121.333C86.5294 121.219 86.3431 121.053 86.2039 120.851C66.7506 92.582 71.1927 68.4943 74.005 59.4494C74.2531 58.6506 74.672 57.9155 75.2328 57.2949C75.7935 56.6744 76.4826 56.1834 77.2522 55.8559C78.0084 55.5316 78.8262 55.3756 79.6487 55.3987C80.4713 55.4219 81.279 55.6237 82.0158 55.9901C98.5445 64.2359 104.469 84.8708 104.712 85.7452C104.808 86.0932 104.778 86.4644 104.625 86.7917L88.826 120.63C88.7129 120.872 88.538 121.08 88.3188 121.233C88.0996 121.386 87.8439 121.478 87.5777 121.5C87.5359 121.506 87.494 121.507 87.4521 121.507ZM79.4946 58.4295C79.1327 58.4305 78.7747 58.5049 78.4424 58.6483C78.077 58.8038 77.7498 59.0369 77.4835 59.3315C77.2172 59.626 77.0181 59.975 76.9001 60.3541C74.2933 68.7398 70.2308 90.7143 87.2171 116.915L101.632 86.043C100.608 82.8253 94.5781 65.6496 80.662 58.7073C80.3 58.5241 79.9003 58.4277 79.4946 58.4256V58.4295Z" fill="#302839"/>
<path d="M99.2009 76.3654L88.823 75.2617C88.823 75.2617 87.9001 82.989 92.0111 87.12C92.0111 87.12 84.2914 98.4512 95.3525 103.07L103.249 86.1534C103.249 86.1534 101.34 80.1358 99.2009 76.3654Z" fill="#A38DBF"/>
<path d="M95.352 104.587C95.1514 104.587 94.9528 104.547 94.7678 104.47C91.318 103.029 89.1327 100.83 88.2726 97.9318C87.0158 93.7 89.047 89.2474 90.1392 87.2866C86.4716 82.6 87.2784 75.4055 87.3174 75.082C87.3638 74.6855 87.5646 74.3234 87.8763 74.074C88.188 73.8247 88.5854 73.7083 88.9823 73.75L99.3612 74.8537C99.6008 74.8792 99.8309 74.9616 100.032 75.094C100.234 75.2263 100.401 75.4049 100.519 75.6148C102.707 79.4784 104.616 85.439 104.696 85.6911C104.811 86.0539 104.786 86.447 104.624 86.7919L96.7277 103.71C96.6059 103.972 96.4117 104.194 96.168 104.349C95.9242 104.505 95.6411 104.587 95.352 104.587ZM90.2525 76.9382C90.2306 79.2044 90.556 83.5086 93.0848 86.0507C93.3335 86.3004 93.4874 86.6291 93.5199 86.9801C93.5524 87.3311 93.4614 87.6824 93.2627 87.9735C93.2313 88.0211 89.9471 92.9465 91.182 97.0794C91.6643 98.6968 92.8212 100.022 94.628 101.038L101.624 86.0564C101.141 84.6189 99.7722 80.6934 98.25 77.7887L90.2525 76.9382Z" fill="#302839"/>
<path d="M202.823 126.547C202.823 126.547 205.035 128.872 208.491 130.524C210.33 131.406 210.965 133.716 209.787 135.376C205.601 141.325 196.168 152.837 184.399 155.285C184.299 155.309 184.194 155.329 184.09 155.35C184.09 155.35 144.954 187.933 105.368 161.914C105.368 161.914 93.8303 161.281 85.0735 149.403C84.7963 149.026 84.618 148.585 84.5546 148.12C84.4913 147.656 84.5451 147.183 84.7111 146.745C84.8959 146.23 85.2297 145.782 85.6701 145.457C86.6294 144.745 87.6916 144.183 88.8202 143.79C88.8202 143.79 85.5416 142.437 82.4876 137.534C82.1348 136.964 81.9966 136.287 82.0977 135.624C82.1988 134.962 82.5327 134.357 83.0394 133.918C84.1916 132.928 85.6006 131.418 86.3323 129.505C86.6763 128.619 86.8421 127.674 86.8203 126.724C86.8032 126.012 86.7366 124.536 86.7632 122.485C86.7728 121.713 86.7965 120.868 86.8413 119.937C86.9221 118.236 87.0686 116.291 87.336 114.17C88.7973 102.403 93.7931 85.196 110.139 73.5214C110.547 73.2283 110.963 72.941 111.383 72.6575C115.6 69.8167 120.184 67.5628 125.009 65.9577C125.383 65.8321 125.761 65.7104 126.136 65.5924C131.96 63.7911 138.036 62.9427 144.131 63.0797C144.863 63.094 145.595 63.1273 146.326 63.1749C149.578 63.3763 152.807 63.8605 155.976 64.622C156.942 64.8522 157.924 65.1119 158.915 65.4088C162.638 66.4969 166.242 67.9597 169.67 69.7748C179.133 74.7944 188.618 83.3189 195.667 97.6166C196.476 99.2524 197.249 100.965 197.987 102.754C197.987 102.754 198.064 103.173 198.262 103.863C198.402 104.357 198.601 104.99 198.874 105.709C199.817 108.176 201.633 111.649 204.896 113.972C205.588 114.469 206.327 114.895 207.104 115.244C207.826 115.567 208.406 116.141 208.737 116.859C209.068 117.577 209.128 118.391 208.904 119.15C208.092 121.875 206.355 125.571 202.823 126.547Z" fill="#A38DBF"/>
<path d="M186.623 152.513L184.399 155.291C184.299 155.314 184.195 155.334 184.09 155.355C184.09 155.355 144.954 187.939 105.368 161.92C105.368 161.92 107.429 144.654 121.617 139.096C122.337 138.82 123 138.415 123.575 137.903C125.942 135.766 133.766 130.196 147.095 134.936C148.109 135.302 149.199 135.405 150.264 135.235C155.972 134.3 175.815 132.68 186.623 152.513Z" fill="#F6F4F9"/>
<path d="M116.702 112.293C117.36 113.987 115.45 115.509 113.923 114.523C112.7 113.733 111.227 113.064 109.557 112.83C105.236 112.223 113.421 103.844 116.702 112.293Z" fill="#F6F4F9"/>
<path d="M151.585 108.563C151.253 110.042 153.032 111.036 154.153 110.021C155.721 108.594 157.943 107.262 160.993 106.78C167.837 105.687 154.778 94.306 151.585 108.563Z" fill="#F6F4F9"/>
<g opacity="0.3">
<path opacity="0.3" d="M100.527 119.021C100.527 119.021 105.539 121.085 111.812 127.686C111.91 127.79 111.985 127.914 112.031 128.049C112.077 128.185 112.093 128.328 112.078 128.471C112.064 128.613 112.019 128.75 111.946 128.874C111.874 128.997 111.776 129.103 111.659 129.185C110.726 129.842 109.375 130.96 108.819 132.255C108.819 132.255 114.385 130.146 119.359 131.245C119.358 131.245 113.901 122.277 100.527 119.021Z" fill="#302839"/>
</g>
<g opacity="0.3">
<path opacity="0.3" d="M172.65 110.289C172.65 110.289 164.891 114.666 158.559 120.872C157.912 121.506 158.376 122.615 159.282 122.593C161.596 122.534 165.091 122.828 168.294 124.625C168.294 124.625 158.528 124.972 150.449 127.468C150.449 127.465 156.116 114 172.65 110.289Z" fill="#302839"/>
</g>
<path d="M144.131 63.0846C144.036 63.2216 143.94 63.3548 143.845 63.5051C143.695 63.7738 143.528 64.0325 143.344 64.2796C142.678 65.3984 141.846 66.5829 141.083 68.0071C140.893 68.3592 140.683 68.7083 140.47 69.0623C140.356 69.2383 140.257 69.4239 140.175 69.6169L139.902 70.2001C139.545 70.9841 139.117 71.7376 138.829 72.6015C138.51 73.4454 138.169 74.2921 137.855 75.1703L137.042 77.8875L136.832 78.5772C136.753 78.8068 136.689 79.0414 136.641 79.2794L136.313 80.7065L135.637 83.6064C135.477 84.5911 135.303 85.5853 135.126 86.588L134.854 88.0951L134.717 88.8562L134.622 89.6173L134.228 92.7075L134.004 94.2697L133.893 95.0574L133.823 95.8414C133.758 96.5901 133.687 97.3389 133.614 98.0924C133.488 99.3292 131.817 99.6147 131.288 98.4949C130.956 97.7972 130.631 97.0922 130.312 96.3799C129.44 94.3819 128.718 92.3231 127.971 90.249L127.697 89.4651L127.468 88.6716L127.026 87.0723C126.73 86.0048 126.438 84.925 126.163 83.8375C125.934 82.7387 125.732 81.6255 125.532 80.5076C125.332 79.3897 125.104 78.2652 125.037 77.1083L124.727 73.6223C124.695 72.4388 124.711 71.2438 124.714 70.0355V69.126C124.714 68.8244 124.762 68.5171 124.782 68.2088L124.92 66.8217L124.964 66.3584L125.004 65.9645C125.378 65.8389 125.756 65.7171 126.131 65.5992C131.956 63.7968 138.035 62.9476 144.131 63.0846Z" fill="#5F5173"/>
<path d="M124.924 66.8196C124.752 66.9433 124.572 67.0651 124.387 67.1745C124.474 67.1408 124.558 67.1014 124.64 67.0565L124.672 67.0756C124.693 67.0879 124.712 67.0898 124.726 67.0994C124.715 67.1579 124.697 67.215 124.673 67.2697L124.625 67.3715L124.566 67.4818C124.543 67.5151 124.524 67.5513 124.501 67.5846C124.473 67.6209 124.448 67.6597 124.428 67.7006C124.329 67.8747 124.22 68.0433 124.103 68.2058C123.99 68.4008 123.867 68.5891 123.732 68.77C123.247 69.5882 122.641 70.4511 122.087 71.492C121.942 71.746 121.794 72.0048 121.637 72.2598C121.555 72.3896 121.483 72.5261 121.423 72.6679L121.222 73.0884C120.964 73.6593 120.652 74.2111 120.438 74.8447C120.207 75.4603 119.962 76.0816 119.729 76.7171L119.132 78.7017L118.983 79.2041C118.926 79.3705 118.88 79.5405 118.846 79.7131L118.606 80.7596L118.112 82.8727C117.997 83.5929 117.867 84.3188 117.737 85.0485L117.547 86.1493L117.443 86.7078L117.377 87.2653L117.091 89.5182L116.932 90.6599L116.848 91.2307L116.798 91.8016C116.75 92.3458 116.697 92.8928 116.641 93.4427C116.552 94.3428 115.333 94.5549 114.948 93.7386C114.706 93.2258 114.472 92.7083 114.231 92.1917C113.597 90.737 113.072 89.2356 112.526 87.7201L112.328 87.1492L112.158 86.566L111.834 85.4024C111.621 84.6194 111.408 83.8317 111.205 83.0392C111.04 82.2381 110.892 81.4275 110.748 80.6093C110.603 79.7911 110.435 78.9748 110.383 78.1299L110.156 75.584C110.139 74.9066 110.143 74.2149 110.147 73.5232C110.555 73.2302 110.971 72.9429 111.391 72.6594C115.608 69.8186 120.192 67.5646 125.017 65.9596C125.391 65.834 125.769 65.7122 126.144 65.5942C125.8 66.0604 125.389 66.4733 124.924 66.8196Z" fill="#5F5173"/>
<path d="M158.914 65.4072C158.472 65.8829 158 66.3995 157.536 66.9818C157.349 67.2114 157.155 67.4372 156.954 67.6592C156.849 67.7727 156.754 67.8942 156.668 68.0226L156.397 68.4032C156.039 68.9198 155.636 69.4041 155.309 69.9854C154.973 70.5486 154.613 71.1156 154.275 71.6979L153.333 73.5446L153.093 74.0127C153.007 74.1665 152.931 74.3254 152.864 74.4884L152.444 75.4712L151.577 77.4615C151.332 78.1475 151.076 78.8391 150.816 79.5346L150.427 80.5812L150.228 81.1092L150.06 81.6448L149.371 83.8121L149.006 84.9024L148.821 85.4552L148.67 86.008C148.524 86.5382 148.374 87.0681 148.221 87.5977C147.97 88.4635 146.732 88.454 146.5 87.5797C146.354 87.0326 146.215 86.4846 146.076 85.9318C145.714 84.3877 145.466 82.8141 145.202 81.2233L145.107 80.6278L145.046 80.0284L144.937 78.8201C144.867 78.0152 144.799 77.2027 144.747 76.3845C144.728 75.5663 144.728 74.7414 144.731 73.9109C144.734 73.0803 144.72 72.244 144.821 71.403L145.056 68.8589C145.19 68.0103 145.361 67.1464 145.52 66.2835L145.64 65.6346C145.682 65.4158 145.756 65.2008 145.814 64.9839L146.183 63.6795L146.327 63.1733C149.579 63.3755 152.808 63.8603 155.975 64.6223C156.938 64.8507 157.924 65.1104 158.914 65.4072Z" fill="#5F5173"/>
<path d="M204.896 113.97L203.272 113.612C202.41 113.43 201.538 113.253 200.657 113.081C198.898 112.736 197.104 112.452 195.287 112.232C194.373 112.098 193.459 112.053 192.528 111.947C191.605 111.897 190.656 111.787 189.71 111.757C187.784 111.592 185.851 111.611 183.716 111.453C184.096 111.094 184.507 110.765 184.921 110.433C185.333 110.104 185.765 109.801 186.213 109.525C186.657 109.249 187.109 108.981 187.57 108.72C188.036 108.469 188.512 108.262 188.992 108.037L189.716 107.716C189.96 107.614 190.206 107.535 190.455 107.44C190.948 107.262 191.448 107.099 191.95 106.927C192.964 106.664 193.991 106.379 195.028 106.204C196.299 105.964 197.583 105.8 198.874 105.713C199.817 108.174 201.63 111.646 204.896 113.97Z" fill="#5F5173"/>
<path d="M198.262 103.86C197.596 103.757 196.925 103.669 196.252 103.588C195.338 103.453 194.428 103.407 193.493 103.302C192.571 103.254 191.621 103.14 190.674 103.104C188.75 102.944 186.817 102.964 184.681 102.802C185.068 102.442 185.475 102.114 185.89 101.782C186.299 101.452 186.729 101.149 187.177 100.874C187.625 100.598 188.077 100.33 188.539 100.072C189 99.8144 189.48 99.6108 189.956 99.3891L190.681 99.0647C190.925 98.9629 191.174 98.8829 191.418 98.7887C191.912 98.6108 192.416 98.4472 192.919 98.2798C193.822 98.0409 194.738 97.7926 195.667 97.6138C196.476 99.2495 197.249 100.962 197.987 102.751C197.987 102.751 198.064 103.17 198.262 103.86Z" fill="#5F5173"/>
<path d="M100.368 124.791C98.333 125.457 96.4511 125.894 94.6206 126.512C93.7092 126.77 92.813 127.104 91.9301 127.368C91.0491 127.695 90.1728 127.958 89.3175 128.305C88.3059 128.686 87.3107 129.086 86.332 129.506C86.676 128.62 86.8419 127.675 86.8201 126.725C86.803 126.013 86.7364 124.537 86.763 122.486C87.2197 122.439 87.6773 122.406 88.1321 122.382C89.1786 122.305 90.2452 122.333 91.2936 122.351C91.8226 122.399 92.3458 122.435 92.8682 122.494C93.1317 122.522 93.3895 122.541 93.6512 122.589L94.4313 122.728C94.9508 122.829 95.4617 122.918 95.9707 123.053C96.4797 123.188 96.9877 123.346 97.4844 123.512C97.9865 123.67 98.4778 123.861 98.9552 124.083C99.4357 124.308 99.9095 124.533 100.368 124.791Z" fill="#5F5173"/>
<path d="M97.3738 116.624C95.3359 117.29 93.453 117.727 91.6225 118.345C90.7101 118.604 89.8149 118.941 88.932 119.201C88.226 119.462 87.5277 119.683 86.8389 119.938C86.9197 118.237 87.0663 116.292 87.3336 114.171C87.6542 114.171 87.9758 114.181 88.2936 114.189C88.8216 114.232 89.3496 114.271 89.8719 114.326C90.1317 114.36 90.3933 114.377 90.654 114.421L91.4341 114.559C91.9508 114.665 92.4655 114.749 92.9745 114.885C93.4835 115.021 93.9877 115.182 94.4843 115.344C94.9858 115.503 95.4768 115.694 95.9543 115.915C96.4376 116.145 96.9114 116.367 97.3738 116.624Z" fill="#5F5173"/>
<g opacity="0.3">
<path opacity="0.3" d="M203.439 126.342C203.376 126.366 203.319 126.406 203.275 126.458C203.231 126.51 203.201 126.572 203.188 126.638C203.174 126.705 203.178 126.774 203.198 126.838C203.218 126.903 203.255 126.962 203.304 127.008C204.855 128.422 206.602 129.604 208.491 130.519C210.33 131.401 210.965 133.711 209.787 135.371C205.601 141.32 196.167 152.832 184.399 155.28C184.299 155.304 184.194 155.324 184.089 155.345C184.089 155.345 145.011 187.883 105.454 161.965C105.399 161.929 105.336 161.907 105.27 161.901C104.139 161.806 93.3608 160.638 85.0731 149.397C84.6732 148.854 84.4829 148.186 84.5375 147.514C84.5457 147.438 84.5754 147.366 84.6232 147.306C84.6709 147.247 84.7347 147.202 84.807 147.177C84.8794 147.152 84.9573 147.149 85.0315 147.167C85.1058 147.185 85.1734 147.224 85.2263 147.279C87.3888 149.48 91.2201 152.58 96.7383 154.194C96.8067 154.215 96.8795 154.217 96.9492 154.201C97.0189 154.184 97.0829 154.149 97.1347 154.1C97.1865 154.051 97.2242 153.988 97.244 153.92C97.2638 153.851 97.2649 153.778 97.2473 153.709C96.9821 152.657 96.8507 151.576 96.8563 150.491C96.8552 150.412 96.8773 150.335 96.9198 150.268C96.9622 150.202 97.0232 150.149 97.0952 150.117C97.1673 150.084 97.2471 150.074 97.325 150.086C97.4029 150.099 97.4755 150.134 97.5337 150.187C101.113 153.517 119.204 168.685 146.712 163.172C177.542 156.994 211.144 103.81 172.875 72.5606L172.839 72.5302C172.447 72.2095 172.886 71.6083 173.315 71.8794C181.531 77.0712 189.523 85.1467 195.665 97.6053C196.467 99.2284 197.235 100.928 197.968 102.704C197.979 102.728 197.987 102.754 197.991 102.78C198.015 102.896 198.096 103.28 198.26 103.85C198.399 104.345 198.598 104.978 198.871 105.697C199.815 108.164 201.63 111.637 204.894 113.96C205.585 114.457 206.325 114.883 207.102 115.232C207.824 115.555 208.404 116.129 208.735 116.847C209.066 117.565 209.125 118.379 208.902 119.137C208.141 121.712 206.56 125.131 203.439 126.342Z" fill="#302839"/>
</g>
<g opacity="0.5">
<path opacity="0.5" d="M158.915 65.4069C157.924 65.1101 156.942 64.8504 155.976 64.6201C152.807 63.8603 149.578 63.3777 146.326 63.1778C145.595 63.1321 144.863 63.0988 144.131 63.0827C138.036 62.9456 131.96 63.7941 126.136 65.5953C125.761 65.7133 125.383 65.8351 125.009 65.9607C120.184 67.5657 115.6 69.8196 111.383 72.6604C110.963 72.9459 110.547 73.2313 110.139 73.5243C93.7931 85.199 88.7973 102.406 87.336 114.173C87.0686 116.294 86.9221 118.239 86.8413 119.94C86.7965 120.866 86.7728 121.716 86.7632 122.488C86.7366 124.541 86.8032 126.015 86.8203 126.727C86.8421 127.677 86.6763 128.622 86.3323 129.508C85.6006 131.421 84.1916 132.933 83.0394 133.921C82.5327 134.36 82.1988 134.965 82.0977 135.627C81.9966 136.29 82.1348 136.967 82.4876 137.537C85.5416 142.44 88.8202 143.793 88.8202 143.793C88.8202 143.793 89.5195 143.922 86.4645 139.019C85.7357 137.847 85.3228 137.095 86.3694 136.194C87.5206 135.204 88.9305 133.693 89.6612 131.78C90.006 130.894 90.1722 129.949 90.1502 128.999C90.1331 128.287 90.0656 126.81 90.0922 124.761C90.1027 123.989 90.1255 123.138 90.1702 122.212C90.2511 120.511 90.3986 118.566 90.6649 116.445C91.1262 112.692 91.8898 108.982 92.9483 105.352C93.3041 104.141 94.2727 103.241 95.4762 102.865C97.8385 102.123 101.076 98.8887 103.664 94.4181C106.101 90.2091 107.301 86.0457 106.986 83.5569C106.825 82.281 107.233 80.9985 108.175 80.1223C109.845 78.5674 111.614 77.1227 113.472 75.7972C113.879 75.5032 114.295 75.2169 114.715 74.9333C118.931 72.0939 123.514 69.8412 128.337 68.2374C128.711 68.1118 129.089 67.99 129.465 67.872C135.289 66.0711 141.365 65.2226 147.46 65.3594C148.191 65.3746 148.924 65.4079 149.655 65.4545C152.907 65.6536 156.136 66.1359 159.304 66.8959C160.271 67.1271 161.253 67.3859 162.244 67.6827C167.29 69.1532 172.107 71.3171 176.558 74.1123C171.231 70.2012 165.259 67.2547 158.915 65.4069Z" fill="#F6F4F9"/>
</g>
<path d="M138.298 173.476C127.986 173.476 116.451 170.924 104.857 163.391C102.588 163.152 92.0802 161.46 83.8544 150.3C83.1767 149.374 82.8922 148.218 83.0627 147.083C83.2332 145.948 83.8449 144.926 84.7649 144.24C85.0776 144.008 85.401 143.789 85.7353 143.584C84.4262 142.528 82.7746 140.861 81.2 138.335C80.6612 137.456 80.4515 136.415 80.6083 135.396C80.7651 134.378 81.2782 133.448 82.0562 132.772C83.5785 131.462 85.3785 129.356 85.311 126.767L85.2986 126.358C85.2035 123.362 84.918 114.239 87.9321 103.469C91.7834 89.7 99.3898 78.9101 110.538 71.3997C123.927 62.3804 140.621 59.3721 156.336 63.1425C169.977 66.4201 188.525 75.8485 199.388 102.174C199.428 102.27 199.458 102.371 199.476 102.473C199.492 102.554 201.151 110.89 207.73 113.864C208.785 114.34 209.633 115.181 210.116 116.233C210.6 117.285 210.687 118.476 210.361 119.587C209.6 122.122 208.182 125.192 205.569 126.935C206.68 127.799 207.879 128.544 209.146 129.157C209.781 129.46 210.342 129.898 210.791 130.44C211.239 130.983 211.564 131.616 211.742 132.297C211.918 132.969 211.945 133.67 211.822 134.354C211.698 135.037 211.427 135.685 211.027 136.252C206.383 142.853 196.832 154.228 184.757 156.765C182.956 158.204 173.626 165.323 160.052 169.831C153.977 171.85 146.526 173.476 138.298 173.476ZM142.865 64.5877C131.953 64.5832 121.287 67.8316 112.23 73.9181C90.4619 88.5821 87.9102 113.011 88.326 126.267L88.3383 126.69C88.4335 130.47 86.055 133.336 84.0304 135.074C83.7974 135.276 83.6438 135.555 83.5971 135.859C83.5504 136.164 83.6136 136.476 83.7754 136.738C86.4964 141.106 89.3716 142.381 89.3992 142.392C89.6831 142.509 89.9249 142.71 90.0925 142.967C90.2602 143.224 90.3457 143.526 90.3379 143.833C90.33 144.14 90.2292 144.438 90.0486 144.686C89.8681 144.935 89.6164 145.122 89.3269 145.225C88.3424 145.568 87.4157 146.059 86.5782 146.68C86.2989 146.886 86.112 147.193 86.0586 147.536C86.0051 147.878 86.0893 148.228 86.2928 148.509C94.4844 159.623 105.343 160.402 105.451 160.408C105.717 160.424 105.974 160.509 106.196 160.655C122.18 171.159 139.944 173.291 158.999 166.991C173.317 162.258 183.025 154.274 183.121 154.194C183.317 154.031 183.552 153.92 183.802 153.871C195.012 151.696 204.116 140.809 208.546 134.513C208.694 134.307 208.794 134.07 208.839 133.82C208.884 133.57 208.873 133.314 208.807 133.069C208.74 132.814 208.618 132.577 208.45 132.375C208.282 132.172 208.072 132.009 207.834 131.896C204.171 130.142 201.822 127.699 201.724 127.595C201.543 127.405 201.415 127.172 201.352 126.918C201.288 126.664 201.292 126.398 201.362 126.146C201.432 125.893 201.566 125.663 201.751 125.478C201.936 125.293 202.166 125.159 202.418 125.089C205.237 124.31 206.714 121.195 207.456 118.721C207.573 118.313 207.539 117.876 207.36 117.492C207.181 117.107 206.868 116.8 206.481 116.627C198.919 113.21 196.814 104.55 196.528 103.198C186.145 78.1566 168.557 69.1991 155.622 66.0928C151.444 65.0914 147.162 64.5862 142.865 64.5877Z" fill="#302839"/>
<path d="M104.377 163.066C103.942 162.621 103.536 162.148 103.163 161.651C102.782 161.162 102.434 160.647 102.1 160.12C101.763 159.588 101.461 159.036 101.196 158.465C100.936 157.894 100.692 157.293 100.602 156.665C100.722 156.769 100.838 156.871 100.948 156.973L101.305 157.258C101.542 157.449 101.775 157.625 102.023 157.795C102.509 158.137 102.992 158.474 103.485 158.799L104.945 159.782C105.427 160.104 105.913 160.448 106.358 160.772L104.377 163.066Z" fill="#302839"/>
<path d="M182.992 154.313L185.685 151.5C186.586 150.553 187.48 149.597 188.367 148.633C189.253 147.669 190.124 146.687 190.979 145.689C191.85 144.701 192.721 143.715 193.738 142.778C193.408 144.118 192.851 145.362 192.209 146.546C191.543 147.717 190.852 148.872 190.104 149.988C189.356 151.104 188.582 152.205 187.769 153.275C187.363 153.809 186.947 154.337 186.516 154.854C186.085 155.371 185.66 155.885 185.191 156.398L182.992 154.313Z" fill="#302839"/>
<path d="M201.947 127.784C201.655 127.55 201.384 127.29 201.137 127.009C200.881 126.724 200.639 126.426 200.414 126.117C199.959 125.493 199.515 124.821 199.286 123.929C199.707 123.952 200.125 124.007 200.538 124.091C200.918 124.174 201.293 124.279 201.661 124.405C202.025 124.522 202.376 124.657 202.72 124.803C203.059 124.944 203.386 125.113 203.699 125.306L201.947 127.784Z" fill="#302839"/>
<path d="M147.571 146.406C147.265 149.951 145.573 154.913 138.768 156.532C135.354 157.346 132.697 156.594 130.658 155.168C126.142 152.01 124.649 145.559 124.649 145.559C134.323 147.895 133.973 137.313 133.973 137.313C136.375 148.384 147.422 142.588 147.422 142.588C147.638 143.849 147.687 145.132 147.571 146.406Z" fill="#302839"/>
<path d="M147.57 146.407C147.265 149.952 145.572 154.913 138.768 156.532C135.353 157.346 132.697 156.594 130.658 155.168C132.398 151.461 137.178 144.287 147.57 146.407Z" fill="#E05656"/>
<path d="M136.047 158.386C134.025 158.397 132.04 157.834 130.325 156.762C124.97 153.445 123.242 146.214 123.171 145.907C123.113 145.655 123.12 145.393 123.191 145.144C123.263 144.896 123.397 144.67 123.581 144.488C123.764 144.306 123.991 144.174 124.24 144.104C124.49 144.035 124.752 144.03 125.004 144.091C127.27 144.638 129.031 144.417 130.236 143.436C132.532 141.565 132.461 137.407 132.459 137.366C132.448 136.988 132.578 136.62 132.824 136.333C133.069 136.047 133.413 135.862 133.788 135.816C134.163 135.769 134.542 135.864 134.85 136.082C135.159 136.3 135.374 136.626 135.456 136.995C136.018 139.585 137.139 141.292 138.786 142.066C142.088 143.617 146.675 141.272 146.721 141.247C146.93 141.14 147.16 141.082 147.395 141.078C147.629 141.074 147.861 141.124 148.073 141.225C148.285 141.326 148.471 141.474 148.616 141.658C148.761 141.842 148.861 142.058 148.909 142.287C149.814 146.704 148.934 155.673 139.123 158.009C138.116 158.254 137.084 158.381 136.047 158.386ZM126.848 147.411C127.674 149.494 129.267 152.549 131.933 154.191C133.83 155.362 135.95 155.647 138.417 155.06C145.363 153.405 146.189 147.758 146.118 144.769C143.991 145.496 140.535 146.231 137.511 144.817C136.341 144.271 135.324 143.445 134.548 142.413C134.052 143.634 133.298 144.852 132.151 145.786C130.722 146.951 128.945 147.49 126.848 147.411Z" fill="#302839"/>
<path d="M138.54 131.774L129.001 132.926C128.826 132.947 128.658 133.004 128.508 133.095C128.358 133.186 128.229 133.308 128.13 133.453C128.031 133.598 127.964 133.763 127.933 133.935C127.903 134.108 127.91 134.286 127.954 134.456C128.43 136.252 129.849 139.118 134.034 138.642C139.042 138.071 139.879 134.898 139.925 133.02C139.928 132.843 139.894 132.668 139.824 132.506C139.753 132.344 139.649 132.198 139.517 132.08C139.386 131.962 139.231 131.873 139.062 131.82C138.893 131.768 138.715 131.752 138.54 131.774Z" fill="#302839"/>
<path d="M135.217 135.988L135.351 136.575C135.403 136.785 135.465 136.995 135.525 137.206C135.647 137.621 135.793 138.03 135.96 138.43C136.262 139.194 136.671 139.912 137.174 140.561C138.152 141.775 139.423 142.45 141.036 142.512C141.238 142.528 141.441 142.53 141.644 142.52L141.953 142.511L142.292 142.474C142.744 142.438 143.194 142.379 143.64 142.298L144.306 142.186L144.951 142.024L145.274 141.944L145.584 141.838C145.789 141.765 146.005 141.708 146.206 141.627C147.029 141.324 147.736 140.866 148.475 140.422C148.844 140.197 149.216 139.961 149.599 139.696C149.983 139.432 150.389 139.149 150.824 138.8L150.839 138.787C150.855 138.774 150.873 138.766 150.893 138.762C150.913 138.759 150.934 138.761 150.953 138.768C150.972 138.774 150.989 138.786 151.002 138.801C151.016 138.816 151.025 138.835 151.029 138.854C151.142 139.437 151.094 140.039 150.892 140.596C150.708 141.149 150.428 141.664 150.064 142.119C149.345 143.03 148.361 143.659 147.378 144.182C147.129 144.313 146.874 144.42 146.617 144.536L146.236 144.705L145.847 144.842L145.066 145.114L144.275 145.32C143.746 145.468 143.215 145.539 142.684 145.633L142.285 145.701L141.851 145.743C141.558 145.775 141.264 145.79 140.97 145.789C139.728 145.811 138.499 145.545 137.377 145.013C136.223 144.476 135.243 143.622 134.501 142.67C133.792 141.741 133.24 140.701 132.868 139.593C132.687 139.063 132.539 138.523 132.425 137.975C132.365 137.703 132.323 137.427 132.285 137.149C132.247 136.872 132.218 136.615 132.2 136.263C132.182 135.885 132.306 135.515 132.547 135.224C132.788 134.933 133.129 134.743 133.504 134.691C133.878 134.639 134.258 134.729 134.57 134.943C134.881 135.157 135.101 135.48 135.186 135.848L135.217 135.988Z" fill="#302839"/>
<path d="M135.261 136.316C135.329 136.621 135.356 136.824 135.395 137.077C135.434 137.33 135.454 137.553 135.468 137.788C135.5 138.263 135.504 138.74 135.478 139.215C135.427 140.207 135.221 141.185 134.866 142.113C134.492 143.107 133.899 144.005 133.131 144.739C132.364 145.467 131.442 146.011 130.434 146.331C129.961 146.481 129.477 146.593 128.986 146.668C128.521 146.723 128.067 146.763 127.606 146.805C126.663 146.805 125.712 146.791 124.738 146.507C124.493 146.446 124.253 146.366 124.02 146.269C123.901 146.221 123.782 146.181 123.666 146.128L123.322 145.938C123.21 145.872 123.096 145.81 122.988 145.741C122.879 145.671 122.78 145.577 122.678 145.494C122.472 145.331 122.288 145.143 122.127 144.936C121.965 144.733 121.823 144.514 121.704 144.283C121.596 144.052 121.511 143.811 121.451 143.563C121.328 143.078 121.346 142.567 121.503 142.092C121.512 142.07 121.529 142.053 121.55 142.043C121.571 142.033 121.595 142.031 121.618 142.038C121.632 142.043 121.644 142.052 121.655 142.063L121.664 142.073C121.94 142.388 122.242 142.678 122.568 142.94C122.704 143.064 122.868 143.159 123 143.263C123.16 143.345 123.28 143.454 123.436 143.518C124.001 143.828 124.615 144.037 125.252 144.135C125.909 144.247 126.646 144.16 127.361 144.076L128.457 143.865C128.786 143.783 129.107 143.677 129.419 143.546C130.013 143.276 130.538 142.958 130.936 142.517C131.348 142.066 131.667 141.538 131.875 140.964C132.101 140.326 132.242 139.661 132.294 138.986C132.323 138.635 132.341 138.276 132.335 137.916C132.335 137.737 132.33 137.558 132.319 137.38L132.285 136.897L132.274 136.75C132.249 136.37 132.368 135.994 132.607 135.697C132.846 135.401 133.189 135.205 133.566 135.15C133.943 135.095 134.327 135.184 134.641 135.4C134.955 135.615 135.177 135.942 135.261 136.313V136.316Z" fill="#302839"/>
<path d="M100.534 118.966C102.002 118.695 103.468 118.871 104.879 119.18C106.29 119.489 107.638 120.052 108.983 120.607C111.665 121.778 114.147 123.36 116.34 125.297L117.163 126.025L117.924 126.812L118.685 127.603C118.937 127.868 119.161 128.159 119.398 128.436L120.101 129.278L120.276 129.489L120.364 129.595L120.416 129.659C120.469 129.732 120.519 129.807 120.564 129.885C120.755 130.224 120.84 130.611 120.81 130.998C120.779 131.375 120.641 131.734 120.412 132.034C120.183 132.335 119.873 132.563 119.519 132.693C119.16 132.822 118.77 132.844 118.399 132.756L117.958 132.647C117.662 132.58 117.356 132.52 117.048 132.457C115.762 132.211 114.456 132.091 113.147 132.097C111.8 132.117 110.428 132.225 108.98 132.279C108.962 132.28 108.945 132.277 108.928 132.271C108.911 132.265 108.896 132.255 108.883 132.243C108.87 132.231 108.859 132.217 108.852 132.201C108.844 132.185 108.84 132.167 108.839 132.149C108.838 132.127 108.843 132.104 108.853 132.083C108.863 132.062 108.879 132.045 108.897 132.032C110.104 131.206 111.454 130.632 112.871 130.231C114.291 129.85 115.785 129.554 117.335 129.61C117.726 129.624 118.115 129.66 118.501 129.72C118.691 129.747 118.893 129.781 119.087 129.822C118.887 129.775 118.677 129.787 118.483 129.856C118.29 129.926 118.12 130.05 117.996 130.213C117.876 130.371 117.804 130.56 117.788 130.758C117.771 130.969 117.818 131.181 117.922 131.366C117.944 131.408 117.97 131.447 117.999 131.484L117.968 131.446L117.888 131.351L117.729 131.161L117.091 130.39C116.875 130.136 116.675 129.868 116.447 129.629L115.756 128.907L115.077 128.175L114.346 127.493C112.391 125.662 110.242 124.051 107.935 122.689C106.76 122.019 105.55 121.413 104.31 120.873C103.073 120.309 101.828 119.722 100.524 119.073C100.517 119.07 100.511 119.066 100.506 119.06C100.501 119.054 100.498 119.048 100.495 119.041C100.493 119.034 100.492 119.026 100.492 119.019C100.493 119.011 100.495 119.004 100.498 118.997C100.502 118.99 100.506 118.983 100.513 118.978C100.519 118.972 100.526 118.968 100.534 118.966Z" fill="#302839"/>
<path d="M172.664 110.339C170.926 111.375 169.196 112.253 167.483 113.162C165.76 114.018 164.089 114.975 162.478 116.028C160.885 117.056 159.369 118.201 157.944 119.453C156.538 120.67 155.259 122.028 154.128 123.505C153.576 124.234 153.074 124.999 152.624 125.795L152.293 126.39L152 127.004L151.852 127.31L151.82 127.379C151.847 127.318 151.868 127.254 151.882 127.188C151.914 127.042 151.916 126.89 151.887 126.743C151.859 126.606 151.803 126.476 151.724 126.36C151.645 126.245 151.543 126.146 151.425 126.071C151.299 125.991 151.158 125.939 151.011 125.916C150.863 125.894 150.713 125.902 150.569 125.94C150.503 125.958 150.439 125.982 150.379 126.013C150.355 126.025 150.369 126.018 150.379 126.013L150.411 125.997L150.474 125.968C150.56 125.928 150.645 125.89 150.712 125.866C150.858 125.808 150.992 125.76 151.123 125.717C151.385 125.627 151.635 125.551 151.884 125.478C152.381 125.329 152.876 125.214 153.369 125.097C154.353 124.872 155.341 124.688 156.333 124.54C158.314 124.226 160.311 124.019 162.314 123.919C163.32 123.872 164.329 123.884 165.334 123.953C166.339 124.028 167.354 124.177 168.317 124.492C168.351 124.503 168.378 124.527 168.394 124.558C168.41 124.589 168.413 124.625 168.402 124.659C168.394 124.686 168.378 124.71 168.356 124.727C168.334 124.744 168.306 124.753 168.278 124.754C167.306 124.774 166.336 124.865 165.377 125.029C164.42 125.175 163.469 125.36 162.523 125.56C160.627 125.955 158.748 126.456 156.89 127.001L154.131 127.857L152.784 128.303C152.566 128.378 152.348 128.455 152.148 128.533C152.047 128.572 151.951 128.611 151.871 128.648C151.823 128.668 151.796 128.681 151.776 128.694L151.706 128.726C151.374 128.889 151.003 128.956 150.635 128.917C150.267 128.878 149.918 128.736 149.627 128.507C149.336 128.279 149.117 127.972 148.993 127.624C148.869 127.275 148.846 126.899 148.928 126.538C148.955 126.412 148.995 126.29 149.046 126.171L149.092 126.076L149.264 125.718L149.612 125.002L149.999 124.31C150.52 123.395 151.103 122.516 151.743 121.68C153.034 120.028 154.533 118.577 156.119 117.274C157.729 116.02 159.44 114.902 161.234 113.931C163.011 112.98 164.85 112.149 166.737 111.443C168.633 110.791 170.593 110.28 172.636 110.237C172.643 110.237 172.651 110.238 172.657 110.241C172.664 110.244 172.671 110.248 172.676 110.253C172.682 110.258 172.686 110.264 172.689 110.271C172.692 110.278 172.694 110.285 172.694 110.293C172.693 110.302 172.69 110.311 172.685 110.319C172.679 110.327 172.672 110.334 172.664 110.339Z" fill="#302839"/>
<g opacity="0.3">
<path opacity="0.3" d="M130.946 136.453C130.946 136.453 131.775 145.191 121.584 142.085C121.584 142.085 119.983 145.633 124.985 148.341C124.985 148.341 136.656 158.507 147.392 147.148C147.392 147.148 152.074 143.924 150.927 138.826C150.927 138.826 148.864 139.542 144.487 140.354C143.078 140.614 141.624 140.451 140.309 139.885C138.993 139.319 137.875 138.375 137.095 137.173C136.543 136.313 136.043 135.421 135.598 134.501L130.946 136.453Z" fill="#302839"/>
</g>
<path d="M271.181 188.134L303.585 184.923L304.308 184.852C304.308 184.852 312.405 177.936 310.873 172.596C310.873 172.596 316.056 170.606 318.484 163.29L311.253 158.805L309.551 157.746L309.526 157.734L276.09 136.967L243.816 149.17C243.816 149.17 243.832 150.859 242.251 154.1C242.092 154.422 241.921 154.757 241.731 155.111L271.181 188.134Z" fill="#FFC35C"/>
<g opacity="0.3">
<path opacity="0.3" d="M271.181 188.134L304.308 184.852C304.308 184.852 312.405 177.936 310.873 172.596C310.873 172.596 316.056 170.606 318.484 163.29L311.253 158.805C311.212 159.079 310.131 166.047 302.635 166.236C302.635 166.236 305.161 173.366 298.483 179.144L288.43 180.762C283.682 181.525 278.822 181.189 274.225 179.777C269.628 178.366 265.416 175.917 261.914 172.621L242.251 154.1C242.092 154.422 241.921 154.757 241.731 155.111L271.181 188.134Z" fill="#302839"/>
</g>
<g opacity="0.3">
<path opacity="0.3" d="M276.09 136.969C276.09 136.969 274.053 144.267 268.266 150.65L241.729 155.109C241.729 155.109 242.578 153.214 243.814 149.171L276.09 136.969Z" fill="#302839"/>
</g>
<g opacity="0.5">
<path opacity="0.5" d="M243.963 157.489L257.228 155.694C260.421 155.262 263.67 155.496 266.768 156.381C269.867 157.267 272.749 158.784 275.232 160.837L303.518 184.229L270.267 152.737C270.267 152.737 273.706 150.033 276.03 146.482C277.774 143.818 281.226 142.872 284.045 144.353L309.531 157.738L276.09 136.967C276.09 136.967 273.924 144.915 268.266 150.652L241.731 155.111L243.963 157.489Z" fill="#F6F4F9"/>
</g>
<path d="M271.183 189.651C270.969 189.65 270.758 189.605 270.563 189.518C270.368 189.43 270.193 189.303 270.051 189.144L240.598 156.119C240.392 155.886 240.261 155.595 240.225 155.286C240.189 154.976 240.248 154.663 240.396 154.389C242.233 150.987 242.298 149.177 242.298 149.156C242.296 148.849 242.389 148.549 242.565 148.297C242.74 148.045 242.99 147.854 243.278 147.75L275.555 135.548C275.772 135.466 276.005 135.435 276.236 135.458C276.467 135.48 276.689 135.555 276.887 135.678L319.283 161.996C319.573 162.176 319.794 162.447 319.91 162.768C320.026 163.088 320.03 163.438 319.922 163.761C317.984 169.606 314.396 172.357 312.558 173.433C313.033 179.198 306.136 185.283 305.293 186.002C305.057 186.203 304.766 186.327 304.457 186.358L271.33 189.641C271.282 189.649 271.232 189.651 271.183 189.651ZM243.555 154.879L271.8 186.55L303.672 183.391C305.888 181.389 310.392 176.424 309.414 173.013C309.31 172.648 309.345 172.257 309.515 171.918C309.684 171.579 309.974 171.315 310.328 171.179C310.494 171.114 314.384 169.501 316.636 163.924L275.924 138.652L245.203 150.266C245.028 151.222 244.595 152.772 243.555 154.879Z" fill="#302839"/>
<path d="M241.977 156.606L241.483 153.614L267.362 149.349C273.118 142.334 274.607 136.657 274.623 136.601L277.563 137.338C277.498 137.603 275.866 143.938 269.328 151.73C269.095 152.007 268.771 152.191 268.414 152.25L241.977 156.606Z" fill="#302839"/>
<path d="M269.204 149.645L267.123 151.85L303.27 185.949L305.351 183.744L269.204 149.645Z" fill="#302839"/>
<g opacity="0.3">
<path opacity="0.3" d="M279.854 149.686C282.119 151.031 284.3 152.474 286.46 153.944C288.62 155.414 290.747 156.925 292.868 158.441C294.988 159.958 297.077 161.516 299.159 163.087C301.242 164.658 303.307 166.251 305.335 167.939C302.92 166.876 300.625 165.585 298.39 164.211C296.155 162.836 293.983 161.365 291.874 159.812C289.764 158.26 287.687 156.664 285.678 154.981C283.669 153.298 281.698 151.568 279.854 149.686Z" fill="#302839"/>
</g>
<path d="M259.31 158.407C259.544 158.637 259.841 158.792 260.164 158.853C260.486 158.914 260.82 158.877 261.122 158.749C261.423 158.62 261.681 158.405 261.86 158.131C262.04 157.856 262.134 157.534 262.131 157.206C262.128 156.878 262.027 156.558 261.842 156.287C261.657 156.016 261.396 155.806 261.092 155.683C260.787 155.561 260.453 155.531 260.132 155.598C259.811 155.665 259.517 155.826 259.287 156.061C258.979 156.375 258.808 156.798 258.813 157.238C258.817 157.678 258.996 158.099 259.31 158.407Z" fill="#302839"/>
<path d="M252.287 160.042C252.972 160.035 253.522 159.474 253.516 158.789C253.509 158.104 252.948 157.554 252.263 157.561C251.578 157.567 251.028 158.128 251.035 158.813C251.041 159.498 251.602 160.048 252.287 160.042Z" fill="#302839"/>
<path d="M235.808 128.967L234.809 129.871L259.975 157.684L260.974 156.78L235.808 128.967Z" fill="#302839"/>
<path d="M236.698 131.15L235.539 131.836L251.699 159.119L252.859 158.432L236.698 131.15Z" fill="#302839"/>
<path d="M235.955 129.197L235.362 130.406L261.214 143.093L261.807 141.884L235.955 129.197Z" fill="#302839"/>
<path d="M236.648 129.89L235.72 130.865L252.017 146.379L252.946 145.404L236.648 129.89Z" fill="#302839"/>
<path d="M244.553 198.166L275.623 207.912L276.315 208.131C276.315 208.131 286.475 204.941 287.161 199.429C287.161 199.429 292.71 199.63 297.809 193.851L292.918 186.893L291.768 185.25L291.749 185.23L269.123 153.017L234.648 151.59C234.648 151.59 234.002 153.15 231.277 155.512C231.005 155.746 230.715 155.987 230.402 156.238L244.553 198.166Z" fill="#A7C49C"/>
<g opacity="0.3">
<path opacity="0.3" d="M244.552 198.166L276.315 208.131C276.315 208.131 286.475 204.941 287.161 199.429C287.161 199.429 292.71 199.63 297.809 193.851L292.918 186.893C292.772 187.128 289.047 193.115 282.072 190.35C282.072 190.35 281.602 197.9 273.192 200.599L263.31 198.146C258.642 196.988 254.303 194.773 250.626 191.671C246.95 188.57 244.035 184.666 242.107 180.26L231.271 155.512C230.999 155.746 230.709 155.987 230.396 156.239L244.552 198.166Z" fill="#302839"/>
</g>
<g opacity="0.3">
<path opacity="0.3" d="M269.122 153.019C269.122 153.019 264.388 158.935 256.564 162.538L230.4 156.24C230.4 156.24 231.923 154.829 234.646 151.594L269.122 153.019Z" fill="#302839"/>
</g>
<g opacity="0.5">
<path opacity="0.5" d="M231.529 159.305L244.435 162.853C247.542 163.707 250.439 165.195 252.943 167.224C255.447 169.253 257.503 171.778 258.983 174.641L275.838 207.247L257.592 165.24C257.592 165.24 261.816 164.098 265.345 161.743C267.994 159.976 271.54 160.459 273.553 162.926L291.753 185.23L269.123 153.017C269.123 153.017 264.015 159.479 256.565 162.541L230.401 156.242L231.529 159.305Z" fill="#F6F4F9"/>
</g>
<path d="M276.318 209.648C276.164 209.648 276.011 209.624 275.864 209.578L244.099 199.614C243.871 199.542 243.663 199.418 243.493 199.25C243.322 199.083 243.193 198.878 243.117 198.652L228.964 156.725C228.865 156.43 228.858 156.111 228.946 155.812C229.034 155.513 229.213 155.249 229.456 155.055C232.481 152.644 233.249 151.005 233.256 150.989C233.374 150.705 233.577 150.465 233.837 150.302C234.097 150.139 234.402 150.061 234.709 150.079L269.185 151.506C269.418 151.516 269.645 151.579 269.849 151.691C270.053 151.803 270.229 151.96 270.363 152.15L299.051 192.979C299.247 193.258 299.344 193.594 299.325 193.935C299.306 194.275 299.173 194.598 298.948 194.854C294.874 199.47 290.495 200.595 288.381 200.865C286.562 206.354 277.829 209.248 276.774 209.58C276.626 209.626 276.472 209.649 276.318 209.648ZM245.743 196.952L276.305 206.538C279.129 205.564 285.218 202.762 285.655 199.241C285.7 198.863 285.885 198.517 286.175 198.27C286.464 198.023 286.835 197.894 287.215 197.909C287.392 197.909 291.607 197.951 295.861 193.706L268.313 154.498L235.498 153.142C234.959 153.952 233.954 155.209 232.168 156.74L245.743 196.952Z" fill="#302839"/>
<path d="M256.429 164.109C256.308 164.109 256.187 164.094 256.069 164.065L230.042 157.713L230.761 154.763L256.239 160.982C264.283 156.783 267.879 152.145 267.915 152.098L270.333 153.928C270.167 154.147 266.184 159.335 257.116 163.941C256.903 164.05 256.668 164.108 256.429 164.109Z" fill="#302839"/>
<path d="M257.815 162.006L255.036 163.22L274.923 208.76L277.701 207.546L257.815 162.006Z" fill="#302839"/>
<g opacity="0.3">
<path opacity="0.3" d="M267.6 166.194C269.157 168.319 270.598 170.502 272.009 172.7C273.42 174.899 274.785 177.123 276.141 179.349C277.498 181.575 278.805 183.828 280.109 186.09C281.412 188.351 282.684 190.626 283.89 192.973C282.082 191.048 280.478 188.961 278.961 186.82C277.445 184.68 276.023 182.476 274.69 180.22C273.358 177.965 272.072 175.683 270.885 173.347C269.697 171.012 268.56 168.648 267.6 166.194Z" fill="#302839"/>
</g>
<path d="M248.363 166.188C248.714 165.341 248.312 164.37 247.466 164.019C246.619 163.668 245.649 164.07 245.298 164.917C244.947 165.763 245.348 166.734 246.195 167.085C247.041 167.436 248.012 167.034 248.363 166.188Z" fill="#302839"/>
<path d="M239.552 164.607C240.024 164.11 240.003 163.325 239.506 162.853C239.01 162.382 238.224 162.402 237.753 162.899C237.281 163.396 237.301 164.181 237.798 164.653C238.295 165.125 239.08 165.104 239.552 164.607Z" fill="#302839"/>
<path d="M235.206 129.834L233.934 130.274L246.189 165.724L247.461 165.285L235.206 129.834Z" fill="#302839"/>
<path d="M235.152 132.247L233.816 132.424L237.988 163.858L239.324 163.681L235.152 132.247Z" fill="#302839"/>
<path d="M235.24 130.108L234.221 130.988L253.034 152.791L254.053 151.912L235.24 130.108Z" fill="#302839"/>
<path d="M235.607 131.072L234.37 131.605L243.281 152.266L244.518 151.733L235.607 131.072Z" fill="#302839"/>
<path d="M231.746 74.3528C228.676 70.331 227.016 65.4098 227.023 60.3501C227.023 47.5718 237.381 37.2139 250.16 37.2139C262.938 37.2139 273.295 47.5718 273.295 60.3501C273.295 73.1284 262.937 83.4853 250.16 83.4853C246.725 83.4895 243.332 82.7256 240.231 81.2495L229.825 84.7317L231.746 74.3528Z" fill="#F6F4F9"/>
<g opacity="0.5">
<path opacity="0.5" d="M250.159 42.1687C238.223 42.1687 228.401 51.207 227.159 62.8141C227.07 61.9947 227.025 61.1713 227.023 60.3471C227.023 47.5689 237.381 37.2109 250.159 37.2109C262.936 37.2109 273.295 47.5717 273.295 60.35C273.294 61.1779 273.25 62.0053 273.161 62.8284C271.924 51.2165 262.099 42.1687 250.159 42.1687Z" fill="#F6F4F9"/>
</g>
<path d="M229.825 86.2904C229.597 86.2903 229.371 86.2399 229.164 86.1428C228.957 86.0458 228.774 85.9044 228.628 85.7287C228.482 85.5531 228.376 85.3474 228.318 85.1263C228.261 84.9053 228.252 84.6742 228.293 84.4494L230.091 74.7356C227.069 70.5489 225.45 65.5134 225.466 60.3504C225.466 46.7339 236.543 35.6567 250.16 35.6567C263.776 35.6567 274.853 46.7358 274.853 60.3504C274.853 73.965 263.775 85.044 250.16 85.044C246.707 85.0519 243.292 84.3292 240.139 82.9234L230.32 86.2095C230.161 86.263 229.993 86.2903 229.825 86.2904ZM250.16 38.7726C238.261 38.7726 228.579 48.4483 228.579 60.3504C228.565 65.0701 230.113 69.6617 232.982 73.4093C233.114 73.5821 233.208 73.7806 233.258 73.992C233.309 74.2034 233.315 74.423 233.275 74.6367L231.838 82.4134L239.735 79.7704C240.117 79.6418 240.535 79.667 240.899 79.8408C243.79 81.2208 246.955 81.9332 250.159 81.9253C262.056 81.9253 271.736 72.2458 271.736 60.3475C271.736 48.4493 262.057 38.7726 250.16 38.7726Z" fill="#302839"/>
<g opacity="0.3">
<path opacity="0.3" d="M231.595 74.1456C238.445 78.8303 247.37 80.2736 255.774 77.2414C265.098 73.8792 271.393 65.8731 273.02 56.7739C273.204 57.9572 273.296 59.1528 273.296 60.3502C273.296 73.1276 262.938 83.4855 250.16 83.4855C246.725 83.4901 243.333 82.7262 240.232 81.2497L229.826 84.7318L231.747 74.353C231.695 74.2845 231.646 74.2141 231.595 74.1456Z" fill="#302839"/>
</g>
<path d="M241.804 53.6477C244.064 51.3881 247.727 51.7934 249.986 54.053L250.337 54.404L250.689 54.053C252.949 51.7934 256.613 51.3891 258.871 53.6477C259.956 54.7328 260.565 56.2044 260.565 57.7387C260.565 59.2731 259.956 60.7446 258.871 61.8298L258.519 62.1808L251.413 69.284C251.272 69.4261 251.104 69.5388 250.918 69.6158C250.733 69.6927 250.535 69.7323 250.334 69.7323C250.134 69.7323 249.935 69.6927 249.75 69.6158C249.565 69.5388 249.397 69.4261 249.255 69.284L242.151 62.1799L241.8 61.8288C240.716 60.7432 240.108 59.2716 240.108 57.7375C240.109 56.2033 240.719 54.7323 241.804 53.6477Z" fill="#E05656"/>
</g>
<defs>
<clipPath id="clip0_520_11298">
<rect width="320" height="320" fill="white"/>
</clipPath>
</defs>
</svg>
