<svg width="91" height="110" viewBox="0 0 91 110" fill="none" xmlns="http://www.w3.org/2000/svg">
<path d="M90.9951 93.7234C90.603 97.6836 89.4991 100.926 87.4474 103.215C84.3549 106.662 79.1159 107.948 70.9276 106.265C68.532 105.772 66.2443 104.877 64.1163 103.688C62.7318 102.913 60.8306 102.115 59 102.205L59.7397 97.3877L60.5072 98.8691C63.8394 97.8498 66.3836 99.4591 70.1842 100.959C72.4143 101.836 75.0719 102.676 78.5751 102.924C87.9789 103.587 90.6569 93.1626 90.6978 93C90.8041 93.0872 90.8869 93.1988 90.9388 93.325C90.9906 93.4512 91.01 93.588 90.9951 93.7234Z" fill="#94C5E9"/>
<path d="M91 92.0323C90.9591 92.1951 88.2774 102.634 78.8609 101.97C75.353 101.723 72.6899 100.881 70.4586 100.002C66.653 98.4999 64.1053 96.8885 60.7686 97.9091L60 96.4257L60.3536 94.1211L61.1575 88.8772C62.3135 88.3001 63.5296 87.8475 64.7845 87.5273C69.3997 86.3512 74.7444 86.9585 78.5334 91.2367C82.0152 94.3973 85.7428 95.2387 89.902 92.003C90.0595 91.8806 90.2557 91.8164 90.4564 91.8218C90.6571 91.8271 90.8495 91.9016 91 92.0323Z" fill="#E06B38"/>
<g opacity="0.55">
<path opacity="0.55" d="M91 91.8963C90.9926 91.9266 90.8884 92.3236 90.6559 92.9431C90.5072 92.8559 90.3339 92.8147 90.1598 92.8252C89.9857 92.8357 89.8193 92.8974 89.6832 93.0019C85.5264 96.1512 81.801 95.3323 78.3211 92.2559C74.5344 88.0901 69.1928 87.5008 64.5803 88.6455C63.3422 88.953 62.1419 89.3863 61 89.938L61.1748 88.8271C62.3301 88.2654 63.5455 87.8249 64.7997 87.5133C69.4123 86.3685 74.7539 86.9596 78.5406 91.1237C82.0205 94.2 85.7458 95.0189 89.9027 91.8696C90.0598 91.7502 90.2558 91.6874 90.4564 91.6923C90.657 91.6972 90.8494 91.7694 91 91.8963Z" fill="#FFF9F2"/>
</g>
<path d="M77.1624 107C75.2036 107 73.0302 106.75 70.6283 106.251C68.306 105.768 66.0023 104.888 63.7819 103.633C62.5667 102.946 60.7613 102.148 59.0544 102.23L59 101.141C60.9657 101.045 62.9814 101.927 64.3228 102.685C66.4444 103.882 68.6415 104.725 70.8528 105.184C77.1386 106.49 81.9099 105.995 85.0324 103.713C87.819 101.677 89.4127 98.2406 89.9037 93.2079C89.9102 93.1494 89.8987 93.0903 89.8706 93.0385C89.8426 92.9866 89.7994 92.9445 89.7467 92.9176C89.6961 92.8884 89.6378 92.8752 89.5795 92.8798C89.5212 92.8844 89.4657 92.9066 89.4204 92.9434C85.4887 96.0354 81.4993 95.7705 77.5591 92.1553C77.5445 92.1419 77.5307 92.1277 77.5175 92.1129C72.8145 86.743 65.7549 87.5637 61.1383 89.8996L60.6415 88.9294C65.603 86.4198 73.2062 85.5551 78.3235 91.3756C81.8953 94.641 85.2065 94.8693 88.7411 92.0896C88.9559 91.9218 89.2157 91.8203 89.488 91.7978C89.7604 91.7753 90.0334 91.8327 90.2733 91.963C90.5131 92.0932 90.7092 92.2906 90.8373 92.5306C90.9653 92.7706 91.0197 93.0427 90.9936 93.3131C90.4702 98.6713 88.7327 102.36 85.681 104.59C83.4795 106.2 80.6648 107 77.1624 107Z" fill="#31241B"/>
<path d="M91 93.0019C90.9587 93.1651 88.2552 103.636 78.7617 102.97C75.2251 102.722 72.5403 101.878 70.2908 100.995C66.454 99.4892 63.8856 97.8729 60.5216 98.8966L59.7467 97.4087L59 95.9758L60.1032 95.0989L61.1257 94.2843C61.1257 94.2843 62.6435 93.0074 65.334 93C67.0075 92.9964 69.1351 93.4844 71.6323 95.0805C78.1351 99.2378 86.4128 98.8709 91 93.0019Z" fill="#E05656"/>
<g opacity="0.55">
<path opacity="0.55" d="M67 93C67 93 69.4416 95.5722 73.1969 97.3485C76.9523 99.1249 82.461 100.59 88 95.4905C88 95.4905 83.4002 100.417 76.9508 97.6C70.5014 94.7827 67 93 67 93Z" fill="#FFF9F2"/>
</g>
<g opacity="0.3">
<path opacity="0.3" d="M87 103.112C83.9562 106.653 78.7996 107.973 70.74 106.245C68.3821 105.739 66.1303 104.819 64.0359 103.598C62.6731 102.802 60.8018 101.982 59 102.074L59.728 97.1264L59 95.661L60.0756 94.7641L60.8658 89.3847C62.0021 88.7927 63.1974 88.3285 64.431 88C64.431 88 64.4639 90.0133 65.1755 92.6176C65.8889 95.2295 67.2828 98.4324 70.0083 100.795C73.3192 103.667 78.5947 105.296 87 103.112Z" fill="#31241B"/>
</g>
<path d="M79.2917 103C79.0058 103 78.717 102.99 78.4253 102.969C73.7929 102.636 70.5776 101.251 67.9939 100.138C65.1877 98.9287 63.1602 98.0554 60.598 98.8512C60.481 98.8868 60.3546 98.8748 60.2465 98.8178C60.1384 98.7608 60.0573 98.6634 60.0209 98.5469C59.9846 98.4304 59.9959 98.3043 60.0525 98.1962C60.1091 98.088 60.2063 98.0066 60.3229 97.9697C63.2131 97.0717 65.4847 98.051 68.3609 99.2903C71.0115 100.432 74.0158 101.727 78.4919 102.048C82.2245 102.314 85.3047 100.786 87.6436 97.5019C88.3131 96.5504 88.8812 95.5318 89.3387 94.4627C84.6756 98.7146 77.3963 99.0152 71.1704 94.9553C65.1459 91.0263 61.5085 93.9919 61.3585 94.12C61.3123 94.1594 61.2588 94.1894 61.201 94.2082C61.1432 94.2269 61.0823 94.2342 61.0217 94.2295C60.8993 94.2199 60.7857 94.1623 60.7059 94.0693C60.6261 93.9762 60.5867 93.8554 60.5962 93.7333C60.6058 93.6113 60.6635 93.498 60.7568 93.4184C60.9286 93.2707 65.0459 89.8571 71.6795 94.1825C78.2368 98.4587 86.0134 97.6234 90.1695 92.1958C90.2341 92.1115 90.3258 92.0521 90.4291 92.0273C90.5325 92.0025 90.6412 92.014 90.7371 92.0598C90.833 92.1056 90.9101 92.1829 90.9556 92.2788C91.001 92.3746 91.012 92.4831 90.9867 92.5861C90.9593 92.6987 90.2858 95.3785 88.4178 98.0144C86.0919 101.288 82.9513 103 79.2917 103Z" fill="#31241B"/>
<path d="M30 102.832L21 103L23.5212 97" fill="white"/>
<path d="M21 103L23.5395 97L23.7105 97.0783L21.2889 102.8L29.9966 102.639L30 102.833L21 103Z" fill="#31241B"/>
<g opacity="0.3">
<path opacity="0.3" d="M30 102.832L21 103L23.5212 97" fill="#31241B"/>
</g>
<path opacity="0.5" d="M13 91.5131C9.97049 87.1079 2.54489 85.4795 3.02195 94.8934C3.11064 96.646 3.68881 98.3525 4.77104 99.737C7.29758 102.969 10.499 102.074 12.6018 101.093" fill="#FAB292"/>
<g opacity="0.3">
<path opacity="0.3" d="M13 91.5215L12.6021 101.094C10.4996 102.075 7.29845 102.968 4.77253 99.7392C3.69026 98.3553 3.11171 96.6519 3.02228 94.8994C2.98831 94.2846 2.99319 93.6684 3.03688 93.0542C3.21131 93.3495 3.40456 93.6334 3.61543 93.9042C4.38781 94.8914 5.2215 95.4932 6.0709 95.8252C8.65521 96.8378 11.4611 94.9197 11.5761 92.1568L11.6659 90C12.168 90.4543 12.6157 90.9649 13 91.5215Z" fill="#31241B"/>
</g>
<g opacity="0.55">
<path opacity="0.55" d="M13 91.403L12.9708 92.0982C9.76532 88.1733 2.86333 87.0116 3.32517 95.8102C3.34636 96.2095 3.39514 96.607 3.47121 97C3.21281 96.2488 3.06173 95.4672 3.02215 94.6767C2.54279 85.5578 9.9716 87.1366 13 91.403Z" fill="#FFF9F2"/>
</g>
<path d="M8.60871 103C6.75145 103 5.17161 102.181 3.88671 100.546C2.76498 99.118 2.1207 97.3458 2.02251 95.421C1.75531 90.178 3.92905 88.6568 5.24863 88.216C7.6757 87.4046 11.0803 88.946 13 91.7234L12.0962 92.336C10.4667 89.9777 7.55159 88.5899 5.59869 89.2429C3.82684 89.8348 2.9453 92.0091 3.1165 95.365C3.20338 97.0666 3.76844 98.6273 4.75109 99.878C6.52586 102.137 8.80291 102.515 11.9177 101.069L12.3824 102.052C11.0216 102.684 9.76366 103 8.60871 103Z" fill="#31241B"/>
<path d="M24 98.1962L23.9375 98.8071L23.7756 100.374C23.7422 100.712 23.6221 101.036 23.4269 101.314C23.2317 101.593 22.9679 101.817 22.6609 101.964C20.1263 103.157 17.2422 103.426 13.7823 102.206C13.6168 102.149 13.4475 102.087 13.2783 102.021C12.8824 101.867 12.5458 101.592 12.3167 101.235C12.0877 100.878 11.9781 100.457 12.0036 100.034C12.0919 98.5521 12.1974 97.09 12.32 95.6481C13.1109 86.3051 14.6413 77.8793 17.4243 71L21.7081 88.7211L24 98.1962Z" fill="white"/>
<path d="M17.0998 104C15.7279 104 14.3055 103.728 12.8158 103.185C12.6524 103.126 12.4843 103.063 12.3166 102.995C11.9083 102.832 11.5611 102.538 11.3251 102.158C11.0891 101.777 10.9767 101.329 11.004 100.878C11.0917 99.3499 11.1968 97.8458 11.3156 96.4076C12.1699 85.9681 13.8154 77.7458 16.3485 71.2702L16.4542 71L23 99.0049L22.7776 101.239C22.7029 101.977 22.2624 102.626 21.628 102.934C20.1684 103.645 18.6667 104 17.0998 104ZM16.4115 71.6122C13.9454 78.028 12.3372 86.1486 11.4964 96.4233C11.3776 97.86 11.2729 99.363 11.1852 100.889C11.1604 101.301 11.2629 101.709 11.4777 102.056C11.6926 102.403 12.0088 102.671 12.3807 102.821C12.5466 102.888 12.7122 102.951 12.8738 103.008C16.0191 104.155 18.8566 104.075 21.5494 102.765C22.1269 102.484 22.5276 101.892 22.5961 101.219L22.8134 99.0169L16.4115 71.6122Z" fill="#31241B"/>
<path d="M78.9932 60.2256C78.9349 60.8898 78.8289 61.5491 78.6762 62.1985C76.813 70.2378 68.0139 78.8279 59.5784 76.6597L47.8231 69.4475C47.8231 69.4475 40.4973 65.1239 43.9028 56.0475C47.3084 46.9711 49.11 43.5133 49.6229 41.0466C50.1358 38.5799 56.6036 28.6266 56.6036 28.6266L64.7146 27C65.8829 28.1757 66.838 29.541 67.5383 31.0362C69.0508 34.2545 69.4033 38.0568 68.8606 42.3104C68.7822 42.9276 68.6853 43.554 68.5696 44.1894C66.5181 53.2326 68.2936 61.469 75.5504 58.8218C75.8319 58.7187 76.1222 58.5989 76.4214 58.4626C77.6747 57.8878 79.1107 58.866 78.9932 60.2256Z" fill="#E06B38"/>
<path opacity="0.5" d="M24 98.7854L23.8373 100.36C23.8037 100.7 23.6829 101.026 23.4867 101.306C23.2904 101.586 23.0252 101.811 22.7166 101.959C20.0462 103.213 16.9875 103.453 13.2852 102.017C12.8872 101.862 12.5487 101.585 12.3184 101.226C12.0882 100.867 11.9779 100.445 12.0037 100.019C12.0924 98.5291 12.1985 97.0592 12.3217 95.6097C12.4567 95.558 17.5608 93.6917 22.7055 96.7568L24 98.7854Z" fill="#FAB292"/>
<g opacity="0.3">
<path opacity="0.3" d="M23 98.29L22.9388 98.889L22.7804 100.425C22.7477 100.757 22.6301 101.074 22.4391 101.347C22.248 101.62 21.9899 101.84 21.6895 101.984C19.2088 103.154 16.3861 103.418 13 102.222C19.2934 99.1444 17.1278 89 17.1278 89H20.757L23 98.29Z" fill="#31241B"/>
</g>
<path d="M75.0084 70.1468C67.8219 78.1429 55.5208 68.3137 57.1463 53.3021C58.9029 48.8174 59.6386 42.503 59.7117 35C59.7117 35 63.4963 35.6405 62.7658 45.9924C62.0352 56.3443 64.103 73.1449 78 64.3251C77.9989 64.3251 77.0707 67.6747 75.0084 70.1468Z" fill="#E05656"/>
<g opacity="0.55">
<path opacity="0.55" d="M76 59.337C66.4258 65.7356 65.0721 52.3207 69.2093 42L69.3483 42.3543C69.2705 42.9892 69.174 43.6334 69.0591 44.287C67.0192 53.5883 68.7846 62.0598 76 59.337Z" fill="#FFF9F2"/>
</g>
<path d="M68.0432 75.664C60.8996 77.3925 54.1459 72.4174 52 61.5321L56.9826 53C55.3441 67.7991 67.7521 77.4892 75 69.6063C75.0011 69.6044 70.0889 74.1231 68.0432 75.664Z" fill="#94C5E9"/>
<g opacity="0.55">
<path opacity="0.55" d="M76 65.695C63.4665 73.8051 60.3372 58.8204 62.7538 47C62.3764 61.3987 65.9304 69.0984 76 65.695Z" fill="#FFF9F2"/>
</g>
<g opacity="0.3">
<path opacity="0.3" d="M78 62.1985C76.1723 70.2378 67.5403 78.8279 59.2651 76.6597L47.7315 69.4475C47.7315 69.4475 40.5449 65.1239 43.8857 56.0475C47.2265 46.9711 48.9939 43.5133 49.497 41.0466C50.0001 38.5799 56.3451 28.6266 56.3451 28.6266L64.3019 27C65.448 28.1757 66.385 29.541 67.0719 31.0362C67.833 34.389 68.4203 37.4838 68.4203 37.4838C61.1038 44.8157 57.119 54.6714 56.5445 67.1116C59.9311 79.0858 72.9687 71.741 77.581 62.5357L78 62.1985Z" fill="#31241B"/>
</g>
<path d="M61.9801 94.7108L42.3265 103.862C37.1259 104.324 32.6547 103.615 28.9817 101.877C18.5507 96.9541 14.5417 83.7639 18.4988 65.6527L21.2661 65.5097L50.3687 64C50.3687 64 50.1924 65.3853 51.1817 67.4131C51.7088 68.4958 52.57 69.7604 53.9657 71.0955C54.4425 71.5545 54.8919 72.0413 55.3113 72.5533C56.6774 74.2097 58.0174 76.3917 59.1348 79.0063C59.588 80.0646 59.9863 81.1455 60.3282 82.2449C61.453 85.8586 62.1267 90.0739 61.9801 94.7108Z" fill="white"/>
<path d="M39.2894 104C35.4206 104 31.9626 103.29 28.9771 101.878C23.8282 99.4505 20.1475 94.8994 18.3331 88.7173C16.5054 82.4901 16.5583 74.5391 18.4843 65.7246L18.4991 65.6559L21.3263 65.508L50.4267 64L50.413 64.1109C50.413 64.1246 50.2544 65.4899 51.2143 67.4555C51.8233 68.7055 52.7495 69.9293 53.9682 71.0939C54.4456 71.5535 54.8956 72.0406 55.316 72.5528C56.7629 74.3055 58.0848 76.5342 59.1383 78.9973C59.5907 80.0534 59.9886 81.132 60.3304 82.2288C61.561 86.1796 62.116 90.3636 61.9799 94.6655V94.7224L42.3204 103.862C41.2838 103.954 40.2735 104 39.2894 104ZM18.65 65.8333C16.7446 74.5897 16.6962 82.4839 18.5106 88.6656C20.3095 94.7952 23.9565 99.3063 29.0562 101.711C32.7664 103.465 37.2165 104.128 42.2852 103.68L61.7961 94.6034C61.9248 90.3421 61.372 86.1977 60.1529 82.2843C59.8134 81.1927 59.4177 80.1194 58.9674 79.0687C57.9206 76.6215 56.6084 74.4082 55.1726 72.6688C54.7574 72.1628 54.3129 71.6815 53.8414 71.2274C52.6068 70.0476 51.6672 68.8057 51.0486 67.5361C50.2081 65.8152 50.2007 64.5644 50.2214 64.1966L18.65 65.8333Z" fill="#31241B"/>
<path opacity="0.5" d="M29.2833 95.5277C33.1419 95.289 35.9797 90.4035 35.6216 84.6155C35.2636 78.8276 31.8453 74.3291 27.9866 74.5678C24.128 74.8065 21.2903 79.692 21.6483 85.48C22.0064 91.2679 25.4247 95.7664 29.2833 95.5277Z" fill="#FAB292"/>
<path d="M59.828 84C59.828 84 54.6759 90.6969 47.0588 86.6674C47.0588 86.6674 40.1697 94.8889 18 89.309C18 89.309 21.5166 105.351 41.6591 103.451L49.1247 104L56.7826 102.388L58.6593 99.126C58.6593 99.126 63.0286 96.0913 59.828 84Z" fill="#FFC35C"/>
<g opacity="0.3">
<path opacity="0.3" d="M51 67.5789L50.9423 68.4785C41.7522 76.8241 30.9993 75.4124 19 66.2451C19 66.2451 19.7627 65.992 21.0148 65.5831L50.1852 64C50.1852 64 50.0084 65.4526 51 67.5789Z" fill="#31241B"/>
</g>
<path d="M62.1341 77C61.2063 77.0016 60.2822 76.8834 59.3841 76.6481C59.25 76.6061 59.1371 76.5134 59.0688 76.3893C59.0006 76.2653 58.9822 76.1194 59.0176 75.982C59.0531 75.8447 59.1395 75.7264 59.2589 75.6518C59.3784 75.5772 59.5217 75.5521 59.659 75.5817C62.8359 76.4179 66.4 75.5817 69.6929 73.2231C74.1974 69.9985 77.4972 64.5506 77.9044 59.6669C77.9224 59.4539 77.8843 59.2399 77.7938 59.0466C77.7034 58.8534 77.5639 58.6879 77.3896 58.567C77.2142 58.4404 77.0087 58.3631 76.7941 58.3431C76.5795 58.323 76.3635 58.361 76.1682 58.453C72.8058 60.0247 70.7547 59.2572 69.6264 58.3361C66.9422 56.1452 66.224 50.4976 67.7512 43.5961C69.0508 36.2508 67.869 30.7993 64.1383 26.9382C64.0882 26.8864 64.0486 26.8251 64.0219 26.7578C63.9952 26.6905 63.9819 26.6186 63.9826 26.5461C63.9834 26.4736 63.9983 26.402 64.0265 26.3353C64.0546 26.2686 64.0955 26.2082 64.1467 26.1575C64.1979 26.1068 64.2585 26.0668 64.3251 26.0398C64.3916 26.0127 64.4627 25.9992 64.5344 26C64.6061 26.0008 64.6769 26.0159 64.7428 26.0443C64.8088 26.0728 64.8685 26.1141 64.9187 26.1659C68.9155 30.3051 70.1911 36.0736 68.8228 43.8013C68.8228 43.8091 68.8195 43.8168 68.8181 43.8245C67.4 50.2204 67.9872 55.5792 70.3114 57.4763C71.6023 58.5302 73.4189 58.5218 75.7104 57.4506C76.0788 57.2765 76.4862 57.2044 76.8911 57.2415C77.296 57.2787 77.684 57.4238 78.0154 57.662C78.3468 57.8929 78.6118 58.2085 78.7832 58.5768C78.9547 58.945 79.0265 59.3526 78.9913 59.7581C78.559 64.9474 75.0755 70.72 70.3234 74.1222C67.6752 76.0182 64.847 77 62.1341 77Z" fill="#31241B"/>
<path d="M70.7415 66C69.4883 66 68.3521 65.69 67.3329 65.0701C62.5825 62.1756 61.4792 52.8927 62.0312 45.1702C62.7054 35.729 59.4186 34.9122 59.385 34.9067C59.3257 34.8977 59.2688 34.877 59.2175 34.8456C59.1663 34.8143 59.1217 34.7729 59.0865 34.724C59.0512 34.6751 59.0259 34.6196 59.0121 34.5608C58.9983 34.5019 58.9963 34.4409 59.0061 34.3813C59.0159 34.3216 59.0374 34.2645 59.0693 34.2133C59.1012 34.1621 59.1428 34.1178 59.1919 34.083C59.2409 34.0482 59.2963 34.0236 59.3548 34.0106C59.4134 33.9977 59.4739 33.9965 59.5329 34.0074C59.7024 34.0355 63.6764 34.821 62.9309 45.2359C62.3985 52.6888 63.3976 61.61 67.7985 64.29C70.1685 65.7341 73.3718 65.2119 77.3183 62.7376C77.42 62.677 77.5411 62.6589 77.6558 62.6873C77.7705 62.7157 77.8696 62.7883 77.9319 62.8895C77.9943 62.9907 78.0149 63.1125 77.9893 63.2288C77.9637 63.3451 77.894 63.4467 77.7951 63.5118C75.1518 65.1693 72.7927 66 70.7415 66Z" fill="#31241B"/>
<path d="M69.5841 72C68.3563 72 67.0921 71.7216 65.8306 71.157C63.0965 69.9329 60.7069 67.496 59.102 64.2935C57.3455 60.7894 56.6705 56.6777 57.15 52.4022C57.1634 52.2831 57.2242 52.1741 57.3192 52.0992C57.4141 52.0242 57.5354 51.9896 57.6562 52.0027C57.7771 52.0159 57.8878 52.0759 57.9638 52.1694C58.0398 52.263 58.075 52.3825 58.0616 52.5016C57.0671 61.3689 61.4079 68.1843 66.2099 70.3338C69.4663 71.7914 72.7462 71.1125 75.2074 68.4703C75.29 68.3837 75.404 68.3327 75.5245 68.3283C75.6451 68.3239 75.7625 68.3665 75.8514 68.4469C75.9403 68.5272 75.9935 68.6389 75.9994 68.7576C76.0054 68.8764 75.9636 68.9926 75.8831 69.0812C74.0892 71.0091 71.9007 71.9996 69.5841 72Z" fill="#31241B"/>
<path d="M65.7722 77C63.6104 77 61.5339 76.3685 59.6549 75.1238C55.9143 72.6451 53.1991 67.833 52.0094 61.574C51.9972 61.5122 51.9969 61.4485 52.0085 61.3866C52.0201 61.3246 52.0435 61.2657 52.0773 61.2132C52.111 61.1606 52.1545 61.1155 52.2052 61.0805C52.2559 61.0454 52.3127 61.0211 52.3725 61.009C52.4323 60.9968 52.4939 60.997 52.5536 61.0096C52.6133 61.0222 52.67 61.0469 52.7205 61.0823C52.7709 61.1177 52.8141 61.1631 52.8475 61.2159C52.8809 61.2687 52.9039 61.3278 52.9151 61.3898C54.0557 67.3915 56.6258 71.9823 60.1519 74.3187C62.6349 75.9625 65.4975 76.4442 68.4294 75.7072C68.5484 75.6772 68.674 75.6975 68.7786 75.7634C68.8831 75.8294 68.9581 75.9357 68.987 76.0588C69.0159 76.182 68.9963 76.312 68.9326 76.4203C68.8689 76.5285 68.7663 76.6062 68.6473 76.6361C67.7063 76.8752 66.7411 76.9974 65.7722 77Z" fill="#31241B"/>
<path d="M38.8221 104C31.7676 104 26.0105 101.667 22.0487 97.1693C16.076 90.3882 14.4597 78.9935 17.4979 65.0839C17.5293 64.9399 17.6166 64.8143 17.7407 64.7348C17.8647 64.6552 18.0152 64.6282 18.1592 64.6596C18.3031 64.691 18.4287 64.7784 18.5083 64.9024C18.5878 65.0264 18.6149 65.177 18.5834 65.3209C15.6227 78.8772 17.1494 89.9259 22.8824 96.4337C27.1394 101.267 33.6335 103.453 41.6695 102.763L60.8793 93.8221C61.1144 83.4804 57.1344 74.9403 53.0455 71.0312C48.887 67.0558 49.2699 63.6268 49.2884 63.4827C49.3077 63.3374 49.3836 63.2055 49.4996 63.1159C49.6156 63.0263 49.7623 62.9862 49.9077 63.0042C50.0532 63.0223 50.1856 63.0972 50.2761 63.2124C50.3667 63.3277 50.408 63.4741 50.391 63.6197C50.3859 63.666 50.1025 66.6806 53.8133 70.2282C58.1252 74.3507 62.323 83.3611 61.9804 94.1984C61.9772 94.3012 61.9455 94.4011 61.8889 94.4869C61.8322 94.5728 61.7529 94.6413 61.6596 94.6847L42.0499 103.811C41.9915 103.838 41.9288 103.855 41.8647 103.861C40.8262 103.954 39.812 104 38.8221 104Z" fill="#31241B"/>
<path d="M19.3876 11C17.0041 2.11069 26.2816 0.536672 29 6.74351L19.3876 11Z" fill="#FFF9F2"/>
<path d="M19.4284 11C18.0971 6.46753 20.0874 4.0402 22.3941 3.27947C24.8813 2.45948 28.3921 3.39443 30 6.74251L29.8249 6.81348C28.2641 3.56297 24.864 2.65144 22.4585 3.44552C20.2326 4.17929 18.3163 6.53707 19.6135 10.9525L19.4284 11Z" fill="#31241B"/>
<path d="M23.0977 9C22.4227 6.19993 25.4105 4.73052 27 7.4221L23.0977 9Z" fill="#FAB292"/>
<path d="M23.0974 9C22.7273 7.44907 23.472 6.41073 24.3212 6.10225C25.0491 5.83794 26.1871 6.02281 27 7.41381L26.8363 7.50037C26.0826 6.21018 25.0779 6.01818 24.3879 6.2686C23.6125 6.55071 22.9348 7.51319 23.2802 8.96082L23.0974 9Z" fill="#31241B"/>
<path d="M59.7417 30.5717C59.7509 30.748 59.7601 30.9224 59.7693 31.0968C60.8529 53.0702 54.4265 63.5262 44.0114 67.8626C43.2387 68.0482 42.4347 68.2152 41.6087 68.358C31.3058 70.1561 17.2516 68.5176 7.38106 59.058V59.0562C6.12138 57.8497 4.95866 56.5442 3.90384 55.1521C1.54338 51.5319 0.886576 48.2736 1.01536 45.5905C1.23982 40.8459 3.90384 37.8955 3.90384 37.8955C3.90384 37.8955 9.88319 31.0764 11.493 27.4581C13.1028 23.8398 15.4946 19.804 15.4946 19.804L57.4971 17.9039C64.7091 10.7007 73.5402 25.9273 59.7417 30.5717Z" fill="#FFF9F2"/>
<path d="M33.5874 68.9999C30.2348 68.9999 26.8662 68.6437 23.6932 67.9362C16.908 66.4226 11.1196 63.4399 6.48897 59.0706L6.45991 59.0413C5.19225 57.843 4.02146 56.5475 2.95835 55.1669C0.8507 51.9859 -0.138306 48.7606 0.0155399 45.5763L0.019264 45.5393C0.255806 40.8544 2.93674 37.8795 2.96207 37.8499C3.02167 37.7829 9.02388 31.0234 10.629 27.4715C12.2423 23.9014 14.6607 19.8734 14.6849 19.8331L14.7106 19.7902L14.7609 19.788L57.2449 17.8961C59.1153 16.0722 61.3283 15.5325 63.3205 16.4147C65.6174 17.4322 67.1271 20.068 66.9916 22.8247C66.8206 26.3104 64.1482 29.1696 59.6558 30.678L59.6796 31.1311C60.2097 41.7096 59.0259 49.8743 56.06 56.0893C53.3869 61.6915 49.334 65.5434 43.6696 67.8652C42.8501 68.0601 42.0284 68.2265 41.2174 68.3645C38.6969 68.7914 36.1443 69.004 33.5874 68.9999ZM6.64616 58.964C16.6826 68.41 31.0674 69.9206 41.1876 68.1818C41.9948 68.0442 42.8114 67.8785 43.6145 67.6891C55.2885 62.9025 60.4891 50.9454 59.4956 31.1396L59.4639 30.5478L59.5314 30.5256C63.9873 29.049 66.6395 26.239 66.8075 22.8166C66.939 20.1342 65.4751 17.5713 63.2467 16.5845C61.2903 15.7179 59.1972 16.2394 57.3522 18.0533L57.3269 18.078H57.2896L14.8227 19.97C14.5586 20.4138 12.3217 24.184 10.8022 27.5462C9.18554 31.124 3.16583 37.9028 3.10399 37.9723C3.07643 38.0027 0.426044 40.9465 0.205147 45.5833L0.201421 45.6203C0.0594953 48.7532 1.03882 51.9286 3.11219 55.0592C4.17656 56.4405 5.349 57.7363 6.6186 58.9344L6.64616 58.964Z" fill="#31241B"/>
<g opacity="0.3">
<path opacity="0.3" d="M27 24.6781C35.6464 35.083 53.9661 41.15 58 25.3557L56.5286 22" fill="#31241B"/>
</g>
<path opacity="0.5" d="M41.8506 67.3649C30.1908 69.3653 13.769 67.0657 3.92115 54.3035C1.54662 50.7229 0.8859 47.5002 1.01545 44.8465C3.0883 34.1176 21.9031 36.1364 30.1094 40.6327C44.6823 47.8801 52.9848 62.9732 41.8506 67.3649Z" fill="#FAB292"/>
<g opacity="0.55">
<path opacity="0.55" d="M46 56C43.4086 50.8553 37.7852 45.4174 30.6663 41.8617C22.4607 37.3455 3.64155 35.3178 1.57028 46.0939C1.48328 47.9115 1.76093 49.9944 2.70124 52.2765C1.31484 49.517 0.913169 47.0156 1.01497 44.881C3.0881 34.1049 21.9054 36.1326 30.1128 40.6488C37.7926 44.4866 43.7344 50.5124 46 56Z" fill="#FFF9F2"/>
</g>
<path d="M56.4688 24.366C54.3939 27.3468 51.1898 29.1205 46.925 29.763C43.2537 30.315 39.4951 29.8879 36.0073 28.6372C31.5164 27.0283 27.1645 24.8637 22.9313 22.2122C19.7494 20.4747 16.701 19.4684 13.8159 19.3852C13.6617 19.3815 13.51 19.3474 13.3697 19.2849C13.2295 19.2224 13.1037 19.1327 13 19.0214C17.9582 16.0767 24.0883 15.0143 32.1412 17.0541L43.2036 22.2122C50.5427 25.289 55.9088 21.8756 57.8799 18.102C58.2535 20.2894 57.7481 22.5333 56.4688 24.366Z" fill="#94C5E9"/>
<g opacity="0.3">
<path opacity="0.3" d="M56.4702 24.3177C54.3953 27.3241 51.191 29.1129 46.9262 29.761C43.2547 30.3177 39.496 29.8869 36.0081 28.6256C31.517 27.0028 27.165 24.8196 22.9316 22.1454C19.7496 20.3931 16.7012 19.3782 13.8159 19.2942C13.6618 19.2905 13.51 19.2561 13.3698 19.193C13.2295 19.13 13.1037 19.0396 13 18.9273C13.1928 18.8123 13.3875 18.6991 13.5822 18.5896C16.3952 18.449 19.4511 19.1646 22.7017 20.561C27.1816 22.8135 31.7302 24.5677 36.3604 25.7488C39.9577 26.6669 43.7405 26.7345 47.3378 25.8254C50.6811 24.9803 53.2771 23.4725 55.0869 21.2693C56.32 20.3383 57.2639 19.1883 57.8795 18C58.2537 20.206 57.7489 22.469 56.4702 24.3177Z" fill="#31241B"/>
</g>
<g opacity="0.55">
<path opacity="0.55" d="M57.7069 22.0927C57.8281 21.1813 57.8156 20.256 57.6698 19.3485C55.6969 23.3712 50.3305 27.0063 42.9913 23.728L31.9286 18.232C24.5188 16.2322 18.7372 17.0306 13.9976 19.6147C13.9364 19.6108 13.8771 19.6089 13.8159 19.6069C13.6618 19.603 13.51 19.5667 13.3698 19.5001C13.2295 19.4334 13.1037 19.3379 13 19.2193C17.9584 16.0818 24.0886 14.9498 32.1418 17.1231L43.2027 22.6192C50.5419 25.8975 55.9082 22.2605 57.8794 18.2397C58.0857 19.5222 58.0269 20.8357 57.7069 22.0927Z" fill="#FFF9F2"/>
</g>
<path d="M58 18.4524C56.0369 22.3989 50.6926 25.9705 43.3833 22.7512L32.364 17.3541C24.3437 15.2199 18.2385 16.3315 13.3004 19.4126C12.9513 19.0206 12.8738 18.4032 13.2431 17.9241C25.9411 1.43931 49.0748 3.65306 56.5688 14.8203C56.9514 15.3892 57.2681 16.0018 57.5125 16.6458C57.6221 16.9275 57.7164 17.2151 57.795 17.5075L57.7969 17.5188C57.88 17.817 57.946 18.1199 57.9945 18.4259C57.9966 18.4314 57.9978 18.4371 57.9981 18.443L58 18.4524Z" fill="#E06B38"/>
<g opacity="0.55">
<path opacity="0.55" d="M58 18.311C57.8837 18.5432 57.7544 18.7735 57.6159 19C57.5863 18.8746 57.5549 18.751 57.5199 18.6274L57.518 18.6162C57.2574 17.6678 56.843 16.77 56.2918 15.9595C48.8182 4.95071 25.7937 2.74334 13.0755 18.8914C13.0049 18.7092 12.9833 18.5114 13.0128 18.318C13.0424 18.1246 13.122 17.9426 13.2435 17.7905C25.9414 1.49081 49.0749 3.67946 56.5688 14.7201C57.12 15.5306 57.5344 16.4284 57.795 17.3768L57.7969 17.388C57.8812 17.6884 57.9484 17.9934 57.9982 18.3017L58 18.311Z" fill="#FFF9F2"/>
</g>
<path d="M43.3114 30C40.6792 30 38.0122 29.5272 35.4575 28.5991C31.0916 27.0121 26.7008 24.8254 22.4069 22.1C19.2298 20.3442 16.2812 19.4151 13.6432 19.3361C13.3291 19.3284 13.0236 19.2339 12.7609 19.0633C12.4983 18.8928 12.289 18.653 12.1568 18.371C12.0258 18.095 11.9754 17.7883 12.0112 17.4854C12.047 17.1826 12.1675 16.8957 12.3592 16.657C18.5217 8.93557 27.7587 4.69228 37.7061 5.0174C45.6603 5.27634 52.8046 8.60572 56.3506 13.7055C58.5396 16.8537 58.5507 20.9337 56.3782 24.1002C54.2645 27.1801 50.9584 29.0825 46.551 29.7553C45.479 29.9184 44.396 30.0002 43.3114 30ZM36.647 6.09241C27.446 6.09241 18.9564 10.1531 13.2243 17.3345C13.1585 17.4142 13.1171 17.5108 13.105 17.613C13.0929 17.7152 13.1106 17.8187 13.1559 17.9113C13.2016 18.0102 13.2747 18.0942 13.3668 18.1537C13.4588 18.2131 13.566 18.2454 13.6759 18.247C16.4969 18.3299 19.6204 19.3085 22.9592 21.1563C22.9691 21.1618 22.9787 21.1672 22.9879 21.173C27.2189 23.8598 31.5422 26.0142 35.8375 27.5754C39.2748 28.8254 42.9215 29.2061 46.3838 28.6788C50.4763 28.0544 53.5322 26.3084 55.4669 23.4889C57.3821 20.6977 57.3729 17.1007 55.4433 14.3244C52.0909 9.50544 45.281 6.35716 37.6708 6.10914C37.3283 6.09786 36.9866 6.09241 36.647 6.09241Z" fill="#31241B"/>
<path d="M58 17.7476C56.0238 21.4841 50.6435 24.8657 43.2851 21.8176L32.1917 16.7076C24.1175 14.687 17.9713 15.7394 13 18.6566C19.1165 11.8074 30.433 10.1238 35.6013 11.3861L43.9413 13.6596C43.9413 13.6596 48.1467 15.6319 50.6435 17.267C53.1403 18.9022 56.2692 18.6566 57.7936 16.8529L57.7955 16.8636L57.9981 17.7386L58 17.7476Z" fill="#E05656"/>
<g opacity="0.3">
<path opacity="0.3" d="M57 17.5327C55.0533 21.4221 49.7534 24.942 42.505 21.7692L31.5775 16.4502C26.2831 15.0505 21.8293 15.0692 18 16.133C22.1443 14.1024 27.2061 13.3895 33.5938 14.5727L44.8748 19.0556C50.2534 20.9462 54.3684 19.4401 56.87 16.943L56.9963 17.5234L57 17.5327Z" fill="#31241B"/>
</g>
<g opacity="0.3">
<path opacity="0.3" d="M56.7182 16.512C56.8275 16.7974 56.9216 17.0888 57 17.385C55.4895 19.3151 52.3876 19.5799 49.9156 17.8282C47.4436 16.0765 43.2751 13.9679 43.2751 13.9679L35.0119 11.5351C30.7826 10.4185 22.3941 11.4546 16.1883 15.9806C15.4368 16.34 14.7061 16.7449 14 17.1931C20.0602 9.86403 31.2726 8.06245 36.3934 9.41315L44.6567 11.846C44.6567 11.846 48.8233 13.9545 51.2971 15.7062C53.0507 16.9495 55.123 17.1778 56.7182 16.512Z" fill="#31241B"/>
<path opacity="0.3" d="M57.1981 18L57 17C57.0833 17.3287 57.1495 17.6626 57.1981 18Z" fill="#31241B"/>
</g>
<g opacity="0.55">
<path opacity="0.55" d="M58 18.2013C57.9442 18.3161 57.8866 18.4252 57.8252 18.5381L57.7955 18.4003L57.7936 18.3888C56.2691 20.3144 53.1382 20.5785 50.6432 18.831C48.1481 17.0835 43.9407 14.9799 43.9407 14.9799L35.6004 12.5529C31.0807 11.3739 21.8628 12.6008 15.5285 17.8127C14.6577 18.2089 13.813 18.6635 13 19.1736C19.1168 11.862 30.4337 10.0647 35.6023 11.4122L43.9426 13.8392C43.9426 13.8392 48.1481 15.9446 50.645 17.6902C53.1419 19.4358 56.2709 19.1736 57.7955 17.2481L57.7973 17.2596L58 18.1936V18.2013Z" fill="#FFF9F2"/>
</g>
<path d="M48.3026 24C46.5367 24 44.6047 23.6021 42.5458 22.6874L42.5258 22.6778L31.5101 17.2344C24.2186 15.289 18.1125 15.9544 12.8458 19.2679C12.7326 19.3393 12.5984 19.3665 12.4675 19.3446C12.3366 19.3227 12.2176 19.2531 12.1319 19.1485C12.0462 19.0439 11.9994 18.911 12 18.7738C12.0006 18.6367 12.0485 18.5042 12.1351 18.4004C18.3028 10.9909 29.7098 8.99073 35.2362 10.4399L43.5703 12.8756C43.6019 12.8857 43.6327 12.8985 43.6622 12.914C43.8347 13.0007 47.9228 15.0627 50.4171 16.8157C52.6272 18.3709 55.4338 18.2254 56.8069 16.4842C56.8532 16.4257 56.9101 16.3771 56.9745 16.3414C57.0389 16.3056 57.1095 16.2833 57.1823 16.2757C57.255 16.2682 57.3285 16.2755 57.3985 16.2973C57.4685 16.3192 57.5336 16.355 57.5902 16.4029C57.6468 16.4508 57.6937 16.5097 57.7283 16.5763C57.7629 16.643 57.7845 16.716 57.7918 16.7912C57.7991 16.8665 57.792 16.9425 57.7709 17.0149C57.7498 17.0873 57.7151 17.1547 57.6689 17.2133L57.6299 17.2616C57.6526 17.2702 57.6748 17.2802 57.6963 17.2915C57.7614 17.3259 57.8193 17.3731 57.8668 17.4306C57.9142 17.4881 57.9503 17.5547 57.9728 17.6266C57.9954 17.6985 58.004 17.7743 57.9983 17.8497C57.9925 17.925 57.9725 17.9985 57.9392 18.0658C56.3288 21.3307 52.8757 23.9996 48.3026 24ZM42.995 21.6342C49.3526 24.4543 54.3641 21.9189 56.5884 18.2009C54.7232 19.4287 51.9956 19.3159 49.7921 17.7658C47.4996 16.1543 43.6723 14.1974 43.2205 13.9695L34.9495 11.5523C32.2723 10.8501 28.1991 11.0918 24.3299 12.1873C21.8174 12.8986 18.5324 14.2024 15.6186 16.5575C20.3639 14.6229 25.7071 14.4887 31.8402 16.1355C31.8747 16.1449 31.9083 16.1577 31.9404 16.1738L42.995 21.6342Z" fill="#31241B"/>
<path d="M43.9966 2.02638L42.7807 23C41.2395 22.3535 39.8177 21.5959 38.4138 20.8231C36.3379 19.6809 34.3072 18.5086 32 17.6284C35.2611 11.6651 38.6686 6.12197 42.3471 1.36107C42.4707 1.20111 42.6398 1.08625 42.83 1.03306C43.0202 0.979866 43.2217 0.991089 43.4055 1.06511C43.5892 1.13913 43.7456 1.27212 43.8522 1.44489C43.9587 1.61766 44.01 1.82129 43.9984 2.02638H43.9966Z" fill="#FFC35C"/>
<g opacity="0.55">
<path opacity="0.55" d="M44 1.47247C43.8364 1.44649 43.669 1.46681 43.5159 1.53126C43.3627 1.5957 43.2295 1.70182 43.1307 1.8382C39.5514 6.58715 36.2569 12.0901 33.114 18C32.7487 17.8442 32.3774 17.6942 32 17.5499C35.2963 11.6174 38.7405 6.10138 42.4587 1.36368C42.5834 1.19968 42.7572 1.08248 42.9534 1.03026C43.1495 0.978045 43.3569 0.993715 43.5434 1.07485C43.7341 1.15211 43.8946 1.29189 44 1.47247Z" fill="#FFF9F2"/>
</g>
<path d="M42.252 23C42.1832 23 42.1151 22.9862 42.0512 22.9595C40.247 22.2032 38.5922 21.2869 36.9919 20.4009C35.2082 19.4129 33.3648 18.3917 31.3537 17.6252C31.2802 17.5971 31.2133 17.5527 31.1579 17.4948C31.1025 17.437 31.0598 17.3673 31.0328 17.2905C31.0059 17.2137 30.9953 17.1317 31.0019 17.0502C31.0084 16.9687 31.0319 16.8897 31.0708 16.8187C34.6821 10.2105 38.0607 4.89568 41.3991 0.569175C41.5935 0.316985 41.8598 0.13588 42.1594 0.0520494C42.459 -0.0317813 42.7764 -0.0139938 43.0657 0.102841C43.3549 0.219676 43.6011 0.429503 43.7686 0.701979C43.9361 0.974454 44.0162 1.29546 43.9973 1.61857L42.7906 22.4719C42.7823 22.615 42.7219 22.7494 42.6218 22.8476C42.5216 22.9457 42.3893 23.0003 42.252 23ZM32.3191 16.8052C34.1646 17.5623 35.856 18.4988 37.4969 19.4077C38.8615 20.164 40.2689 20.9424 41.76 21.6148L42.9221 1.55149C42.9266 1.46681 42.9054 1.38281 42.8613 1.31152C42.8173 1.24024 42.7528 1.18535 42.677 1.15471C42.6012 1.12408 42.5181 1.11928 42.4395 1.14101C42.361 1.16273 42.291 1.20986 42.2398 1.27564C39.0325 5.429 35.7842 10.5137 32.3191 16.8052Z" fill="#31241B"/>
<path d="M41.4249 8C40.4951 8 39.3701 7.73735 38.1967 6.86009C38.1478 6.82554 38.1059 6.78091 38.0735 6.72881C38.0411 6.67672 38.0187 6.61821 38.0077 6.55675C37.9968 6.49528 37.9975 6.43209 38.0097 6.3709C38.022 6.30972 38.0456 6.25177 38.0791 6.20047C38.1126 6.14917 38.1554 6.10556 38.205 6.0722C38.2545 6.03885 38.3098 6.01642 38.3676 6.00624C38.4254 5.99607 38.4845 5.99835 38.5415 6.01295C38.5985 6.02755 38.6521 6.05418 38.6993 6.09127C41.1182 7.89644 43.2629 6.63758 43.3531 6.5828C43.4539 6.52498 43.5717 6.51142 43.6817 6.54501C43.7916 6.5786 43.885 6.65669 43.9418 6.76267C43.9987 6.86864 44.0146 6.99414 43.9862 7.11247C43.9578 7.2308 43.8873 7.33262 43.7897 7.39627C43.7251 7.43642 42.7838 8 41.4249 8Z" fill="#31241B"/>
<path d="M39.8466 13C38.3465 13 36.6342 12.4886 35.1192 10.766C35.0771 10.72 35.0451 10.6663 35.0249 10.6082C35.0046 10.5501 34.9966 10.4887 35.0013 10.4276C35.006 10.3664 35.0233 10.3068 35.0522 10.2522C35.081 10.1976 35.1209 10.1491 35.1695 10.1094C35.2181 10.0698 35.2744 10.0399 35.3351 10.0214C35.3959 10.003 35.4598 9.99634 35.5232 10.0019C35.5866 10.0075 35.6483 10.0252 35.7045 10.0539C35.7608 10.0827 35.8105 10.1219 35.8508 10.1693C39.0091 13.7592 43.0817 11.2424 43.2555 11.1334C43.3615 11.0658 43.4911 11.0415 43.6158 11.0659C43.7404 11.0902 43.8499 11.1612 43.9202 11.2632C43.9905 11.3653 44.0157 11.49 43.9904 11.61C43.9651 11.73 43.8914 11.8353 43.7853 11.903C43.7523 11.9214 42.022 13 39.8466 13Z" fill="#31241B"/>
<path d="M38.2866 18C36.5473 18 34.4324 17.477 32.1705 15.7663C32.077 15.6956 32.0168 15.5923 32.003 15.4791C31.9892 15.366 32.0231 15.2522 32.0971 15.1629C32.1711 15.0736 32.2793 15.016 32.3977 15.0029C32.5162 14.9897 32.6352 15.0221 32.7287 15.0928C37.9529 19.0464 42.1085 16.1512 42.2833 16.0261C42.3784 15.959 42.4975 15.9303 42.6146 15.9465C42.7317 15.9626 42.8374 16.0222 42.9088 16.1123C42.9803 16.2025 43.0116 16.3158 42.9961 16.4279C42.9806 16.54 42.9195 16.6417 42.826 16.711C42.7969 16.7309 40.9967 18 38.2866 18Z" fill="#31241B"/>
<g opacity="0.3">
<path opacity="0.3" d="M44.9972 1.95866L43.691 23C42.0355 22.3514 40.508 21.5913 39 20.8161L44.3761 1C44.5716 1.07369 44.7375 1.20669 44.8493 1.37933C44.9612 1.55197 45.013 1.75509 44.9972 1.95866Z" fill="#31241B"/>
</g>
<path d="M34.0922 69C30.4136 69 26.7127 68.5774 23.2523 67.7333C14.8987 65.6962 7.91407 61.2811 3.0507 54.9675C3.04245 54.9572 3.03474 54.9464 3.02758 54.9353C-0.50592 49.5969 -0.31237 45.0223 0.472272 42.124C1.32516 38.9757 3.00819 37.1108 3.08278 37.0331C3.13722 36.9716 9.09961 30.255 10.6775 26.7626C12.3038 23.1632 14.739 19.1064 14.7633 19.0656C14.8394 18.9391 14.963 18.8478 15.1069 18.8118C15.2508 18.7758 15.4032 18.798 15.5306 18.8736C15.658 18.9492 15.7499 19.0719 15.7862 19.2148C15.8224 19.3577 15.8001 19.5091 15.7239 19.6356C15.6997 19.676 13.2973 23.6784 11.6986 27.2175C10.051 30.8639 4.16539 37.4946 3.91553 37.7735C3.89464 37.7961 2.31492 39.5554 1.54071 42.4611C0.508447 46.3361 1.32031 50.3214 3.95282 54.3064C13.8354 67.1162 31.1606 69.8037 43.9729 66.7836C55.5356 62.019 60.6239 50.0277 59.5259 30.1268C59.5197 30.0055 59.5535 29.8855 59.6224 29.7852C59.6913 29.6849 59.7915 29.6097 59.9075 29.5713C64.176 28.1564 66.7153 25.4944 66.8734 22.268C66.9961 19.7682 65.6427 17.3855 63.5845 16.4733C61.8135 15.6892 59.9019 16.177 58.2013 17.8508C58.1494 17.9035 58.0875 17.9455 58.0191 17.9743C57.9508 18.003 57.8773 18.018 57.8031 18.0182C57.7288 18.0185 57.6553 18.0041 57.5867 17.9758C57.5181 17.9476 57.4559 17.906 57.4036 17.8536C57.3514 17.8013 57.3101 17.7391 57.2823 17.6707C57.2545 17.6023 57.2407 17.5291 57.2417 17.4554C57.2427 17.3816 57.2584 17.3088 57.288 17.2412C57.3176 17.1736 57.3604 17.1125 57.4141 17.0615C59.4357 15.0732 61.8519 14.4888 64.0403 15.4584C66.5109 16.5529 68.1358 19.3753 67.9911 22.3221C67.8143 25.9241 65.1516 28.8827 60.6652 30.4861C61.2101 41.1258 60.0331 49.3643 57.0702 55.6642C54.3445 61.4597 50.1852 65.4391 44.3552 67.8299C44.328 67.8412 44.2999 67.8502 44.2713 67.857C41.051 68.6181 37.5809 69 34.0922 69Z" fill="#31241B"/>
<path d="M19.9935 10.9982C19.8669 10.9982 19.7439 10.9595 19.6434 10.8881C19.5429 10.8168 19.4705 10.7167 19.4373 10.6034C18.0152 5.74885 20.3133 3.09974 22.7151 2.30622C25.4137 1.41462 29.2153 2.4157 30.9457 6.02631C30.9782 6.09074 30.9965 6.16053 30.9995 6.2316C31.0026 6.30267 30.9904 6.37359 30.9635 6.44022C30.9367 6.50685 30.8958 6.56784 30.8433 6.61964C30.7908 6.67143 30.7276 6.71299 30.6576 6.74187C30.5875 6.77075 30.512 6.78638 30.4353 6.78785C30.3587 6.78931 30.2825 6.77658 30.2113 6.7504C30.14 6.72422 30.075 6.68511 30.0203 6.63537C29.9655 6.58563 29.9219 6.52625 29.8922 6.4607C28.4435 3.43854 25.313 2.58404 23.1018 3.31443C21.0716 3.98492 19.3351 6.17824 20.55 10.3224C20.5737 10.4019 20.5773 10.4854 20.5605 10.5664C20.5436 10.6474 20.5068 10.7237 20.4529 10.7893C20.399 10.8549 20.3295 10.9081 20.2498 10.9446C20.1701 10.9812 20.0824 11.0001 19.9935 11V10.9982Z" fill="#31241B"/>
<path d="M59.3687 26.8732C64.6216 23.5796 61.0487 18.4589 57 22.4684L58.0884 26.3541C58.1248 26.4854 58.1902 26.6064 58.2795 26.7076C58.3689 26.8088 58.4798 26.8875 58.6036 26.9377C58.7274 26.9879 58.8608 27.0082 58.9935 26.997C59.1262 26.9858 59.2546 26.9434 59.3687 26.8732Z" fill="#FAB292"/>
<path d="M58.9531 27C58.7516 26.9994 58.5558 26.9313 58.395 26.8059C58.2342 26.6806 58.1171 26.5047 58.0614 26.3048L57 22.4892L57.0394 22.4516C58.2839 21.2088 59.6158 20.7343 60.6936 21.1437C61.4231 21.4208 61.9085 22.0851 61.9881 22.9174C62.1194 24.2923 61.1619 25.7674 59.4269 26.8629C59.2843 26.9529 59.1203 27.0003 58.9531 27ZM57.2057 22.5465L58.2364 26.2528C58.2679 26.3673 58.3247 26.4727 58.4025 26.5605C58.4802 26.6484 58.5767 26.7163 58.6843 26.759C58.7892 26.8019 58.9023 26.8189 59.0147 26.8088C59.1271 26.7987 59.2356 26.7616 59.3317 26.7006L59.3795 26.7812L59.3317 26.7006C61.0058 25.6439 61.9308 24.2358 61.8064 22.9347C61.7335 22.1748 61.2958 21.5711 60.6305 21.3192C59.6315 20.9414 58.3856 21.3869 57.2057 22.5465Z" fill="#31241B"/>
<path d="M22.5917 10C22.4803 9.99992 22.3722 9.96362 22.2852 9.89704C22.1981 9.83045 22.1373 9.73754 22.1126 9.63352C21.672 7.77476 22.5961 6.51638 23.6409 6.13408C24.552 5.80075 25.9619 6.00791 26.9382 7.68964C27.0016 7.79902 27.0169 7.92801 26.9809 8.04824C26.9449 8.16846 26.8605 8.27006 26.7463 8.3307C26.632 8.39133 26.4973 8.40603 26.3717 8.37156C26.2462 8.33709 26.1401 8.25627 26.0767 8.14689C25.5169 7.18154 24.7172 6.74727 23.9918 7.01318C23.3309 7.25537 22.7609 8.11299 23.0717 9.42373C23.0882 9.49277 23.0883 9.56451 23.0719 9.63359C23.0555 9.70268 23.023 9.76732 22.9769 9.82271C22.9308 9.87811 22.8722 9.92282 22.8055 9.95351C22.7388 9.98421 22.6657 10.0001 22.5917 10Z" fill="#31241B"/>
<path d="M59.4207 27C59.1261 26.999 58.8398 26.9007 58.6046 26.7198C58.3694 26.539 58.198 26.2852 58.1161 25.9967L57.0185 22.0992C56.9946 22.0141 56.9938 21.9239 57.0164 21.8384C57.0389 21.7529 57.0838 21.6752 57.1463 21.6137C58.5623 20.2198 60.1042 19.6949 61.3782 20.1725C62.2864 20.5128 62.8872 21.3226 62.9856 22.3388C63.1386 23.9162 62.0671 25.5834 60.1153 26.7986C59.9064 26.9297 59.666 26.9994 59.4207 27ZM59.6174 25.9662L59.8673 26.3826L59.6174 25.9662C61.2458 24.9516 62.1486 23.6306 62.033 22.4344C61.9718 21.7995 61.6036 21.2965 61.0483 21.0881C60.2003 20.7704 59.0828 21.1552 58.0193 22.1183L59.0361 25.7274C59.053 25.7881 59.0836 25.844 59.1253 25.8906C59.1671 25.9373 59.219 25.9733 59.2768 25.9959C59.3319 26.0186 59.3914 26.0277 59.4506 26.0225C59.5098 26.0174 59.5669 25.9981 59.6174 25.9662Z" fill="#31241B"/>
<path d="M41.3078 69C41.1789 69.0001 41.0539 68.9548 40.9545 68.8718C40.8551 68.7889 40.7874 68.6735 40.7631 68.5455C40.7389 68.4176 40.7595 68.2851 40.8215 68.1709C40.8835 68.0567 40.9829 67.9679 41.1028 67.9198C44.1524 66.6936 45.7613 64.6134 45.8843 61.7359C46.014 58.7005 44.4435 55.0085 41.4618 51.3401C38.3934 47.5645 34.0884 44.16 29.3397 41.7532L29.3202 41.7427C23.2899 38.3755 12.1989 36.6947 5.92561 39.6663C3.23099 40.9425 1.60623 42.9536 1.09642 45.643C1.06652 45.7866 0.98203 45.9125 0.86113 45.9938C0.740229 46.0751 0.592581 46.1052 0.449951 46.0776C0.307322 46.05 0.181111 45.967 0.098474 45.8463C0.0158364 45.7256 -0.0166244 45.577 0.00807809 45.4324C0.588453 42.3717 2.42083 40.0895 5.45496 38.6525C8.60066 37.1624 13.0589 36.657 18.0097 37.2303C22.3656 37.7342 26.7896 39.0526 29.8466 40.7573C39.9161 45.8643 47.2859 54.904 46.9915 61.7844C46.85 65.0949 44.9552 67.5764 41.5125 68.9601C41.4473 68.9863 41.3779 68.9998 41.3078 69Z" fill="#31241B"/>
<path d="M16.0001 26C16.0851 26.221 16.1849 26.4371 16.299 26.6471C16.4093 26.8526 16.5354 27.0508 16.6764 27.2403C16.8088 27.4198 16.962 27.5859 17.1333 27.7358C17.2819 27.8646 17.4557 27.9671 17.6457 28.0381C17.713 28.0611 17.7747 28.096 17.8271 28.1406C17.8795 28.1853 17.9218 28.2389 17.9514 28.2984C17.981 28.3578 17.9974 28.422 17.9997 28.4872C18.002 28.5525 17.9901 28.6175 17.9647 28.6785C17.9393 28.7396 17.9009 28.7955 17.8517 28.8431C17.8025 28.8907 17.7434 28.929 17.6779 28.9559C17.6123 28.9828 17.5416 28.9977 17.4697 28.9997C17.3978 29.0018 17.3262 28.991 17.2589 28.968C17.1959 28.9465 17.1379 28.9144 17.0881 28.8734L17.0543 28.8455C16.8203 28.6504 16.6272 28.4185 16.4843 28.1609C16.3584 27.93 16.2599 27.6877 16.1905 27.4379C16.1234 27.2009 16.0747 26.96 16.0449 26.7168C16.0138 26.4789 15.9988 26.2395 16.0001 26Z" fill="#31241B"/>
<path d="M21.8946 31.3684C22.5085 28.9601 21.4876 26.6208 19.6145 26.1434C17.7414 25.6659 15.7254 27.2312 15.1115 29.6394C14.4976 32.0477 15.5184 34.387 17.3916 34.8645C19.2647 35.3419 21.2807 33.7767 21.8946 31.3684Z" fill="#31241B"/>
<path d="M20 30C20.5523 30 21 29.5523 21 29C21 28.4477 20.5523 28 20 28C19.4477 28 19 28.4477 19 29C19 29.5523 19.4477 30 20 30Z" fill="white"/>
<path d="M19.9998 30C19.4484 30 19 29.5514 19 29C19 28.4486 19.4484 28 19.9998 28C20.5512 28 21 28.4486 21 29C21 29.5514 20.5516 30 19.9998 30ZM19.9998 28.1319C19.5263 28.1319 19.1409 28.5225 19.1409 29C19.1409 29.4775 19.5269 29.8681 19.9998 29.8681C20.4727 29.8681 20.8588 29.4775 20.8588 29C20.8588 28.5225 20.4737 28.1319 19.9998 28.1319Z" fill="#31241B"/>
<path d="M17.5 32C17.7761 32 18 31.7761 18 31.5C18 31.2239 17.7761 31 17.5 31C17.2239 31 17 31.2239 17 31.5C17 31.7761 17.2239 32 17.5 32Z" fill="white"/>
<path d="M17.5 32C17.2244 32 17 31.7767 17 31.5001C17 31.2235 17.2244 31 17.5 31C17.7756 31 18 31.2233 18 31.5001C18 31.777 17.7756 32 17.5 32ZM17.5 31.066C17.2631 31.066 17.0706 31.2607 17.0706 31.5001C17.0706 31.7395 17.2631 31.9343 17.5 31.9343C17.7369 31.9343 17.9294 31.7395 17.9294 31.5001C17.9294 31.2607 17.7369 31.0655 17.5 31.0655V31.066Z" fill="#31241B"/>
<path d="M17 24C17.1985 24.5826 17.4529 25.1484 17.7602 25.691C18.0633 26.2237 18.4239 26.7234 18.8421 27.1223C18.8987 27.1763 18.9419 27.2406 18.9687 27.311C18.9955 27.3814 19.0053 27.4561 18.9973 27.5302C18.9894 27.6043 18.964 27.6759 18.9228 27.7403C18.8816 27.8048 18.8256 27.8604 18.7585 27.9036C18.6915 27.9468 18.615 27.9764 18.5342 27.9905C18.4533 28.0047 18.3701 28.0029 18.2901 27.9855C18.2101 27.968 18.1352 27.9352 18.0704 27.8894C18.0056 27.8435 17.9524 27.7855 17.9146 27.7195L17.9097 27.711C17.5632 27.1014 17.361 26.479 17.2229 25.8588C17.0889 25.2463 17.0143 24.6243 17 24Z" fill="#31241B"/>
<path d="M39.0059 42.2824C39.3839 41.313 40.0556 40.4744 40.9344 39.8746C41.8739 39.2438 43.0092 38.9389 44.1533 39.0102C45.2906 39.0821 46.374 39.502 47.2445 40.2082C48.0934 40.889 48.7158 41.7909 48.9932 42.7679C49.0044 42.8073 49.0017 42.8491 48.9854 42.8868C48.9691 42.9245 48.9402 42.9559 48.9032 42.9761C48.8662 42.9962 48.8233 43.004 48.7812 42.9981C48.7392 42.9922 48.7003 42.9731 48.6709 42.9436L48.6686 42.9411C47.9727 42.2457 47.2668 41.6551 46.491 41.217C45.7152 40.7789 44.889 40.4976 44.04 40.4228C43.1738 40.3482 42.3021 40.4898 41.5096 40.8338C40.6822 41.1774 39.9195 41.7345 39.1586 42.3819C39.1426 42.3954 39.1224 42.4034 39.1012 42.4046C39.08 42.4058 39.059 42.4002 39.0414 42.3887C39.0239 42.3772 39.0109 42.3603 39.0045 42.3409C38.998 42.3214 38.9986 42.3005 39.0059 42.2813V42.2824Z" fill="#31241B"/>
<path d="M46.3197 40.1299C46.7059 40.0492 47.0732 39.7927 47.3573 39.3982C47.6413 39.0038 47.8455 38.5114 48 38C47.9692 38.5391 47.8954 39.0904 47.6873 39.6219C47.5802 39.8965 47.4344 40.1499 47.2555 40.3723C47.0651 40.6066 46.838 40.7998 46.5856 40.9423L46.5668 40.953C46.4742 41.0054 46.3669 41.0144 46.2685 40.9779C46.17 40.9415 46.0885 40.8627 46.0418 40.7588C45.9952 40.6548 45.9872 40.5344 46.0196 40.4238C46.0521 40.3133 46.1223 40.2218 46.2149 40.1694C46.2481 40.151 46.2833 40.1377 46.3197 40.1299Z" fill="#31241B"/>
<path d="M47.4475 40.1413C47.8823 40.1654 48.3415 40.0621 48.777 39.8529C49.2125 39.6437 49.6216 39.3434 50 39C49.7297 39.4331 49.4142 39.8492 49.0114 40.2062C48.5924 40.5842 48.0866 40.8518 47.5394 40.985L47.5208 40.9898C47.4107 41.0143 47.2954 40.9942 47.2 40.9338C47.1045 40.8734 47.0367 40.7776 47.0111 40.6671C46.9856 40.5567 47.0044 40.4406 47.0635 40.344C47.1227 40.2475 47.2173 40.1783 47.3269 40.1515C47.3664 40.1426 47.407 40.1391 47.4475 40.1413Z" fill="#31241B"/>
<path d="M28.6029 57.3597C27.2782 61.5084 23.052 62.2094 22.1635 58.9547C21.8967 57.9717 21.9328 56.6272 22.4482 54.9061C24.8506 55.0007 27.0385 54.3664 28.711 52C29.1652 54.1661 29.0498 55.9595 28.6029 57.3597Z" fill="#31241B"/>
<path d="M29 56.5828C27.56 60.4772 22.9659 61.1353 22 58.08C24.206 55.97 27.0918 55.4547 29 56.5828Z" fill="#E05656"/>
<path d="M24.6755 60C24.655 60 24.6345 60 24.6144 60C23.3579 59.9757 22.386 59.2664 22.0144 58.1009L22 58.0563L22.038 58.0229C24.1465 56.0282 26.9848 55.4336 28.9397 56.5764L29 56.6097L28.9772 56.6701C28.1169 58.9669 26.1586 60 24.6755 60ZM22.2118 58.0993C22.5746 59.1784 23.449 59.8093 24.6186 59.8333C26.0288 59.8559 27.9203 58.8842 28.7727 56.6791C26.9101 55.6357 24.23 56.2149 22.2118 58.1003V58.0993Z" fill="#31241B"/>
<path d="M20 46C20.5523 46 21 45.3284 21 44.5C21 43.6716 20.5523 43 20 43C19.4477 43 19 43.6716 19 44.5C19 45.3284 19.4477 46 20 46Z" fill="#31241B"/>
<path d="M26 47C26.5523 47 27 46.5523 27 46C27 45.4477 26.5523 45 26 45C25.4477 45 25 45.4477 25 46C25 46.5523 25.4477 47 26 47Z" fill="#31241B"/>
<path d="M24.115 60.9999C23.468 61.0062 22.8373 60.7918 22.3218 60.3902C20.9349 59.3028 20.6222 57.0683 21.4652 54.2597C21.4999 54.1438 21.571 54.0429 21.6673 53.9727C21.7636 53.9026 21.8798 53.8671 21.9978 53.8718C24.5675 53.9734 26.3946 53.1338 27.7441 51.2263C27.8049 51.1405 27.8885 51.0746 27.985 51.0366C28.0814 50.9985 28.1865 50.9899 28.2876 51.0119C28.3887 51.0338 28.4814 51.0853 28.5547 51.1602C28.6279 51.2351 28.6784 51.3301 28.7003 51.4338C29.6911 56.1485 28.0617 59.1213 26.2069 60.3312C25.5244 60.7766 24.801 60.9999 24.115 60.9999ZM22.3761 54.9804C21.8193 57.102 22.0342 58.7811 22.9714 59.5158C23.6685 60.0624 24.6885 60.0188 25.6333 59.4029C27.036 58.4864 28.2709 56.3024 27.8462 52.8116C26.4567 54.2813 24.7007 54.9804 22.4232 54.9804H22.3761Z" fill="#31241B"/>
<path d="M17.1637 52.0424C17.4271 52.4548 17.725 52.8341 18.0527 53.1745C18.3736 53.5107 18.723 53.806 19.0953 54.0556C19.4548 54.299 19.8406 54.4824 20.2419 54.6006L20.5351 54.6806L20.8328 54.7223L20.9801 54.7415H21.1288H21.4733C21.613 54.7415 21.747 54.8078 21.8457 54.9258C21.9445 55.0438 22 55.2039 22 55.3708C22 55.5376 21.9445 55.6977 21.8457 55.8157C21.747 55.9337 21.613 56 21.4733 56C21.445 55.9997 21.4168 55.9971 21.3888 55.9921L21.0213 55.9208L20.8391 55.8841L20.6611 55.8257L20.3082 55.7048L19.97 55.5421C19.5325 55.3176 19.1225 55.023 18.7515 54.6665C18.035 53.978 17.4427 53.1232 17.0104 52.1537C17 52.1304 16.9972 52.1033 17.0029 52.0777C17.0085 52.0522 17.022 52.0301 17.0407 52.0161C17.0594 52.002 17.0819 51.9969 17.1036 52.0019C17.1254 52.0068 17.1447 52.0214 17.1577 52.0428L17.1637 52.0424Z" fill="#31241B"/>
<g opacity="0.3">
<path opacity="0.3" d="M40.4295 66.3625C41.2687 66.2206 42.0836 66.0547 42.8705 65.8704C53.4516 61.5637 59.9804 51.1793 58.8795 29.3563L58.8776 29.3507L58.2761 27C53.0318 58.1858 34.1339 65.4628 7 58.317C16.9295 66.6562 30.4196 68.0701 40.4295 66.3625Z" fill="#31241B"/>
</g>
<path d="M40.731 81.8532C36.7586 84.4498 23.7 85.0809 16.7418 81C15.2209 83.0865 16.2043 87.463 18.1923 88.921C23.7 91.9934 42.4439 92.0069 47 86.6017" fill="#FFC35C"/>
<path d="M59.7092 82.1828C58.9777 84.7451 56.854 87.0548 53.358 87.9398C46.8052 88.5813 41.0094 83.9946 39 78.9699L41.4468 75.6625L43.6486 72.6895L45.6399 70C45.829 70.5282 46.0509 71.0441 46.3042 71.5447C47.2408 73.3837 48.5605 74.8284 50.3593 75.7843C50.8258 73.0748 52.7299 72.5132 54.5995 73.0893C54.6585 72.9547 54.7264 72.8241 54.8028 72.6986C56.2913 70.2617 60.232 71.472 58.2861 75.4972C58.7091 75.9823 59.0622 76.5242 59.3353 77.1072C60.0723 78.6791 60.1957 80.4855 59.7092 82.1828Z" fill="white"/>
<g opacity="0.3">
<path opacity="0.3" d="M47 71.723C46.0346 72.2241 45.0317 72.6511 44 73L46.2495 70C46.4632 70.5892 46.7138 71.1646 47 71.723Z" fill="#31241B"/>
</g>
<path d="M46.0778 69.1218C46.5688 70.302 47.2084 71.4133 48.0271 72.3537C48.8329 73.2889 49.8265 74.043 50.9429 74.5666L50.1404 74.9616C50.2401 74.4316 50.389 73.8968 50.6527 73.3886C50.9164 72.8804 51.3078 72.4079 51.8171 72.0841C52.3265 71.7603 52.9176 71.5932 53.4884 71.5659C54.0475 71.5439 54.6062 71.6196 55.1394 71.7898L54.4755 72.0981C54.7955 71.3605 55.381 70.6848 56.1673 70.3415C56.5635 70.167 56.9943 70.0858 57.4266 70.104C57.6468 70.1141 57.865 70.1513 58.0762 70.2146C58.2905 70.2827 58.4947 70.3793 58.6834 70.5019C59.0647 70.7494 59.3662 71.1026 59.551 71.5187C59.7224 71.9121 59.8073 72.3379 59.7996 72.7672C59.7947 73.1656 59.734 73.5614 59.6194 73.943C59.5183 74.3184 59.3671 74.6644 59.2119 75.0055L59.1313 74.401C60.0975 75.5181 60.7198 76.8923 60.9228 78.3569C61.1254 79.8146 60.9273 81.3001 60.3498 82.6532C59.7816 83.9987 58.8533 85.18 57.7146 86.0725C56.5745 86.9739 55.2335 87.5662 53.8573 87.9251C53.8325 87.9316 53.8073 87.9361 53.7819 87.9387H53.776C52.1885 88.09 50.5869 87.9608 49.044 87.557C47.5056 87.1572 46.0454 86.4974 44.7041 85.6554C43.3628 84.8134 42.1296 83.7859 41.1303 82.5518C40.1318 81.3273 39.3282 79.9063 39.0038 78.3547C38.9951 78.3119 39.0015 78.2675 39.022 78.2289C39.0425 78.1904 39.0758 78.1603 39.1161 78.1438C39.1564 78.1273 39.2012 78.1254 39.2427 78.1384C39.2843 78.1515 39.3199 78.1787 39.3436 78.2153V78.2175C40.1638 79.5084 41.013 80.7052 41.9994 81.8031C42.9877 82.8915 44.0804 83.8921 45.3095 84.7027C46.5393 85.512 47.8927 86.1143 49.3162 86.486C50.7338 86.8573 52.2055 86.9762 53.6642 86.8374L53.5829 86.8518C54.8334 86.525 56.0294 85.994 57.0298 85.201C58.0313 84.4154 58.8367 83.3872 59.3296 82.2206C59.8291 81.0526 60.0007 79.7698 59.8257 78.5111C59.6529 77.258 59.1211 76.0821 58.295 75.1261C58.2259 75.0471 58.1809 74.9498 58.1651 74.8459C58.1493 74.742 58.1635 74.6358 58.206 74.5397L58.2141 74.5216C58.3454 74.2299 58.4748 73.9363 58.5532 73.6383C58.6403 73.353 58.6869 73.0567 58.6915 72.7583C58.6981 72.1881 58.4903 71.6843 58.0769 71.4273C57.6749 71.1529 57.0916 71.1403 56.6039 71.3535C56.1096 71.57 55.7146 72.0063 55.4799 72.54C55.4271 72.6608 55.333 72.7587 55.2145 72.8161C55.096 72.8734 54.9609 72.8864 54.8337 72.8527L54.8128 72.8468C54.3898 72.7163 53.9544 72.6484 53.5399 72.6702C53.1254 72.6919 52.7362 72.8041 52.41 73.0143C52.0838 73.2245 51.8182 73.5306 51.6259 73.9035C51.4335 74.2764 51.3089 74.7045 51.225 75.1479L51.2199 75.1748C51.2067 75.2445 51.1799 75.3109 51.1411 75.3703C51.1023 75.4296 51.0522 75.4807 50.9937 75.5206C50.9351 75.5605 50.8694 75.5884 50.8001 75.6028C50.7308 75.6172 50.6593 75.6178 50.5898 75.6045C50.5312 75.5933 50.4748 75.5724 50.4229 75.5429C49.2505 74.8518 48.2365 73.9208 47.4467 72.8107C46.6652 71.7183 46.1153 70.4967 45.7284 69.2472C45.7118 69.2012 45.7142 69.1504 45.7349 69.1061C45.7556 69.0618 45.793 69.0276 45.8389 69.011C45.8848 68.9944 45.9354 68.9967 45.9796 69.0175C46.0238 69.0383 46.0579 69.0758 46.0745 69.1218H46.0778Z" fill="#31241B"/>
<path d="M53.4138 73.0841L53.3791 73.1057C53.3622 73.116 53.3457 73.1272 53.3297 73.1394C53.2944 73.1631 53.2605 73.1894 53.2282 73.2182C53.1606 73.2748 53.0963 73.3366 53.0358 73.4031C52.9765 73.4703 52.9218 73.5428 52.8721 73.6198C52.8486 73.6577 52.8204 73.6956 52.7988 73.7335L52.7389 73.8573C52.5809 74.1877 52.5229 74.5772 52.5498 74.9874C52.5498 75.1909 52.6034 75.4015 52.6401 75.6106C52.6588 75.7156 52.7013 75.8198 52.7301 75.9243C52.7645 76.0285 52.7884 76.135 52.8306 76.2376C52.9199 76.4422 52.9959 76.651 53.0941 76.8529L53.4073 77.4522C53.4774 77.5863 53.4985 77.7471 53.4662 77.8993C53.4339 78.0515 53.3506 78.1826 53.2348 78.2637H53.2325L53.224 78.2698C52.7348 78.6216 52.3642 79.1562 52.1734 79.7852C51.9737 80.4247 51.921 81.1695 52.0097 81.9067C52.1022 82.6615 52.3177 83.3892 52.6447 84.051C52.9784 84.7402 53.4281 85.3449 53.9673 85.8293C53.9759 85.8369 53.9832 85.8463 53.9887 85.8571C53.9941 85.8679 53.9977 85.8799 53.9992 85.8923C54.0007 85.9047 54.0001 85.9174 53.9973 85.9295C53.9946 85.9416 53.9898 85.953 53.9833 85.963C53.972 85.9797 53.9562 85.9915 53.9385 85.9969C53.9208 86.0022 53.902 86.0007 53.8851 85.9926C53.2253 85.6516 52.6335 85.103 52.1652 84.4325C51.6909 83.748 51.3468 82.9554 51.1555 82.1064C50.968 81.2502 50.9228 80.3072 51.1735 79.3961C51.2976 78.9325 51.501 78.5025 51.7718 78.1319C52.0442 77.7574 52.3865 77.4594 52.773 77.2605L52.5897 78.0796L52.2359 77.4034C52.1236 77.1726 52.0303 76.9234 51.9279 76.6835C51.8788 76.5619 51.8451 76.4271 51.8039 76.299C51.7626 76.171 51.7188 76.0437 51.6923 75.9054C51.6405 75.6288 51.577 75.358 51.5705 75.0621C51.5319 74.4859 51.6173 73.8543 51.8769 73.3129L51.975 73.1125C52.0104 73.0477 52.0526 72.9887 52.0919 72.9269C52.1716 72.8051 52.2591 72.6905 52.3537 72.584C52.4485 72.4789 52.5495 72.3817 52.6561 72.2931C52.7093 72.2469 52.7647 72.2043 52.8221 72.1654C52.8502 72.145 52.879 72.1245 52.9114 72.1052C52.9438 72.0859 52.971 72.0673 53.0201 72.0415C53.1347 71.9878 53.2625 71.9862 53.3781 72.0368C53.4938 72.0875 53.5886 72.1867 53.6437 72.3148C53.6989 72.4429 53.7102 72.5903 53.6756 72.7277C53.6409 72.865 53.5627 72.9821 53.4567 73.0557L53.4138 73.0841Z" fill="#31241B"/>
<path d="M54.0208 77.1534L55.9738 78.8689C55.9897 78.8825 55.9989 78.9002 55.9999 78.9188C56.0009 78.9374 55.9935 78.9556 55.9791 78.9702C55.9647 78.9848 55.9443 78.9949 55.9215 78.9985C55.8986 79.0021 55.8749 78.9991 55.8546 78.99L53.306 77.8804C53.2311 77.8478 53.166 77.8026 53.1152 77.7478C53.0644 77.693 53.0292 77.6301 53.012 77.5633C52.9948 77.4966 52.9961 77.4276 53.0156 77.3613C53.0352 77.2949 53.0726 77.2328 53.1253 77.1792C53.178 77.1256 53.2447 77.0818 53.3207 77.0509C53.3968 77.02 53.4803 77.0028 53.5655 77.0003C53.6508 76.9978 53.7357 77.0103 53.8143 77.0367C53.8929 77.0631 53.9634 77.1029 54.0208 77.1534Z" fill="#31241B"/>
<path d="M54.3544 88C52.9464 88 51.6306 87.2401 50.6242 85.8054C48.7629 83.1552 48.204 78.3542 50.5468 75.2192C50.6335 75.1029 50.7626 75.0261 50.9056 75.0055C51.0486 74.985 51.1939 75.0224 51.3095 75.1096C51.4251 75.1968 51.5015 75.3266 51.5219 75.4705C51.5424 75.6144 51.5051 75.7605 51.4185 75.8768C49.4351 78.531 49.867 82.826 51.5147 85.1719C52.11 86.0198 53.392 87.3519 55.2918 86.7527C55.4296 86.7091 55.579 86.7224 55.7071 86.7896C55.8352 86.8568 55.9316 86.9725 55.9749 87.1111C56.0183 87.2498 56.0051 87.4001 55.9383 87.529C55.8714 87.6578 55.7565 87.7547 55.6186 87.7983C55.2099 87.93 54.7836 87.998 54.3544 88Z" fill="#31241B"/>
<path d="M58.4306 76C58.3443 76 58.2592 75.9787 58.1816 75.9375C58.104 75.8963 58.0359 75.8364 57.9826 75.7623C56.5519 73.7759 54.4666 73.2366 54.4453 73.2317C54.2978 73.1955 54.1694 73.0967 54.0885 72.957C54.0076 72.8173 53.9807 72.6482 54.0138 72.4869C54.0469 72.3256 54.1373 72.1852 54.265 72.0968C54.3928 72.0083 54.5474 71.9789 54.695 72.0151C54.796 72.0401 57.1884 72.645 58.8778 74.9912C58.944 75.0831 58.9852 75.1935 58.9967 75.3097C59.0082 75.426 58.9896 75.5434 58.9429 75.6486C58.8963 75.7539 58.8235 75.8426 58.7329 75.9047C58.6423 75.9669 58.5375 75.9999 58.4306 76Z" fill="#31241B"/>
<path d="M30.033 92C24.7403 92 19.8929 91.1984 17.4886 89.8693C17.4687 89.8585 17.4494 89.8464 17.4311 89.8331C15.2771 88.2683 14.0851 83.6389 15.8611 81.2239C15.9414 81.1147 16.06 81.0389 16.1938 81.0114C16.3275 80.9839 16.4669 81.0066 16.5847 81.075C23.3103 84.9839 36.1014 84.4626 40.0046 81.935L40.6072 82.8438C38.5178 84.1975 34.2331 85.0266 29.4227 84.9919C24.37 84.9618 19.7034 83.9776 16.5022 82.2751C15.5367 84.2439 16.5022 87.7767 18.056 88.9377C23.5596 91.941 41.8693 91.7866 46.1569 86.7465L47 87.446C43.9576 91.0216 35.883 91.7798 32.5524 91.9399C31.706 91.9804 30.8637 92 30.033 92Z" fill="#31241B"/>
<path d="M42.9012 101C36.1462 100.307 32.1659 91.7628 32 91.3995L32.8772 91C32.9158 91.0839 36.7966 99.4054 43 100.045L42.9012 101Z" fill="#31241B"/>
<g opacity="0.3">
<path opacity="0.3" d="M61.9801 94.7124L42.3375 103.862C37.1397 104.324 32.671 103.615 29 101.877C46.7783 101.576 38.7165 90.8375 38.7165 90.8375L36.1195 91.5356C42.8606 88.1434 37.5887 83.537 37.5887 83.537C35.3163 77.8686 41.5621 75 41.5621 75C41.5899 75.2024 41.6251 75.3992 41.6659 75.5886C42.8346 80.9395 49.303 81.762 49.303 81.762C50.7388 84.315 51.9297 82.0127 51.9297 82.0127C55.9049 83.381 58.0864 80.9265 59.1364 79.0104C59.7133 77.954 59.947 77.0628 59.947 77.0628C60.7001 78.6688 60.8263 80.5143 60.3291 82.2485C61.454 85.8616 62.1266 90.0762 61.9801 94.7124Z" fill="#31241B"/>
</g>
<path d="M45 97.3545C46.4405 88.4194 56.4044 84.0252 60.4392 92.6824C60.9493 93.7766 61.1169 95.0038 60.9194 96.1982C60.4322 99.1378 58.7579 104.943 53.058 107" fill="white"/>
<path d="M53.0872 107L53.0263 106.824C58.5361 104.832 60.223 99.311 60.7378 96.1975C60.9317 95.0333 60.7681 93.8364 60.2693 92.7707C58.7358 89.4703 56.147 87.8224 53.1694 88.2523C49.299 88.811 45.9398 92.6475 45.1804 97.3738L45 97.3436C45.7726 92.5387 49.199 88.6363 53.1442 88.069C56.2051 87.6284 58.8629 89.3131 60.4344 92.6922C60.9493 93.7926 61.1183 95.0285 60.9182 96.2307C60.3957 99.3825 58.6847 104.976 53.0872 107Z" fill="#31241B"/>
<g opacity="0.3">
<path opacity="0.3" d="M61.9172 96.1507C61.4095 99.1024 59.6653 104.932 53.7307 107L50 102.694C54.85 100.277 56.3596 95.1309 56.825 92.4172C57.0314 91.2175 56.8569 89.9845 56.325 88.8857C56.175 88.5741 56.0153 88.2795 55.85 88C58.0134 88.3399 60.0422 89.7808 61.4134 92.6192C61.9456 93.7179 62.1215 94.9506 61.9172 96.1507Z" fill="#31241B"/>
</g>
<path opacity="0.5" d="M55 102.5C55 106.09 52.4344 109 48.722 109C46.9392 109 45.2295 108.315 43.9688 107.096C42.7082 105.877 42 104.224 42 102.5C42 100.776 42.7082 99.1228 43.9688 97.9038C45.2295 96.6848 46.9392 96 48.722 96C52.4344 96 55 98.9102 55 102.5Z" fill="#FAB292"/>
<g opacity="0.3">
<path opacity="0.3" d="M54 103.351C54 107.023 51.5907 110 48.1019 110C46.7106 110 45.3583 109.516 44.2549 108.624C43.1515 107.732 42.3588 106.481 42 105.065C43.1334 106.067 44.5666 106.615 46.0465 106.612C49.5353 106.612 51.9446 103.635 51.9446 99.963C51.9456 99.3004 51.8645 98.6405 51.7033 98C53.1403 99.2102 54 101.156 54 103.351Z" fill="#31241B"/>
</g>
<g opacity="0.55">
<path opacity="0.55" d="M54 99.3801C52.9212 97.9876 51.2447 97.1012 49.2167 97.1012C48.1203 97.1015 47.0416 97.3664 46.0798 97.8716C45.118 98.3767 44.3039 99.1058 43.7124 99.9919C43.121 100.878 42.7711 101.893 42.695 102.943C42.6189 103.992 42.8189 105.044 43.2769 106C42.5586 105.066 42.1246 103.958 42.0231 102.801C41.9215 101.644 42.1565 100.483 42.7018 99.4463C43.247 98.4097 44.0813 97.5388 45.1116 96.9304C46.1419 96.3219 47.3279 95.9999 48.5376 96C51.0615 96 53.0396 97.373 54 99.3801Z" fill="#FFF9F2"/>
</g>
<path d="M48.2198 110C44.2387 110 41 106.859 41 103C41 99.1408 44.2394 96 48.2198 96C52.0849 96 55 99.0093 55 103C55 106.991 52.0849 110 48.2198 110ZM48.2198 97.0956C44.8617 97.0956 42.13 99.7445 42.13 103C42.13 106.255 44.8617 108.904 48.2198 108.904C51.4408 108.904 53.87 106.366 53.87 103C53.87 99.6338 51.4408 97.0956 48.2198 97.0956Z" fill="#31241B"/>
<path d="M53.558 107C53.4281 107 53.3025 106.953 53.2033 106.868C53.1041 106.783 53.0376 106.665 53.0157 106.534C52.9937 106.404 53.0177 106.27 53.0833 106.156C53.149 106.042 53.2521 105.955 53.3745 105.911C58.6909 103.992 60.325 98.6365 60.8259 95.6142C61.0048 94.5408 60.8535 93.4374 60.3929 92.4549C58.9423 89.3415 56.5178 87.7846 53.7359 88.1847C50.5669 88.6402 46.9245 91.7966 46.0952 96.9473C46.0847 97.021 46.0599 97.0919 46.0223 97.1557C45.9846 97.2196 45.9348 97.2751 45.8758 97.3192C45.8168 97.3632 45.7497 97.3948 45.6786 97.4121C45.6075 97.4295 45.5336 97.4322 45.4614 97.4201C45.3892 97.4081 45.3201 97.3815 45.2581 97.342C45.1962 97.3024 45.1425 97.2507 45.1004 97.1898C45.0583 97.1289 45.0285 97.0601 45.0128 96.9873C44.9971 96.9146 44.9958 96.8394 45.009 96.7661C45.8163 91.7487 49.4224 87.6729 53.5822 87.0747C56.8723 86.6021 59.7166 88.388 61.3873 91.9744C61.9451 93.1645 62.1281 94.501 61.9113 95.801C61.3701 99.0654 59.5892 104.857 53.7422 106.968C53.683 106.989 53.6207 107 53.558 107Z" fill="#31241B"/>
<path d="M17.5993 104C16.0089 104 14.3554 103.658 12.6183 102.973C12.1168 102.777 11.6901 102.424 11.4 101.965C11.1099 101.507 10.9715 100.967 11.0049 100.423C11.7411 87.9278 13.5129 78.3036 16.4221 71L17.438 71.4147C14.5737 78.6051 12.8267 88.1156 12.0977 100.489C12.0786 100.798 12.1572 101.106 12.3221 101.367C12.487 101.628 12.7297 101.829 13.015 101.941C16.2553 103.217 19.1591 103.204 21.8924 101.898C22.1118 101.791 22.3002 101.627 22.4394 101.425C22.5786 101.222 22.664 100.986 22.6874 100.74L22.9108 98.5474L24 98.6612L23.777 100.854C23.7334 101.29 23.5802 101.707 23.3321 102.065C23.0839 102.423 22.7491 102.712 22.3596 102.902C20.8239 103.635 19.2449 104 17.5993 104Z" fill="#31241B"/>
<path d="M22.4242 98C17.4551 94.8599 12.4478 96.7937 12.3976 96.8136L12 95.7016C12.2246 95.612 17.5517 93.5364 23 96.9792L22.4242 98Z" fill="#31241B"/>
<path d="M29.9986 101.84L21 102L21.0178 103L30.0164 102.84L29.9986 101.84Z" fill="#31241B"/>
</svg>
