<svg width="132" height="216" viewBox="0 0 132 216" fill="none" xmlns="http://www.w3.org/2000/svg">
<g opacity="0.2">
<path opacity="0.2" d="M66.9669 215.125C98.6526 215.125 124.339 211.203 124.339 206.365C124.339 201.527 98.6526 197.605 66.9669 197.605C35.2811 197.605 9.59473 201.527 9.59473 206.365C9.59473 211.203 35.2811 215.125 66.9669 215.125Z" fill="#31241B"/>
</g>
<path d="M37.1436 174.304L40.6499 188.453L43.4048 195.504C43.4048 195.504 56.1715 201.304 60.7203 189.101V176.408L37.1436 174.304Z" fill="#FCE4D8"/>
<path d="M50.0608 198.005C46.2597 198.005 43.1229 196.609 42.9391 196.525C42.6727 196.404 42.4641 196.184 42.358 195.912L39.6031 188.86C39.5852 188.816 39.5704 188.77 39.5589 188.723L36.0544 174.573C36.0114 174.4 36.0105 174.219 36.0517 174.045C36.0929 173.871 36.175 173.71 36.2912 173.574C36.4074 173.439 36.5544 173.333 36.7198 173.265C36.8852 173.198 37.0643 173.171 37.2422 173.187L60.8189 175.29C61.0978 175.315 61.3572 175.444 61.5462 175.651C61.7351 175.857 61.84 176.127 61.8402 176.407V189.101C61.8402 189.235 61.8163 189.368 61.7697 189.493C60.3737 193.239 58.1006 195.79 55.0132 197.073C53.3583 197.763 51.6509 198.005 50.0608 198.005ZM44.2717 194.648C45.6369 195.168 50.2011 196.652 54.1649 194.997C56.5995 193.982 58.426 191.929 59.5978 188.896V177.433L38.6113 175.56L41.7218 188.113L44.2717 194.648Z" fill="#31241B"/>
<path d="M45.6084 191.017C45.6084 191.017 46.1671 186.927 49.8138 185.525C53.4605 184.122 60.7545 184.215 57.341 190.574" fill="#0B9CFF"/>
<path d="M45.6097 192.136C45.5572 192.136 45.5047 192.132 45.4528 192.125C45.1592 192.084 44.8938 191.929 44.7148 191.692C44.5357 191.456 44.4576 191.159 44.4975 190.865C44.5238 190.673 45.1946 186.1 49.4115 184.478C52.0017 183.482 56.5229 183.073 58.4706 185.281C59.3169 186.242 59.9794 188.03 58.3296 191.104C58.189 191.366 57.9501 191.562 57.6654 191.647C57.3807 191.733 57.0736 191.702 56.8116 191.562C56.5495 191.421 56.3541 191.182 56.2683 190.898C56.1824 190.613 56.2132 190.306 56.3538 190.044C56.9304 188.974 57.4699 187.536 56.7888 186.764C55.7804 185.619 52.4271 185.721 50.2162 186.571C47.2531 187.711 46.7392 191.033 46.7187 191.174C46.6799 191.441 46.5465 191.684 46.343 191.861C46.1394 192.038 45.8792 192.135 45.6097 192.136Z" fill="#31241B"/>
<path d="M59.0782 195.422C58.5016 195.368 57.9 195.343 57.2715 195.343C54.1015 195.343 51.0467 196.246 48.5443 197.669L45.6074 191.017C48.4072 191.898 52.2704 192.325 56.8832 190.782L59.0782 195.422Z" fill="white"/>
<path d="M48.5476 198.788C48.3303 198.788 48.1178 198.725 47.9357 198.606C47.7537 198.487 47.6102 198.318 47.5225 198.119L44.5857 191.468C44.4987 191.271 44.4703 191.053 44.504 190.84C44.5378 190.627 44.6322 190.428 44.7759 190.268C44.9196 190.107 45.1066 189.991 45.3144 189.934C45.5223 189.877 45.7422 189.881 45.9478 189.946C49.3331 191.011 52.8933 190.934 56.5297 189.716C56.7898 189.63 57.0726 189.641 57.3248 189.748C57.577 189.856 57.7812 190.052 57.8989 190.299L60.0957 194.94C60.1803 195.119 60.2161 195.317 60.1994 195.514C60.1828 195.711 60.1143 195.9 60.0009 196.062C59.8875 196.224 59.7332 196.353 59.5537 196.437C59.3743 196.52 59.176 196.554 58.979 196.536C58.4498 196.487 57.8764 196.462 57.2755 196.462C54.477 196.462 51.5735 197.236 49.1024 198.64C48.9335 198.737 48.7422 198.788 48.5476 198.788ZM47.5571 192.647L49.0896 196.117C51.6363 194.889 54.4982 194.22 57.2729 194.22L56.2876 192.139C53.3193 192.991 50.3953 193.161 47.5539 192.649L47.5571 192.647Z" fill="#31241B"/>
<path d="M48.5474 197.669C46.2615 198.967 44.4382 200.695 43.4054 202.555C42.5596 202.213 41.752 201.784 40.9958 201.274C40.5565 200.976 40.1427 200.643 39.7587 200.277C39.3743 197.175 38.9899 191.573 40.6556 188.453C40.6556 188.453 42.4591 190.024 45.6125 191.016L48.5474 197.669Z" fill="#0B9CFF"/>
<path d="M43.4016 203.677C43.2548 203.677 43.1094 203.648 42.9736 203.593C42.0555 203.221 41.1786 202.755 40.3571 202.202C39.8675 201.87 39.4063 201.499 38.9784 201.091C38.7844 200.906 38.6633 200.657 38.6369 200.39C38.1545 196.476 37.9418 191.146 39.662 187.926C39.7412 187.777 39.8529 187.648 39.9889 187.549C40.1249 187.449 40.2816 187.381 40.4474 187.35C40.6133 187.319 40.7839 187.326 40.9466 187.371C41.1094 187.415 41.26 187.495 41.3873 187.606C41.4014 187.618 43.08 189.044 45.9444 189.946C46.0966 189.994 46.2367 190.074 46.3556 190.18C46.4745 190.287 46.5693 190.417 46.6338 190.563L49.5726 197.215C49.6849 197.47 49.6988 197.756 49.6117 198.02C49.5246 198.284 49.3426 198.506 49.101 198.643C46.9868 199.843 45.3147 201.425 44.3851 203.099C44.2877 203.275 44.1452 203.421 43.9722 203.522C43.7992 203.624 43.6022 203.677 43.4016 203.677ZM40.8197 199.733C41.0752 199.953 41.3432 200.159 41.6225 200.348C42.0521 200.64 42.5017 200.902 42.9679 201.131C43.9705 199.679 45.4024 198.33 47.1194 197.223L44.781 191.927C43.5082 191.489 42.29 190.907 41.1503 190.191C40.4827 192.381 40.3597 195.741 40.8197 199.733Z" fill="#31241B"/>
<path d="M62.6325 196.161C61.5895 195.787 60.403 195.536 59.0787 195.417L56.8818 190.779C57.0394 190.729 57.2022 190.672 57.3591 190.617C58.5154 190.195 59.6387 189.688 60.7195 189.099L62.6325 196.161Z" fill="#0B9CFF"/>
<path d="M62.6324 197.286C62.5039 197.286 62.3763 197.265 62.2551 197.222C61.294 196.877 60.1883 196.645 58.9787 196.539C58.7841 196.522 58.5975 196.454 58.4372 196.342C58.277 196.23 58.1487 196.079 58.0651 195.902L55.8682 191.262C55.8 191.118 55.7634 190.961 55.7609 190.801C55.7583 190.641 55.7899 190.483 55.8535 190.337C55.917 190.19 56.0111 190.059 56.1294 189.952C56.2478 189.845 56.3876 189.764 56.5396 189.715C56.6799 189.67 56.8222 189.62 56.9644 189.57C58.0725 189.167 59.149 188.681 60.185 188.117C60.3337 188.037 60.4987 187.991 60.6677 187.983C60.8367 187.975 61.0053 188.005 61.1608 188.072C61.3163 188.138 61.4548 188.239 61.5657 188.367C61.6767 188.495 61.7573 188.646 61.8015 188.809L63.7151 195.87C63.7409 195.966 63.7541 196.064 63.7542 196.163C63.7537 196.46 63.6353 196.745 63.4251 196.955C63.2148 197.165 62.9297 197.284 62.6324 197.284V197.286ZM59.8237 194.373C60.2401 194.425 60.6459 194.49 61.041 194.57L59.9999 190.725C59.4771 190.975 58.9515 191.204 58.4232 191.414L59.8237 194.373Z" fill="#31241B"/>
<path d="M68.1701 203.689H68.1669C61.6198 204.623 50.2979 205.408 43.4023 202.555C44.4351 200.697 46.2585 198.968 48.5444 197.669C51.0468 196.247 54.1016 195.343 57.2716 195.343C57.9001 195.343 58.503 195.368 59.0783 195.421C60.4026 195.54 61.5891 195.792 62.6321 196.165C66.2596 197.45 68.1669 200.166 68.1701 203.689Z" fill="white"/>
<path d="M56.5559 205.655C51.8867 205.655 46.8216 205.182 42.9737 203.592C42.8277 203.531 42.6961 203.44 42.5875 203.325C42.479 203.211 42.396 203.074 42.3439 202.925C42.2918 202.776 42.2719 202.617 42.2853 202.46C42.2988 202.302 42.3454 202.149 42.4221 202.011C43.5484 199.982 45.5261 198.094 47.9908 196.693C50.795 195.099 54.0913 194.222 57.2716 194.222C57.9398 194.222 58.5824 194.25 59.1807 194.304C60.5768 194.429 61.8664 194.7 63.01 195.109C66.9976 196.518 69.2886 199.649 69.2886 203.688C69.2887 203.963 69.1876 204.229 69.0045 204.434C68.8214 204.64 68.5691 204.771 68.2956 204.802C66.2416 205.095 61.6313 205.655 56.5559 205.655ZM45.1161 201.991C52.1218 204.267 62.5782 203.285 66.9912 202.716C66.6708 200.101 65.0538 198.212 62.2579 197.221C61.2905 196.875 60.1879 196.645 58.9783 196.538C58.4453 196.489 57.8719 196.464 57.2716 196.464C54.4731 196.464 51.5696 197.238 49.0985 198.642C47.4584 199.574 46.0848 200.735 45.1161 201.991Z" fill="#31241B"/>
<path d="M68.1699 203.689C68.1682 204.165 68.1355 204.642 68.0719 205.114C67.9632 205.909 67.7392 206.684 67.4069 207.414C60.4473 208.469 48.4853 209.457 42.5213 205.125C41.5257 204.408 40.6979 203.537 40.0867 202.498C40.0867 202.498 39.9214 201.626 39.7529 200.282C40.137 200.648 40.5508 200.981 40.9901 201.278C41.7462 201.789 42.5538 202.218 43.3996 202.56C50.2952 205.413 61.6171 204.627 68.1642 203.693L68.1699 203.689Z" fill="white"/>
<path d="M56.3343 209.455C50.7906 209.455 45.4096 208.608 41.8628 206.032C40.7096 205.199 39.7883 204.202 39.122 203.063C39.057 202.952 39.0116 202.832 38.9881 202.706C38.9811 202.669 38.8139 201.783 38.6434 200.419C38.6147 200.19 38.6578 199.957 38.7668 199.752C38.8757 199.548 39.0453 199.383 39.2521 199.279C39.4589 199.174 39.6929 199.137 39.9218 199.171C40.1508 199.206 40.3635 199.31 40.5309 199.47C40.8688 199.793 41.2332 200.087 41.62 200.349C42.3126 200.815 43.0518 201.207 43.8258 201.519C51.3473 204.63 64.2357 203.12 68.0061 202.579C68.0585 202.571 68.1113 202.568 68.1643 202.567C68.462 202.567 68.7476 202.685 68.9584 202.895C69.1692 203.106 69.288 203.391 69.2887 203.689C69.287 204.215 69.2509 204.74 69.1804 205.261C69.0578 206.165 68.8035 207.046 68.4257 207.877C68.3486 208.047 68.2301 208.195 68.0811 208.308C67.932 208.421 67.7571 208.495 67.5723 208.523C64.1249 209.045 60.1905 209.455 56.3343 209.455ZM41.9416 203.124C42.3156 203.528 42.7297 203.893 43.1775 204.213C48.6873 208.214 59.9631 207.353 66.6094 206.396C66.7747 205.937 66.8917 205.462 66.9586 204.979C61.9037 205.607 50.2505 206.6 42.9737 203.589C42.6175 203.445 42.2735 203.29 41.9416 203.124Z" fill="#31241B"/>
<g opacity="0.3">
<path opacity="0.3" d="M62.6318 196.165L60.72 189.102V177.057L40.667 175.268L44.1734 189.417C42.5076 192.536 42.892 198.139 43.2764 201.241C43.4449 202.587 43.6102 203.458 43.6102 203.458C44.2189 204.498 45.0466 205.369 46.0448 206.085C46.9565 206.747 48.0091 207.283 49.161 207.715C47.9431 207.492 46.7468 207.163 45.5854 206.734C51.9742 209.155 61.494 208.309 67.4067 207.413C67.739 206.683 67.9631 205.908 68.0717 205.113C68.1353 204.64 68.1681 204.164 68.1697 203.687C68.1665 200.166 66.2593 197.45 62.6318 196.165ZM59.078 195.421L58.1612 193.485L59.078 195.421ZM48.1898 191.312C48.1898 191.312 47.444 188.197 52.4323 187.328C57.4206 186.459 55.2903 191.593 55.2903 191.593L57.5327 195.421C57.5327 195.421 53.048 195.151 50.7281 196.622L48.1898 191.312ZM56.9766 202.555C53.0211 202.555 49.8139 202.503 49.8139 199.984C49.8139 197.465 53.0211 195.421 56.9766 195.421C60.9321 195.421 64.1393 197.464 64.1393 199.984C64.1393 202.503 60.9321 202.555 56.9766 202.555Z" fill="#31241B"/>
</g>
<path d="M95.259 168.35L99.5131 184.122L98.8128 193.099L84.5175 193.847L73.4717 173.088L95.259 168.35Z" fill="#FCE4D8"/>
<path d="M84.5172 195.272C84.2586 195.272 84.0049 195.202 83.7833 195.069C83.5616 194.936 83.3804 194.745 83.2589 194.517L72.2131 173.759C72.1096 173.564 72.0525 173.348 72.0464 173.128C72.0404 172.908 72.0854 172.689 72.178 172.49C72.2706 172.29 72.4083 172.114 72.5803 171.976C72.7522 171.839 72.9537 171.743 73.169 171.696L94.9557 166.955C95.3133 166.877 95.6871 166.94 95.9997 167.13C96.3124 167.32 96.54 167.623 96.6355 167.977L100.89 183.751C100.933 183.908 100.948 184.071 100.935 184.233L100.235 193.21C100.208 193.554 100.057 193.878 99.8093 194.119C99.5618 194.361 99.2348 194.504 98.8894 194.522L84.5915 195.271C84.5672 195.272 84.5422 195.272 84.5172 195.272ZM75.6119 174.081L85.3469 192.376L97.4883 191.74L98.0726 184.256L94.2356 170.033L75.6119 174.081Z" fill="#31241B"/>
<path d="M91.8043 188.453L90.5165 196.633C89.1716 196.089 87.734 195.809 86.283 195.811C84.6381 195.8 83.0138 196.177 81.542 196.911C81.7983 194.005 82.5914 189.124 82.5914 189.124C86.4489 189.278 89.4613 188.975 91.8043 188.453Z" fill="white"/>
<path d="M81.542 198.032C81.3864 198.032 81.2325 198 81.0901 197.937C80.9477 197.874 80.8199 197.783 80.7149 197.668C80.6099 197.553 80.5299 197.418 80.48 197.27C80.4301 197.123 80.4115 196.967 80.4253 196.812C80.6816 193.899 81.4504 189.145 81.4843 188.944C81.5303 188.674 81.6725 188.43 81.8845 188.257C82.0965 188.084 82.364 187.994 82.6375 188.003C86.0331 188.138 89.0353 187.922 91.564 187.359C91.7423 187.319 91.9277 187.323 92.1039 187.372C92.2801 187.42 92.4418 187.511 92.575 187.636C92.7082 187.761 92.8088 187.916 92.8681 188.089C92.9274 188.262 92.9436 188.447 92.9152 188.627L91.6281 196.807C91.6019 196.974 91.5383 197.133 91.4421 197.272C91.3458 197.411 91.2195 197.526 91.0724 197.609C90.9254 197.692 90.7614 197.741 90.5928 197.752C90.4242 197.763 90.2553 197.736 90.0988 197.672C88.887 197.18 87.591 196.927 86.283 196.93C84.7601 196.93 83.3359 197.26 82.0443 197.909C81.8888 197.989 81.7167 198.031 81.542 198.032ZM83.5454 190.274C83.3679 191.421 83.0726 193.399 82.8554 195.184C83.9675 194.851 85.1223 194.684 86.283 194.687C87.4089 194.686 88.5298 194.839 89.6145 195.141L90.4473 189.849C88.3735 190.185 86.06 190.326 83.5428 190.274H83.5454Z" fill="#31241B"/>
<path d="M105.823 193.94C105.823 193.94 102.036 202.917 95.6317 204.965C91.3289 206.339 83.8555 205.868 79.415 205.408C77.3136 205.192 76.1329 202.88 77.1874 201.054L77.2124 201.009C77.6699 201.42 78.2461 201.674 78.8576 201.735C83.2988 202.195 90.7741 202.666 95.0749 201.292C95.2742 201.228 95.4734 201.157 95.6669 201.079C100.612 199.126 103.889 193.134 104.919 191.02C105.513 192.655 105.823 193.94 105.823 193.94Z" fill="white"/>
<path d="M87.6454 207.001C84.7707 207.001 81.8153 206.784 79.3007 206.523C78.6313 206.454 77.9899 206.219 77.4347 205.838C76.8796 205.458 76.4284 204.945 76.1221 204.346C75.8158 203.747 75.6641 203.08 75.6809 202.408C75.6978 201.735 75.8825 201.077 76.2184 200.494L76.237 200.46C76.3193 200.313 76.4335 200.187 76.571 200.091C76.7085 199.995 76.8658 199.931 77.0314 199.904C77.197 199.876 77.3666 199.886 77.5277 199.933C77.6888 199.98 77.8373 200.063 77.9623 200.175C78.2437 200.426 78.5978 200.581 78.9733 200.618C83.0691 201.043 90.5624 201.556 94.7338 200.222C94.926 200.158 95.0951 200.099 95.2463 200.038C99.8822 198.208 103.05 192.295 103.911 190.527C104.008 190.329 104.161 190.164 104.35 190.052C104.54 189.94 104.759 189.887 104.978 189.898C105.198 189.91 105.41 189.986 105.587 190.117C105.764 190.248 105.898 190.428 105.974 190.635C106.338 191.632 106.653 192.647 106.915 193.676C106.972 193.91 106.952 194.155 106.858 194.376C106.696 194.761 102.793 203.853 95.9754 206.037C93.7305 206.75 90.7354 207.001 87.6454 207.001ZM77.9258 202.679C77.9487 202.904 78.0139 203.123 78.118 203.324C78.2519 203.592 78.452 203.822 78.6994 203.992C78.9468 204.161 79.2333 204.265 79.5319 204.293C83.6278 204.717 91.121 205.23 95.2925 203.897C100.27 202.305 103.646 195.918 104.55 194.031C102.828 196.871 99.9572 200.589 96.0786 202.12C95.8864 202.197 95.6704 202.276 95.4219 202.357C91.0845 203.742 83.9577 203.389 78.7426 202.849C78.4653 202.82 78.1916 202.763 77.9258 202.679Z" fill="#31241B"/>
<path d="M104.919 191.017C103.889 193.131 100.612 199.125 95.667 201.076L95.2627 200.27C94.0349 198.655 92.3958 197.398 90.5166 196.632L91.8043 188.452C98.0541 187.064 99.5129 184.121 99.5129 184.121C102.051 184.358 103.902 188.209 104.919 191.017Z" fill="#0B9CFF"/>
<path d="M95.6672 202.198C95.4593 202.198 95.2555 202.14 95.0786 202.031C94.9016 201.922 94.7585 201.766 94.6652 201.58L94.309 200.87C93.2097 199.452 91.7561 198.349 90.0946 197.672C89.8603 197.577 89.6651 197.405 89.5406 197.185C89.4162 196.965 89.3698 196.709 89.4091 196.459L90.6968 188.279C90.732 188.057 90.8332 187.85 90.9873 187.686C91.1414 187.522 91.3414 187.408 91.5611 187.359C97.0984 186.129 98.5041 183.632 98.5175 183.607C98.6178 183.407 98.7768 183.242 98.9732 183.135C99.1697 183.027 99.3942 182.982 99.6169 183.006C102.081 183.234 104.22 185.801 105.973 190.635C106.024 190.776 106.046 190.926 106.038 191.076C106.03 191.226 105.993 191.373 105.927 191.508C104.71 194.01 101.31 200.054 96.0785 202.12C95.9475 202.172 95.808 202.198 95.6672 202.198ZM91.7591 195.963C93.4866 196.816 94.9924 198.059 96.1579 199.594L96.1714 199.612C99.9924 197.593 102.684 192.941 103.7 190.952C102.562 187.968 101.224 185.976 99.9917 185.403C99.1383 186.452 97.1132 188.268 92.797 189.369L91.7591 195.963Z" fill="#31241B"/>
<path d="M95.6671 201.077C95.4749 201.155 95.2744 201.226 95.0752 201.291C90.7743 202.665 83.299 202.194 78.8578 201.733C78.247 201.673 77.6713 201.419 77.2139 201.01C78.1266 199.415 79.4482 198.093 81.0424 197.179C82.6366 196.265 84.4458 195.793 86.2832 195.812C88.0231 195.809 89.7397 196.211 91.2979 196.985C92.8561 197.759 94.2134 198.884 95.2629 200.272L95.6671 201.077Z" fill="white"/>
<path d="M87.0858 203.326C84.2111 203.326 81.2557 203.109 78.7424 202.849C77.8961 202.764 77.0986 202.413 76.4654 201.845C76.2732 201.672 76.1464 201.439 76.1063 201.184C76.0663 200.929 76.1155 200.668 76.2457 200.445C77.3679 198.499 79.033 196.923 81.0372 195.909C82.6389 195.101 84.4065 194.692 86.2831 194.692C88.1958 194.69 90.083 195.132 91.7961 195.982C93.5092 196.833 95.0016 198.07 96.1558 199.595C96.1975 199.65 96.234 199.709 96.2647 199.77L96.669 200.576C96.7384 200.714 96.7785 200.865 96.7866 201.02C96.7948 201.174 96.7709 201.329 96.7163 201.473C96.6618 201.618 96.5779 201.75 96.4698 201.861C96.3618 201.972 96.232 202.059 96.0885 202.117C95.888 202.198 95.6702 202.277 95.4216 202.358C93.1735 203.075 90.1771 203.326 87.0858 203.326ZM78.8333 200.599C78.8795 200.606 78.9262 200.613 78.973 200.618C82.8253 201.017 89.6837 201.495 93.9564 200.441C93.0057 199.338 91.8279 198.453 90.5035 197.847C89.1791 197.241 87.7395 196.928 86.2831 196.93C84.7602 196.93 83.336 197.26 82.0444 197.91C80.7816 198.547 79.6828 199.468 78.8333 200.599Z" fill="#31241B"/>
<path d="M81.6538 190.574L91.5657 189.967C91.5657 189.967 90.8353 187.315 88.8601 185.162C88.3104 184.565 87.6388 184.094 86.8909 183.78C86.1429 183.465 85.3362 183.316 84.5253 183.341C82.7898 183.391 80.3341 183.653 78.6158 184.627C77.5811 185.214 77.1666 186.485 77.7079 187.544C78.2109 188.525 79.3 189.706 81.6538 190.574Z" fill="#0B9CFF"/>
<path d="M81.654 191.695C81.5214 191.695 81.39 191.672 81.2657 191.626C79.0323 190.802 77.4992 189.6 76.7093 188.054C75.902 186.473 76.4965 184.54 78.0636 183.652C79.9767 182.567 82.6156 182.274 84.4928 182.22C85.4645 182.189 86.4315 182.368 87.3278 182.745C88.2241 183.122 89.0287 183.687 89.6867 184.403C91.8201 186.73 92.6139 189.549 92.6466 189.668C92.6911 189.829 92.6991 189.998 92.67 190.162C92.641 190.326 92.5756 190.482 92.4786 190.618C92.3817 190.754 92.2556 190.866 92.1096 190.947C91.9637 191.028 91.8015 191.075 91.635 191.085L81.7225 191.693C81.7001 191.695 81.677 191.695 81.654 191.695ZM84.6927 184.456C84.6478 184.456 84.603 184.456 84.5581 184.456C82.2632 184.52 80.3495 184.928 79.1688 185.597C78.6409 185.896 78.4423 186.512 78.7062 187.028C79.2015 187.998 80.2784 188.827 81.8269 189.435L89.9795 188.935C89.5906 188.073 88.9615 186.925 88.0338 185.913C87.6081 185.453 87.0912 185.085 86.5161 184.835C85.9409 184.585 85.3199 184.457 84.6927 184.459V184.456Z" fill="#31241B"/>
<path d="M118.356 111.045C118.356 111.045 122.353 108.942 127.683 111.045C127.683 111.045 126.21 104.559 118.18 106.066C110.15 107.574 106.62 104.454 107.649 88.3048C108.912 80.3849 112.442 76.2999 112.442 76.2999C116.619 69.7132 118.62 59.6482 117.375 44.2811C115.433 20.3552 94.9909 1.78149 68.9354 1.78149C57.8986 1.78149 47.7465 5.27443 39.7106 11.1257C39.7106 11.1257 12.2347 11.799 14.0113 58.8801L14.174 72.4694C12.7979 75.6381 10.8752 79.2291 8.20296 83.2269C-6.07249 104.581 7.69042 124.09 7.69042 124.09C7.69042 124.09 5.77353 118.196 7.59688 110.531L7.68722 110.009C12.1444 121.019 24.1525 138.967 55.1411 139.519C124.436 140.745 102.929 121.285 124.436 124.16C124.436 124.16 123.372 120.163 117.656 119.145C117.656 119.145 126.282 117.988 129.789 123.81C129.785 123.81 130.418 113.08 118.356 111.045Z" fill="#725440"/>
<g opacity="0.5">
<path opacity="0.5" d="M8.6554 86.7506C11.3283 82.7528 13.2503 79.1618 14.6265 75.993L14.4637 62.4038C12.6872 15.3227 40.163 14.6494 40.163 14.6494C48.1989 8.79813 58.3497 5.30519 69.3879 5.30519C94.0204 5.30519 113.633 21.9069 117.342 43.9377C115.233 20.1777 94.868 1.78149 68.9356 1.78149C57.8987 1.78149 47.7466 5.27443 39.7107 11.1257C39.7107 11.1257 12.2348 11.799 14.0114 58.8801L14.1741 72.4694C12.798 75.6381 10.876 79.2291 8.20309 83.2269C1.53434 93.2053 0.984642 102.776 2.29097 110.146C1.74896 103.366 3.00468 95.2036 8.6554 86.7506Z" fill="white"/>
</g>
<g opacity="0.3">
<path opacity="0.3" d="M129.182 119.729C129.144 119.608 129.104 119.486 129.062 119.363C129.104 119.485 129.144 119.607 129.182 119.729Z" fill="#31241B"/>
</g>
<g opacity="0.3">
<path opacity="0.3" d="M118.357 114.488C125.184 115.638 127.943 119.574 129.056 122.775C125.212 118.132 117.658 119.145 117.658 119.145C123.373 120.163 124.435 124.159 124.435 124.159C124.038 124.106 123.658 124.064 123.288 124.024C118.739 121.249 110.995 118.476 102.602 123.972C89.3349 132.656 71.2968 138.392 42.6203 130.199C13.9438 122.006 14.1745 95.7807 14.1745 95.7807C11.7854 102.162 12.4767 107.451 12.4767 107.451C5.90916 95.7051 9.42902 83.1633 12.0865 76.763C12.8899 75.2552 13.5859 73.8231 14.1745 72.4666C14.1745 72.4666 23.6494 67.1804 22.1021 52.8358C22.1021 52.8358 19.6772 53.6687 18.4215 53.0716C18.4215 53.0716 23.8294 49.0834 25.7956 41.2736C25.7956 41.2736 21.6434 40.7258 20.66 38.4322C20.66 38.4322 38.5181 34.9873 44.9517 23.5827C45.6725 22.2975 47.5637 22.4455 48.0583 23.8319C50.5358 30.7666 57.0444 43.2629 72.2975 46.1863C72.2975 46.1863 62.3312 37.1079 64.0251 25.5618C64.0251 25.5618 74.5648 50.6626 107.941 55.5003C107.941 55.5003 96.4732 77.3005 103.343 94.4083C103.343 94.4083 105.401 74.823 111.903 64.6171C111.903 64.6171 111.287 69.2709 114.489 72.3641C113.915 73.7295 113.23 75.045 112.439 76.2972C112.439 76.2972 108.909 80.3808 107.647 88.3021C107.487 90.8257 107.438 93.0341 107.5 94.9516C107.136 108.303 110.712 110.904 118.177 109.499C120.937 108.982 122.918 109.408 124.335 110.191C120.763 109.772 118.354 111.04 118.354 111.04C125.197 112.193 127.955 116.146 129.057 119.352C128.416 117.499 127.224 115.395 125.007 113.727C121.072 113.062 118.357 114.488 118.357 114.488Z" fill="#31241B"/>
</g>
<path d="M6.88623 122.808C7.37186 123.64 7.68835 124.089 7.68835 124.089C7.68835 124.089 7.04768 122.118 6.8606 118.974C6.78487 120.251 6.79344 121.532 6.88623 122.808Z" fill="white"/>
<g opacity="0.5">
<path opacity="0.5" d="M8.20288 86.6701C10.8751 82.6724 12.7978 79.082 14.1739 75.9126L14.1336 72.5613C12.7606 75.7083 10.8508 79.2685 8.20288 83.2291C2.86352 91.2164 1.447 98.9448 1.76477 105.491C2.04411 99.745 3.77264 93.2953 8.20288 86.6701Z" fill="white"/>
</g>
<g opacity="0.3">
<path opacity="0.3" d="M17.0551 55.0667L13.9639 57.2232C13.9767 57.7709 13.9901 58.3193 14.0113 58.8799L14.174 72.4692C18.717 63.9214 17.0551 55.0667 17.0551 55.0667Z" fill="#31241B"/>
</g>
<path d="M14.0733 72.6977C13.0492 72.6449 12.0497 72.365 11.1471 71.8785C10.2444 71.392 9.46117 70.7109 8.85401 69.8845C8.24686 69.0582 7.83096 68.1072 7.63642 67.1004C7.44187 66.0936 7.47352 65.0561 7.72911 64.0631C7.98469 63.07 8.4578 62.1462 9.11421 61.3584C9.77063 60.5706 10.5939 59.9385 11.5246 59.508C12.4552 59.0774 13.47 58.859 14.4953 58.8687C15.5207 58.8784 16.5311 59.1159 17.4535 59.5639" fill="#FCE4D8"/>
<g opacity="0.6">
<path opacity="0.6" d="M14.4215 62.0005C15.2071 61.9997 15.9871 62.1329 16.7279 62.3945L17.4557 59.5672C16.2808 58.9895 14.966 58.7578 13.6644 58.8989C12.3628 59.04 11.1282 59.5482 10.1044 60.3642C9.08062 61.1802 8.30988 62.2704 7.88206 63.5078C7.45424 64.7451 7.38695 66.0785 7.68804 67.3526C8.04172 65.8316 8.89956 64.4749 10.1221 63.5031C11.3446 62.5314 12.8598 62.0018 14.4215 62.0005Z" fill="white"/>
</g>
<path d="M14.0062 74.0488C12.7808 73.9868 11.5844 73.6532 10.5038 73.0719C9.42325 72.4906 8.48547 71.6763 7.75841 70.6878C7.03136 69.6994 6.53324 68.5617 6.30012 67.357C6.067 66.1524 6.10473 64.9109 6.41056 63.7226C6.7164 62.5343 7.28269 61.429 8.06842 60.4865C8.85415 59.5441 9.83965 58.7882 10.9535 58.2736C12.0674 57.759 13.2818 57.4986 14.5088 57.5112C15.7357 57.5238 16.9445 57.8091 18.0476 58.3465L16.8598 60.7811C16.1178 60.4202 15.3048 60.2289 14.4798 60.2209C13.6547 60.2129 12.8382 60.3884 12.0893 60.7348C11.3405 61.0812 10.678 61.5897 10.1498 62.2236C9.6217 62.8575 9.24111 63.6009 9.03562 64.4C8.83013 65.1991 8.80488 66.0339 8.9617 66.8439C9.11852 67.654 9.45349 68.4191 9.94236 69.0837C10.4312 69.7484 11.0618 70.296 11.7883 70.687C12.5149 71.078 13.3193 71.3026 14.1433 71.3445L14.0062 74.0488Z" fill="#31241B"/>
<path d="M113.525 76.9859L111.36 75.6136C115.697 68.7757 117.246 58.5609 116.097 44.3847C114.186 20.8272 93.9105 3.06141 68.9359 3.06141C58.4846 3.06141 48.6394 6.20774 40.465 12.1589C40.2546 12.312 40.0025 12.3974 39.7424 12.4037C39.6706 12.4037 32.1523 12.7138 25.5476 19.7842C18.0672 27.7926 14.6165 40.9264 15.2918 58.8293L12.7291 58.9261C12.0244 40.2703 15.7274 26.4908 23.7326 17.9718C30.2463 11.0391 37.4507 10.0165 39.2593 9.86726C47.8161 3.7386 58.0688 0.5 68.9359 0.5C95.2579 0.5 116.631 19.2774 118.652 44.1772C119.847 58.9293 118.17 69.6611 113.525 76.9859Z" fill="#31241B"/>
<path d="M113.287 80.0673C113.287 81.3849 112.992 82.6857 112.424 83.8746C111.856 85.0635 111.03 86.1104 110.005 86.9387C108.981 87.767 107.784 88.3557 106.502 88.6617C105.221 88.9678 103.887 88.9834 102.599 88.7074C104.777 81.6882 106.846 76.1733 108.476 72.2012C109.925 72.9417 111.141 74.0682 111.99 75.4564C112.839 76.8445 113.288 78.4402 113.287 80.0673Z" fill="#FCE4D8"/>
<g opacity="0.6">
<path opacity="0.6" d="M108.476 72.2012C108.144 73.0103 107.793 73.8874 107.427 74.8247C108.411 75.5551 109.232 76.4824 109.837 77.5474C110.443 78.6124 110.821 79.7919 110.946 81.0108C111.071 82.2297 110.941 83.4613 110.564 84.6272C110.188 85.7931 109.572 86.8678 108.757 87.7829C110.154 87.0032 111.314 85.8588 112.111 84.4718C112.909 83.0849 113.315 81.5074 113.286 79.9078C113.257 78.3081 112.794 76.7464 111.947 75.3891C111.1 74.0318 109.9 72.93 108.476 72.2012Z" fill="white"/>
</g>
<path d="M104.45 90.2579C103.732 90.2581 103.016 90.1821 102.314 90.0311C102.13 89.9915 101.956 89.9141 101.804 89.8038C101.652 89.6935 101.524 89.5526 101.429 89.3903C101.334 89.2279 101.274 89.0476 101.253 88.8607C101.232 88.6739 101.249 88.4847 101.305 88.3051C103.167 82.3091 105.158 76.7173 107.222 71.6861C107.294 71.5127 107.4 71.3559 107.535 71.2257C107.67 71.0954 107.83 70.9946 108.006 70.9296C108.182 70.8646 108.369 70.8367 108.556 70.8478C108.743 70.859 108.926 70.9088 109.093 70.9942C110.766 71.8453 112.171 73.1438 113.15 74.7453C114.13 76.3469 114.646 78.1888 114.641 80.0661C114.641 85.6867 110.07 90.2579 104.45 90.2579ZM104.386 87.5478C108.543 87.5985 111.935 84.2164 111.935 80.0661C111.938 78.9426 111.687 77.833 111.2 76.8204C110.713 75.8079 110.003 74.9186 109.124 74.2193C107.482 78.3331 105.893 82.803 104.383 87.5485L104.386 87.5478Z" fill="#31241B"/>
<path d="M101.822 96.1435L99.2129 95.4157C99.901 92.9471 100.605 90.5549 101.305 88.3042L103.892 89.1095C103.2 91.3346 102.503 93.7006 101.822 96.1435Z" fill="#31241B"/>
<path d="M111.983 64.6608C111.535 65.9844 111.146 67.3273 110.773 68.6708C110.401 70.0143 110.057 71.3616 109.729 72.716C109.638 73.0631 109.414 73.3606 109.106 73.5446C108.798 73.7285 108.43 73.7842 108.081 73.6998C107.732 73.6153 107.43 73.3974 107.24 73.0928C107.05 72.7882 106.987 72.4213 107.065 72.0708C107.097 71.9387 107.148 71.812 107.217 71.6947L107.223 71.6871C107.949 70.4723 108.693 69.2702 109.455 68.0807C110.22 66.8935 110.996 65.7173 111.825 64.5769C111.838 64.5592 111.857 64.5467 111.878 64.5416C111.899 64.5365 111.921 64.5392 111.94 64.5491C111.96 64.5591 111.975 64.5757 111.983 64.5958C111.991 64.616 111.991 64.6384 111.984 64.6589L111.983 64.6608Z" fill="#31241B"/>
<path d="M5.59215 101.525C6.56533 104.276 7.65127 106.966 8.82114 109.587C10.0025 112.205 11.2948 114.773 12.8644 117.172C15.9776 121.984 20.0147 126.131 24.7418 129.373C27.0937 130.994 29.6378 132.32 32.246 133.481L34.2321 134.3C34.9003 134.556 35.5852 134.77 36.2605 135.005L37.2766 135.353C37.6193 135.458 37.9672 135.545 38.3125 135.643L40.387 136.215C41.0866 136.376 41.792 136.517 42.4942 136.669C43.1964 136.82 43.8966 136.981 44.6123 137.072C46.0365 137.282 47.4536 137.537 48.8951 137.638L51.0484 137.844C51.7692 137.885 52.4919 137.908 53.2133 137.938C53.9347 137.969 54.6535 138.002 55.382 138.023L57.5827 138.044C63.4506 138.133 69.3153 138.04 75.1544 137.716C75.8834 137.673 76.6151 137.646 77.3429 137.588L79.5257 137.414C80.2522 137.35 80.9826 137.309 81.7039 137.23L83.8758 136.993C85.3282 136.857 86.7588 136.622 88.2003 136.426C88.923 136.337 89.629 136.182 90.344 136.064C91.0545 135.929 91.7753 135.828 92.4756 135.66C95.3073 135.083 98.0866 134.337 100.74 133.326C101.415 133.096 102.042 132.78 102.693 132.507C103.021 132.374 103.325 132.201 103.638 132.044C103.951 131.888 104.266 131.732 104.57 131.56C105.783 130.876 106.937 130.093 108.021 129.219C109.11 128.344 110.107 127.346 111.211 126.301C111.772 125.784 112.349 125.252 113.017 124.768L113.517 124.406L114.059 124.081C114.412 123.853 114.803 123.683 115.189 123.509C116.759 122.829 118.423 122.62 119.99 122.588C121.576 122.537 123.093 122.724 124.603 122.908L123.22 124.48C123.213 124.465 123.207 124.449 123.203 124.433C123.196 124.41 123.181 124.375 123.169 124.346C123.148 124.286 123.119 124.222 123.089 124.157C123.035 124.029 122.961 123.901 122.89 123.772C122.819 123.644 122.741 123.516 122.65 123.394C122.567 123.268 122.476 123.146 122.378 123.031C121.986 122.555 121.531 122.134 121.025 121.781C120.757 121.617 120.502 121.435 120.21 121.301C119.927 121.151 119.635 121.019 119.334 120.907C119.038 120.779 118.714 120.708 118.406 120.602C118.086 120.523 117.76 120.459 117.437 120.385L117.355 120.37C117.068 120.303 116.813 120.137 116.635 119.902C116.458 119.666 116.369 119.375 116.385 119.08C116.401 118.785 116.52 118.505 116.721 118.289C116.923 118.074 117.194 117.936 117.487 117.9C117.847 117.857 118.127 117.836 118.443 117.821C118.758 117.805 119.054 117.798 119.359 117.796C119.969 117.796 120.578 117.822 121.186 117.874C122.418 117.977 123.636 118.217 124.815 118.588C126.005 118.975 127.176 119.522 128.224 120.292C129.286 121.065 130.184 122.04 130.865 123.163L128.53 123.739V123.522L128.525 123.266C128.519 123.093 128.509 122.917 128.493 122.742C128.463 122.39 128.42 122.037 128.357 121.686C128.238 120.985 128.057 120.295 127.816 119.626C127.349 118.299 126.62 117.079 125.673 116.038C125.204 115.519 124.681 115.051 124.112 114.644C123.836 114.426 123.526 114.254 123.232 114.059C122.918 113.895 122.62 113.704 122.29 113.564C121.001 112.95 119.596 112.539 118.143 112.291H118.133C117.873 112.247 117.634 112.123 117.448 111.935C117.263 111.748 117.141 111.507 117.101 111.246C117.06 110.986 117.103 110.719 117.222 110.484C117.341 110.249 117.532 110.057 117.766 109.937C117.853 109.892 117.901 109.872 117.958 109.842L118.125 109.769C118.236 109.721 118.343 109.678 118.45 109.641C118.666 109.556 118.878 109.49 119.091 109.42C119.517 109.289 119.949 109.182 120.386 109.099C121.253 108.931 122.134 108.852 123.017 108.863C123.895 108.884 124.776 108.954 125.631 109.144C126.065 109.215 126.48 109.348 126.903 109.459C127.322 109.58 127.726 109.741 128.137 109.881L126.453 111.324C126.435 111.252 126.375 111.068 126.325 110.932C126.264 110.785 126.209 110.634 126.136 110.489C125.998 110.197 125.838 109.915 125.657 109.648C125.306 109.115 124.863 108.649 124.349 108.272C123.858 107.873 123.264 107.631 122.667 107.408C122.346 107.344 122.038 107.243 121.711 107.196C121.376 107.173 121.051 107.111 120.71 107.109L119.68 107.133L118.634 107.275C118.544 107.287 118.465 107.295 118.366 107.312L118.064 107.364C117.862 107.397 117.664 107.437 117.458 107.462L116.844 107.546L116.221 107.61C115.361 107.688 114.495 107.679 113.636 107.583C112.713 107.48 111.815 107.212 110.985 106.793C110.135 106.35 109.392 105.727 108.807 104.967C108.258 104.252 107.817 103.46 107.498 102.617C106.88 100.995 106.595 99.3597 106.426 97.751C106.099 94.5284 106.206 91.3667 106.391 88.2267C106.41 87.8934 106.562 87.5814 106.811 87.3595C107.061 87.1376 107.388 87.0239 107.722 87.0434C108.055 87.063 108.367 87.2141 108.589 87.4637C108.811 87.7132 108.924 88.0407 108.905 88.3741V88.3856C108.724 91.4442 108.629 94.5188 108.932 97.4832C109.002 98.2251 109.124 98.9497 109.259 99.6615C109.403 100.354 109.598 101.034 109.845 101.696C110.344 102.978 111.092 104.022 112.151 104.556C113.208 105.11 114.592 105.215 116.012 105.096L116.549 105.043L117.09 104.969C117.27 104.947 117.452 104.91 117.633 104.88L117.906 104.834L118.215 104.789L119.479 104.62C119.91 104.602 120.345 104.597 120.779 104.589C121.214 104.594 121.658 104.665 122.097 104.705C122.537 104.77 122.977 104.898 123.414 105.001C124.271 105.305 125.129 105.676 125.858 106.253C126.048 106.384 126.228 106.53 126.395 106.689C126.561 106.847 126.735 107 126.894 107.166L127.342 107.685C127.488 107.861 127.611 108.053 127.745 108.237C127.999 108.613 128.223 109.008 128.417 109.418C128.517 109.621 128.598 109.835 128.684 110.048C128.773 110.282 128.848 110.522 128.909 110.764C128.963 110.98 128.957 111.206 128.894 111.419C128.83 111.632 128.711 111.825 128.548 111.976C128.385 112.127 128.184 112.232 127.967 112.279C127.75 112.327 127.524 112.315 127.313 112.246L127.219 112.214C126.875 112.1 126.537 111.963 126.189 111.862C125.839 111.774 125.494 111.658 125.138 111.602C124.434 111.443 123.715 111.392 123 111.372C122.285 111.363 121.572 111.428 120.87 111.564C120.523 111.631 120.18 111.716 119.842 111.82C119.678 111.875 119.509 111.926 119.353 111.989C119.273 112.018 119.195 112.049 119.122 112.081L119.016 112.128L118.94 112.163L118.564 109.806C120.201 110.083 121.835 110.555 123.38 111.292C123.771 111.461 124.139 111.689 124.517 111.891C124.879 112.126 125.254 112.34 125.596 112.607C126.302 113.114 126.953 113.695 127.536 114.34C128.707 115.626 129.608 117.134 130.187 118.773C130.478 119.58 130.697 120.412 130.841 121.257C130.916 121.679 130.969 122.104 131.005 122.533C131.023 122.748 131.036 122.963 131.043 123.183L131.05 123.515C131.05 123.634 131.05 123.73 131.043 123.886C131.03 124.153 130.932 124.409 130.764 124.617C130.595 124.824 130.365 124.973 130.106 125.04C129.848 125.108 129.574 125.091 129.325 124.992C129.077 124.894 128.866 124.718 128.725 124.491L128.707 124.462C128.198 123.627 127.529 122.901 126.738 122.325C125.944 121.742 125.022 121.304 124.042 120.985C123.041 120.672 122.008 120.47 120.962 120.382C120.433 120.335 119.9 120.312 119.367 120.314C119.101 120.314 118.835 120.322 118.571 120.336C118.308 120.35 118.027 120.371 117.821 120.396L117.874 117.909C118.269 117.997 118.666 118.076 119.06 118.176C119.45 118.304 119.846 118.399 120.229 118.56C120.619 118.707 120.999 118.878 121.367 119.073C121.745 119.251 122.096 119.49 122.456 119.713C123.16 120.204 123.793 120.789 124.336 121.453C124.474 121.619 124.604 121.792 124.723 121.972C124.851 122.146 124.961 122.338 125.074 122.526C125.186 122.713 125.287 122.91 125.379 123.121C125.426 123.223 125.472 123.328 125.514 123.441C125.536 123.498 125.557 123.548 125.578 123.613C125.6 123.678 125.617 123.719 125.647 123.828V123.838C125.703 124.033 125.71 124.239 125.668 124.437C125.626 124.635 125.536 124.82 125.406 124.976C125.276 125.132 125.11 125.253 124.922 125.33C124.735 125.407 124.531 125.437 124.329 125.416L124.265 125.409C122.851 125.264 121.428 125.119 120.065 125.192C118.698 125.242 117.389 125.454 116.253 125.968C115.11 126.468 114.11 127.289 113.08 128.283C112.049 129.277 110.976 130.377 109.778 131.361C108.578 132.351 107.298 133.239 105.951 134.016C105.616 134.208 105.27 134.38 104.926 134.563C104.583 134.745 104.245 134.933 103.892 135.082C103.188 135.389 102.499 135.74 101.778 135.995C101.064 136.263 100.356 136.562 99.6306 136.78L98.5478 137.132L98.0058 137.309L97.4593 137.459C96.7303 137.655 96.0025 137.861 95.2721 138.05L93.0688 138.537C92.3359 138.714 91.5953 138.82 90.8591 138.96C90.1211 139.084 89.3856 139.245 88.6456 139.338C87.1663 139.541 85.6889 139.786 84.2071 139.927L81.9852 140.172C81.2452 140.254 80.5033 140.301 79.7627 140.365L77.5396 140.545C76.7983 140.603 76.0571 140.632 75.3165 140.673C69.3877 141.011 63.4595 141.113 57.5429 141.034L55.3236 141.016C54.5792 141 53.8245 140.951 53.0762 140.922C52.3279 140.893 51.5757 140.858 50.8261 140.811L48.5806 140.586C47.0808 140.471 45.5951 140.201 44.1061 139.97C43.3591 139.87 42.6236 139.695 41.8862 139.536C41.1488 139.376 40.4127 139.22 39.6752 139.047L37.4918 138.434C37.1286 138.329 36.7627 138.233 36.4027 138.121L35.3296 137.748C34.6165 137.492 33.8951 137.262 33.1891 136.989L31.0909 136.111C30.3861 135.837 29.7179 135.47 29.033 135.14C28.3482 134.81 27.6684 134.476 27.0188 134.08C26.364 133.696 25.6958 133.333 25.0526 132.927L23.1517 131.67C18.163 128.176 13.9167 123.728 10.6586 118.582C10.255 117.941 9.85005 117.3 9.48679 116.637L8.92748 115.649L8.40726 114.64C7.71078 113.298 7.09965 111.913 6.5775 110.493C6.0599 109.074 5.64266 107.619 5.32883 106.141C5.17208 105.403 5.04971 104.657 4.96172 103.905C4.91175 103.531 4.87972 103.153 4.85602 102.774C4.83231 102.396 4.82014 102.02 4.82718 101.627C4.82855 101.536 4.86199 101.448 4.92164 101.379C4.9813 101.309 5.06338 101.263 5.15353 101.248C5.24368 101.234 5.33617 101.251 5.41482 101.298C5.49348 101.344 5.5533 101.417 5.58382 101.503L5.59215 101.525Z" fill="#31241B"/>
<path d="M17.514 55.3731C18.0163 56.1221 18.2783 56.8967 18.4558 57.6988C18.5013 57.898 18.5423 58.0992 18.5788 58.301C18.6153 58.5028 18.6262 58.7021 18.6499 58.9032L18.7018 59.51C18.7101 59.7118 18.7101 59.9117 18.7076 60.1122C18.6961 60.5126 18.7076 60.9188 18.6749 61.3173L18.5577 62.5102C18.4596 63.3027 18.2886 64.0786 18.1271 64.8557C17.9138 65.6168 17.721 66.385 17.4865 67.1372L16.7523 69.3757L15.9284 71.5732C15.6394 72.2991 15.3095 73.0051 15.0013 73.7213C14.6931 74.4376 14.3453 75.1308 13.9948 75.8272L13.4701 76.8683C13.2965 77.2162 13.1228 77.5647 12.9249 77.8972C12.1503 79.2427 11.4193 80.6124 10.5621 81.9002L8.13266 85.7378C7.75915 86.374 7.41255 87.0255 7.05057 87.6681C6.71485 88.3242 6.40477 88.9924 6.07931 89.6542C3.65436 95.0185 2.60046 100.971 3.14247 106.831C3.27692 108.297 3.49726 109.753 3.80236 111.193C4.1142 112.634 4.50583 114.056 4.97543 115.453C5.44602 116.85 5.99751 118.219 6.62708 119.553C6.93909 120.22 7.27608 120.874 7.62589 121.518C7.80464 121.838 7.98402 122.155 8.17174 122.466C8.35946 122.777 8.55935 123.1 8.73361 123.352L6.46755 124.487C6.40925 124.299 6.3721 124.163 6.33109 124.008C6.29009 123.852 6.25421 123.708 6.21961 123.559C6.14593 123.261 6.09147 122.967 6.02741 122.671C5.91657 122.079 5.81919 121.487 5.74936 120.893C5.602 119.706 5.53858 118.515 5.49758 117.322C5.45658 116.13 5.44504 114.925 5.69554 113.751C5.91658 112.578 6.34134 111.427 7.17678 110.432C7.23175 110.367 7.30333 110.317 7.38403 110.289C7.46472 110.261 7.55155 110.255 7.63541 110.271C7.71928 110.288 7.79708 110.327 7.86067 110.384C7.92426 110.442 7.9713 110.515 7.99684 110.596L8.00773 110.63C8.20441 111.254 8.24285 111.825 8.29603 112.393C8.3492 112.961 8.32294 113.507 8.31653 114.055C8.29155 114.601 8.26912 115.144 8.22876 115.686C8.1884 116.228 8.14355 116.775 8.12113 117.316C8.06923 118.406 8.1679 119.499 8.29219 120.577C8.35626 121.117 8.44402 121.652 8.54333 122.182C8.59714 122.444 8.6484 122.711 8.71182 122.967C8.74193 123.095 8.77589 123.223 8.80728 123.351C8.83868 123.479 8.8784 123.611 8.90403 123.696L8.91556 123.733C9.00009 124.025 8.97872 124.336 8.85525 124.613C8.73177 124.89 8.51419 125.114 8.24114 125.245C7.9681 125.377 7.65728 125.407 7.36388 125.331C7.07048 125.255 6.81351 125.078 6.63861 124.83C6.38234 124.456 6.1863 124.137 5.97423 123.789C5.76217 123.44 5.57381 123.102 5.38033 122.756C5.00297 122.062 4.64228 121.361 4.30849 120.648C3.63706 119.226 3.04899 117.766 2.54728 116.275C2.04586 114.785 1.62792 113.267 1.29541 111.73C0.968908 110.188 0.733586 108.629 0.590668 107.06C0.00509414 100.774 1.14677 94.3362 3.74469 88.6003C4.09002 87.8956 4.42253 87.1799 4.7813 86.481C5.16571 85.7961 5.53602 85.1022 5.93451 84.4257L8.39277 80.54C9.22564 79.2907 9.93038 77.9696 10.6761 76.6742C10.8683 76.3539 11.0336 76.0188 11.2002 75.685L11.7031 74.6856C12.0395 74.0199 12.3842 73.3568 12.6641 72.67C12.9441 71.9832 13.274 71.3124 13.5483 70.6199L14.3273 68.5377C14.556 67.8329 14.7591 67.1282 14.9641 66.4177C15.1493 65.7053 15.2877 64.9845 15.4523 64.2702C15.7009 62.8325 15.977 61.4038 16.1321 59.9719C16.2967 58.5458 16.4832 57.103 16.6959 55.6301L16.7068 55.5545C16.7193 55.466 16.7583 55.3834 16.8188 55.3176C16.8793 55.2519 16.9584 55.2061 17.0455 55.1863C17.1327 55.1665 17.2238 55.1736 17.3067 55.2067C17.3897 55.2399 17.4607 55.2975 17.5102 55.3719L17.514 55.3731Z" fill="#31241B"/>
<path d="M84.6926 135.03L36.8165 134.657C28.4006 142.465 22.9254 153.644 15.4033 158.969C15.4033 158.969 19.683 168.254 29.6525 172.167L29.4289 172.761C43.1752 183.14 70.1987 179.167 70.1987 179.167L70.1506 177.779L70.3858 177.812C94.2303 175.848 106.033 161.401 106.033 161.401C100.286 151.678 92.4569 142.545 84.6926 135.03Z" fill="#5C69B7"/>
<path d="M103.876 157.926C93.8555 167.094 82.4381 171.701 70.034 173.088V174.404C70.034 174.404 46.2254 177.32 31.2529 169.289L30.8884 168.878C24.2055 165.045 19.7964 159.32 18.0608 156.785C17.2244 157.571 16.3366 158.3 15.4033 158.968C15.4033 158.968 19.683 168.253 29.6525 172.166L29.4289 172.76C43.1752 183.139 70.1987 179.167 70.1987 179.167L70.1506 177.778L70.3858 177.811C94.2303 175.847 106.033 161.4 106.033 161.4C105.344 160.232 104.624 159.075 103.876 157.926Z" fill="#0B9CFF"/>
<g opacity="0.3">
<path opacity="0.3" d="M69.2647 152.143L67.6772 173.546C67.5883 174.763 67.0614 175.906 66.194 176.764C65.3266 177.622 64.1775 178.136 62.9599 178.211C56.6813 178.593 44.9211 178.479 35.9267 173.543C34.0688 172.524 33.1552 170.363 33.662 168.307L38.5471 148.496L29.4297 172.761C43.1759 183.14 70.1995 179.167 70.1995 179.167L69.2647 152.143Z" fill="#31241B"/>
</g>
<g opacity="0.3">
<path opacity="0.3" d="M84.6926 135.03L36.8165 134.657C28.4006 142.465 22.9254 153.644 15.4033 158.969C15.4033 158.969 17.2305 162.93 21.2744 166.768C20.4416 164.718 20.1091 162.787 20.826 161.386C23.3368 156.472 36.2271 140.743 36.2271 140.743C36.2271 140.743 43.7652 146.529 53.597 142.269C53.597 142.269 59.4963 147.184 68.1261 141.394L86.4923 142.077C86.4923 142.077 89.8776 158.887 98.7035 167.817C103.597 164.379 106.033 161.398 106.033 161.398C100.286 151.678 92.4569 142.545 84.6926 135.03Z" fill="#31241B"/>
</g>
<g opacity="0.3">
<path opacity="0.3" d="M24.3662 169.308L29.4294 172.761L38.5468 148.496L24.3662 169.308Z" fill="#31241B"/>
</g>
<g opacity="0.3">
<path opacity="0.3" d="M80.5084 173.459C75.3023 171.575 69.2793 152.573 69.2793 152.573L70.3864 177.389C80.6205 179.11 88.9921 173.456 88.9921 173.456C88.9921 173.456 85.7151 175.343 80.5084 173.459Z" fill="#31241B"/>
</g>
<path d="M95.4151 158.017C94.1337 156.699 93.1086 155.189 92.1739 153.629C91.2392 152.069 90.4601 150.422 89.7195 148.76C89.0147 147.083 88.3497 145.384 87.8135 143.643C87.5226 142.779 87.301 141.897 87.0562 141.017C86.8294 140.134 86.6295 139.246 86.436 138.356C86.3632 138.008 86.4298 137.646 86.6215 137.347C86.8133 137.048 87.1148 136.836 87.4611 136.757C87.8074 136.679 88.1708 136.739 88.4731 136.926C88.7753 137.112 88.9922 137.41 89.0769 137.755L89.091 137.815C89.2928 138.667 89.451 139.529 89.6503 140.382C89.7528 140.807 89.8611 141.232 89.9572 141.659C90.0533 142.086 90.159 142.511 90.2775 142.933L90.6068 144.207L90.972 145.47C91.1975 146.319 91.4845 147.148 91.7408 147.988C92.2879 149.657 92.9087 151.303 93.5667 152.939C94.2247 154.576 94.9121 156.212 95.6656 157.833L95.6694 157.841C95.6869 157.879 95.6887 157.922 95.6745 157.961C95.6604 158 95.6313 158.031 95.5938 158.049C95.5643 158.062 95.5314 158.067 95.4994 158.061C95.4674 158.055 95.438 158.04 95.4151 158.017Z" fill="#31241B"/>
<path d="M70.1615 173.879L69.9053 172.298C95.3867 168.206 103.144 157.572 103.22 157.465L104.533 158.383C104.215 158.842 96.3996 169.666 70.1615 173.879Z" fill="#31241B"/>
<path d="M60.6188 175.575C41.2788 175.575 30.7148 170.741 30.21 170.505L30.8897 169.054C31.0287 169.118 45.0799 175.524 69.9707 173.606L70.0937 175.203C66.7353 175.462 63.5749 175.575 60.6188 175.575Z" fill="#31241B"/>
<path d="M30.8875 169.679C30.7418 169.679 30.5989 169.639 30.4742 169.564C21.5753 164.192 17.548 157.464 17.3808 157.184C17.2771 157.001 17.2493 156.785 17.3034 156.582C17.3576 156.379 17.4894 156.205 17.6703 156.099C17.8513 155.992 18.067 155.961 18.2709 156.011C18.4747 156.062 18.6505 156.191 18.7602 156.37C18.7993 156.434 22.7702 163.038 31.3026 168.193C31.4525 168.283 31.5685 168.42 31.6331 168.583C31.6976 168.746 31.707 168.925 31.6599 169.093C31.6128 169.262 31.5118 169.411 31.3723 169.516C31.2328 169.622 31.0625 169.679 30.8875 169.679Z" fill="#31241B"/>
<path d="M29.6528 173.522C29.4833 173.522 29.3153 173.49 29.1576 173.428C18.8005 169.361 14.3581 159.935 14.1729 159.535C14.0407 159.248 14.0131 158.923 14.095 158.618C14.177 158.312 14.3632 158.045 14.6214 157.862C18.5199 155.103 21.9251 150.598 25.5256 145.828C28.6822 141.649 31.9458 137.328 35.8955 133.663C36.0253 133.538 36.1785 133.44 36.3464 133.376C36.5143 133.311 36.6934 133.28 36.8733 133.285C37.0533 133.29 37.2304 133.331 37.3943 133.405C37.5583 133.48 37.7058 133.586 37.8282 133.718C37.9506 133.85 38.0456 134.005 38.1074 134.174C38.1693 134.343 38.1969 134.522 38.1886 134.702C38.1802 134.882 38.1362 135.058 38.0589 135.221C37.9817 135.383 37.8729 135.529 37.7388 135.649C33.9639 139.151 30.7734 143.375 27.6873 147.46C24.2398 152.025 20.9679 156.356 17.1463 159.357C18.5148 161.742 22.6695 167.968 30.1519 170.905C30.4459 171.02 30.6903 171.234 30.8431 171.51C30.9959 171.787 31.0473 172.108 30.9886 172.418C30.9299 172.728 30.7647 173.008 30.5215 173.21C30.2783 173.411 29.9724 173.521 29.6567 173.521L29.6528 173.522Z" fill="#31241B"/>
<path d="M69.2646 152.142L71.6242 179.115C71.6531 179.445 71.5589 179.774 71.3597 180.038C71.1605 180.303 70.8704 180.484 70.5453 180.548L70.4069 180.575C68.5887 180.821 66.8384 180.974 65.0529 181.098C63.2673 181.221 61.4946 181.29 59.7129 181.315C56.1494 181.356 52.5764 181.234 49.0136 180.831C47.2332 180.634 45.4553 180.378 43.6897 180.023C41.924 179.669 40.166 179.254 38.4361 178.705C34.9765 177.635 31.5912 176.092 28.5974 173.865L28.5211 173.805C28.2963 173.628 28.1367 173.382 28.0671 173.104C27.9975 172.827 28.022 172.534 28.1367 172.272L38.547 148.495L30.7269 173.248L30.265 171.655C31.6086 172.639 33.0407 173.495 34.5428 174.214C36.0477 174.955 37.6468 175.527 39.2633 176.041C40.8797 176.555 42.548 176.945 44.2272 177.275C45.9064 177.605 47.6099 177.851 49.3212 178.038C52.7443 178.419 56.2077 178.532 59.6686 178.486C61.3997 178.459 63.1296 178.385 64.8581 178.265C66.5764 178.144 68.328 177.985 69.9911 177.756L68.7739 179.215L69.2646 152.142Z" fill="#31241B"/>
<path d="M70.3837 179.165C70.034 179.165 69.6978 179.03 69.4455 178.788C69.1933 178.545 69.0446 178.215 69.0304 177.865C69.0163 177.516 69.1378 177.174 69.3696 176.912C69.6014 176.65 69.9255 176.488 70.2742 176.46C90.2337 174.817 101.65 164.089 104.358 161.236C97.9698 150.694 89.6654 141.728 83.7513 136.004C83.5019 135.752 83.361 135.413 83.3589 135.058C83.3568 134.704 83.4937 134.363 83.7402 134.108C83.9867 133.853 84.3232 133.705 84.6775 133.696C85.0318 133.686 85.3757 133.816 85.6356 134.057C91.8283 140.051 100.597 149.539 107.201 160.709C107.342 160.948 107.407 161.224 107.386 161.501C107.365 161.777 107.259 162.041 107.084 162.256C106.587 162.864 94.6389 177.171 70.4978 179.159C70.4581 179.164 70.4215 179.165 70.3837 179.165Z" fill="#31241B"/>
<path d="M87.6469 131.103C89.0891 140.64 89.7425 140.22 66.8802 139.239C66.8802 139.239 62.7421 142.996 55.1399 138.647C48.0009 141.355 38.3844 142.774 33.234 134.099C33.234 134.099 30.6194 132.41 31.4638 129.913C38.1268 110.207 32.2692 91.0941 32.2692 91.0941C32.2692 91.0941 67.9629 81.7807 90.2141 101.581C90.2141 101.578 86.2022 121.565 87.6469 131.103Z" fill="#81AA71"/>
<path d="M62.0658 142.106C60.1585 142.106 57.7996 141.616 55.0255 140.132C44.4948 143.955 36.6235 142.199 32.2176 135.04C31.0003 134.126 29.3096 132.04 30.1764 129.477C36.6132 110.437 31.0266 91.677 30.9695 91.488C30.9161 91.3134 30.8985 91.1297 30.9179 90.9481C30.9373 90.7664 30.9931 90.5906 31.0822 90.4311C31.1712 90.2716 31.2916 90.1318 31.4361 90.02C31.5806 89.9082 31.7461 89.8268 31.9229 89.7807C32.2944 89.6839 41.1562 87.4102 52.91 87.555C68.5558 87.751 81.7652 92.2498 91.1107 100.566C91.2878 100.723 91.4205 100.924 91.4955 101.149C91.5705 101.374 91.5851 101.615 91.538 101.847C91.4983 102.044 87.5902 121.708 88.9824 130.902L89.1105 131.749C89.6551 135.297 90.0151 137.643 88.5659 139.256C86.5888 141.46 82.3514 141.274 69.7789 140.722L67.2982 140.615C66.498 141.159 64.7195 142.106 62.0658 142.106ZM55.137 137.292C55.3729 137.292 55.6048 137.353 55.8097 137.47C62.4797 141.285 65.9323 138.265 65.9662 138.235C66.2311 137.996 66.5791 137.87 66.9356 137.884L69.9 138.012C79.913 138.452 85.4298 138.694 86.5517 137.443C87.1449 136.782 86.847 134.841 86.4351 132.157L86.3069 131.304C84.9891 122.604 88.0002 105.921 88.7338 102.083C77.6425 92.5778 63.1985 90.4015 52.951 90.2644C44.1315 90.1433 36.84 91.4752 33.9474 92.0941C35.1717 96.9209 38.5115 113.29 32.7461 130.342C32.2458 131.823 33.9506 132.945 33.9679 132.956C34.1439 133.07 34.2911 133.224 34.3978 133.405C39.0663 141.27 47.9922 139.906 54.659 137.377C54.8128 137.32 54.9755 137.291 55.1395 137.292H55.137Z" fill="#31241B"/>
<path d="M63.6062 133.16C63.0475 133.801 62.4389 134.405 61.8174 134.995C61.196 135.586 60.5495 136.153 59.8909 136.709C59.2323 137.265 58.5551 137.802 57.8651 138.324C57.1751 138.847 56.471 139.353 55.7573 139.852C55.4599 140.059 55.0923 140.14 54.7353 140.077C54.3783 140.013 54.0611 139.81 53.8535 139.513C53.646 139.216 53.5651 138.848 53.6286 138.491C53.6921 138.134 53.8948 137.817 54.1921 137.609C54.2899 137.541 54.3961 137.486 54.508 137.445L54.5208 137.441C55.3024 137.162 56.0847 136.873 56.858 136.559C57.6313 136.246 58.3994 135.919 59.1644 135.567C59.9293 135.215 60.6796 134.844 61.4227 134.446C62.1659 134.049 62.8982 133.631 63.6062 133.16Z" fill="#31241B"/>
<path d="M79.4796 93.2627C80.7925 83.3577 74.5304 74.3572 65.4929 73.1593C56.4554 71.9615 48.0648 79.02 46.752 88.9249C45.4392 98.8298 51.7013 107.83 60.7388 109.028C69.7763 110.226 78.1668 103.168 79.4796 93.2627Z" fill="#81AA71"/>
<path d="M62.73 110.119C62.0212 110.119 61.3133 110.072 60.6107 109.979C51.0647 108.713 44.417 99.2102 45.7977 88.796C47.1783 78.3819 56.0696 70.9373 65.6175 72.2026C75.1654 73.468 81.8111 82.9711 80.4305 93.3852L79.4778 93.257L80.4305 93.3852C79.153 103.025 71.4412 110.119 62.73 110.119ZM63.4988 73.985C55.7371 73.985 48.8543 80.3738 47.705 89.0472C46.4633 98.4112 52.3671 106.945 60.865 108.075C69.3629 109.205 77.2861 102.501 78.527 93.136C79.768 83.7725 73.8649 75.2381 65.367 74.1118C64.7471 74.0283 64.1224 73.986 63.4969 73.985H63.4988Z" fill="#31241B"/>
<path d="M72.2453 96.6566C71.6969 100.792 66.9104 103.569 61.5544 102.859C56.1984 102.149 52.2999 98.2211 52.8483 94.0856C53.3967 89.95 58.1832 87.1734 63.5392 87.8832C68.8952 88.5931 72.7937 92.5217 72.2453 96.6566Z" fill="#FCE4D8"/>
<path d="M63.2039 104.323C62.5928 104.323 61.9824 104.283 61.3767 104.202C55.2903 103.394 50.8601 98.7765 51.5059 93.9074C52.1517 89.0383 57.6294 85.735 63.7177 86.5397C69.806 87.3444 74.2344 91.9649 73.5886 96.834C73.0088 101.214 68.5247 104.323 63.2039 104.323ZM61.863 89.1267C57.8908 89.1267 54.5914 91.248 54.1916 94.2636C53.7431 97.6515 57.1252 100.905 61.7329 101.516C66.3406 102.127 70.4537 99.8669 70.9029 96.479C71.352 93.0912 67.9692 89.8372 63.3615 89.226C62.8647 89.16 62.3641 89.1268 61.863 89.1267Z" fill="#31241B"/>
<g opacity="0.3">
<path opacity="0.3" d="M90.2134 101.577C86.8243 98.5624 83.1231 96.2252 79.2842 94.4249C79.3585 94.0405 79.4258 93.6561 79.4764 93.2608C80.7891 83.356 74.5272 74.3552 65.4899 73.1572C56.4526 71.9591 48.0636 79.0174 46.749 88.9222C46.7432 88.9658 46.74 89.0087 46.7349 89.0503C38.1998 89.5424 32.2672 91.0896 32.2672 91.0896C32.2672 91.0896 38.1242 110.202 31.4619 129.909C30.6175 132.407 33.2321 134.094 33.2321 134.094C38.3824 142.771 47.9989 141.352 55.1379 138.643C62.7401 142.991 66.8782 139.235 66.8782 139.235C89.7406 140.217 89.0871 140.637 87.6449 131.098C86.2028 121.559 90.2134 101.577 90.2134 101.577ZM77.8484 135.903C70.1469 137.409 61.947 135.903 61.947 135.903C61.947 135.903 64.8896 133.968 65.757 131.182C65.757 131.182 42.1566 141.505 36.816 129.379C36.816 129.379 45.4913 117.321 43.8909 105.489C43.8909 105.489 47.7638 112.148 59.7744 113.553C59.7744 113.553 51.9691 109.499 49.4238 101.577C49.4238 101.577 57.6064 115.963 74.6521 103.724C74.6521 103.724 83.9489 115.761 72.2957 126.503C72.2957 126.503 74.5778 126.695 77.0258 126.25C80.6661 125.59 83.6183 129.334 82.0948 132.705C81.4086 134.225 80.1209 135.459 77.8491 135.903H77.8484Z" fill="#31241B"/>
</g>
<path d="M98.9604 56.4947C98.8963 56.7362 94.9632 71.7862 94.4975 89.0241C94.4975 89.0241 89.7424 101.945 65.0567 98.2197C40.371 94.4942 30.7167 86.0168 26.9752 76.681C22.2906 64.9919 27.0008 46.8084 28.0297 43.1585L28.0412 43.1136C28.0887 42.9682 28.1309 42.8221 28.1694 42.6703C28.1783 42.6427 28.1867 42.6113 28.195 42.5838C28.2033 42.5562 28.2117 42.5332 28.2174 42.5075C28.4765 41.5356 28.648 40.5425 28.73 39.5399C46.3555 37.0234 46.8213 23.1938 46.8213 23.1938C46.8213 23.1938 48.5966 50.3122 82.3548 51.2463L82.4727 51.033C86.8953 53.4566 92.3205 55.4344 98.9604 56.4947Z" fill="#FCE4D8"/>
<g opacity="0.3">
<path opacity="0.3" d="M82.4736 51.033L82.3558 51.2463C48.5975 50.3122 46.8222 23.1938 46.8222 23.1938C46.8222 23.1938 46.7107 26.4715 44.5645 30.1253C46.309 37.4129 53.1738 54.0915 79.5214 54.8206H79.5246C88.6645 58.6544 94.0852 68.1229 92.8275 77.954C92.2586 82.406 91.8025 87.4026 91.6628 92.5978C91.579 92.8081 91.483 93.0132 91.3751 93.2122C93.7623 91.0166 94.4971 89.0229 94.4971 89.0229C94.9629 71.785 98.896 56.733 98.9601 56.4934C92.3201 55.4344 86.8949 53.4566 82.4736 51.033Z" fill="#31241B"/>
</g>
<g opacity="0.3">
<path opacity="0.3" d="M65.6536 92.2836C40.9672 88.5581 31.3136 80.0808 27.5721 70.7449C25.1061 64.5906 25.2439 56.6373 26.0774 49.9519C24.8172 57.2331 23.9888 67.3141 26.9743 74.7593C30.7139 84.0952 40.3695 92.5732 65.0558 96.2981C89.7422 100.023 94.4966 87.1025 94.4966 87.1025C94.524 86.0775 94.5635 85.0605 94.6152 84.0517C92.9225 86.977 86.1743 95.38 65.6536 92.2836Z" fill="#31241B"/>
</g>
<path d="M96.46 68.8678C97.6458 61.5213 98.9233 56.631 98.9586 56.4945C98.8497 56.4773 98.744 56.4574 98.6382 56.4395C98.0072 59.3507 97.1698 63.6906 96.46 68.8678Z" fill="#31241B"/>
<path d="M46.9993 24.5771C46.8564 23.7019 46.8224 23.1938 46.8224 23.1938C46.8224 23.1938 46.7898 24.1331 46.4316 25.5643C46.6379 25.2325 46.8271 24.9034 46.9993 24.5771Z" fill="#31241B"/>
<path d="M73.5416 100.183C70.8393 100.183 67.9471 99.9509 64.865 99.4862C53.0767 97.7077 44.1175 94.8131 37.4789 90.6392C31.8185 87.0802 27.9969 82.6705 25.786 77.1575C20.947 65.0847 25.7591 46.4943 26.7912 42.831L26.7969 42.8073C26.8046 42.7759 26.8136 42.7432 26.8232 42.715C26.8629 42.5952 26.8969 42.4747 26.9296 42.3498C26.9347 42.3306 26.9398 42.3114 26.9456 42.2922L26.9661 42.2217L26.9783 42.1826C26.9781 42.1798 26.9781 42.177 26.9783 42.1743C27.217 41.2761 27.3755 40.3584 27.4517 39.4322C27.4761 39.1433 27.5976 38.8712 27.7966 38.6603C27.9956 38.4495 28.2602 38.3123 28.5473 38.2713C44.8395 35.945 45.5187 23.6678 45.5392 23.1463C45.5518 22.8181 45.69 22.5072 45.9252 22.2779C46.1604 22.0487 46.4748 21.9185 46.8032 21.9143H46.8199C47.1453 21.9136 47.4589 22.0367 47.6969 22.2588C47.9348 22.4808 48.0794 22.7851 48.1012 23.1098C48.1057 23.1739 48.6009 29.7158 53.0587 36.2493C58.9241 44.8478 68.5905 49.4542 81.7954 49.9463C81.9885 49.8255 82.2104 49.7584 82.4381 49.7518C82.6658 49.7453 82.8911 49.7996 83.0908 49.9091C87.7934 52.4872 93.2007 54.2772 99.1634 55.2267C99.3405 55.2549 99.5097 55.3201 99.66 55.4179C99.8103 55.5157 99.9385 55.6439 100.036 55.7943C100.134 55.9448 100.199 56.114 100.227 56.2911C100.255 56.4683 100.246 56.6493 100.199 56.8226C100.16 56.9706 96.2438 71.8342 95.7787 89.0567C95.7752 89.1959 95.7488 89.3336 95.7005 89.4642C95.6461 89.6128 94.3116 93.1294 89.7308 96.0926C85.5216 98.8167 80.097 100.183 73.5416 100.183ZM29.2744 43.4646C29.2712 43.478 29.2674 43.4921 29.2635 43.5056C28.2839 46.9793 23.6256 64.8784 28.1654 76.2042C32.5111 87.0546 44.6397 93.8457 65.2475 96.9523C77.4651 98.7968 84.4542 96.3937 88.1662 94.0533C91.5772 91.9026 92.913 89.4078 93.2237 88.7434C93.6395 74.3475 96.4111 61.6052 97.3881 57.5248C91.9494 56.5292 86.9611 54.848 82.5309 52.516C82.4623 52.5254 82.3931 52.5291 82.324 52.5269C64.3422 52.0291 55.2953 44.1283 50.8721 37.5871C49.0482 34.88 47.6359 31.9173 46.6815 28.7958C46.3352 29.589 45.9341 30.3571 45.4809 31.0945C43.3026 34.6419 38.8371 39.1144 29.8997 40.6533C29.7991 41.3854 29.6531 42.1105 29.4628 42.8246C29.4513 42.8707 29.4378 42.9168 29.4231 42.9629L29.4096 43.0078C29.366 43.1628 29.3225 43.314 29.2744 43.4646ZM26.9751 42.1954L26.9661 42.2339C26.9687 42.221 26.9719 42.2076 26.9751 42.1954Z" fill="#31241B"/>
<path d="M28.042 44.4687C27.9205 44.4684 27.7997 44.4521 27.6825 44.42C27.5109 44.3728 27.3503 44.2924 27.2098 44.1831C27.0693 44.0739 26.9517 43.9381 26.8638 43.7834C26.7758 43.6287 26.7191 43.4582 26.697 43.2816C26.6749 43.105 26.6878 42.9258 26.735 42.7542C26.7927 42.5441 26.8413 42.3827 26.8753 42.2731C26.9274 42.103 27.0125 41.9449 27.1258 41.8077C27.239 41.6705 27.3782 41.557 27.5353 41.4736C27.6924 41.3902 27.8644 41.3385 28.0415 41.3216C28.2186 41.3046 28.3972 41.3228 28.5673 41.3749C28.7374 41.427 28.8955 41.5121 29.0327 41.6254C29.1699 41.7386 29.2834 41.8777 29.3669 42.0349C29.4503 42.192 29.5019 42.364 29.5188 42.5411C29.5358 42.7181 29.5177 42.8968 29.4655 43.0669C29.4373 43.1592 29.3963 43.295 29.3477 43.4718C29.2692 43.758 29.099 44.0106 28.8631 44.1907C28.6272 44.3708 28.3387 44.4684 28.042 44.4687Z" fill="#31241B"/>
<path d="M98.9599 57.8479C98.7821 57.848 98.606 57.8132 98.4416 57.7452C98.2773 57.6773 98.128 57.5777 98.0022 57.452C97.8765 57.3263 97.7767 57.1771 97.7086 57.0129C97.6405 56.8486 97.6055 56.6726 97.6055 56.4948C97.6056 56.2268 97.6852 55.9648 97.8342 55.7421C97.9832 55.5193 98.1949 55.3457 98.4425 55.2433C98.6902 55.1408 98.9626 55.1141 99.2255 55.1665C99.4883 55.219 99.7297 55.3481 99.9191 55.5377C100.108 55.7273 100.237 55.9688 100.29 56.2317C100.342 56.4946 100.315 56.767 100.212 57.0145C100.109 57.2621 99.9357 57.4736 99.7128 57.6224C99.4899 57.7712 99.2279 57.8506 98.9599 57.8504V57.8479Z" fill="#31241B"/>
<path d="M33.9205 97.2463L26.344 99.8244C26.344 99.8244 19.5471 96.8453 20.2115 90.2694L21.546 81.4198L16.8287 77.0293C16.4817 76.7117 16.2693 76.2734 16.2353 75.8042C16.2013 75.335 16.3481 74.8706 16.6456 74.5063C16.9432 74.1419 17.3689 73.9053 17.8354 73.8449C18.3019 73.7845 18.7738 73.905 19.1543 74.1815L25.135 78.5381C25.2764 78.6409 25.4456 78.6985 25.6204 78.7032C25.7951 78.7079 25.9672 78.6595 26.1139 78.5645C26.2606 78.4695 26.3751 78.3322 26.4423 78.1708C26.5094 78.0094 26.5261 77.8314 26.49 77.6604L25.0991 71.146C25.0018 70.688 25.0824 70.2102 25.3247 69.8095C25.567 69.4088 25.9527 69.1154 26.4035 68.9889L26.4317 68.9838C26.8609 68.8631 27.3193 68.9023 27.7217 69.0941C28.1241 69.286 28.4432 69.6174 28.6196 70.0268L33.2325 80.7599C33.8573 80.6432 34.5032 80.7554 35.0521 81.076C35.601 81.3966 36.016 81.9042 36.2212 82.5058C37.8677 87.4165 37.1386 93.205 33.9205 97.2463Z" fill="#FCE4D8"/>
<g opacity="0.3">
<path opacity="0.3" d="M22.3103 89.7455C22.3171 89.6118 22.3278 89.4765 22.3423 89.3393L23.6762 80.4898L18.9589 76.0992C18.6601 75.8272 18.4598 75.4638 18.3893 75.066C18.3187 74.6681 18.3818 74.258 18.5687 73.8998C18.1702 73.7877 17.7455 73.8133 17.3632 73.9724C16.981 74.1316 16.6636 74.415 16.4624 74.7768C16.2612 75.1386 16.1879 75.5578 16.2543 75.9664C16.3208 76.3751 16.5232 76.7494 16.8287 77.0288L21.5459 81.42L20.2121 90.2696C19.547 96.8455 26.3439 99.8246 26.3439 99.8246L33.9212 97.2465C33.9916 97.1575 34.0551 97.0633 34.1236 96.9723C34.1236 96.9723 22.0021 95.2374 22.3103 89.7455Z" fill="#31241B"/>
</g>
<path d="M26.3441 100.946C26.1897 100.946 26.0371 100.914 25.8956 100.852C25.5874 100.717 18.3594 97.4607 19.0974 90.1571C19.0974 90.1391 19.1019 90.1205 19.1045 90.1026L20.3506 81.8379L16.0658 77.8504C15.5097 77.3382 15.1705 76.6327 15.1176 75.8785C15.0647 75.1243 15.3023 74.3784 15.7815 73.7937C16.2607 73.2089 16.9454 72.8295 17.6953 72.7331C18.4451 72.6367 19.2035 72.8307 19.815 73.2754L25.2543 77.2347L24.0056 71.3802C23.8505 70.6438 23.9807 69.876 24.37 69.2319C24.7592 68.5878 25.3785 68.1155 26.1025 67.9104C26.1288 67.9027 26.1557 67.8963 26.1826 67.8912C26.8678 67.7133 27.594 67.7861 28.2303 68.0965C28.8665 68.4068 29.3709 68.9343 29.6525 69.5838L33.9572 79.6014C34.7017 79.649 35.4154 79.9166 36.0078 80.3702C36.6002 80.8237 37.0446 81.4429 37.2848 82.1493C39.1018 87.5675 38.1254 93.7685 34.7984 97.9457C34.6646 98.1133 34.4856 98.2391 34.2826 98.3083L26.7061 100.886C26.5896 100.926 26.4672 100.946 26.3441 100.946ZM21.3251 90.4088C20.851 95.2542 25.1217 97.9182 26.4248 98.6133L33.2409 96.2941C35.9471 92.7005 36.7005 87.4682 35.1584 82.8617C35.0398 82.5167 34.801 82.2258 34.4856 82.0423C34.1703 81.8588 33.7994 81.7949 33.4408 81.8623C33.1904 81.9093 32.9314 81.8697 32.7065 81.7498C32.4816 81.63 32.3043 81.4372 32.2037 81.203L27.5908 70.4699C27.5214 70.3107 27.3968 70.1819 27.2401 70.1072C27.0833 70.0324 26.9048 70.0168 26.7374 70.063L26.6766 70.079C26.5086 70.1351 26.367 70.2509 26.2787 70.4044C26.1904 70.5579 26.1614 70.7385 26.1974 70.9119L27.5857 77.4224C27.6688 77.8151 27.6309 78.2237 27.4771 78.5945C27.3233 78.9652 27.0608 79.2807 26.7242 79.4992C26.3875 79.7178 25.9926 79.8293 25.5913 79.8189C25.1901 79.8085 24.8014 79.6768 24.4765 79.4412L18.4939 75.0846C18.3865 75.0066 18.2595 74.9598 18.1271 74.9494C17.9947 74.9391 17.862 74.9656 17.7437 75.026C17.6255 75.0865 17.5262 75.1784 17.457 75.2918C17.3878 75.4052 17.3513 75.5355 17.3516 75.6683C17.3517 75.7679 17.3724 75.8665 17.4126 75.9577C17.4527 76.0489 17.5114 76.1308 17.5848 76.1981L22.3091 80.5957C22.4427 80.7197 22.5439 80.8745 22.604 81.0465C22.6641 81.2186 22.6812 81.4028 22.6538 81.5829L21.3251 90.4088Z" fill="#31241B"/>
<path d="M29.7154 90.9735C29.2029 88.8951 29.6404 86.5048 31.0749 84.6199L32.51 86.3228C31.8961 86.729 31.1762 86.9456 30.44 86.9456C29.7038 86.9456 28.984 86.729 28.37 86.3228C27.766 85.9151 27.2881 85.3467 26.9901 84.6817C26.6921 84.0167 26.586 83.2817 26.6837 82.5595C26.7085 82.3887 26.7726 82.2259 26.8708 82.0839C26.9691 81.942 27.0989 81.8247 27.2501 81.7414H27.2572C29.0589 80.7518 31.0044 80.0505 33.0232 79.6631C33.1679 79.6359 33.3166 79.6375 33.4606 79.6678C33.6047 79.698 33.7415 79.7564 33.863 79.8395C33.9845 79.9226 34.0885 80.0288 34.169 80.1521C34.2495 80.2754 34.3049 80.4134 34.3321 80.5581C34.3593 80.7028 34.3577 80.8514 34.3274 80.9955C34.2971 81.1396 34.2388 81.2763 34.1557 81.3979C34.0725 81.5194 33.9663 81.6234 33.843 81.7039C33.7197 81.7844 33.5818 81.8398 33.4371 81.867C31.6479 82.211 29.9237 82.8331 28.3271 83.7108L28.8998 82.8888C28.8607 83.1889 28.9073 83.4939 29.0344 83.7685C29.1563 84.0465 29.3539 84.2847 29.6046 84.4559C29.8517 84.619 30.1413 84.7059 30.4374 84.7059C30.7335 84.7059 31.0231 84.619 31.2703 84.4559L31.3581 84.3957C31.593 84.2378 31.8794 84.1756 32.1587 84.2217C32.438 84.2679 32.6891 84.4188 32.8608 84.6439C33.0325 84.8689 33.1119 85.151 33.0826 85.4326C33.0534 85.7141 32.9178 85.9739 32.7035 86.1588C31.3946 87.1942 30.4977 88.9778 30.5092 90.8716V90.8774C30.5102 90.9768 30.4746 91.073 30.4092 91.1479C30.3439 91.2227 30.2532 91.2709 30.1546 91.2832C30.056 91.2956 29.9563 91.2712 29.8745 91.2148C29.7927 91.1584 29.7344 91.0739 29.7109 90.9773L29.7154 90.9735Z" fill="#31241B"/>
<path d="M47.1707 112.637C46.6537 110.866 45.8253 109.161 45.1885 107.384C44.0475 104.187 42.9571 100.92 42.376 97.5813L23.9932 104.743C23.9932 104.743 25.8511 115.355 26.7122 117.764C27.7219 122.401 31.9766 125.883 37.0738 125.883C42.4349 125.883 46.9536 121.9 47.5885 116.776C47.7685 115.323 47.5577 113.963 47.1707 112.637Z" fill="#81AA71"/>
<g opacity="0.3">
<path opacity="0.3" d="M44.7527 122.04C39.6555 122.04 35.3989 118.558 34.3911 113.922C33.7383 112.098 32.5159 105.576 31.9604 102.513L26.2354 104.744C26.2354 104.744 28.0933 115.356 28.9544 117.765C29.9641 122.402 34.2188 125.884 39.3159 125.884C40.9857 125.884 42.6324 125.493 44.1241 124.743C45.6158 123.993 46.9112 122.904 47.9067 121.563C46.8852 121.879 45.822 122.04 44.7527 122.04Z" fill="#31241B"/>
</g>
<path d="M37.0741 127.005C31.5957 127.005 26.7958 123.252 25.6323 118.073C24.7392 115.484 22.9646 105.37 22.889 104.939C22.8442 104.684 22.8891 104.421 23.0162 104.195C23.1433 103.969 23.3446 103.794 23.586 103.7L41.9694 96.5363C42.1242 96.4762 42.2904 96.4512 42.456 96.4631C42.6216 96.4749 42.7826 96.5234 42.9272 96.605C43.0718 96.6865 43.1965 96.7992 43.2924 96.9348C43.3882 97.0704 43.4528 97.2255 43.4814 97.3891C44.0689 100.77 45.2157 104.128 46.2446 107.009C46.4887 107.693 46.7725 108.388 47.0468 109.059C47.476 110.112 47.92 111.2 48.2474 112.32C48.7375 113.998 48.8816 115.459 48.7016 116.912C47.9885 122.667 42.99 127.005 37.0741 127.005ZM25.2575 105.454C25.9424 109.292 27.1622 115.694 27.7683 117.386C27.7848 117.432 27.798 117.479 27.808 117.527C28.721 121.719 32.6182 124.762 37.0741 124.762C41.8605 124.762 45.9025 121.27 46.4759 116.639C46.6175 115.498 46.4964 114.326 46.0915 112.951C45.7968 111.942 45.3938 110.954 44.9671 109.908C44.684 109.213 44.3905 108.494 44.1298 107.763C43.2034 105.169 42.1834 102.195 41.528 99.1144L25.2575 105.454Z" fill="#31241B"/>
<path d="M26.9753 107.889C26.9273 107.848 26.9356 107.733 26.9856 107.569C27.0162 107.475 27.0519 107.383 27.0926 107.293C27.1252 107.183 27.163 107.059 27.2092 106.929C27.424 106.243 27.5285 105.526 27.5186 104.807C27.4936 103.092 27.0804 101.672 27.3264 101.575C27.4443 101.524 27.7038 101.832 27.9543 102.404C28.2739 103.164 28.4425 103.978 28.4508 104.802C28.4636 105.782 28.1702 106.684 27.7999 107.222C27.7044 107.356 27.6166 107.474 27.5333 107.571C27.4524 107.648 27.3668 107.72 27.2771 107.787C27.1259 107.897 27.0215 107.931 26.9753 107.889Z" fill="#31241B"/>
<path d="M36.9684 103.436C36.9684 103.5 36.8018 103.543 36.4802 103.569C36.2852 103.566 36.0908 103.549 35.8985 103.517C35.787 103.492 35.6704 103.452 35.5448 103.418C35.412 103.381 35.2832 103.332 35.1604 103.269C34.6287 103.034 34.0578 102.621 33.5453 102.063C32.9858 101.453 32.5286 100.757 32.1915 100.001C32.1446 99.8892 32.1432 99.7634 32.1877 99.6505C32.2322 99.5376 32.3191 99.4466 32.4297 99.3968C32.5404 99.3471 32.6662 99.3426 32.7802 99.3843C32.8941 99.4259 32.9873 99.5105 33.0398 99.6199L33.0436 99.6289L33.0488 99.6411C33.1 99.7634 33.1391 99.8679 33.1769 99.9819C33.7785 101.694 33.84 103.43 33.4191 104.595C33.3778 104.734 33.3237 104.869 33.2576 104.998C33.2058 105.117 33.1474 105.232 33.0827 105.344C32.9424 105.544 32.8361 105.72 32.7143 105.839C32.4689 106.077 32.3165 106.179 32.2659 106.137C32.1416 106.036 32.6022 105.481 32.7784 104.426C32.9911 103.39 32.8425 101.86 32.2953 100.295C32.2607 100.196 32.2217 100.091 32.1877 100.008L33.0449 99.6475C33.341 100.315 33.7214 100.941 34.177 101.512C34.5376 101.975 34.9702 102.378 35.4583 102.705C36.295 103.263 36.9774 103.278 36.9684 103.436Z" fill="#31241B"/>
<path d="M20.9463 99.716C27.517 95.8066 34.3124 93.0265 41.3325 91.3757C42.0821 91.2008 42.865 91.6166 43.0943 92.3508C43.2026 92.6987 43.2372 93.1478 43.127 93.7251C43.081 93.9728 43.0984 94.2282 43.1777 94.4674C43.257 94.7065 43.3956 94.9217 43.5806 95.0929C44.0387 95.5202 44.2373 96.3102 42.3761 97.5825C42.2864 97.6433 42.1904 97.6942 42.0898 97.7344L23.9933 104.994C23.8083 105.071 23.6093 105.11 23.4087 105.106C23.2081 105.103 23.0104 105.059 22.828 104.975C22.4397 104.79 22.0463 104.417 22.038 103.662C22.0316 103.078 21.7266 102.534 21.1994 102.284C20.7112 102.053 20.2294 101.655 20.2115 100.984C20.1967 100.462 20.4991 99.9819 20.9463 99.716Z" fill="white"/>
<g opacity="0.3">
<path opacity="0.3" d="M30.412 99.7504C30.0238 99.5652 29.6298 99.1911 29.6215 98.4364C29.615 97.8534 29.3107 97.3088 28.7835 97.0589C28.4477 96.9007 28.1191 96.6598 27.9378 96.3093C26.4506 97.0692 24.9742 97.8841 23.5088 98.7541C23.0603 99.02 22.7592 99.4999 22.774 100.019C22.7919 100.691 23.2737 101.089 23.7619 101.319C24.2891 101.569 24.5947 102.114 24.6005 102.697C24.6088 103.452 25.0022 103.826 25.3905 104.011C25.6281 104.12 25.8918 104.16 26.1509 104.125L42.0896 97.7336C42.1903 97.6936 42.2864 97.6427 42.376 97.5817C44.2339 96.3081 44.0385 95.5194 43.5804 95.0921C43.5465 95.0607 43.5163 95.028 43.4869 94.9934L31.5768 99.769C31.3919 99.8464 31.1929 99.8847 30.9925 99.8815C30.792 99.8783 30.5944 99.8337 30.412 99.7504Z" fill="#31241B"/>
</g>
<path d="M23.4194 106.225C23.0479 106.226 22.6809 106.144 22.345 105.985C21.4481 105.557 20.9279 104.714 20.9163 103.671C20.9163 103.543 20.8625 103.363 20.719 103.295C19.6939 102.81 19.1173 101.999 19.0898 101.013C19.0648 100.104 19.5562 99.238 20.3711 98.7523C27.0514 94.7802 34.0174 91.9286 41.0763 90.284C42.407 89.9713 43.7627 90.7324 44.1625 92.0138C44.3399 92.582 44.3611 93.2272 44.2265 93.9319C44.2163 93.9933 44.2215 94.0563 44.2417 94.1152C44.262 94.174 44.2966 94.2269 44.3425 94.2689C44.8153 94.7104 45.0511 95.285 45.0056 95.8885C44.9377 96.7855 44.3008 97.6184 43.008 98.5044C42.8512 98.6114 42.6832 98.701 42.507 98.7716L24.4086 106.029C24.0943 106.156 23.7586 106.223 23.4194 106.225ZM41.6786 92.4571C41.6484 92.4571 41.6183 92.4605 41.5889 92.4674C34.7548 94.0601 28.0066 96.8239 21.5218 100.679C21.4109 100.744 21.3296 100.859 21.3347 100.95C21.3385 101.078 21.5269 101.193 21.6819 101.27C22.5834 101.697 23.1497 102.609 23.1619 103.649C23.1619 103.891 23.2304 103.923 23.3144 103.963C23.4005 103.995 23.4956 103.991 23.579 103.953L41.6754 96.6958C41.7001 96.6862 41.7238 96.674 41.7458 96.6593C42.3538 96.2428 42.6088 95.9545 42.712 95.8097C42.4228 95.5103 42.2097 95.1458 42.0907 94.7469C41.9718 94.348 41.9504 93.9263 42.0284 93.5174C42.0925 93.1824 42.0925 92.8953 42.0284 92.6845C42.001 92.6144 41.9522 92.5547 41.889 92.5139C41.8257 92.473 41.7512 92.4532 41.676 92.4571H41.6786Z" fill="#31241B"/>
<path d="M20.4666 90.1349L20.2744 90.0708L18.6022 89.5404C17.6681 89.2431 17.0288 88.3481 17.1152 87.3691L17.121 87.305C17.2613 86.0006 18.5548 85.1389 19.8202 85.4926L20.4877 85.6803L21.7191 86.0231C22.0907 86.1274 22.4283 86.3275 22.6981 86.6035C23.0304 86.9342 23.2393 87.3688 23.29 87.8349L23.2952 87.8855C23.4374 89.425 21.9395 90.6007 20.4666 90.1349Z" fill="#FCE4D8"/>
<path d="M21.1272 91.3589C20.7883 91.3589 20.4515 91.3068 20.1284 91.2045L18.2641 90.6125C16.82 90.1532 15.8686 88.7488 15.9993 87.2734L16.005 87.2093C16.0544 86.738 16.206 86.2831 16.4494 85.8765C16.6928 85.4699 17.022 85.1214 17.4141 84.8552C17.8062 84.5891 18.2516 84.4118 18.7193 84.3357C19.1871 84.2596 19.6658 84.2866 20.122 84.4147L22.0197 84.9452C22.5834 85.1027 23.0955 85.4064 23.5041 85.8255C24.0095 86.3368 24.3271 87.004 24.4055 87.7186L24.4107 87.7641C24.4631 88.3029 24.3806 88.8462 24.1706 89.3451C23.9607 89.8441 23.6299 90.2829 23.2081 90.6222C22.6193 91.0988 21.8848 91.3589 21.1272 91.3589ZM20.8069 89.0666C20.9753 89.1205 21.1546 89.1311 21.3283 89.0975C21.5019 89.0639 21.6643 88.9872 21.8006 88.8744C21.933 88.7705 22.0371 88.6349 22.1034 88.4802C22.1697 88.3255 22.196 88.1565 22.1798 87.989L22.176 87.9582C22.1527 87.7438 22.056 87.544 21.9024 87.3925C21.7687 87.2536 21.6001 87.1532 21.4142 87.1017L19.5166 86.5718C19.3736 86.5324 19.2238 86.5245 19.0774 86.5486C18.9311 86.5727 18.7917 86.6283 18.669 86.7115C18.5488 86.7911 18.4477 86.8964 18.3729 87.0196C18.2982 87.1429 18.2516 87.2812 18.2365 87.4246V87.4669C18.1974 87.9064 18.4928 88.3286 18.9464 88.4721L20.8069 89.0666Z" fill="#31241B"/>
<path d="M24.7146 84.7864L24.7056 84.8364C24.6394 85.187 24.4881 85.516 24.2651 85.7944C24.042 86.0728 23.7539 86.2922 23.4262 86.4332C23.0984 86.5742 22.7411 86.6326 22.3855 86.6032C22.0299 86.5737 21.687 86.4574 21.3869 86.2645L20.4842 85.6834L19.7436 85.2041C18.9184 84.6737 18.5372 83.6415 18.8768 82.7209L18.8986 82.66C19.0937 82.1661 19.4664 81.763 19.9435 81.5298C20.4207 81.2967 20.9677 81.2503 21.4773 81.3998C21.6533 81.4492 21.822 81.5218 21.9789 81.6157L23.6709 82.6254C24.4224 83.072 24.8543 83.9247 24.7146 84.7864Z" fill="#FCE4D8"/>
<path d="M22.5526 87.7324C21.9244 87.7314 21.3099 87.5487 20.7831 87.2065L19.1365 86.1442C17.8661 85.328 17.3138 83.7238 17.8276 82.3322L17.8481 82.2752C18.1383 81.5121 18.7062 80.8868 19.438 80.5247C20.1698 80.1627 21.0114 80.0907 21.794 80.3231C22.0617 80.3984 22.3181 80.5091 22.5564 80.6524L24.2478 81.6627C25.3965 82.3463 26.0302 83.6725 25.8239 84.9622C25.8242 84.9652 25.8242 84.9682 25.8239 84.9711L25.8155 85.0218C25.6886 85.752 25.3171 86.4174 24.7622 86.9087C24.2072 87.3999 23.5017 87.6879 22.7614 87.7254C22.691 87.7299 22.6218 87.7324 22.5526 87.7324ZM20.8868 82.4386C20.6849 82.4365 20.4871 82.4953 20.3192 82.6075C20.1513 82.7196 20.0211 82.8798 19.9457 83.0671L19.9322 83.1049C19.7785 83.5213 19.9553 84.0057 20.3519 84.2581L21.9958 85.319C22.1821 85.4409 22.4029 85.4991 22.625 85.485C23.0331 85.4625 23.5072 85.1883 23.6039 84.6399L23.6097 84.604C23.6738 84.2132 23.4655 83.8051 23.0972 83.5867L21.4045 82.5763C21.3349 82.534 21.2599 82.5013 21.1815 82.4789C21.0857 82.4532 20.9867 82.4407 20.8875 82.4418L20.8868 82.4386Z" fill="#31241B"/>
<path d="M96.0442 119.385L96.4094 108.524L81.0762 102.181C81.0762 102.181 73.1767 107.834 73.2856 118.059C73.2747 118.297 73.2805 118.536 73.3029 118.774V118.81C73.6829 122.59 78.1861 125.897 83.9637 126.428C90.2423 127.004 95.6393 124.089 96.0231 119.915C96.0393 119.738 96.0464 119.562 96.0442 119.385Z" fill="#81AA71"/>
<path d="M85.5179 127.623C84.9746 127.623 84.4234 127.598 83.8643 127.547C77.5857 126.97 72.7 123.388 72.2041 119.012C72.1935 118.954 72.1875 118.896 72.1861 118.838C72.1635 118.573 72.1575 118.308 72.1682 118.043C72.0702 107.376 80.0856 101.517 80.4271 101.272C80.5819 101.162 80.7624 101.092 80.9514 101.07C81.1405 101.049 81.332 101.075 81.5079 101.148L96.8411 107.491C97.0522 107.578 97.2316 107.727 97.3554 107.919C97.4792 108.111 97.5414 108.336 97.5337 108.564L97.1691 119.4C97.1723 119.608 97.1648 119.815 97.1467 120.022C96.7386 124.416 91.676 127.623 85.5179 127.623ZM74.4208 118.686C74.4211 118.691 74.4211 118.696 74.4208 118.7C74.7469 121.942 78.9843 124.846 84.0687 125.314C89.6214 125.827 94.5879 123.307 94.9088 119.815C94.9208 119.676 94.9253 119.538 94.9223 119.399C94.9223 119.382 94.9223 119.365 94.9223 119.348L95.2612 109.264L81.2574 103.473C79.6269 104.854 74.3196 109.975 74.4054 118.05C74.4054 118.071 74.4054 118.092 74.4054 118.114C74.3971 118.3 74.4016 118.487 74.4189 118.672C74.4202 118.676 74.4202 118.681 74.4208 118.686Z" fill="#31241B"/>
<path d="M86.964 102.532L94.2728 105.793C94.2728 105.793 101.314 103.45 101.256 96.8406L100.738 87.9058L105.838 83.9656C106.214 83.6819 106.468 83.2646 106.545 82.7998C106.623 82.335 106.52 81.8581 106.256 81.4673C105.993 81.0766 105.59 80.8017 105.13 80.6994C104.67 80.5971 104.188 80.6751 103.784 80.9173L97.4307 84.705C97.2805 84.7943 97.1068 84.836 96.9324 84.8246C96.758 84.8132 96.5912 84.7493 96.4539 84.6412C96.3166 84.5332 96.2152 84.3861 96.1631 84.2193C96.111 84.0525 96.1107 83.8738 96.1622 83.7068L98.1412 77.3501C98.2804 76.903 98.2439 76.4196 98.0393 75.9984C97.8347 75.5772 97.4773 75.2498 97.0399 75.0827L97.0123 75.0744C96.596 74.9149 96.1359 74.912 95.7175 75.0663C95.2992 75.2205 94.9511 75.5214 94.738 75.913L89.1641 86.1779C88.5529 86.005 87.8998 86.0577 87.3243 86.3265C86.7487 86.5953 86.2891 87.0622 86.0293 87.6418C83.9343 92.3822 84.1303 98.2148 86.964 102.532Z" fill="#FCE4D8"/>
<path d="M95.946 76.7771L93.967 83.1332C93.9141 83.3004 93.9133 83.4798 93.9649 83.6474C94.0165 83.815 94.118 83.9628 94.2558 84.0713C94.3937 84.1797 94.5613 84.2436 94.7363 84.2543C94.9114 84.265 95.0855 84.2222 95.2355 84.1314L96.2068 83.5548L98.1378 77.3524C98.2769 76.9053 98.2405 76.422 98.0359 76.0008C97.8313 75.5796 97.4739 75.2521 97.0365 75.0851L97.0089 75.0768C96.566 74.9083 96.0751 74.9179 95.6392 75.1037C95.8214 75.3372 95.9445 75.6114 95.9979 75.9027C96.0514 76.1941 96.0336 76.4941 95.946 76.7771Z" fill="#FCE4D8"/>
<g opacity="0.6">
<path opacity="0.6" d="M106.357 81.6507C106.142 81.2382 105.779 80.9223 105.34 80.7665C104.902 80.6107 104.421 80.6266 103.994 80.8108C104.058 80.8944 104.116 80.9833 104.165 81.0767C104.365 81.4621 104.423 81.9059 104.328 82.3296C104.233 82.7533 103.991 83.1298 103.645 83.3927L98.5717 87.7832L99.0631 96.2676C99.1131 101.82 94.1537 104.361 92.5654 105.032L94.2735 105.794C94.2735 105.794 101.314 103.45 101.257 96.841L100.739 87.9062L105.839 83.9661C106.184 83.7033 106.426 83.3269 106.521 82.9033C106.617 82.4797 106.559 82.0361 106.359 81.6507H106.357Z" fill="white"/>
</g>
<g opacity="0.3">
<path opacity="0.3" d="M88.0454 88.6492C88.305 88.0693 88.7646 87.6023 89.3402 87.3335C89.9158 87.0647 90.569 87.012 91.1802 87.1852L96.7541 76.9197C96.8845 76.68 97.0669 76.4723 97.2878 76.3119C97.5086 76.1516 97.7625 76.0425 98.0309 75.9927C97.8262 75.5741 97.4701 75.2489 97.0347 75.0829L97.0071 75.0746C96.5908 74.9152 96.1308 74.9123 95.7125 75.0664C95.2942 75.2205 94.9461 75.5212 94.7327 75.9126L89.1589 86.1781C88.5477 86.0052 87.8946 86.0579 87.3191 86.3267C86.7435 86.5955 86.2839 87.0624 86.0241 87.642C83.9342 92.383 84.1303 98.2131 86.9639 102.533L95.5938 106.97C88.9097 100.662 85.978 93.3376 88.0454 88.6492Z" fill="#31241B"/>
</g>
<path d="M94.2737 106.916C94.1161 106.916 93.9602 106.882 93.8163 106.818L86.5075 103.557C86.3115 103.469 86.1447 103.328 86.027 103.148C83.0965 98.6837 82.6955 92.4198 84.9987 87.19C85.3034 86.5092 85.803 85.934 86.4344 85.5369C87.0657 85.1397 87.8005 84.9385 88.5461 84.9585L93.7496 75.3779C94.0907 74.7547 94.644 74.2743 95.3089 74.0241C95.9739 73.7738 96.7065 73.7702 97.3739 74.0139L97.438 74.0357C98.1401 74.3064 98.7134 74.8335 99.0421 75.5105C99.3708 76.1874 99.4303 76.9639 99.2088 77.6831L97.4309 83.3991L103.21 79.9549C103.861 79.5693 104.634 79.4469 105.372 79.6128C106.109 79.7787 106.755 80.2204 107.178 80.8474C107.601 81.4743 107.767 82.2391 107.644 82.9851C107.521 83.7311 107.118 84.4018 106.516 84.8599L101.893 88.4323L102.376 96.7764C102.376 96.795 102.376 96.8129 102.376 96.8315C102.44 104.172 94.9445 106.752 94.6241 106.858C94.5112 106.896 94.3928 106.915 94.2737 106.916ZM87.7286 101.646L94.3077 104.582C95.6832 104.013 100.163 101.786 100.135 96.8782L99.6182 87.9729C99.6077 87.7909 99.6418 87.6091 99.7174 87.4433C99.7929 87.2774 99.9077 87.1324 100.052 87.0209L105.152 83.0814C105.289 82.979 105.386 82.831 105.425 82.6639C105.463 82.4968 105.441 82.3214 105.362 82.1691C105.317 82.0824 105.254 82.0059 105.178 81.9441C105.102 81.8824 105.015 81.8368 104.921 81.81C104.826 81.7832 104.728 81.7758 104.631 81.7883C104.534 81.8008 104.44 81.8329 104.356 81.8827L98.0018 85.6703C97.6423 85.8871 97.223 85.9834 96.805 85.9452C96.5111 85.9172 96.2271 85.8243 95.9735 85.6731C95.7199 85.5219 95.5031 85.3162 95.3387 85.071C95.1743 84.8257 95.0665 84.547 95.023 84.255C94.9796 83.963 95.0015 83.665 95.0873 83.3825L97.0677 77.0219C97.1202 76.8511 97.1076 76.6669 97.0323 76.5049C96.9571 76.3428 96.8245 76.2143 96.6602 76.1442L96.6077 76.1262C96.4451 76.0645 96.2656 76.0636 96.1024 76.1238C95.9392 76.1839 95.8033 76.3011 95.7197 76.4536L90.1459 86.7185C90.0241 86.9422 89.8298 87.1179 89.595 87.2166C89.3601 87.3154 89.0987 87.3313 88.8536 87.2618C88.5028 87.1611 88.1275 87.1903 87.7965 87.3442C87.4656 87.498 87.2012 87.766 87.052 88.0991C85.0903 92.5403 85.3632 97.8181 87.7286 101.646Z" fill="#31241B"/>
<path d="M89.4662 85.1002C91.4419 85.6708 93.3159 86.5474 95.0202 87.6981C95.1639 87.7953 95.2833 87.9243 95.3691 88.0751C95.4549 88.2258 95.5047 88.3944 95.5148 88.5675C95.5454 89.2943 95.3725 90.0152 95.0156 90.649C94.6587 91.2828 94.132 91.8045 93.4948 92.1553C92.847 92.5041 92.111 92.6547 91.3783 92.5884C90.6456 92.5221 89.9486 92.2418 89.374 91.7824L89.3682 91.7779L90.9532 90.2134C92.1583 92.2636 92.2884 94.6751 91.5337 96.6233C91.5156 96.6694 91.4817 96.7076 91.438 96.7308C91.3943 96.7541 91.3437 96.761 91.2954 96.7502C91.247 96.7395 91.2041 96.7118 91.1744 96.6722C91.1447 96.6326 91.1301 96.5837 91.1333 96.5343C91.2672 94.5751 90.4471 92.7056 89.1863 91.5953C88.9751 91.411 88.8424 91.1528 88.8155 90.8738C88.7886 90.5948 88.8695 90.316 89.0416 90.0947C89.2138 89.8734 89.464 89.7264 89.7411 89.6838C90.0182 89.6412 90.301 89.7062 90.5317 89.8655L90.7694 90.0295C91.0008 90.214 91.2812 90.3265 91.5759 90.3531C91.8706 90.3798 92.1667 90.3194 92.4274 90.1795C92.6921 90.0317 92.9103 89.8129 93.0572 89.5478C93.2082 89.2859 93.2824 88.9868 93.2712 88.6848L93.7664 89.5554C92.2572 88.5343 90.5971 87.756 88.8467 87.249C88.5607 87.1676 88.3187 86.9759 88.1739 86.7161C88.0292 86.4563 87.9936 86.1496 88.075 85.8636C88.1564 85.5775 88.3481 85.3355 88.6079 85.1908C88.8678 85.0461 89.1744 85.0105 89.4605 85.0919L89.4662 85.1002Z" fill="#31241B"/>
<path d="M92.9053 113.767C92.8534 113.805 92.7547 113.761 92.6157 113.639C92.5323 113.564 92.4534 113.485 92.3793 113.401C92.3056 113.297 92.2287 113.171 92.1461 113.029C91.8258 112.459 91.6175 111.534 91.7194 110.56C91.803 109.74 92.0456 108.945 92.4338 108.218C92.7355 107.67 93.0219 107.385 93.1346 107.449C93.3704 107.568 92.8291 108.944 92.6465 110.652C92.5708 111.368 92.6091 112.091 92.7599 112.794C92.7945 112.928 92.8239 113.053 92.8431 113.167C92.8756 113.26 92.9027 113.355 92.9245 113.451C92.9597 113.615 92.9572 113.73 92.9053 113.767Z" fill="#31241B"/>
<path d="M83.3624 108.417C83.3682 108.259 84.0486 108.309 84.9276 107.826C85.4438 107.545 85.9116 107.184 86.3134 106.755C86.8188 106.229 87.2549 105.64 87.6114 105.003L88.4321 105.44C88.3904 105.52 88.3417 105.62 88.2982 105.715C87.6101 107.224 87.3218 108.734 87.4384 109.786C87.5191 110.853 87.9272 111.447 87.794 111.536C87.7421 111.574 87.6018 111.458 87.3769 111.199C87.2667 111.071 87.177 110.884 87.0565 110.671C87.0021 110.554 86.9546 110.434 86.9143 110.311C86.8595 110.177 86.8179 110.037 86.79 109.894C86.4774 108.697 86.6978 106.974 87.4538 105.324C87.5044 105.215 87.5524 105.114 87.6146 104.996L87.6203 104.987C87.6797 104.881 87.7783 104.803 87.8949 104.768C88.0116 104.734 88.137 104.747 88.2444 104.804C88.3518 104.861 88.4326 104.958 88.4694 105.074C88.5063 105.189 88.4963 105.315 88.4417 105.424C88.4395 105.427 88.4376 105.431 88.4359 105.435C88.0306 106.156 87.5114 106.807 86.8983 107.363C86.3364 107.876 85.7304 108.231 85.1794 108.416C85.0508 108.467 84.9176 108.505 84.7815 108.529C84.6534 108.554 84.5336 108.58 84.4202 108.593C84.2259 108.608 84.0308 108.608 83.8365 108.593C83.5181 108.539 83.3573 108.478 83.3624 108.417Z" fill="#31241B"/>
<path d="M99.6586 106.18C93.4752 101.685 86.963 98.294 80.1219 96.0068C79.3916 95.7646 78.5734 96.1067 78.2781 96.8166C78.1391 97.1529 78.0628 97.5969 78.1198 98.1819C78.1431 98.4328 78.1024 98.6856 78.0015 98.9166C77.9007 99.1476 77.7431 99.3493 77.5432 99.5029C77.0474 99.8873 76.7776 100.656 78.5139 102.093C78.5978 102.161 78.6889 102.221 78.7855 102.27L96.1413 111.154C96.3184 111.248 96.513 111.304 96.7128 111.32C96.9127 111.335 97.1136 111.309 97.3028 111.243C97.7065 111.093 98.1325 110.758 98.21 110.007C98.2702 109.426 98.6232 108.912 99.171 108.712C99.6784 108.526 100.196 108.174 100.274 107.507C100.336 106.991 100.079 106.486 99.6586 106.18Z" fill="white"/>
<g opacity="0.3">
<path opacity="0.3" d="M78.1758 120.113V120.077C78.1534 119.839 78.1476 119.601 78.1585 119.363C78.0733 111.339 82.9168 106.133 85.0073 104.262L83.6561 103.574C83.5594 103.525 83.4683 103.465 83.3845 103.396C81.6483 101.957 81.918 101.191 82.4139 100.807C82.6137 100.653 82.7714 100.451 82.8722 100.22C82.973 99.9895 83.0137 99.7367 82.9905 99.4857C82.9335 98.9008 83.0097 98.4606 83.1487 98.1211C83.2338 97.9217 83.3629 97.7442 83.5261 97.6016C83.6894 97.4591 83.8828 97.3552 84.0918 97.2978C82.7814 96.7678 81.4574 96.2806 80.1196 95.8364C79.3893 95.5936 78.5711 95.9357 78.2758 96.6463C78.1368 96.9826 78.0605 97.4266 78.1175 98.0109C78.1409 98.2619 78.1003 98.5147 77.9994 98.7457C77.8986 98.9767 77.7408 99.1784 77.5409 99.332C77.0451 99.7164 76.7753 100.485 78.5115 101.922C78.5954 101.99 78.6865 102.05 78.7832 102.099L80.1325 102.79C78.0419 104.661 73.1985 109.867 73.2837 117.891C73.2729 118.129 73.2784 118.367 73.3003 118.605V118.641C73.663 122.248 77.785 125.424 83.1827 126.167C80.3356 124.739 78.418 122.524 78.1758 120.113Z" fill="#31241B"/>
</g>
<path d="M96.8351 112.445C96.4161 112.444 96.0033 112.344 95.6306 112.152L78.2748 103.267C78.1044 103.181 77.9443 103.076 77.7975 102.954C76.5905 101.954 76.0344 101.068 76.0491 100.168C76.0594 99.563 76.3464 99.0146 76.857 98.6161C76.9069 98.5784 76.9466 98.5289 76.9723 98.4719C76.9981 98.4149 77.0091 98.3523 77.0043 98.29C76.9352 97.5756 77.0159 96.935 77.2433 96.3866C77.7591 95.1456 79.1794 94.5119 80.4762 94.9431C87.3544 97.2278 94.0296 100.703 100.318 105.273C101.087 105.831 101.497 106.739 101.388 107.644C101.27 108.625 100.62 109.379 99.5566 109.768C99.408 109.822 99.3395 109.994 99.326 110.124C99.219 111.161 98.6213 111.953 97.6916 112.298C97.417 112.397 97.127 112.447 96.8351 112.445ZM78.3446 100.295C78.4343 100.451 78.665 100.759 79.2294 101.229C79.2491 101.245 79.2706 101.26 79.2935 101.272L96.6493 110.156C96.7295 110.201 96.8241 110.214 96.9132 110.19C96.9984 110.158 97.0676 110.133 97.0926 109.891C97.199 108.857 97.8473 108.001 98.7834 107.659C99.0198 107.572 99.146 107.477 99.1588 107.373C99.1697 107.284 99.1011 107.163 98.9967 107.087C92.8949 102.653 86.4248 99.283 79.7657 97.0708C79.5843 97.0112 79.3761 97.0913 79.3108 97.247C79.2275 97.4488 79.1999 97.7352 79.2332 98.0741C79.274 98.4883 79.2145 98.9063 79.0598 99.2928C78.9052 99.6792 78.6599 100.023 78.3446 100.295Z" fill="#31241B"/>
<path d="M101.013 96.6841L101.211 96.6406L102.925 96.2651C103.882 96.055 104.601 95.2221 104.604 94.2393V94.1753C104.584 92.8638 103.375 91.8874 102.083 92.1251L101.401 92.2533L100.143 92.4813C99.7648 92.5519 99.4114 92.7205 99.1183 92.9702C98.7562 93.2686 98.5074 93.6822 98.4136 94.142L98.4033 94.1919C98.1201 95.7039 99.504 97.0128 101.013 96.6841Z" fill="#FCE4D8"/>
<g opacity="0.6">
<path opacity="0.6" d="M102.083 92.1231L101.401 92.2512L100.144 92.4793C99.7949 92.5449 99.4672 92.6939 99.1885 92.9137L99.6799 92.8227C100.972 92.5869 102.178 93.5627 102.201 94.8728V94.9369C102.197 95.2713 102.111 95.5996 101.952 95.8936C101.792 96.1875 101.564 96.4384 101.286 96.6244L102.925 96.2657C103.882 96.0555 104.601 95.2226 104.604 94.2398V94.1758C104.584 92.863 103.375 91.8867 102.083 92.1231Z" fill="white"/>
</g>
<path d="M100.546 97.8558C99.6846 97.8554 98.8572 97.5192 98.2397 96.9185C97.8527 96.5447 97.5644 96.0808 97.4006 95.5683C97.2368 95.0557 97.2026 94.5106 97.3011 93.9816L97.3146 93.9176C97.4596 93.2097 97.8407 92.572 98.3954 92.109C98.8369 91.7342 99.3691 91.4822 99.9387 91.378L101.879 91.0237C102.346 90.9381 102.827 90.9554 103.286 91.0744C103.746 91.1933 104.174 91.411 104.541 91.7124C104.905 92.0098 105.199 92.383 105.404 92.8059C105.609 93.2288 105.718 93.6913 105.726 94.161V94.2475C105.721 95.7275 104.645 97.0383 103.166 97.3638L101.255 97.7821H101.252C101.02 97.8316 100.783 97.8563 100.546 97.8558ZM102.469 93.209C102.408 93.2091 102.346 93.2147 102.286 93.2256L100.344 93.5799C100.161 93.6139 99.9891 93.6951 99.8465 93.8157C99.6763 93.9524 99.5586 94.1436 99.5133 94.3571L99.5025 94.4103C99.4743 94.5729 99.487 94.74 99.5393 94.8965C99.5917 95.0531 99.682 95.1942 99.8023 95.3072C99.9279 95.4315 100.083 95.5222 100.253 95.571C100.422 95.6199 100.602 95.6252 100.774 95.5865L102.686 95.1682C103.147 95.0669 103.482 94.6736 103.484 94.2341V94.17C103.479 94.0296 103.444 93.8918 103.381 93.7663C103.318 93.6407 103.228 93.5304 103.118 93.4428C102.936 93.2922 102.706 93.2096 102.469 93.209Z" fill="#31241B"/>
<path d="M97.271 90.967L97.2749 91.0182C97.3087 91.3734 97.4292 91.7148 97.6259 92.0125C97.8225 92.3102 98.0893 92.555 98.4027 92.7255C98.7162 92.8959 99.0667 92.9868 99.4234 92.99C99.7802 92.9933 100.132 92.9089 100.449 92.7442L101.401 92.2483L102.182 91.839C103.052 91.3866 103.528 90.3936 103.272 89.446L103.255 89.382C103.106 88.8724 102.772 88.4369 102.318 88.161C101.864 87.8852 101.324 87.7889 100.803 87.8911C100.623 87.9242 100.448 87.9811 100.283 88.0603L98.5082 88.9124C97.7214 89.2872 97.2134 90.097 97.271 90.967Z" fill="#FCE4D8"/>
<g opacity="0.6">
<path opacity="0.6" d="M103.274 89.4458L103.257 89.3817C103.108 88.8721 102.774 88.4366 102.32 88.1608C101.867 87.8849 101.326 87.7887 100.805 87.8909C100.625 87.924 100.45 87.9808 100.285 88.06L99.1908 88.5841C99.5805 88.6524 99.9432 88.8287 100.238 89.093C100.532 89.3572 100.747 89.6987 100.857 90.0788L100.873 90.1428C101.129 91.0904 100.652 92.0834 99.7835 92.5358L99.0146 92.94C99.0505 92.9471 99.0851 92.9592 99.1216 92.965C99.5783 93.0362 100.046 92.9587 100.455 92.744L101.408 92.2481L102.189 91.8387C103.053 91.387 103.528 90.394 103.274 89.4458Z" fill="white"/>
</g>
<path d="M99.452 94.1133C99.2804 94.1132 99.1091 94.0999 98.9395 94.0735C98.2086 93.9679 97.5352 93.6173 97.0295 93.0791C96.5238 92.541 96.2158 91.8471 96.1558 91.1111L96.1513 91.047V91.0393C96.0648 89.7362 96.8169 88.4766 98.024 87.9L99.7999 87.0505C100.056 86.9269 100.329 86.8387 100.609 86.7885C101.403 86.6325 102.227 86.7809 102.917 87.2041C103.607 87.6274 104.112 88.2945 104.333 89.0731L104.356 89.1589C104.741 90.5889 104.042 92.1355 102.698 92.8338L100.968 93.7398C100.5 93.9846 99.9802 94.1127 99.452 94.1133ZM98.3917 90.89L98.3949 90.9368C98.4398 91.482 98.8869 91.7979 99.2822 91.8568C99.505 91.8927 99.7334 91.8554 99.9332 91.7505L101.663 90.8465C102.085 90.6274 102.304 90.161 102.192 89.7362L102.174 89.6721C102.039 89.2038 101.528 88.8956 101.021 88.9949C100.934 89.0101 100.85 89.037 100.771 89.075L98.9946 89.9258C98.6063 90.1078 98.3648 90.496 98.3917 90.89Z" fill="#31241B"/>
<path d="M28.8271 40.6566C27.6566 40.5936 26.4932 40.4342 25.3489 40.18C24.2287 39.9437 23.1289 39.6196 22.0597 39.2106C22.0206 39.1948 21.9884 39.1655 21.969 39.128C21.9496 39.0905 21.9443 39.0473 21.9539 39.0062C21.9636 38.9651 21.9877 38.9288 22.0217 38.9039C22.0558 38.879 22.0977 38.8671 22.1398 38.8704C23.2389 38.9633 24.3437 38.9691 25.4437 38.8877C26.5178 38.8205 27.5845 38.6649 28.633 38.4226C28.7907 38.3849 28.9547 38.3816 29.1138 38.4127C29.273 38.4438 29.4236 38.5086 29.5555 38.6029C29.6875 38.6972 29.7977 38.8187 29.8787 38.9591C29.9597 39.0996 30.0096 39.2558 30.0251 39.4172C30.0406 39.5787 30.0213 39.7415 29.9685 39.8948C29.9157 40.0482 29.8306 40.1884 29.719 40.306C29.6074 40.4237 29.4719 40.516 29.3216 40.5768C29.1712 40.6376 29.0096 40.6655 28.8476 40.6585L28.8271 40.6566Z" fill="#31241B"/>
<path d="M19.4932 52.7206C20.4423 52.1885 21.3291 51.5522 22.1372 50.8235C22.9429 50.1126 23.6729 49.3201 24.3155 48.4588L24.5577 48.143L24.7787 47.8111C24.9222 47.5881 25.076 47.3742 25.2099 47.1467C25.4661 46.6842 25.7397 46.2376 25.9428 45.7539C26.406 44.8172 26.6988 43.8146 26.9583 42.8235L26.9724 42.7677C27.0547 42.4864 27.2434 42.2483 27.4985 42.1039C27.7536 41.9595 28.055 41.9202 28.3385 41.9945C28.6221 42.0687 28.8656 42.2506 29.0172 42.5014C29.1688 42.7523 29.2167 43.0524 29.1506 43.3379C29.1364 43.391 29.1186 43.443 29.0975 43.4936C28.6323 44.5828 28.1281 45.652 27.4599 46.615C27.153 47.1121 26.7789 47.5612 26.4252 48.018C26.242 48.2423 26.0408 48.4511 25.8486 48.6664L25.5578 48.9867L25.2477 49.2872C24.4366 50.0884 23.5449 50.8038 22.587 51.4219C21.6468 52.0429 20.6403 52.5569 19.586 52.9544C19.5576 52.9604 19.5279 52.9565 19.502 52.9434C19.476 52.9302 19.4553 52.9087 19.4432 52.8822C19.4311 52.8557 19.4284 52.826 19.4355 52.7977C19.4426 52.7695 19.4591 52.7446 19.4823 52.727L19.4932 52.7206Z" fill="#31241B"/>
<path d="M107.165 56.3558C105.845 56.8589 104.481 57.2385 103.091 57.4898C101.661 57.732 100.209 57.8226 98.759 57.7602H98.7404C98.3997 57.7445 98.079 57.5949 97.8481 57.3439C97.6173 57.0928 97.4949 56.7608 97.5078 56.42C97.5206 56.0792 97.6676 55.7572 97.9167 55.5243C98.1658 55.2914 98.4969 55.1663 98.8378 55.1763C98.9476 55.181 99.0565 55.1991 99.162 55.2302C100.416 55.6164 101.708 55.8683 103.016 55.9817C104.339 56.0931 105.696 56.0509 107.058 55.9112C107.116 55.9013 107.176 55.9139 107.225 55.9464C107.274 55.9789 107.308 56.029 107.322 56.0862C107.335 56.1435 107.326 56.2037 107.296 56.2545C107.267 56.3053 107.219 56.3429 107.163 56.3597L107.165 56.3558Z" fill="#31241B"/>
<path d="M64.2009 29.3214C64.6814 30.4227 65.2356 31.4997 65.8122 32.5459C66.1197 33.0623 66.3977 33.5896 66.7245 34.0912C67.0512 34.5928 67.3395 35.1118 67.6887 35.5961C68.3364 36.5937 69.052 37.5425 69.7689 38.4824L70.8812 39.863C71.2803 40.2993 71.6673 40.7452 72.0574 41.1866C73.6706 42.9049 75.3588 44.5521 77.2206 45.9917C78.1175 46.7566 79.0997 47.4063 80.0485 48.1059C80.5111 48.4736 81.0364 48.7466 81.5221 49.0797C82.0205 49.3962 82.5138 49.7204 83.0072 50.0523L83.077 50.0984C83.314 50.2578 83.4809 50.502 83.5432 50.7807C83.6055 51.0595 83.5585 51.3515 83.4118 51.5966C83.2652 51.8417 83.0301 52.0213 82.7551 52.0982C82.48 52.1751 82.1859 52.1436 81.9334 52.0102C81.3843 51.7174 80.8346 51.4214 80.2901 51.1132L79.4732 50.6545C79.338 50.575 79.199 50.5033 79.0676 50.4187L78.6781 50.158C77.6492 49.4481 76.5831 48.785 75.6369 47.9605C75.1557 47.56 74.6547 47.1827 74.1902 46.763L72.8307 45.4657C72.3669 45.0448 71.9536 44.5726 71.5353 44.1075C71.1169 43.6423 70.6825 43.1913 70.3071 42.6897C69.9195 42.1989 69.5261 41.7133 69.1494 41.2161L68.0923 39.6702C67.7335 39.1576 67.442 38.6041 67.1198 38.0723C66.7975 37.5406 66.5207 36.9832 66.2363 36.4284C65.1337 34.2014 64.2444 31.8642 63.8491 29.406C63.8419 29.3626 63.8508 29.3181 63.8741 29.2808C63.8974 29.2436 63.9336 29.2161 63.9757 29.2037C64.0179 29.1912 64.0631 29.1946 64.103 29.2132C64.1428 29.2319 64.1744 29.2644 64.1919 29.3047L64.2009 29.3214Z" fill="#31241B"/>
<path d="M37.6474 62.8418C37.5176 62.0238 37.6202 61.1858 37.9434 60.4233C38.2752 59.6346 38.7786 58.9299 39.417 58.3603C40.0567 57.7792 40.7962 57.3184 41.5997 57.0002C42.4084 56.6718 43.2641 56.4742 44.1349 56.4146C45.8775 56.2922 47.7259 56.692 49.3045 57.7504C50.123 58.2931 50.7855 59.0403 51.2265 59.9178C51.6698 60.8109 51.8531 61.8789 51.6154 62.8418C51.5538 63.0866 51.4176 63.3061 51.2258 63.4701C51.0339 63.634 50.7959 63.7343 50.5445 63.757C50.2932 63.7798 50.041 63.7238 49.8228 63.5969C49.6047 63.47 49.4314 63.2785 49.3269 63.0488L49.2353 62.8418C49.0296 62.3584 48.7718 61.8989 48.4665 61.4714C48.1572 61.0477 47.8003 60.6608 47.403 60.3182C46.5643 59.5859 45.3893 59.1195 44.1394 58.9824C43.5061 58.9275 42.8683 58.9558 42.2423 59.0663C41.6062 59.1841 40.9924 59.4003 40.4228 59.707C39.2895 60.3317 38.3214 61.3933 38.0524 62.8393C38.044 62.8857 38.0196 62.9276 37.9834 62.9579C37.9472 62.9881 37.9015 63.0047 37.8544 63.0047C37.8072 63.0047 37.7616 62.9881 37.7254 62.9579C37.6892 62.9276 37.6648 62.8857 37.6564 62.8393L37.6474 62.8418Z" fill="#31241B"/>
<path d="M38.745 48.7604C38.6898 48.2667 38.7418 47.7669 38.8975 47.2952C39.0588 46.8185 39.2968 46.3714 39.6022 45.9715C40.2128 45.1745 41.0079 44.548 41.8606 44.0591C42.7145 43.5709 43.6286 43.1963 44.5796 42.945C45.5257 42.6827 46.4972 42.5227 47.4774 42.4677C48.4384 42.4094 49.4237 42.4036 50.4296 42.5407C51.4354 42.6778 52.465 42.9296 53.4561 43.4018C54.4344 43.8688 55.2865 44.5635 55.941 45.4276C56.5955 46.2917 57.0335 47.3001 57.2181 48.3683C57.2579 48.6118 57.2143 48.8615 57.0944 49.0772C56.9745 49.2928 56.7854 49.4616 56.5576 49.5564C56.3298 49.6511 56.0767 49.6662 55.8393 49.5992C55.6018 49.5321 55.394 49.3869 55.2494 49.1871L55.2244 49.1518C54.7246 48.458 54.273 47.8237 53.7733 47.2939C53.2895 46.7673 52.7316 46.3141 52.1171 45.9485C50.871 45.1874 49.1982 44.8837 47.4908 44.7722C45.8161 44.6825 44.0953 44.8465 42.5058 45.4212C41.719 45.7133 40.9624 46.1022 40.3345 46.6442C39.7067 47.1862 39.2223 47.8974 39.1006 48.7636V48.7693C39.0947 48.8129 39.0731 48.8527 39.0398 48.8813C39.0065 48.9099 38.9638 48.9253 38.9199 48.9246C38.876 48.9239 38.8339 48.9071 38.8016 48.8774C38.7692 48.8478 38.7489 48.8073 38.7444 48.7636L38.745 48.7604Z" fill="#31241B"/>
<path d="M74.4619 67.631C74.5507 66.8076 74.8688 66.0256 75.38 65.374C75.9066 64.6997 76.5768 64.151 77.3417 63.7678C78.111 63.3743 78.9452 63.1231 79.8038 63.0265C80.6701 62.9206 81.5478 62.9535 82.4037 63.1239C84.1181 63.4616 85.7992 64.3316 87.0447 65.7654C87.6928 66.5032 88.1371 67.3974 88.3337 68.3595C88.5259 69.3372 88.4254 70.416 87.9442 71.2835C87.8208 71.5036 87.632 71.6799 87.404 71.7879C87.1759 71.896 86.92 71.9305 86.6715 71.8868C86.423 71.843 86.1942 71.7231 86.0168 71.5437C85.8394 71.3642 85.7222 71.134 85.6814 70.885L85.6468 70.6614C85.5743 70.1407 85.4454 69.6294 85.2624 69.1366C85.0742 68.6471 84.8306 68.1806 84.5365 67.7464C83.9182 66.8206 82.9066 66.0633 81.7361 65.6033C81.1392 65.3849 80.5163 65.2453 79.8833 65.1882C79.239 65.1367 78.5907 65.1853 77.9613 65.3323C76.7043 65.6386 75.4928 66.4099 74.8508 67.7348C74.8317 67.7797 74.797 67.8162 74.7531 67.8373C74.7092 67.8585 74.659 67.863 74.612 67.85C74.565 67.837 74.5243 67.8074 74.4975 67.7666C74.4708 67.7259 74.4597 67.6768 74.4664 67.6285L74.4619 67.631Z" fill="#31241B"/>
<path d="M68.4645 77.6736C68.2525 78.4597 67.7784 79.1613 67.2127 79.7142C66.6441 80.2563 65.9872 80.6975 65.2701 81.0186C63.8568 81.6592 62.3064 81.8739 60.7957 81.7413C59.2863 81.5933 57.7679 81.1057 56.5134 80.121C55.8926 79.6302 55.3359 79.0139 54.9713 78.2701C54.6068 77.5263 54.4588 76.6543 54.6651 75.8868C54.6922 75.7858 54.7506 75.6961 54.8318 75.6303C54.9131 75.5645 55.0131 75.5262 55.1175 75.5207C55.2218 75.5152 55.3253 75.5429 55.413 75.5998C55.5006 75.6567 55.5681 75.7399 55.6056 75.8375L55.6242 75.8868C55.8147 76.3918 56.1283 76.8413 56.5365 77.1944C56.9313 77.5368 57.3757 77.8176 57.8544 78.0273C58.8218 78.4719 59.9257 78.684 61.0283 78.7602C62.1355 78.8302 63.247 78.7299 64.3239 78.4629C65.3861 78.1868 66.3772 77.7582 67.1832 77.0092L67.253 76.9452C67.3702 76.8364 67.5195 76.7687 67.6786 76.7523C67.8376 76.736 67.9976 76.7718 68.1345 76.8545C68.2713 76.9371 68.3776 77.062 68.4371 77.2104C68.4967 77.3588 68.5063 77.5225 68.4645 77.6768V77.6736Z" fill="#31241B"/>
<g opacity="0.3">
<path opacity="0.3" d="M73.7479 173.46L72.5107 173.729L72.8471 174.361L73.7479 173.46Z" fill="#31241B"/>
</g>
<g opacity="0.3">
<path opacity="0.3" d="M103.958 191.658C102.94 188.85 101.091 184.998 98.5523 184.763L94.2983 168.99L76.3435 172.895L78.211 174.763L86.8601 189.178L86.8133 189.201C87.0408 189.677 87.2157 190.177 87.3348 190.691L86.6794 196.631C86.6794 196.631 89.221 198.721 88.6879 200.236C88.2676 201.43 80.347 200.845 76.9995 200.543C76.7282 200.896 76.479 201.266 76.2531 201.65L76.2281 201.695C75.1736 203.521 76.3563 205.833 78.4557 206.049C82.8962 206.509 90.3722 206.98 94.6724 205.606C101.079 203.556 104.864 194.581 104.864 194.581C104.864 194.581 104.553 193.296 103.958 191.658Z" fill="#31241B"/>
</g>
<g opacity="0.1">
<path opacity="0.1" d="M99.6353 42.4515C101.439 39.8273 98.1157 34.4093 92.2114 30.3499C86.3072 26.2905 80.0582 25.1269 78.2541 27.7511C76.4499 30.3752 79.7737 35.7932 85.6779 39.8526C91.5822 43.912 97.8311 45.0756 99.6353 42.4515Z" fill="#725440"/>
</g>
</svg>
