<svg width="40" height="40" viewBox="0 0 40 40" fill="none" xmlns="http://www.w3.org/2000/svg">
<path fill-rule="evenodd" clip-rule="evenodd" d="M5 20C5 33.125 6.875 35 20 35C33.125 35 35 33.125 35 20C35 6.875 33.125 5 20 5C6.875 5 5 6.875 5 20ZM23.6125 14.3975C24.1425 13.9562 24.215 13.1675 23.7725 12.6375C23.3312 12.1075 22.5425 12.035 22.0125 12.4775L22.0113 12.4787C21.6863 12.7487 21.3563 13.02 21.0237 13.2938C19.0475 14.9175 16.98 16.6162 15.5112 18.6837C15.2375 19.0725 15 19.5125 15 20C15 20.4875 15.2375 20.9275 15.5112 21.3162C17.0013 23.415 18.9987 25.0512 20.9787 26.6725C21.325 26.955 21.67 27.2375 22.0112 27.5225C22.5425 27.965 23.3312 27.8925 23.7725 27.3625C24.215 26.8325 24.1425 26.0438 23.6125 25.6025C23.295 25.3375 22.9737 25.0737 22.6525 24.81C20.86 23.3375 19.055 21.8537 17.645 20C19.03 18.1787 20.875 16.6587 22.6562 15.19C22.9775 14.925 23.2975 14.6612 23.6125 14.3975Z" fill="#807D79"/>
</svg>
