<svg width="40" height="40" viewBox="0 0 40 40" fill="none" xmlns="http://www.w3.org/2000/svg">
<path fill-rule="evenodd" clip-rule="evenodd" d="M24.71 29.8625C25.1525 29.3325 25.08 28.5437 24.55 28.1025C22.4937 26.3812 17.7188 22.15 16.0825 20C17.7463 17.8137 22.4575 13.6437 24.55 11.8975C25.08 11.4562 25.1525 10.6675 24.71 10.1375C24.2687 9.60624 23.48 9.53499 22.9487 9.97749C20.65 11.8925 15.7 16.2187 13.9488 18.6825C13.675 19.0725 13.4375 19.5125 13.4375 20C13.4375 20.4875 13.675 20.9275 13.9488 21.3162C15.665 23.7312 20.6975 28.1437 22.9487 30.0212L22.95 30.0225C23.48 30.465 24.2687 30.3925 24.71 29.8625Z" fill="#807D79"/>
</svg>
