<svg width="40" height="40" viewBox="0 0 40 40" fill="none" xmlns="http://www.w3.org/2000/svg">
<path fill-rule="evenodd" clip-rule="evenodd" d="M13.7274 29.8625C13.2849 29.3325 13.3574 28.5437 13.8874 28.1025C15.9436 26.3812 20.7186 22.15 22.3549 20C20.6911 17.8137 15.9799 13.6437 13.8874 11.8975C13.3574 11.4562 13.2849 10.6675 13.7274 10.1375C14.1686 9.60624 14.9574 9.53499 15.4886 9.97749C17.7874 11.8925 22.7374 16.2187 24.4886 18.6825C24.7624 19.0725 24.9999 19.5125 24.9999 20C24.9999 20.4875 24.7624 20.9275 24.4886 21.3162C22.7724 23.7312 17.7399 28.1437 15.4886 30.0212L15.4874 30.0225C14.9574 30.465 14.1686 30.3925 13.7274 29.8625Z" fill="#807D79"/>
</svg>
