<svg width="40" height="40" viewBox="0 0 40 40" fill="none" xmlns="http://www.w3.org/2000/svg">
<path fill-rule="evenodd" clip-rule="evenodd" d="M20 35C33.125 35 35 33.125 35 20C35 6.875 33.125 5 20 5C6.875 5 5 6.875 5 20C5 33.125 6.875 35 20 35ZM14.3975 16.3875C13.9562 15.8575 13.1675 15.785 12.6375 16.2275C12.1075 16.6688 12.035 17.4575 12.4775 17.9875L12.4787 17.9887C12.7487 18.3137 13.02 18.6437 13.2938 18.9762C14.9175 20.9525 16.6162 23.02 18.6837 24.4888C19.0725 24.7625 19.5125 25 20 25C20.4875 25 20.9275 24.7625 21.3162 24.4888C23.415 22.9987 25.0512 21.0012 26.6725 19.0212C26.955 18.675 27.2375 18.33 27.5225 17.9887C27.965 17.4575 27.8925 16.6688 27.3625 16.2275C26.8325 15.785 26.0438 15.8575 25.6025 16.3875C25.3375 16.705 25.0737 17.0262 24.81 17.3475C23.3375 19.14 21.8538 20.945 20 22.355C18.1788 20.97 16.6588 19.125 15.19 17.3438C14.925 17.0225 14.6612 16.7025 14.3975 16.3875Z" fill="#807D79"/>
</svg>
