<svg width="40" height="40" viewBox="0 0 40 40" fill="none" xmlns="http://www.w3.org/2000/svg">
<path fill-rule="evenodd" clip-rule="evenodd" d="M35 20C35 6.875 33.125 5 20 5C6.875 5 5 6.875 5 20C5 33.125 6.875 35 20 35C33.125 35 35 33.125 35 20ZM16.3875 25.6025C15.8575 26.0438 15.785 26.8325 16.2275 27.3625C16.6688 27.8925 17.4575 27.965 17.9875 27.5225L17.9887 27.5212C18.3137 27.2512 18.6437 26.98 18.9762 26.7062C20.9525 25.0825 23.02 23.3838 24.4887 21.3162C24.7625 20.9275 25 20.4875 25 20C25 19.5125 24.7625 19.0725 24.4887 18.6837C22.9987 16.585 21.0012 14.9488 19.0212 13.3275C18.675 13.045 18.33 12.7625 17.9887 12.4775C17.4575 12.035 16.6687 12.1075 16.2275 12.6375C15.785 13.1675 15.8575 13.9562 16.3875 14.3975C16.705 14.6625 17.0262 14.9262 17.3475 15.19C19.14 16.6625 20.945 18.1462 22.355 20C20.97 21.8212 19.125 23.3412 17.3437 24.81C17.0225 25.075 16.7025 25.3388 16.3875 25.6025Z" fill="#807D79"/>
</svg>
