<svg width="40" height="40" viewBox="0 0 40 40" fill="none" xmlns="http://www.w3.org/2000/svg">
<path fill-rule="evenodd" clip-rule="evenodd" d="M20 5C6.875 5 5 6.875 5 20C5 33.125 6.875 35 20 35C33.125 35 35 33.125 35 20C35 6.875 33.125 5 20 5ZM25.6025 23.6125C26.0438 24.1425 26.8325 24.215 27.3625 23.7725C27.8925 23.3312 27.965 22.5425 27.5225 22.0125L27.5213 22.0112C27.2513 21.6863 26.98 21.3563 26.7063 21.0237C25.0825 19.0475 23.3838 16.98 21.3163 15.5112C20.9275 15.2375 20.4875 15 20 15C19.5125 15 19.0725 15.2375 18.6838 15.5112C16.585 17.0012 14.9488 18.9987 13.3275 20.9787C13.045 21.325 12.7625 21.67 12.4775 22.0112C12.035 22.5425 12.1075 23.3312 12.6375 23.7725C13.1675 24.215 13.9563 24.1425 14.3975 23.6125C14.6625 23.295 14.9263 22.9737 15.19 22.6525C16.6625 20.86 18.1463 19.055 20 17.645C21.8213 19.03 23.3413 20.875 24.81 22.6562C25.075 22.9775 25.3388 23.2975 25.6025 23.6125Z" fill="#807D79"/>
</svg>
