<svg width="40" height="40" viewBox="0 0 40 40" fill="none" xmlns="http://www.w3.org/2000/svg">
<path fill-rule="evenodd" clip-rule="evenodd" d="M29.0814 25.4911C28.5514 25.9336 27.7626 25.8611 27.3214 25.3311C25.6001 23.2748 21.3689 18.4998 19.2189 16.8636C17.0326 18.5273 12.8626 23.2386 11.1164 25.3311C10.6751 25.8611 9.8864 25.9336 9.3564 25.4911C8.82515 25.0498 8.7539 24.2611 9.1964 23.7298C11.1114 21.4311 15.4376 16.4811 17.9014 14.7298C18.2914 14.4561 18.7314 14.2186 19.2189 14.2186C19.7064 14.2186 20.1464 14.4561 20.5351 14.7298C22.9501 16.4461 27.3626 21.4786 29.2401 23.7298L29.2414 23.7311C29.6839 24.2611 29.6114 25.0498 29.0814 25.4911Z" fill="#807D79"/>
</svg>
