<svg width="40" height="40" viewBox="0 0 40 40" fill="none" xmlns="http://www.w3.org/2000/svg">
<path fill-rule="evenodd" clip-rule="evenodd" d="M29.0814 14.5085C28.5514 14.066 27.7626 14.1385 27.3214 14.6685C25.6001 16.7248 21.3689 21.4998 19.2189 23.136C17.0326 21.4723 12.8626 16.761 11.1164 14.6685C10.6751 14.1385 9.8864 14.066 9.3564 14.5085C8.82515 14.9498 8.7539 15.7385 9.1964 16.2698C11.1114 18.5685 15.4376 23.5185 17.9014 25.2698C18.2914 25.5435 18.7314 25.781 19.2189 25.781C19.7064 25.781 20.1464 25.5435 20.5351 25.2698C22.9501 23.5535 27.3626 18.521 29.2401 16.2698L29.2414 16.2685C29.6839 15.7385 29.6114 14.9498 29.0814 14.5085Z" fill="#807D79"/>
</svg>
