<svg width="40" height="40" viewBox="0 0 40 40" fill="none" xmlns="http://www.w3.org/2000/svg">
<path d="M5.83334 16.2H3.33334V29.05C3.33334 32.1 5.81666 34.5833 8.85 34.5833H31.15C34.1833 34.5833 36.6667 32.1 36.6667 29.05V16.2H34.1667H5.83334ZM9.51665 19.75H15.4833C16.1833 19.75 16.7333 20.3167 16.7333 21C16.7333 21.7 16.1833 22.25 15.4833 22.25H9.51665C8.81665 22.25 8.26665 21.7 8.26665 21C8.26665 20.3167 8.81665 19.75 9.51665 19.75Z" fill="#807D79"/>
<path d="M31.15 5.41667H8.85C5.81666 5.41667 3.33334 7.88333 3.33334 10.9333V13.7H5.83334H34.1667H36.6667V10.9333C36.6667 7.88333 34.1833 5.41667 31.15 5.41667Z" fill="#807D79"/>
</svg>
