<svg width="40" height="40" viewBox="0 0 40 40" fill="none" xmlns="http://www.w3.org/2000/svg">
<path fill-rule="evenodd" clip-rule="evenodd" d="M20 32.5C33.75 32.5 35 31.4587 35 20C35 8.54125 33.75 7.5 20 7.5C6.25 7.5 5 8.54125 5 20C5 31.4587 6.25 32.5 20 32.5ZM9.18625 14.0325C9.7 13.6025 10.465 13.6713 10.8938 14.1875C12.5625 16.1888 17.915 20.835 20 22.4275C22.12 20.8075 27.4137 16.2238 29.1063 14.1875C29.535 13.6713 30.3 13.6025 30.8137 14.0325C31.3287 14.4625 31.3975 15.2287 30.9688 15.745C30.1 16.7925 28.4438 18.4062 26.6825 20C28.4438 21.5938 30.1 23.2075 30.9688 24.255C31.3975 24.77 31.3287 25.5375 30.8137 25.9675C30.3 26.3975 29.535 26.3287 29.1063 25.8125C28.2787 24.815 26.5875 23.2088 24.8288 21.6388C23.4513 22.8263 22.1575 23.875 21.2775 24.5025C20.9 24.7687 20.4725 25 20 25C19.5275 25 19.1 24.7687 18.7238 24.5025C17.86 23.8875 16.5638 22.8337 15.18 21.6375C13.4125 23.2175 11.7113 24.8325 10.8938 25.8125C10.465 26.3287 9.7 26.3975 9.18625 25.9675C8.6725 25.5375 8.6025 24.7712 9.03125 24.255L9.0325 24.2537C9.88625 23.2262 11.555 21.605 13.3275 20C11.555 18.395 9.88625 16.7725 9.0325 15.7463L9.03125 15.745C8.6025 15.2287 8.6725 14.4625 9.18625 14.0325Z" fill="#807D79"/>
</svg>
