<svg width="40" height="40" viewBox="0 0 40 40" fill="none" xmlns="http://www.w3.org/2000/svg">
<path fill-rule="evenodd" clip-rule="evenodd" d="M11.875 15C11.1847 15 10.625 15.5596 10.625 16.25C10.625 16.9404 11.1847 17.5 11.875 17.5H28.125C28.8154 17.5 29.375 16.9404 29.375 16.25C29.375 15.5596 28.8154 15 28.125 15H11.875Z" fill="#807D79"/>
<path fill-rule="evenodd" clip-rule="evenodd" d="M13.125 21.25C13.125 20.5596 13.6846 20 14.375 20H25.625C26.3154 20 26.875 20.5596 26.875 21.25C26.875 21.9404 26.3154 22.5 25.625 22.5H14.375C13.6846 22.5 13.125 21.9404 13.125 21.25Z" fill="#807D79"/>
<path fill-rule="evenodd" clip-rule="evenodd" d="M16.875 25C16.1846 25 15.625 25.5596 15.625 26.25C15.625 26.9404 16.1846 27.5 16.875 27.5H23.125C23.8154 27.5 24.375 26.9404 24.375 26.25C24.375 25.5596 23.8154 25 23.125 25H16.875Z" fill="#807D79"/>
<path fill-rule="evenodd" clip-rule="evenodd" d="M20 35C28.2838 35 35 28.2838 35 20C35 11.7163 28.2838 5 20 5C11.7163 5 5 11.7163 5 20C5 28.2838 11.7163 35 20 35ZM20 32.5C26.9037 32.5 32.5 26.9037 32.5 20C32.5 13.0963 26.9037 7.5 20 7.5C13.0963 7.5 7.5 13.0963 7.5 20C7.5 26.9037 13.0963 32.5 20 32.5Z" fill="#807D79"/>
</svg>
