<svg width="40" height="40" viewBox="0 0 40 40" fill="none" xmlns="http://www.w3.org/2000/svg">
<path fill-rule="evenodd" clip-rule="evenodd" d="M19.9775 16.9725L18.21 15.205C16.095 13.0912 14.205 12.5 12.79 12.5C11.3275 12.5 10.0712 13.1287 9.245 13.955C7.255 15.945 6.88625 17.7325 7.15 19.315C7.44375 21.0737 8.59 22.975 10.3737 24.83C12.1637 26.7063 14.2587 28.2087 16.2725 29.35C17.2587 29.9137 18.0887 30.3113 18.85 30.6013C19.28 30.7688 19.6625 30.85 19.8612 30.8925L19.9775 30.9175L20.0925 30.8925C20.2912 30.85 20.675 30.7688 21.105 30.6013C21.865 30.3113 22.6962 29.9137 23.6825 29.35C25.6962 28.2087 27.7912 26.7063 29.5812 24.83C31.365 22.975 32.5112 21.0737 32.8037 19.315C33.0675 17.7325 32.7 15.945 30.71 13.955C29.7658 13.0225 28.4921 12.4997 27.165 12.5C25.75 12.5 23.86 13.0912 21.745 15.205L19.9775 16.9725ZM19.9775 13.4375C24.9775 8.4375 29.9775 9.6875 32.4775 12.1875C42.4775 22.1875 23.7275 33.4375 19.9775 33.4375C16.2275 33.4375 -2.5225 22.1875 7.4775 12.1875C9.9775 9.6875 14.9775 8.4375 19.9775 13.4375Z" fill="#807D79"/>
</svg>
