<svg width="40" height="40" viewBox="0 0 40 40" fill="none" xmlns="http://www.w3.org/2000/svg">
<path d="M35.4167 34.1667H33.2333V14.85C33.2333 12.4 31.8333 10.3 29.8167 9.23333V8C29.8167 5.41666 27.7167 3.33333 25.1333 3.33333H14.8667C12.2833 3.33333 10.1833 5.41666 10.1833 8V9.23333C8.16668 10.3 6.76668 12.4 6.76668 14.85V34.1667H4.58334C3.90001 34.1667 3.33334 34.7167 3.33334 35.4167C3.33334 36.1 3.90001 36.6667 4.58334 36.6667H35.4167C36.1 36.6667 36.6667 36.1 36.6667 35.4167C36.6667 34.7167 36.1 34.1667 35.4167 34.1667ZM16.5667 25.5333H14.8667C14.1667 25.5333 13.6167 24.9667 13.6167 24.2833V22.5667C13.6167 21.8667 14.1667 21.3167 14.8667 21.3167H16.5667C17.2667 21.3167 17.8167 21.8667 17.8167 22.5667V24.2833C17.8167 24.9667 17.2667 25.5333 16.5667 25.5333ZM13.6167 16.5667V14.85C13.6167 14.1667 14.1667 13.6 14.8667 13.6H16.5667C17.2667 13.6 17.8167 14.1667 17.8167 14.85V16.5667C17.8167 17.25 17.2667 17.8167 16.5667 17.8167H14.8667C14.1667 17.8167 13.6167 17.25 13.6167 16.5667ZM22.1833 34.1667H17.8167V31.9833C17.8167 30.7833 18.8 29.8 20 29.8C21.2 29.8 22.1833 30.7833 22.1833 31.9833V34.1667ZM26.3833 24.2833C26.3833 24.9667 25.8333 25.5333 25.1333 25.5333H23.4333C22.7333 25.5333 22.1833 24.9667 22.1833 24.2833V22.5667C22.1833 21.8667 22.7333 21.3167 23.4333 21.3167H25.1333C25.8333 21.3167 26.3833 21.8667 26.3833 22.5667V24.2833ZM26.3833 16.5667C26.3833 17.25 25.8333 17.8167 25.1333 17.8167H23.4333C22.7333 17.8167 22.1833 17.25 22.1833 16.5667V14.85C22.1833 14.1667 22.7333 13.6 23.4333 13.6H25.1333C25.8333 13.6 26.3833 14.1667 26.3833 14.85V16.5667ZM27.3167 8.46666H12.6833V8C12.6833 6.8 13.6667 5.83333 14.8667 5.83333H25.1333C26.3333 5.83333 27.3167 6.8 27.3167 8V8.46666Z" fill="#807D79"/>
</svg>
