<svg width="40" height="40" viewBox="0 0 40 40" fill="none" xmlns="http://www.w3.org/2000/svg">
<path d="M20 3.33333C10.8167 3.33333 3.33333 10.8167 3.33333 20C3.33333 29.1833 10.8167 36.6667 20 36.6667C29.1833 36.6667 36.6667 29.1833 36.6667 20C36.6667 10.8167 29.1833 3.33333 20 3.33333ZM20 26.8C19.3167 26.8 18.75 26.25 18.75 25.55C18.75 24.8667 19.3167 24.3 20 24.3C20.7 24.3 21.25 24.8667 21.25 25.55C21.25 26.25 20.7 26.8 20 26.8ZM21.25 20.9667C21.25 21.6667 20.6833 22.2167 20 22.2167C19.3167 22.2167 18.75 21.6667 18.75 20.9667V13.2C18.75 12.5 19.3167 11.95 20 11.95C20.6833 11.95 21.25 12.5 21.25 13.2V20.9667Z" fill="#807D79"/>
</svg>
