<svg width="40" height="40" viewBox="0 0 40 40" fill="none" xmlns="http://www.w3.org/2000/svg">
<path d="M20 36.6667C20.6333 36.6667 21.25 36.3833 21.6833 35.9167C22.7833 34.7 32.4166 23.7333 32.4166 15.75C32.4166 8.90001 26.85 3.33334 20 3.33334C13.15 3.33334 7.58331 8.90001 7.58331 15.75C7.58331 23.7333 17.2166 34.7 18.3166 35.9167C18.75 36.3833 19.3666 36.6667 20 36.6667ZM20 10.55C22.8666 10.55 25.2 12.8833 25.2 15.75C25.2 18.6167 22.8666 20.95 20 20.95C17.1333 20.95 14.8 18.6167 14.8 15.75C14.8 12.8833 17.1333 10.55 20 10.55Z" fill="#807D79"/>
</svg>
