<svg width="40" height="40" viewBox="0 0 40 40" fill="none" xmlns="http://www.w3.org/2000/svg">
<path fill-rule="evenodd" clip-rule="evenodd" d="M23.995 7.7975C23.05 7.55125 21.8488 7.49875 20 7.5C18.1513 7.49875 16.95 7.55125 16.0063 7.7975C15.2488 7.985 14.9738 8.22625 14.7863 8.48625C14.5263 8.85 14.2225 9.57625 14.02 11.125C13.8713 12.2437 13.7975 13.59 13.7675 15.2688C15.395 15.065 17.4388 15 20 15C22.5613 15 24.605 15.065 26.2325 15.2688C26.2025 13.59 26.1288 12.2437 25.9813 11.125C25.7788 9.57625 25.4738 8.85 25.2138 8.48625C25.0263 8.22625 24.7513 7.985 23.9938 7.7975H23.995ZM28.7413 15.8012C28.6175 6.12125 27.2538 5 20.0013 5C12.7488 5 11.385 6.12125 11.2613 15.8012C8.00627 16.9075 7.50127 19.44 7.50127 25C7.50127 33.75 8.75127 35 20.0013 35C31.2513 35 32.5013 33.75 32.5013 25C32.5013 19.44 31.9963 16.9075 28.7413 15.8012ZM21.2513 25.9163C21.7279 25.6411 22.1004 25.2163 22.311 24.7079C22.5216 24.1995 22.5585 23.6357 22.4161 23.1041C22.2736 22.5726 21.9598 22.1028 21.5232 21.7678C21.0866 21.4328 20.5516 21.2512 20.0013 21.2512C19.4509 21.2512 18.916 21.4328 18.4794 21.7678C18.0428 22.1028 17.7289 22.5726 17.5864 23.1041C17.444 23.6357 17.481 24.1995 17.6916 24.7079C17.9022 25.2163 18.2747 25.6411 18.7513 25.9163V27.5C18.7513 27.8315 18.883 28.1495 19.1174 28.3839C19.3518 28.6183 19.6697 28.75 20.0013 28.75C20.3328 28.75 20.6507 28.6183 20.8851 28.3839C21.1196 28.1495 21.2513 27.8315 21.2513 27.5V25.9163Z" fill="#807D79"/>
</svg>
