<svg width="40" height="40" viewBox="0 0 40 40" fill="none" xmlns="http://www.w3.org/2000/svg">
<path d="M36.3 20.8833L30.8333 26.3333C30.5968 26.5634 30.2799 26.6922 29.95 26.6922C29.62 26.6922 29.3031 26.5634 29.0667 26.3333C28.8326 26.099 28.7011 25.7812 28.7011 25.45C28.7011 25.1187 28.8326 24.801 29.0667 24.5667L32.4 21.2333H18.8C18.4685 21.2333 18.1505 21.1016 17.9161 20.8672C17.6817 20.6328 17.55 20.3148 17.55 19.9833C17.55 19.6518 17.6817 19.3339 17.9161 19.0994C18.1505 18.865 18.4685 18.7333 18.8 18.7333H32.3833L29.05 15.4C28.8159 15.1656 28.6844 14.8479 28.6844 14.5167C28.6844 14.1854 28.8159 13.8677 29.05 13.6333C29.1649 13.5154 29.3023 13.4217 29.454 13.3577C29.6057 13.2937 29.7687 13.2607 29.9333 13.2607C30.098 13.2607 30.261 13.2937 30.4127 13.3577C30.5644 13.4217 30.7017 13.5154 30.8167 13.6333L36.2833 19.0667C36.407 19.1883 36.5047 19.3337 36.5706 19.4941C36.6364 19.6545 36.6691 19.8266 36.6667 20C36.6533 20.3287 36.5233 20.6418 36.3 20.8833Z" fill="#807D79"/>
<path d="M15.8833 20C15.8833 19.2264 16.1906 18.4846 16.7376 17.9376C17.2846 17.3906 18.0265 17.0833 18.8 17.0833H28.3333L27.9 16.6667C27.6234 16.3986 27.404 16.0773 27.255 15.7221C27.1061 15.3669 27.0307 14.9852 27.0333 14.6C27.0313 14.2164 27.1054 13.8363 27.2513 13.4815C27.3972 13.1268 27.612 12.8045 27.8833 12.5333C28.016 12.3816 28.1671 12.2472 28.3333 12.1333V9.33333C28.2682 7.68425 27.5535 6.12787 26.3451 5.00381C25.1367 3.87974 23.5328 3.27923 21.8833 3.33333H9.80001C8.14889 3.27915 6.54316 3.87913 5.33213 5.00277C4.12111 6.1264 3.40275 7.68278 3.33334 9.33333V30.6667C3.40275 32.3172 4.12111 33.8736 5.33213 34.9972C6.54316 36.1209 8.14889 36.7208 9.80001 36.6667H21.8833C23.5328 36.7208 25.1367 36.1203 26.3451 34.9962C27.5535 33.8721 28.2682 32.3157 28.3333 30.6667V27.8667C28.1691 27.7631 28.018 27.64 27.8833 27.5C27.612 27.2288 27.3972 26.9066 27.2513 26.5518C27.1054 26.1971 27.0313 25.8169 27.0333 25.4333C27.0261 25.0426 27.0993 24.6545 27.2484 24.2932C27.3975 23.932 27.6193 23.6052 27.9 23.3333L28.3333 22.9H18.8C18.0293 22.9 17.29 22.595 16.7435 22.0516C16.197 21.5082 15.8877 20.7707 15.8833 20Z" fill="#807D79"/>
</svg>
