<svg width="40" height="40" viewBox="0 0 40 40" fill="none" xmlns="http://www.w3.org/2000/svg">
<path fill-rule="evenodd" clip-rule="evenodd" d="M30.2612 22.5925C29.515 20.9375 28.75 19.8675 28.75 18.125C28.75 10 23.125 8.75 20 8.75C16.875 8.75 11.25 10 11.25 18.125C11.25 19.8687 10.6275 20.625 9.73874 22.595C6.39874 30 12.5 30 20 30C27.5 30 33.6025 30 30.2612 22.5925Z" fill="#807D79"/>
<path fill-rule="evenodd" clip-rule="evenodd" d="M21.8113 7.60125C22.1775 7.6475 22.5238 7.38125 22.45 7.02C22.22 5.89 21.2063 5 20 5C18.7925 5 17.78 5.89 17.55 7.02C17.4763 7.38125 17.8225 7.6475 18.1888 7.60125C19.3825 7.44875 20.6175 7.44875 21.8113 7.60125Z" fill="#807D79"/>
<path fill-rule="evenodd" clip-rule="evenodd" d="M16.2038 31.1387C15.5475 31.095 14.9413 31.6012 15.1538 32.2237C15.7788 34.0562 18.17 35 20 35C21.8313 35 24.22 34.0562 24.8463 32.2237C25.0588 31.6012 24.4525 31.095 23.7963 31.1387C23.1025 31.185 22.3638 31.8575 21.725 32.1325C21.1138 32.3975 20.315 32.5 20 32.5C19.6238 32.5 18.8313 32.415 18.2388 32.1575C17.6 31.8812 16.8975 31.185 16.2038 31.1387Z" fill="#807D79"/>
</svg>
