<svg width="40" height="40" viewBox="0 0 40 40" fill="none" xmlns="http://www.w3.org/2000/svg">
<path d="M36.2998 9.86658L30.1331 3.69992C29.8998 3.46659 29.5831 3.33325 29.2498 3.33325C28.9164 3.33325 28.5998 3.46659 28.3664 3.69992L3.71643 28.3499C3.48309 28.5832 3.36642 28.8832 3.34976 29.2166L3.3331 35.4166C3.3331 35.7499 3.46643 36.0666 3.69977 36.2999C3.9331 36.5332 4.24977 36.6666 4.5831 36.6666L10.7831 36.6499C11.1164 36.6499 11.4331 36.5166 11.6498 36.2833L36.2998 11.6332C36.7831 11.1499 36.7831 10.3499 36.2998 9.86658ZM30.7498 13.6499C30.7164 13.6166 30.7164 13.5666 30.6664 13.5332L26.4664 9.33326C26.4331 9.29993 26.3831 9.28326 26.3498 9.24992L29.2498 6.34991L33.6498 10.7499L30.7498 13.6499Z" fill="#807D79"/>
</svg>
