<svg width="40" height="40" viewBox="0 0 40 40" fill="none" xmlns="http://www.w3.org/2000/svg">
<g clip-path="url(#clip0_504_8704)">
<path fill-rule="evenodd" clip-rule="evenodd" d="M13.3333 6.66667C16.6667 6.66667 18.3333 8.905 18.3333 11.6667C18.3333 14.0883 16.6667 15 16.6667 16.6667C16.6667 18.3333 21.6667 23.3333 23.3333 23.3333C25 23.3333 25.91 21.6667 28.3333 21.6667C31.095 21.6667 33.3333 23.3333 33.3333 26.6667C33.3333 30 30 33.3333 26.6667 33.3333C23.3333 33.3333 20 33.3333 13.3333 26.6667C6.66668 20 6.66668 16.6667 6.66668 13.3333C6.66668 10 10 6.66667 13.3333 6.66667Z" fill="#807D79" stroke="#807D79" stroke-width="3" stroke-linecap="round" stroke-linejoin="round"/>
</g>
<defs>
<clipPath id="clip0_504_8704">
<rect width="40" height="40" fill="white"/>
</clipPath>
</defs>
</svg>
