<svg width="40" height="40" viewBox="0 0 40 40" fill="none" xmlns="http://www.w3.org/2000/svg">
<path fill-rule="evenodd" clip-rule="evenodd" d="M35 19.965C35 33.715 33.75 34.965 20 34.965C6.25 34.965 5 33.715 5 19.965C5 6.215 6.25 4.965 20 4.965C33.75 4.965 35 6.215 35 19.965ZM23.1625 20.535C23.4113 20.2662 23.75 19.5687 23.75 17.465C23.75 15.3937 22.0712 13.715 20 13.715C17.9288 13.715 16.25 15.3937 16.25 17.465C16.25 19.5687 16.5887 20.2662 16.8375 20.535C17.04 20.755 17.6862 21.215 20 21.215C22.3137 21.215 22.96 20.755 23.1625 20.535ZM26.25 17.465C26.25 19.8062 25.8925 21.4312 24.7937 22.4362C26.8737 23.575 28.505 25.4312 29.3538 27.6725C29.51 28.0825 29.5462 28.5587 29.29 28.9137C28.58 29.9 27.1975 28.775 26.6275 27.7012C25.3675 25.33 22.8725 23.715 20 23.715C17.1275 23.715 14.6313 25.33 13.3725 27.7012C12.8025 28.775 11.42 29.9 10.71 28.9137C10.4537 28.5587 10.49 28.0825 10.645 27.6725C11.495 25.4312 13.1263 23.575 15.2063 22.4362C14.1075 21.4312 13.75 19.8062 13.75 17.465C13.75 14.0137 16.5487 11.215 20 11.215C23.4513 11.215 26.25 14.0137 26.25 17.465Z" fill="#807D79"/>
</svg>
