<svg width="40" height="40" viewBox="0 0 40 40" fill="none" xmlns="http://www.w3.org/2000/svg">
<path fill-rule="evenodd" clip-rule="evenodd" d="M17.5 11.25C14.0487 11.25 11.25 14.0487 11.25 17.5C11.25 20.9513 14.0487 23.75 17.5 23.75C19.2338 23.75 20.8013 23.045 21.935 21.9038C23.0588 20.7725 23.75 19.2188 23.75 17.5C23.75 14.0487 20.9513 11.25 17.5 11.25ZM8.75 17.5C8.75 12.6675 12.6675 8.75 17.5 8.75C22.3325 8.75 26.25 12.6675 26.25 17.5C26.25 19.0712 25.835 20.545 25.11 21.82C24.805 22.3587 24.845 23.0463 25.2812 23.485L30.2612 28.4937C30.7475 28.9825 30.7463 29.775 30.2563 30.2612C29.7663 30.7475 28.975 30.7463 28.4888 30.2563L23.5262 25.2662C23.0862 24.8237 22.3912 24.7825 21.85 25.0938C20.5687 25.8288 19.0825 26.25 17.5 26.25C12.6675 26.25 8.75 22.3325 8.75 17.5Z" fill="#807D79"/>
</svg>
