<svg width="40" height="40" viewBox="0 0 40 40" fill="none" xmlns="http://www.w3.org/2000/svg">
<path d="M20 23.0333C21.6753 23.0333 23.0333 21.6753 23.0333 20C23.0333 18.3247 21.6753 16.9667 20 16.9667C18.3247 16.9667 16.9667 18.3247 16.9667 20C16.9667 21.6753 18.3247 23.0333 20 23.0333Z" fill="#807D79"/>
<path d="M33.9 21.6333L33.05 21.15C32.45 20.8 32.3833 20.2333 32.3833 20C32.3833 19.7667 32.45 19.2 33.05 18.85L33.9 18.3667C34.7833 17.85 35.4167 17.0333 35.6667 16.05C35.9333 15.0667 35.8 14.0333 35.3 13.15L33.5833 10.1833C32.5333 8.36666 30.1833 7.73332 28.3667 8.78332L27.5167 9.26666C26.9167 9.61666 26.3834 9.38332 26.2 9.26666C26 9.16666 25.5334 8.81666 25.5334 8.13332V7.15C25.5334 5.05 23.8167 3.33333 21.7167 3.33333H18.2834C16.1834 3.33333 14.4667 5.05 14.4667 7.15V8.13332C14.4667 8.81666 14 9.16666 13.8167 9.26666C13.6167 9.38332 13.0833 9.61666 12.4833 9.26666L11.6334 8.78332C9.81671 7.73332 7.48333 8.36666 6.43333 10.1833L4.71667 13.15C3.65 14.9667 4.28338 17.3167 6.11671 18.3667L6.95005 18.85C7.55005 19.2 7.6167 19.7667 7.6167 20C7.6167 20.2333 7.55005 20.8 6.95005 21.15L6.11671 21.6333C4.28338 22.6833 3.65 25.0333 4.71667 26.85L6.43333 29.8167C6.93333 30.7 7.75002 31.3333 8.75002 31.6C9.73336 31.8667 10.75 31.7167 11.6334 31.2167L12.4833 30.7333C13.0833 30.3833 13.6167 30.6167 13.8167 30.7333C14 30.8333 14.4667 31.1833 14.4667 31.8667V32.85C14.4667 34.95 16.1834 36.6667 18.2834 36.6667H21.7167C23.8167 36.6667 25.5334 34.95 25.5334 32.85V31.8667C25.5334 31.1833 26 30.8333 26.2 30.7333C26.3834 30.6167 26.9167 30.3833 27.5167 30.7333L28.3667 31.2167C29.25 31.7167 30.2667 31.8667 31.2667 31.6C32.25 31.3333 33.0667 30.7 33.5833 29.8167L35.3 26.85C35.8 25.9667 35.9333 24.9333 35.6667 23.95C35.4167 22.9667 34.7833 22.15 33.9 21.6333ZM14.4667 20C14.4667 16.95 16.95 14.4667 20 14.4667C23.05 14.4667 25.5334 16.95 25.5334 20C25.5334 23.05 23.05 25.5333 20 25.5333C16.95 25.5333 14.4667 23.05 14.4667 20Z" fill="#807D79"/>
</svg>
