<svg width="40" height="40" viewBox="0 0 40 40" fill="none" xmlns="http://www.w3.org/2000/svg">
<path d="M35.4167 17.5167H32.3833L23.6167 8.44999C23.7333 8.06666 23.8167 7.66666 23.8167 7.23333C23.8167 5.08333 22.1 3.33333 20 3.33333C17.9 3.33333 16.1833 5.08333 16.1833 7.23333C16.1833 7.61666 16.25 7.98333 16.35 8.33333L7.48334 17.5167H4.58333C3.89999 17.5167 3.33333 18.0833 3.33333 18.7667C3.33333 19.4667 3.89999 20.0167 4.58333 20.0167H4.98334L5.96666 31.6167C6.25 34.4833 8.3 36.6667 10.7333 36.6667H29.2667C31.7 36.6667 33.75 34.4833 34.0333 31.5833L34.8667 20.0167H35.4167C36.1 20.0167 36.6667 19.4667 36.6667 18.7667C36.6667 18.0833 36.1 17.5167 35.4167 17.5167ZM20 5.83333C20.7333 5.83333 21.3167 6.46666 21.3167 7.23333C21.3167 8.01666 20.7333 8.64999 20 8.64999C19.2667 8.64999 18.6833 8.01666 18.6833 7.23333C18.6833 6.46666 19.2667 5.83333 20 5.83333ZM17.8 10.4333C18.4166 10.8833 19.1833 11.15 20 11.15C20.7833 11.15 21.5167 10.9 22.1167 10.4833L28.9 17.5167H10.95L17.8 10.4333ZM11.8 28.8667V25.3167C11.8 24.6167 12.3667 24.0667 13.05 24.0667C13.75 24.0667 14.3 24.6167 14.3 25.3167V28.8667C14.3 29.55 13.75 30.1167 13.05 30.1167C12.3667 30.1167 11.8 29.55 11.8 28.8667ZM18.65 28.8667V25.3167C18.65 24.6167 19.2167 24.0667 19.9 24.0667C20.6 24.0667 21.15 24.6167 21.15 25.3167V28.8667C21.15 29.55 20.6 30.1167 19.9 30.1167C19.2167 30.1167 18.65 29.55 18.65 28.8667ZM28 28.8667C28 29.55 27.45 30.1167 26.75 30.1167C26.0667 30.1167 25.5 29.55 25.5 28.8667V25.3167C25.5 24.6167 26.0667 24.0667 26.75 24.0667C27.45 24.0667 28 24.6167 28 25.3167V28.8667Z" fill="#807D79"/>
</svg>
