<svg width="40" height="40" viewBox="0 0 40 40" fill="none" xmlns="http://www.w3.org/2000/svg">
<path fill-rule="evenodd" clip-rule="evenodd" d="M10.0868 20.1843C10.0503 20.1001 10.0285 20.0394 10.0156 20C10.0285 19.9606 10.0503 19.8999 10.0868 19.8157C10.1898 19.5749 10.3278 19.3205 10.549 18.9822C11.0056 18.2767 11.6351 17.5043 12.5246 16.7121C14.3332 15.0806 16.734 13.71 20 13.75C23.266 13.71 25.6669 15.0806 27.4754 16.7121C28.3649 17.5043 28.9944 18.2767 29.451 18.9822C29.6723 19.3205 29.8102 19.5749 29.9132 19.8157C29.9497 19.8999 29.9715 19.9606 29.9844 20C29.9715 20.0394 29.9497 20.1001 29.9132 20.1843C29.8102 20.4251 29.6723 20.6795 29.451 21.0178C28.9944 21.7233 28.3649 22.4957 27.4754 23.2879C25.6669 24.9194 23.266 26.29 20 26.25C16.734 26.29 14.3332 24.9194 12.5246 23.2879C11.6351 22.4957 11.0056 21.7233 10.549 21.0178C10.3278 20.6795 10.1898 20.4251 10.0868 20.1843ZM20 11.25C16.1069 11.29 12.8828 13.0444 10.856 14.8504C9.82798 15.7769 8.98729 16.8014 8.45318 17.6193C8.179 18.0427 7.94145 18.4818 7.79274 18.822C7.65063 19.1501 7.5 19.5786 7.5 20C7.5 20.4214 7.65063 20.8499 7.79274 21.178C7.94145 21.5182 8.179 21.9572 8.45318 22.3807C8.98729 23.1986 9.82798 24.2231 10.856 25.1496C12.8828 26.9556 16.1069 28.71 20 28.75C23.8931 28.71 27.1173 26.9556 29.144 25.1496C30.172 24.2231 31.0127 23.1986 31.5469 22.3807C31.821 21.9572 32.0585 21.5182 32.2073 21.178C32.3494 20.8499 32.5 20.4214 32.5 20C32.5 19.5786 32.3494 19.1501 32.2073 18.822C32.0585 18.4818 31.821 18.0427 31.5469 17.6193C31.0127 16.8014 30.172 15.7769 29.144 14.8504C27.1173 13.0444 23.8931 11.29 20 11.25ZM23.125 19.375C23.3182 19.375 23.5064 19.3531 23.687 19.3116C23.7284 19.5348 23.75 19.7649 23.75 20C23.75 22.0711 22.0711 23.75 20 23.75C17.9289 23.75 16.25 22.0711 16.25 20C16.25 17.9289 17.9289 16.25 20 16.25C20.2351 16.25 20.4653 16.2716 20.6884 16.313C20.6469 16.4937 20.625 16.6817 20.625 16.875C20.625 18.2557 21.7443 19.375 23.125 19.375Z" fill="#807D79"/>
</svg>
