<svg width="40" height="40" viewBox="0 0 40 40" fill="none" xmlns="http://www.w3.org/2000/svg">
<path fill-rule="evenodd" clip-rule="evenodd" d="M30.1149 30.3294C30.603 29.8411 30.603 29.0497 30.1149 28.5615L27.7857 26.2324C28.2776 25.885 28.7307 25.52 29.144 25.1496C30.1854 24.2161 30.9921 23.2338 31.5469 22.3808C31.8237 21.9549 32.0477 21.5463 32.2072 21.178C32.3494 20.8499 32.5 20.4214 32.5 20C32.5 19.5785 32.3494 19.1501 32.2072 18.822C32.0477 18.4538 31.8237 18.0451 31.5469 17.6193C30.9921 16.7663 30.1854 15.7838 29.144 14.8504C27.0609 12.9834 23.9636 11.25 20 11.25C17.7716 11.25 15.8171 11.7979 14.1627 12.6094L10.6694 9.11611C10.1813 8.62796 9.38979 8.62796 8.90164 9.11611C8.41348 9.60427 8.41349 10.3957 8.90164 10.8839L28.3471 30.3294C28.8352 30.8175 29.6267 30.8175 30.1149 30.3294ZM16.0561 14.5028L18.2407 16.6874C18.7654 16.4082 19.3642 16.25 20 16.25C22.0711 16.25 23.75 17.9289 23.75 20C23.75 20.6358 23.5917 21.2346 23.3125 21.7593L25.9867 24.4335C26.5321 24.0766 27.0289 23.688 27.4754 23.2879C28.3516 22.5026 29.015 21.6881 29.451 21.0177C29.6695 20.6818 29.821 20.3972 29.9132 20.1843C29.9497 20.1001 29.9715 20.0394 29.9844 20C29.9715 19.9606 29.9497 19.8999 29.9132 19.8157C29.821 19.6028 29.6695 19.3182 29.451 18.9823C29.015 18.3118 28.3516 17.4974 27.4754 16.7121C25.7232 15.1416 23.1955 13.75 20 13.75C18.5432 13.75 17.2251 14.0392 16.0561 14.5028Z" fill="#807D79"/>
<path fill-rule="evenodd" clip-rule="evenodd" d="M10.549 18.9823C10.7806 18.6261 11.0764 18.2293 11.4343 17.8177C11.6576 17.5609 11.6552 17.173 11.4145 16.9323L10.5291 16.0468C10.2821 15.7999 9.87965 15.8024 9.64779 16.0635C9.16946 16.6021 8.77019 17.1318 8.45318 17.6193C8.17627 18.0451 7.95224 18.4538 7.79274 18.822C7.65063 19.1501 7.5 19.5785 7.5 20C7.5 20.4214 7.65063 20.8499 7.79274 21.178C7.95224 21.5462 8.17627 21.9549 8.45318 22.3807C9.00794 23.2337 9.81464 24.2161 10.856 25.1496C12.9391 27.0166 16.0364 28.75 20 28.75C20.6195 28.75 21.2179 28.7076 21.7946 28.629C22.2823 28.5626 22.4561 27.9739 22.1081 27.6259L20.9094 26.4271C20.7821 26.2999 20.6062 26.2346 20.4264 26.2417C20.2856 26.2472 20.1435 26.25 20 26.25C16.8045 26.25 14.2768 24.8584 12.5246 23.2879C11.6484 22.5026 10.985 21.6881 10.549 21.0177C10.3305 20.6818 10.179 20.3972 10.0868 20.1843C10.0503 20.1001 10.0285 20.0394 10.0156 20C10.0285 19.9606 10.0503 19.8999 10.0868 19.8157C10.179 19.6028 10.3305 19.3182 10.549 18.9823Z" fill="#807D79"/>
</svg>
