<svg width="45" height="42" viewBox="0 0 45 42" fill="none" xmlns="http://www.w3.org/2000/svg">
<path fill-rule="evenodd" clip-rule="evenodd" d="M40.5808 14.6799C31.5008 -3.72012 12.5108 -3.72012 3.43078 14.6799C-13.3292 48.6499 57.3508 48.6499 40.5808 14.6799Z" fill="white"/>
<path d="M22.0101 41.01C13.1701 41.01 5.5401 37.57 2.1001 32.01C0.0200951 28.66 -1.5699 22.87 2.6701 14.27C7.1501 5.19999 14.1901 0 22.0101 0C29.8301 0 36.8701 5.19999 41.3401 14.27C45.5801 22.87 44.0001 28.66 41.9101 32.01C38.4701 37.57 30.8501 41.01 22.0101 41.01ZM22.0101 1.73C14.8701 1.73 8.3701 6.58 4.2001 15.05C1.1101 21.3 0.890097 26.86 3.5401 31.14C6.6801 36.14 13.7501 39.31 22.0101 39.31C30.2701 39.31 37.3401 36.18 40.4701 31.14C43.1301 26.86 42.9001 21.3 39.8201 15.05C35.6401 6.58 29.1201 1.73 22.0101 1.73Z" fill="#80622E"/>
<path fill-rule="evenodd" clip-rule="evenodd" d="M43.0498 22.47C40.6498 40.88 3.35978 40.88 0.959776 22.47C-1.88022 46.06 45.8798 46.06 43.0498 22.47Z" fill="#80622E"/>
<path d="M9.27957 11.5C9.15305 11.4986 9.03035 11.4565 8.92956 11.38C8.86497 11.3353 8.81014 11.278 8.76838 11.2114C8.72663 11.1449 8.69883 11.0705 8.68667 10.9929C8.67452 10.9153 8.67825 10.836 8.69766 10.7599C8.71707 10.6838 8.75173 10.6124 8.79956 10.55L9.18957 10.04C9.23685 9.97831 9.29581 9.92652 9.36311 9.88758C9.43041 9.84865 9.50471 9.82335 9.58179 9.81314C9.65886 9.80292 9.73718 9.80799 9.8123 9.82804C9.88741 9.8481 9.95784 9.88276 10.0196 9.93003C10.0813 9.97731 10.1331 10.0363 10.172 10.1036C10.211 10.1709 10.2362 10.2452 10.2465 10.3223C10.2567 10.3993 10.2516 10.4777 10.2316 10.5528C10.2115 10.6279 10.1769 10.6983 10.1296 10.76C9.99958 10.92 9.87957 11.09 9.75957 11.25C9.70419 11.3258 9.63207 11.3878 9.54881 11.4312C9.46556 11.4745 9.37342 11.4981 9.27957 11.5ZM10.8296 9.59004C10.6827 9.589 10.5409 9.53585 10.4296 9.44004C10.3196 9.32789 10.2581 9.17708 10.2581 9.02003C10.2581 8.86298 10.3196 8.71219 10.4296 8.60003C12.6513 6.06156 15.585 4.2498 18.8496 3.40004C18.9251 3.38222 19.0034 3.37948 19.08 3.39196C19.1565 3.40444 19.2299 3.4319 19.2958 3.47277C19.3618 3.51364 19.419 3.56712 19.4643 3.63014C19.5095 3.69316 19.5419 3.76449 19.5596 3.84004C19.5958 3.99381 19.5699 4.15565 19.4875 4.29045C19.4051 4.42524 19.2729 4.52212 19.1196 4.56004C16.0921 5.35902 13.3724 7.04445 11.3096 9.40004C11.2492 9.46601 11.1746 9.5174 11.0915 9.55032C11.0083 9.58324 10.9187 9.59682 10.8296 9.59004Z" fill="#80622E"/>
<path d="M22.0101 27.14C17.4101 27.14 13.2501 25.82 11.1701 23.69C11.0903 23.6118 11.0268 23.5184 10.9836 23.4154C10.9403 23.3124 10.918 23.2017 10.918 23.09C10.918 22.9782 10.9403 22.8676 10.9836 22.7646C11.0268 22.6616 11.0903 22.5682 11.1701 22.49C11.3294 22.3312 11.5452 22.2421 11.7701 22.2421C11.995 22.2421 12.2108 22.3312 12.3701 22.49C14.1201 24.27 17.9001 25.43 22.0001 25.43C26.1001 25.43 29.8801 24.27 31.6201 22.49C31.7811 22.3306 31.9985 22.2412 32.2251 22.2412C32.4517 22.2412 32.6691 22.3306 32.8301 22.49C32.9888 22.6493 33.078 22.8651 33.078 23.09C33.078 23.3149 32.9888 23.5307 32.8301 23.69C30.7701 25.84 26.6101 27.14 22.0101 27.14Z" fill="#80622E"/>
<path d="M9.73027 24.6401C9.52286 24.6391 9.32297 24.5622 9.16826 24.4241C9.01354 24.286 8.91467 24.096 8.89027 23.8901C8.87638 23.7789 8.88487 23.666 8.91525 23.5581C8.94563 23.4503 8.99728 23.3496 9.06717 23.262C9.13706 23.1744 9.22376 23.1017 9.32219 23.0481C9.42061 22.9945 9.52877 22.9612 9.64027 22.95C10.1147 22.8926 10.5652 22.7093 10.945 22.4192C11.3248 22.1291 11.62 21.7427 11.8003 21.3001C11.8364 21.1943 11.893 21.0968 11.9668 21.0129C12.0406 20.9291 12.1302 20.8606 12.2305 20.8114C12.3308 20.7622 12.4398 20.7332 12.5513 20.7261C12.6628 20.719 12.7746 20.7339 12.8803 20.77C12.986 20.8062 13.0835 20.8627 13.1674 20.9366C13.2512 21.0104 13.3197 21.1 13.369 21.2003C13.4182 21.3006 13.4471 21.4096 13.4542 21.521C13.4613 21.6325 13.4464 21.7443 13.4103 21.85C13.1234 22.5965 12.6385 23.2507 12.0078 23.7423C11.377 24.2339 10.6242 24.5442 9.83027 24.6401H9.73027Z" fill="#80622E"/>
<path d="M34.2799 24.6401H34.1799C33.3867 24.5457 32.6345 24.2358 32.0051 23.7439C31.3757 23.252 30.8931 22.597 30.6099 21.8501C30.5545 21.643 30.5795 21.4226 30.6797 21.2332C30.7799 21.0437 30.948 20.899 31.1503 20.8282C31.3526 20.7574 31.5742 20.7657 31.7707 20.8513C31.9672 20.937 32.1241 21.0937 32.2099 21.2901C32.3913 21.7348 32.688 22.123 33.0694 22.4148C33.4509 22.7066 33.9033 22.8914 34.3799 22.9501C34.5896 22.9818 34.7798 23.0907 34.9133 23.2555C35.0467 23.4203 35.1138 23.629 35.1013 23.8407C35.0887 24.0524 34.9976 24.2518 34.8456 24.3997C34.6936 24.5475 34.4919 24.6333 34.2799 24.6401Z" fill="#80622E"/>
<path d="M11.1204 16.5901C10.8968 16.5911 10.6816 16.5051 10.5204 16.3501C10.3616 16.1908 10.2725 15.975 10.2725 15.7501C10.2725 15.5252 10.3616 15.3094 10.5204 15.1501C11.6194 14.3388 12.9494 13.9011 14.3154 13.9011C15.6814 13.9011 17.0114 14.3388 18.1104 15.1501C18.2692 15.3094 18.3583 15.5252 18.3583 15.7501C18.3583 15.975 18.2692 16.1908 18.1104 16.3501C17.9494 16.5095 17.732 16.5989 17.5054 16.5989C17.2788 16.5989 17.0614 16.5095 16.9004 16.3501C16.1546 15.8067 15.2408 15.5446 14.3204 15.6101C13.4028 15.5417 12.4911 15.8043 11.7504 16.3501C11.6673 16.431 11.5685 16.494 11.4602 16.5352C11.3519 16.5765 11.2362 16.5952 11.1204 16.5901Z" fill="#80622E"/>
<path d="M26.5397 16.5901C26.3718 16.5925 26.207 16.5446 26.0666 16.4524C25.9262 16.3603 25.8167 16.2282 25.7521 16.0732C25.6875 15.9182 25.6709 15.7474 25.7043 15.5829C25.7378 15.4183 25.8197 15.2676 25.9397 15.1501C27.0365 14.3381 28.3651 13.8999 29.7297 13.8999C31.0943 13.8999 32.4229 14.3381 33.5197 15.1501C33.6625 15.3133 33.7375 15.5249 33.7294 15.7416C33.7213 15.9583 33.6306 16.1637 33.476 16.3158C33.3214 16.4679 33.1145 16.5551 32.8977 16.5596C32.6809 16.5641 32.4705 16.4856 32.3097 16.3401C31.5359 15.8567 30.642 15.6005 29.7297 15.6005C28.8174 15.6005 27.9235 15.8567 27.1497 16.3401C27.0698 16.4202 26.9747 16.4837 26.8699 16.5266C26.7652 16.5695 26.6529 16.5911 26.5397 16.5901Z" fill="#80622E"/>
</svg>
