<svg width="45" height="42" viewBox="0 0 45 42" fill="none" xmlns="http://www.w3.org/2000/svg">
<path fill-rule="evenodd" clip-rule="evenodd" d="M40.5808 14.6799C31.5008 -3.72012 12.5108 -3.72012 3.43078 14.6799C-13.3292 48.6599 57.3508 48.6599 40.5808 14.6799Z" fill="white"/>
<path d="M22.0101 41.02C13.1701 41.02 5.5401 37.58 2.1001 32.02C0.0200951 28.67 -1.5699 22.87 2.6701 14.28C7.1501 5.21 14.1901 0 22.0101 0C29.8301 0 36.8701 5.21 41.3401 14.28C45.5801 22.87 44.0001 28.67 41.9101 32.02C38.4701 37.55 30.8501 41.02 22.0101 41.02ZM22.0101 1.73C14.8701 1.73 8.3701 6.59 4.2001 15.06C1.1101 21.31 0.890097 26.87 3.5401 31.15C6.6801 36.15 13.7501 39.32 22.0101 39.32C30.2701 39.32 37.3401 36.19 40.4701 31.15C43.1301 26.87 42.9001 21.31 39.8201 15.06C35.6401 6.55 29.1201 1.73 22.0101 1.73Z" fill="#80622E"/>
<path fill-rule="evenodd" clip-rule="evenodd" d="M43.0498 22.48C40.6498 40.89 3.35978 40.89 0.959776 22.48C-1.88022 46.06 45.8798 46.06 43.0498 22.48Z" fill="#80622E"/>
<path d="M9.27957 11.5498C9.15305 11.5484 9.03035 11.5063 8.92956 11.4298C8.86497 11.3851 8.81014 11.3278 8.76838 11.2612C8.72663 11.1947 8.69883 11.1203 8.68667 11.0427C8.67452 10.9651 8.67825 10.8858 8.69766 10.8097C8.71707 10.7336 8.75173 10.6622 8.79956 10.5998L9.17956 10.0898C9.28137 9.98358 9.41868 9.91843 9.56538 9.9068C9.71209 9.89516 9.85795 9.93785 9.97523 10.0267C10.0925 10.1156 10.1731 10.2445 10.2015 10.3889C10.23 10.5333 10.2044 10.6831 10.1296 10.8098C9.99958 10.9698 9.87957 11.1298 9.75957 11.2998C9.70419 11.3756 9.63207 11.4376 9.54881 11.481C9.46556 11.5244 9.37342 11.5479 9.27957 11.5498ZM10.8296 9.63985C10.6806 9.63985 10.5374 9.58256 10.4296 9.47985C10.3196 9.36769 10.2581 9.2169 10.2581 9.05984C10.2581 8.90279 10.3196 8.752 10.4296 8.63985C12.6546 6.10744 15.5874 4.29972 18.8496 3.44985C18.9251 3.43203 19.0034 3.42928 19.08 3.44176C19.1565 3.45424 19.2299 3.48171 19.2958 3.52258C19.3618 3.56345 19.419 3.61692 19.4643 3.67994C19.5095 3.74297 19.5419 3.81429 19.5596 3.88985C19.5791 4.03456 19.5452 4.18143 19.4642 4.30293C19.3832 4.42443 19.2607 4.51222 19.1196 4.54985C16.0904 5.34485 13.3696 7.03096 11.3096 9.38985C11.2511 9.45945 11.1774 9.51462 11.0941 9.55105C11.0109 9.58747 10.9203 9.60418 10.8296 9.59985V9.63985Z" fill="#80622E"/>
<path fill-rule="evenodd" clip-rule="evenodd" d="M31.2499 21.3599C31.2906 22.5995 31.0817 23.8347 30.6354 24.992C30.1892 26.1492 29.5148 27.2049 28.6522 28.0963C27.7897 28.9876 26.7568 29.6964 25.6148 30.1805C24.4729 30.6645 23.2452 30.914 22.0049 30.914C20.7646 30.914 19.5369 30.6645 18.3949 30.1805C17.253 29.6964 16.22 28.9876 15.3575 28.0963C14.495 27.2049 13.8205 26.1492 13.3743 24.992C12.928 23.8347 12.7191 22.5995 12.7599 21.3599H31.2499Z" fill="white"/>
<path d="M22.0102 31.46C19.3323 31.4574 16.7649 30.3924 14.8713 28.4989C12.9778 26.6053 11.9128 24.0379 11.9102 21.36C11.9102 21.1346 11.9997 20.9184 12.1591 20.759C12.3185 20.5996 12.5347 20.51 12.7602 20.51H31.2502C31.4756 20.51 31.6918 20.5996 31.8512 20.759C32.0106 20.9184 32.1002 21.1346 32.1002 21.36C32.0975 24.0362 31.0339 26.6021 29.1425 28.4953C27.2512 30.3886 24.6863 31.4547 22.0102 31.46ZM13.6501 22.21C13.8649 24.2764 14.8378 26.1898 16.3808 27.5808C17.9239 28.9718 19.9277 29.7417 22.0052 29.7417C24.0826 29.7417 26.0864 28.9718 27.6295 27.5808C29.1725 26.1898 30.1454 24.2764 30.3601 22.21H13.6501Z" fill="#80622E"/>
<path d="M11.1204 16.74C10.8968 16.741 10.6816 16.655 10.5204 16.5C10.3616 16.3407 10.2725 16.1249 10.2725 15.9C10.2725 15.6751 10.3616 15.4593 10.5204 15.3C11.6194 14.4888 12.9494 14.051 14.3154 14.051C15.6814 14.051 17.0114 14.4888 18.1104 15.3C18.2692 15.4593 18.3583 15.6751 18.3583 15.9C18.3583 16.1249 18.2692 16.3407 18.1104 16.5C17.9494 16.6594 17.732 16.7488 17.5054 16.7488C17.2788 16.7488 17.0614 16.6594 16.9004 16.5C16.1546 15.9566 15.2408 15.6945 14.3204 15.76C13.4028 15.6916 12.4911 15.9542 11.7504 16.5C11.6673 16.5809 11.5685 16.6439 11.4602 16.6851C11.3519 16.7264 11.2362 16.7451 11.1204 16.74Z" fill="#80622E"/>
<path d="M26.5397 16.74C26.3718 16.7424 26.207 16.6945 26.0666 16.6023C25.9262 16.5102 25.8167 16.3781 25.7521 16.2231C25.6875 16.0681 25.6709 15.8973 25.7043 15.7328C25.7378 15.5682 25.8197 15.4175 25.9397 15.3C27.0365 14.488 28.3651 14.0498 29.7297 14.0498C31.0943 14.0498 32.4229 14.488 33.5197 15.3C33.6056 15.3776 33.6747 15.4721 33.7227 15.5774C33.7708 15.6828 33.7968 15.7968 33.7992 15.9126C33.8016 16.0283 33.7803 16.1434 33.7367 16.2506C33.6931 16.3579 33.628 16.4551 33.5454 16.5363C33.4629 16.6175 33.3646 16.6809 33.2566 16.7228C33.1487 16.7646 33.0333 16.784 32.9176 16.7797C32.8019 16.7753 32.6882 16.7474 32.5837 16.6976C32.4792 16.6478 32.3859 16.5771 32.3097 16.49C31.5359 16.0066 30.642 15.7504 29.7297 15.7504C28.8174 15.7504 27.9235 16.0066 27.1497 16.49C27.0698 16.5702 26.9747 16.6336 26.8699 16.6765C26.7652 16.7194 26.6529 16.741 26.5397 16.74Z" fill="#80622E"/>
</svg>
